<?xml version="1.0" encoding="UTF-8"?>
<svg width="200px" height="200px" viewBox="0 0 155 185" version="1.1" xmlns="http://www.w3.org/2000/svg" xmlns:xlink="http://www.w3.org/1999/xlink">
    <title>Case Management</title>
    <g id="Page-1" stroke="none" stroke-width="1" fill="none" fill-rule="evenodd">
        <g id="DataVisor-Product-Logos" transform="translate(-308.000000, -3189.000000)">
            <g id="Case-Management-Dark" transform="translate(311.000000, 3192.000000)">
                <g id="Group-4" stroke="#FFFFFF" stroke-width="4.36590004">
                    <path d="M1.24740001,112.266001 L74.8440007,112.266001 L74.8440007,112.266001 L74.8440007,179.625602 L1.24740001,179.625602 C0.558480008,179.625602 -1.03517281e-14,179.067122 0,178.378202 L0,113.513401 C-8.43683677e-17,112.824481 0.558480008,112.266001 1.24740001,112.266001 Z" id="Rectangle" fill="#011E41"></path>
                    <rect id="Rectangle-Copy-22" fill="#6DBE4B" x="74.8440007" y="0" width="37.4220004" height="37.4220004" rx="1.24740001"></rect>
                    <rect id="Rectangle-Copy-20" fill="#6DBE4B" x="112.266001" y="37.4220004" width="37.4220004" height="37.4220004" rx="1.24740001"></rect>
                    <rect id="Rectangle-Copy-32" fill="#011E41" x="0" y="56.1330005" width="37.4220004" height="37.4220004" rx="1.24740001"></rect>
                    <rect id="Rectangle-Copy-35" fill="#011E41" x="37.4220004" y="18.7110002" width="37.4220004" height="37.4220004" rx="1.24740001"></rect>
                    <rect id="Rectangle-Copy-37" fill="#6DBE4B" x="37.4220004" y="74.8440007" width="37.4220004" height="37.4220004" rx="1.24740001"></rect>
                    <rect id="Rectangle-Copy-36" fill="#6DBE4B" x="0" y="18.7110002" width="37.4220004" height="37.4220004" rx="1.24740001"></rect>
                    <path d="M74.8440007,74.8440007 L149.688001,74.8440007 L149.688001,178.378202 C149.688001,179.067122 149.129521,179.625602 148.440601,179.625602 L74.8440007,179.625602 L74.8440007,179.625602 L74.8440007,74.8440007 Z" id="Rectangle-Copy-18" fill="#6DBE4B"></path>
                </g>
            </g>
        </g>
    </g>
</svg>
