<?xml version="1.0" encoding="UTF-8"?>
<svg width="200px" height="200px" viewBox="0 0 200 200" version="1.1" xmlns="http://www.w3.org/2000/svg" xmlns:xlink="http://www.w3.org/1999/xlink">
    <!-- Generator: Sketch 61 (89581) - https://sketch.com -->
    <title>dEdge Dark</title>
    <desc>Created with Sketch.</desc>
    <g id="Page-1" stroke="none" stroke-width="1" fill="none" fill-rule="evenodd" transform="scale(0.958)">
        <g id="05" transform="translate(-209.000000, -2014.000000)">
            <g id="dEdge-Dark" transform="translate(226.000000, 2017.000000)">
                <g id="Group-7-Copy" stroke="#FFFFFF" stroke-linecap="square" stroke-width="6.5">
                    <path d="M0.642432512,51.0522659 L40.762348,73.8006715 C40.892715,73.874591 41.0524887,73.8738991 41.1822107,73.7988533 L91.8485161,44.4877676 C91.9915109,44.4050433 92.0731572,44.2465503 92.0574948,44.0820952 L87.92151,0.654254489 C87.8993924,0.42202025 87.6931995,0.251687015 87.4609653,0.273804562 C87.400698,0.2795443 87.3423687,0.298171882 87.2899299,0.328425058 L0.639693829,50.3189459 C0.437625657,50.4355237 0.36832201,50.6938373 0.484899802,50.8959054 C0.52253325,50.9611367 0.576921932,51.0151207 0.642432512,51.0522659 Z" id="Line-Copy-2" fill="#A1D683"></path>
                    <path d="M56.3839939,82.7345419 L88.0686679,101.251559 C88.2002307,101.328447 88.3630076,101.328512 88.4946325,101.251731 L138.348784,72.1701425 C138.550291,72.052597 138.618355,71.7939539 138.500809,71.5924472 C138.464565,71.5303141 138.413054,71.4784662 138.351159,71.4418175 L107.079932,52.9259596 C106.948536,52.8481596 106.78538,52.8473337 106.653204,52.9237994 L56.3856049,82.0042286 C56.1836757,82.1210471 56.11468,82.3794431 56.2314985,82.5813722 C56.2681864,82.6447899 56.3207387,82.6975745 56.3839939,82.7345419 Z" id="Line-Copy-3" fill="#95D4E9"></path>
                    <path d="M0.211317236,152.185914 L87.2257172,202.386529 C87.4277854,202.503107 87.686099,202.433803 87.8026768,202.231735 C87.8397066,202.16755 87.8592,202.094753 87.8592,202.020652 L87.8592,156.530143 C87.8592,156.380162 87.7796704,156.241429 87.6502473,156.16564 L41.1817527,128.95436 C41.0523296,128.878571 40.9728,128.739838 40.9728,128.589857 L40.9728,74.1660713 C40.9728,74.0139862 40.891042,73.8736424 40.7587441,73.7986281 L0.630744081,51.0456384 C0.427810807,50.9305731 0.170022061,51.0018042 0.054956802,51.2047375 C0.0189349918,51.2682669 -5.52980504e-14,51.3400504 -5.68434189e-14,51.4130816 L-5.68434189e-14,151.820037 C-5.01201804e-14,151.970994 0.0805601588,152.110477 0.211317236,152.185914 Z" id="Line-2-Copy" fill="#6DBE4B"></path>
                    <path d="M87.8592,156.531627 L87.8592,202.020652 C87.8592,202.253937 88.0483149,202.443052 88.2816,202.443052 C88.3557008,202.443052 88.4284977,202.423559 88.4926828,202.386529 L175.139348,152.398068 C175.341417,152.28149 175.41072,152.023177 175.294143,151.821109 C175.26279,151.766764 175.219725,151.720086 175.168076,151.684466 L139.189602,126.871725 C139.05525,126.779069 138.879541,126.7721 138.738273,126.853826 L88.0700814,156.166002 C87.93957,156.241505 87.8592,156.38085 87.8592,156.531627 Z" id="Line-3-Copy" fill="#011E41"></path>
                    <path d="M56.3923295,82.7394134 L88.0723295,101.253699 C88.2019321,101.329441 88.2816,101.468275 88.2816,101.618387 L88.2816,139.078298 C88.2816,139.311583 88.0924851,139.500698 87.8592,139.500698 C87.7842965,139.500698 87.7107401,139.480781 87.6460705,139.442987 L55.9660705,120.928701 C55.8364679,120.852959 55.7568,120.714125 55.7568,120.564013 L55.7568,83.1041017 C55.7568,82.8708166 55.9459149,82.6817017 56.1792,82.6817017 C56.2541035,82.6817017 56.3276599,82.7016194 56.3923295,82.7394134 Z" id="Line-4-Copy" fill="#011E41"></path>
                    <path d="M88.0704,101.408797 L88.0704,138.887638 C88.0704,139.120923 88.2595149,139.310038 88.4928,139.310038 C88.5641806,139.310038 88.634397,139.291949 88.6968924,139.257459 L138.751292,111.634077 C138.885973,111.559751 138.9696,111.418084 138.9696,111.264255 L138.9696,72.5392465 C138.9696,72.3059614 138.780485,72.1168465 138.5472,72.1168465 C138.473116,72.1168465 138.400336,72.1363309 138.336161,72.1733445 L88.281761,101.042895 C88.1509793,101.118325 88.0704,101.257821 88.0704,101.408797 Z" id="Line-5-Copy" fill="#6DBE4B"></path>
                </g>
            </g>
        </g>
    </g>
</svg>
