<?xml version="1.0" encoding="UTF-8"?>
<svg width="200px" height="200px" viewBox="0 0 200 200" version="1.1" xmlns="http://www.w3.org/2000/svg" xmlns:xlink="http://www.w3.org/1999/xlink">
    <title>dOps Dark</title>
    <defs>
        <path d="M71.3414158,0.707249675 C62.8697627,6.64582573 56.4508489,15.3132044 53.3608399,25.4332203 L54.0546778,25.5238636 L54.0546778,25.5238636 L53.3608076,25.433326 C52.0356361,29.7734008 51.3227207,34.3806453 51.3227207,39.1544 L51.3227207,39.1544 L51.3227207,99.212 C51.3227207,123.163447 69.2692842,142.92325 92.4510338,145.777074 L92.4510338,145.777074 L92.4507282,145.778075 C94.3477073,146.011629 96.2811569,146.132 98.2427207,146.132 C106.728781,146.132 114.688662,143.879162 121.556918,139.938933 L74.4523326,170.515827 C73.5415032,171.153675 72.6069721,171.759991 71.6503236,172.33319 L70.0907207,173.3456 L70.0102029,173.27151 C63.3439898,176.908836 55.6979613,178.976 47.5691207,178.976 C21.6559203,178.976 0.649120734,157.9692 0.649120734,132.056 L0.649120734,71.9984 C0.649120734,54.5700273 10.1514802,39.3610497 24.257915,31.2697511 L71.3414158,0.707249675 Z" id="path-1"></path>
        <path d="M71.3414158,0.707249675 C62.8697627,6.64582573 56.4508489,15.3132044 53.3608399,25.4332203 L54.0546778,25.5238636 L54.0546778,25.5238636 L53.3608076,25.433326 C52.0356361,29.7734008 51.3227207,34.3806453 51.3227207,39.1544 L51.3227207,39.1544 L51.3227207,99.212 C51.3227207,123.163447 69.2692842,142.92325 92.4510338,145.777074 L92.4510338,145.777074 L92.4507282,145.778075 C94.3477073,146.011629 96.2811569,146.132 98.2427207,146.132 C106.728781,146.132 114.688662,143.879162 121.556918,139.938933 L74.4523326,170.515827 C73.5415032,171.153675 72.6069721,171.759991 71.6503236,172.33319 L70.0907207,173.3456 L70.0102029,173.27151 C63.3439898,176.908836 55.6979613,178.976 47.5691207,178.976 C21.6559203,178.976 0.649120734,157.9692 0.649120734,132.056 L0.649120734,71.9984 C0.649120734,54.5700273 10.1514802,39.3610497 24.257915,31.2697511 L71.3414158,0.707249675 Z" id="path-3"></path>
        <path d="M44.8819115,0 C70.7951119,-4.7601777e-15 91.8019115,21.0067995 91.8019115,46.92 L91.8019115,106.9776 C91.8019115,132.8908 70.7951119,153.8976 44.8819115,153.8976 C43.0679874,153.8976 41.2781048,153.794667 39.5177859,153.594322 L39.0902246,153.542674 C40.4153961,149.202599 41.1283115,144.595355 41.1283115,139.8216 L41.1283115,139.8216 L41.1283115,79.764 C41.1283115,55.8123565 23.1814538,36.0524263 -1.62805957e-06,33.198926 C5.86882818,13.9794438 23.7428328,3.88318575e-15 44.8819115,0 Z" id="path-5"></path>
        <path d="M44.8819115,0 C70.7951119,-4.7601777e-15 91.8019115,21.0067995 91.8019115,46.92 L91.8019115,106.9776 C91.8019115,132.8908 70.7951119,153.8976 44.8819115,153.8976 C43.0679874,153.8976 41.2781048,153.794667 39.5177859,153.594322 L39.0902246,153.542674 C40.4153961,149.202599 41.1283115,144.595355 41.1283115,139.8216 L41.1283115,139.8216 L41.1283115,79.764 C41.1283115,55.8123565 23.1814538,36.0524263 -1.62805957e-06,33.198926 C5.86882818,13.9794438 23.7428328,3.88318575e-15 44.8819115,0 Z" id="path-7"></path>
    </defs>
    <g id="Page-1" stroke="none" stroke-width="1" fill="none" fill-rule="evenodd" transform="scale(1.04)">
        <g id="DataVisor-Product-Logos" transform="translate(-292.000000, -1686.250000)">
            <g id="dOps-Dark" transform="translate(315.000000, 1682.000000)">
                <g id="Group-5">
                    <g id="Group-4" transform="translate(0.000000, 7.000000)">
                        <g id="Line-2-Copy" transform="translate(0.000000, 7.765600)">
                            <mask id="mask-2" fill="white">
                                <use xlink:href="#path-1"></use>
                            </mask>
                            <use id="Mask" fill="#011E41" xlink:href="#path-1"></use>
                            <polygon id="Line-2" fill="#95D4E9" mask="url(#mask-2)" points="-21.114 123.1412 72.726 59.33 98.532 -66.8848 -24.3984 -7.7656 -41.2896 59.7992"></polygon>
                            <polygon id="Rectangle-Copy-4" fill="#FFFFFF" mask="url(#mask-2)" transform="translate(25.112232, 91.704800) rotate(-33.000000) translate(-25.112232, -91.704800) " points="-19.8147621 88.8896 71.807663 88.8896 71.3373229 94.52 -21.5832 94.52"></polygon>
                            <mask id="mask-4" fill="white">
                                <use xlink:href="#path-3"></use>
                            </mask>
                            <use id="Mask" stroke="#FFFFFF" stroke-width="5.6304" xlink:href="#path-3"></use>
                        </g>
                        <g id="Line-10-Copy" transform="translate(53.488800, 0.000000)">
                            <mask id="mask-6" fill="white">
                                <use xlink:href="#path-5"></use>
                            </mask>
                            <use id="Mask" fill="#A1D683" xlink:href="#path-5"></use>
                            <path d="M21.5832,123.8688 L106.0392,74.1336 L99.4704,-17.8296 L32.844,-30.9672 L2.8152,-22.5216 L-24.3984,-1.0658141e-14 L-24.3984,35.6592 C-11.8864,48.7968 -5.6304,55.3656 -5.6304,55.3656 C-5.6304,55.3656 2.8152,64.7496 19.7064,83.5176 L21.5832,123.8688 Z" id="Line-10" fill="#6DBE4B" mask="url(#mask-6)"></path>
                            <polygon id="Rectangle-Copy-5" fill="#FFFFFF" mask="url(#mask-6)" transform="translate(62.648232, 99.470400) rotate(-33.000000) translate(-62.648232, -99.470400) " points="17.7212379 96.6552 109.343663 96.6552 108.873323 102.2856 15.9528 102.2856"></polygon>
                            <mask id="mask-8" fill="white">
                                <use xlink:href="#path-7"></use>
                            </mask>
                            <use id="Mask" stroke="#FFFFFF" stroke-width="5.6304" xlink:href="#path-7"></use>
                        </g>
                    </g>
                </g>
            </g>
        </g>
    </g>
</svg>
