<?xml version="1.0" encoding="UTF-8"?>
<svg width="200px" height="200px" viewBox="0 0 200 174" version="1.1" xmlns="http://www.w3.org/2000/svg" xmlns:xlink="http://www.w3.org/1999/xlink">
    <!-- Generator: Sketch 61 (89581) - https://sketch.com -->
    <title>dVector Dark</title>
    <desc>Created with Sketch.</desc>
    <g id="Page-1" stroke="none" stroke-width="1" fill="none" fill-rule="evenodd" transform="scale(1.08)">
        <g id="Apple-TV" transform="translate(-206.500000, -1283.000000)">
            <g id="dVector-Dark" transform="translate(180.000000, 1234.000000)">
                <g id="Group-4-Copy" stroke="#FFFFFF" stroke-width="6.36">
                    <path d="M136.717899,205.867752 L34.8828587,146.759726 C34.5560863,146.570057 34.3549743,146.220792 34.3549743,145.842963 L34.3549743,87.5427993 C34.3549743,87.1642076 34.556893,86.814357 34.8847081,86.6249661 L136.592407,27.8646714 C136.918945,27.6760183 137.321126,27.67506 137.648559,27.8621548 L188.433578,56.8806154 C188.765333,57.0701792 188.969392,57.4236198 188.967681,57.8057094 L188.438616,176.013966 C188.436929,176.390969 188.235125,176.738705 187.908627,176.927208 L137.780014,205.868976 C137.451293,206.058764 137.046182,206.058297 136.717899,205.867752 Z" id="Polygon" fill="#FFFFFF" transform="translate(111.662712, 116.867894) rotate(-330.000000) translate(-111.662712, -116.867894) "></path>
                    <path d="M103.690835,107.49936 L54.2993388,78.9043921 C53.7926989,78.6110754 53.6197663,77.9625824 53.913083,77.4559424 C54.006529,77.294535 54.1409076,77.1606402 54.302651,77.067777 L103.353507,48.9057483 C103.680744,48.7178689 104.083187,48.7181137 104.410195,48.9063909 L153.869934,77.3832104 C154.377273,77.6753151 154.551756,78.3233928 154.259651,78.8307325 C154.166379,78.9927312 154.031926,79.1271835 153.869926,79.2204542 L104.750827,107.500631 C104.422637,107.689586 104.018571,107.689101 103.690835,107.49936 Z" id="Polygon-Copy-7" fill="#F3EFA1" transform="translate(104.086825, 78.204143) rotate(-330.000000) translate(-104.086825, -78.204143) "></path>
                    <path d="M128.556034,202.997066 L79.0926238,174.518133 C78.7640402,174.328949 78.5615261,173.978668 78.5615261,173.599513 L78.5615261,114.813271 L78.5615261,57.2476354 C78.5615261,56.6622136 79.0361042,56.1876354 79.6215261,56.1876354 C79.8071653,56.1876354 79.9895493,56.2363882 80.1504284,56.3290156 L129.613839,84.8079487 C129.942422,84.9971332 130.144936,85.3474143 130.144936,85.7265685 L130.144936,202.078447 C130.144936,202.663868 129.670358,203.138447 129.084936,203.138447 C128.899297,203.138447 128.716913,203.089694 128.556034,202.997066 Z" id="Polygon" fill="#6DBE4B" transform="translate(104.353231, 129.663041) rotate(-330.000000) translate(-104.353231, -129.663041) "></path>
                    <path d="M83.9145078,147.514133 L34.4510977,119.0352 C34.1225141,118.846016 33.92,118.495735 33.92,118.11658 L33.92,61.0435342 C33.92,60.4581124 34.3945782,59.9835342 34.98,59.9835342 C35.1662878,59.9835342 35.3492859,60.0326282 35.5105591,60.1258704 L84.9739693,88.7237744 C85.3016193,88.9132095 85.5034101,89.2629675 85.5034101,89.6414383 L85.5034101,146.595513 C85.5034101,147.180935 85.028832,147.655513 84.4434101,147.655513 C84.2577709,147.655513 84.0753869,147.606761 83.9145078,147.514133 Z" id="Polygon" fill="#95D4E9" transform="translate(59.711705, 103.817612) rotate(-330.000000) translate(-59.711705, -103.817612) "></path>
                    <path d="M173.741332,200.320715 L124.756448,228.838407 C124.250518,229.132946 123.601609,228.961579 123.30707,228.455649 C123.213018,228.294096 123.163362,228.110543 123.163138,227.923606 L123.023773,111.333768 C123.02332,110.954159 123.225898,110.603287 123.554878,110.413877 L172.679127,82.1307356 C173.186469,81.8386349 173.834545,82.0131225 174.126646,82.5204645 C174.21927,82.6813419 174.268022,82.8637232 174.268022,83.0493596 L174.268022,199.404648 C174.268022,199.781982 174.06743,200.13087 173.741332,200.320715 Z" id="Polygon-Copy-7" fill="#011E41" transform="translate(148.645531, 155.490321) rotate(-330.000000) translate(-148.645531, -155.490321) "></path>
                    <path d="M163.130119,107.49936 L113.738623,78.9043921 C113.231983,78.6110754 113.059051,77.9625824 113.352367,77.4559424 C113.445813,77.294535 113.580192,77.1606402 113.741935,77.067777 L162.792792,48.9057483 C163.120028,48.7178689 163.522471,48.7181137 163.849479,48.9063909 L213.309218,77.3832104 C213.816558,77.6753151 213.99104,78.3233928 213.698936,78.8307325 C213.605664,78.9927312 213.47121,79.1271835 213.309211,79.2204542 L164.190111,107.500631 C163.861921,107.689586 163.457855,107.689101 163.130119,107.49936 Z" id="Polygon-Copy-7" fill="#A1D683" transform="translate(163.526109, 78.204143) rotate(-330.000000) translate(-163.526109, -78.204143) "></path>
                </g>
            </g>
        </g>
    </g>
</svg>
