<?xml version="1.0" encoding="UTF-8"?>
<svg width="200px" height="200px" viewBox="0 0 200 200" version="1.1" xmlns="http://www.w3.org/2000/svg" xmlns:xlink="http://www.w3.org/1999/xlink">
    <!-- Generator: Sketch 61 (89581) - https://sketch.com -->
    <title>Feature Platform Dark</title>
    <desc>Created with Sketch.</desc>
    <g id="Page-1" stroke="none" stroke-width="1" fill="none" fill-rule="evenodd">
        <g id="Apple-TV" transform="translate(-200.000000, -1901.000000)">
            <g id="Feature-Platform-Dark" transform="translate(201.000000, 1901.000000)">
                <g id="Group-2-Copy" transform="translate(0.000000, 1.000000)" fill-rule="nonzero">
                    <path d="M147.335446,47.2387337 C147.335446,47.2387337 108.323645,8.30297927 105.6665,5.65101436 C101.984551,1.97624243 96.0147739,1.97624243 92.3328246,5.65101436 L48.9971215,48.9022424 L62.9742973,82.1508038 L97.3327114,97.1439968 L160.547692,108.89547 L147.335446,47.2387337 Z" id="Path" fill="#011E41"></path>
                    <path d="M88.597895,79.574874 C90.5345825,78.6547337 92.3285707,77.3362775 93.8568832,75.6187337 C99.3130981,69.4849793 99.3622114,60.0971547 93.9632309,53.9128389 C90.5705473,50.0265582 85.8297621,48.1380319 81.1257153,48.2437863 C77.0284301,48.3360319 72.9589887,49.940488 69.8319809,53.0610144 C68.4749848,54.4153652 67.4045473,55.946874 66.6195082,57.5810494 C65.2079848,60.5205582 61.331516,61.2122073 59.0220317,58.9072249 L48.9975082,48.9022424 L5.66180511,92.1530845 C1.97985589,95.8278565 1.97985589,101.786383 5.66180511,105.461155 L47.3307504,147.048874 L77.6777309,128.339997 L97.3334848,97.1436108 L87.3085746,87.1382424 C85.011852,84.8463828 85.6657934,80.9678214 88.597895,79.574874 Z" id="Path" fill="#6DBE4B"></path>
                    <path d="M97.3330981,97.1436108 C96.8961059,97.5797512 92.164602,102.302032 85.7690473,108.68512 C83.284766,111.164172 79.0853871,110.146769 77.9604223,106.825541 C77.0489262,104.135365 75.421227,101.633541 73.0765512,99.616488 C71.1127934,97.9271196 68.8303793,96.7819617 66.4338832,96.1756108 C61.3222348,94.8818565 55.6908364,96.0482424 51.5204614,99.6736108 C44.2319731,106.008839 43.9465746,117.055927 50.664266,123.760137 C52.5282504,125.620488 54.72752,126.942418 57.0675551,127.726313 C60.382895,128.836348 61.3674809,133.039892 58.8948012,135.507751 C52.9281176,141.462804 48.3725707,146.00947 47.3307504,147.04926 L92.3332114,191.963997 C96.0151606,195.639155 101.984938,195.638769 105.666887,191.963997 L115.916481,181.734383 L149.002204,148.713155 L129.7177,114.027646 L97.3330981,97.1436108 Z" id="Path" fill="#011E41"></path>
                    <g id="Group" transform="translate(95.519387, 47.087821)" fill="#6DBE4B">
                        <path d="M96.8185195,45.0652632 L51.8160586,0.150526316 L45.2081953,6.74550877 L40.2523945,11.6916491 C37.7797148,14.1595088 38.7643008,18.3630526 42.0796406,19.4730877 C44.4196758,20.2569825 46.6189453,21.5789123 48.4829297,23.4392632 C55.2006211,30.1438596 54.9148359,41.1905614 47.6263477,47.5257895 C41.5011094,52.8501754 32.2225664,52.8756491 26.0702578,47.5825263 C23.725582,45.5654737 22.0982695,43.0636491 21.1867734,40.3738596 C20.0614219,37.0518596 15.8616563,36.0348421 13.377375,38.5142807 L4.70482031,47.1699298 L1.81371094,50.0550175 L11.0052422,59.2282456 C13.3147266,61.5332281 12.6213398,65.4017544 9.67608984,66.8105263 C8.03872266,67.5936491 6.50422266,68.662386 5.14722656,70.0167368 C-1.56930469,76.7201754 -1.28506641,87.7649474 6.00071484,94.1009474 C12.1971094,99.4894035 21.6032695,99.4407719 27.7490039,93.994807 C29.4702891,92.4698596 30.7913203,90.6793684 31.7128711,88.7464561 C33.1085391,85.8200702 36.9946758,85.1674035 39.2910117,87.4592632 L53.4828164,101.623404 L96.8185195,58.3721754 C100.500469,54.6985614 100.500469,48.7400351 96.8185195,45.0652632 L96.8185195,45.0652632 Z" id="Path"></path>
                    </g>
                    <path d="M130.358493,26.1997863 C129.218446,25.070067 127.391586,25.0735407 126.255407,26.1997863 C125.126188,27.3306635 125.126188,29.1678565 126.255407,30.294874 C138.199989,42.2165582 138.828407,42.8429793 143.23236,47.2387337 L133.718692,56.7334705 C129.7235,60.6996459 131.325289,67.5323828 136.67709,69.3043477 C146.490852,72.6139968 149.267106,85.4241723 141.240372,92.4313652 C134.106957,98.6195407 122.605555,95.7969793 119.452637,86.5338214 C117.628098,81.1754705 110.815274,79.563681 106.845606,83.5580319 L97.3319379,93.0489091 C96.9169887,92.6347687 89.7773871,85.5090845 89.3577973,85.0903126 C88.469891,84.1933301 88.7278325,82.7231898 89.8411957,82.1878565 C101.525129,76.6531196 104.433254,61.4924179 96.1489653,52.00926 C86.9377114,41.4473301 69.9893754,43.857681 64.0049028,56.3282073 C63.4569223,57.4606284 61.9978325,57.7639968 61.0735746,56.8608389 C57.6979067,53.4913652 54.8860746,50.6854003 53.099434,48.9022424 L94.3816606,7.70048804 C96.9332309,5.15427751 101.063774,5.15234769 103.616504,7.70048804 C104.563965,8.64610207 117.824551,21.8769793 125.767754,29.8085582 C126.904707,30.9432951 128.736981,30.9402073 129.87084,29.8085582 C131.00702,28.6745933 131.0047,26.8451196 129.87084,25.7134705 C126.091438,21.9433652 117.068903,12.9403477 107.715723,3.60540032 C102.910356,-1.18982775 95.122227,-1.21375757 90.2785746,3.60540032 C84.2650981,9.60792664 7.60468011,86.1223828 3.6114223,90.1078565 C-1.2086402,94.9023126 -1.19897223,102.72119 3.6114223,107.507155 C4.71511761,108.608313 65.8070121,169.581506 66.944352,170.716628 C68.0592621,171.837085 69.9058442,171.860242 71.0439575,170.716628 C72.1812973,169.589225 72.1758832,167.750874 71.0478246,166.6254 L51.4334496,147.04926 L60.9467309,137.554523 C64.9562309,133.56326 63.318477,126.757541 57.9887192,124.980172 C48.1780512,121.684804 45.3847817,108.876558 53.4250512,101.857014 C60.5565317,95.6703828 72.0590942,98.4890845 75.2127856,107.754558 C77.0315239,113.145716 83.866391,114.702313 87.8202035,110.734207 C91.892352,106.666137 95.2916098,103.277365 97.3334848,101.23947 L104.472313,108.364383 C105.360219,109.260593 105.098411,110.729962 103.942508,111.289997 C91.4128207,117.28133 89.0530629,134.196242 99.6155121,143.37526 C109.137688,151.659611 124.307891,148.714313 129.852664,137.080172 C130.39175,135.950067 131.854321,135.724278 132.747641,136.583049 C132.752282,136.587681 132.756149,136.593085 132.761176,136.597716 C140.700899,144.520032 137.901442,141.725646 144.900278,148.713155 L103.618051,189.918769 C101.056813,192.45919 96.946766,192.46112 94.3832075,189.918769 L71.5165278,167.092804 C70.3842153,165.962699 68.5519418,165.956523 67.4134418,167.092804 C66.2768754,168.227155 66.2795825,170.056242 67.4134418,171.187892 L90.2843754,194.009997 C95.1237739,198.841506 102.94168,198.791716 107.717657,194.009997 L194.389063,107.507927 C199.2215,102.698418 199.186309,94.8810845 194.387516,90.1078565 C126.232204,22.0850144 139.663719,35.4880319 130.358493,26.1997863 Z M83.7159575,106.638734 C82.734852,107.597856 81.1520121,107.193365 80.7076723,105.897681 C76.26002,92.7575056 59.838395,88.5859968 49.6154848,97.4913652 C38.2188832,107.364734 42.0756293,125.788769 56.1432973,130.468207 C57.4217895,130.918242 57.7945864,132.494137 56.8432582,133.463295 C52.8074614,137.488523 49.4225121,140.866488 47.3288168,142.956874 L7.71025433,103.415927 C5.14940277,100.851962 5.17724652,96.7271547 7.71025433,94.1990845 L48.9963481,52.9973301 C58.8657973,62.8452249 50.6801215,54.6778214 56.9704887,60.9559266 C60.6856957,64.6839617 66.9648481,63.5546284 69.2333403,58.8331196 C73.4110629,50.1411898 85.2477504,48.3622775 91.7751762,55.814874 C97.5825317,62.4731547 95.5097192,73.0763828 87.3515004,76.9618915 C82.6184496,79.1993301 81.5391176,85.4866986 85.2554848,89.1854003 C85.2554848,89.1854003 88.1342192,92.0554354 93.2319457,97.142453 C91.2233285,99.1459968 87.8805317,102.482663 83.7159575,106.638734 L83.7159575,106.638734 Z M190.288297,103.415927 L149.00027,144.619225 L136.863102,132.501856 C133.126625,128.762628 126.846313,129.901997 124.611465,134.589927 C120.727262,142.734558 110.099457,144.806804 103.427399,139.009225 C95.948645,132.493365 97.7453403,120.677049 106.447672,116.511716 C111.176082,114.251892 112.309168,107.998488 108.574625,104.268909 L101.433864,97.1451547 C102.654348,95.9289793 110.557332,88.0367687 110.945211,87.64926 C111.955321,86.6731547 113.528106,87.1220319 113.95775,88.3903126 C118.40695,101.53512 134.808852,105.696979 145.049938,96.7966284 C156.393559,86.9726635 152.663657,68.5478565 138.522125,63.8159266 C137.242086,63.3817161 136.87393,61.8019617 137.818297,60.8285582 C142.942321,55.7137512 147.336993,51.3315056 147.336993,51.3315056 L190.288297,94.1990845 C192.817438,96.7314003 192.852629,100.847716 190.288297,103.415927 L190.288297,103.415927 Z" id="Shape" stroke="#FFFFFF" stroke-width="0.9" fill="#FFFFFF"></path>
                </g>
            </g>
        </g>
    </g>
</svg>
