<?xml version="1.0" encoding="UTF-8"?>
<svg width="200px" height="200px" viewBox="0 0 185 185" version="1.1" xmlns="http://www.w3.org/2000/svg" xmlns:xlink="http://www.w3.org/1999/xlink">
    <!-- Generator: Sketch 61 (89581) - https://sketch.com -->
    <title>Rules Engine Dark</title>
    <desc>Created with Sketch.</desc>
    <g id="Page-1" stroke="none" stroke-width="1" fill="none" fill-rule="evenodd">
        <g id="Apple-TV" transform="translate(-207.000000, -2561.000000)">
            <g id="Rules-Engine-Dark" transform="translate(213.000000, 2553.000000)">
                <g id="Group-3-Copy" transform="translate(0.000000, 14.000000)" stroke="#FFFFFF" stroke-width="5.88">
                    <rect id="Rectangle" fill="#011E41" x="34.7583871" y="-2.94" width="102.222682" height="26.4331054" rx="13.2165527"></rect>
                    <path d="M89.338226,99.2835218 L10.2765527,99.2826818 C2.97725221,99.2826818 -2.94,93.3654295 -2.94,86.066129 C-2.94,78.7668285 2.97725221,72.8495763 10.2765215,72.8495763 L89.338226,72.8487362 C92.3847581,70.3205804 96.2298001,68.9003226 100.291935,68.9003226 L100.296344,68.9003226 C109.776757,68.9003226 117.462151,76.5857159 117.462151,86.066129 C117.462151,95.5465422 109.776757,103.231935 100.296344,103.231935 L100.291935,103.231935 C96.2298001,103.231935 92.3847581,101.811678 89.338226,99.2835218 Z" id="Combined-Shape" fill="#011E41"></path>
                    <rect id="Rectangle-Copy-4" fill="#6DBE4B" x="122.947771" y="72.8495763" width="52.1244872" height="26.4331054" rx="13.2165527"></rect>
                    <rect id="Rectangle-Copy-5" fill="#6DBE4B" x="15.6862518" y="110.744364" width="140.759754" height="26.4331054" rx="13.2165527"></rect>
                    <path d="M94.9519434,34.2428135 L143.229454,34.2434978 C150.528754,34.2434978 156.446006,40.16075 156.446006,47.4600506 C156.446006,54.7593511 150.528754,60.6766033 143.229453,60.6766033 L95.4265221,60.6765892 C92.3469494,63.3258474 88.4084338,64.8222581 84.2392307,64.8222581 L84.2348219,64.8222581 C74.7544087,64.8222581 67.0690154,57.1368647 67.069039,47.6446772 L67.0695448,47.5793154 C67.0691037,47.519716 67.0691037,47.519716 67.0690154,47.4600506 C67.0690154,46.9754896 67.0952169,46.4935682 67.1423751,46.0645042 C67.9526584,37.2716456 75.3478027,30.4906452 84.2348219,30.4906452 L84.2392307,30.4906452 C88.1926765,30.4906452 91.9423046,31.8356496 94.9519434,34.2428135 Z" id="Combined-Shape" fill="#6DBE4B"></path>
                    <rect id="Rectangle-Copy-2" fill="#011E41" x="15.6862518" y="34.2434978" width="45.7016418" height="26.4331054" rx="13.2165527"></rect>
                    <rect id="Rectangle-Copy-6" fill="#6DBE4B" x="100.197097" y="148.564839" width="36.7096582" height="26.4331054" rx="13.2165527"></rect>
                    <path d="M66.2025074,175.071903 L47.9749398,175.072258 C40.6756393,175.072258 34.7583871,169.155006 34.7583871,161.855705 C34.7583871,154.556405 40.6756393,148.639153 47.9747477,148.639153 L66.9731668,148.637911 C69.9576176,146.306618 73.6463088,145.008387 77.5306452,145.008387 L77.535054,145.008387 C87.0154671,145.008387 94.7008604,152.69378 94.7008604,162.174194 C94.7008604,171.654607 87.0154671,179.34 77.535054,179.34 L77.5306452,179.34 C73.2960136,179.34 69.3006348,177.796064 66.2025074,175.071903 Z" id="Combined-Shape" fill="#011E41"></path>
                </g>
            </g>
        </g>
    </g>
</svg>
