<?xml version="1.0"?>
<svg xmlns="http://www.w3.org/2000/svg" height="512px" viewBox="0 -10 512 512" width="512px" class=""><g><path d="m290.730469 20.691406v377.078125c0 11.421875-8.292969 20.695313-18.539063 20.695313h-253.652344c-10.246093-.003906-18.539062-9.273438-18.539062-20.695313v-377.078125c0-11.421875 8.292969-20.691406 18.539062-20.691406h253.652344c10.246094 0 18.539063 9.269531 18.539063 20.691406zm0 0" fill="#4895ff" data-original="#4895FF"/><path d="m290.730469 20.691406v377.078125c0 11.421875-8.292969 20.695313-18.539063 20.695313h-126.824218v-418.464844h126.824218c10.246094 0 18.539063 9.269531 18.539063 20.691406zm0 0" fill="#2682ff" data-original="#2682FF"/><path d="m0 139.484375h290.730469v139.496094h-290.730469zm0 0" fill="#aed0ff" data-original="#AED0FF"/><path d="m145.367188 139.484375h145.363281v139.496094h-145.363281zm0 0" fill="#8cbcff" data-original="#8CBCFF"/><path d="m169.179688 72.746094c0 9.734375-7.886719 17.632812-17.628907 17.632812h-89.019531c-9.734375 0-17.632812-7.898437-17.632812-17.632812 0-9.746094 7.898437-17.628906 17.632812-17.628906h89.015625c9.746094 0 17.632813 7.886718 17.632813 17.628906zm0 0" fill="#ffeb99" data-original="#FFEB99" class="active-path" style="fill:#FFD47A" data-old_color="#FDD379"/><path d="m151.546875 90.378906h-6.179687v-35.261718h6.179687c9.746094 0 17.632813 7.886718 17.632813 17.628906 0 9.734375-7.886719 17.632812-17.632813 17.632812zm0 0" fill="#ffda44" data-original="#FFDA44" class="" style="fill:#F3AF1A" data-old_color="#FFDA44"/><path d="m208.289062 90.375h15.652344c9.738282 0 17.632813-7.894531 17.632813-17.632812 0-9.734376-7.894531-17.628907-17.632813-17.628907h-15.652344c-9.738281 0-17.628906 7.894531-17.628906 17.628907 0 9.738281 7.890625 17.632812 17.628906 17.632812zm0 0" fill="#ffda44" data-original="#FFDA44" class="" style="fill:#F3AF1A" data-old_color="#FFDA44"/><path d="m169.179688 211.207031c0 9.746094-7.886719 17.632813-17.628907 17.632813h-89.019531c-9.734375 0-17.632812-7.890625-17.632812-17.632813 0-9.734375 7.898437-17.632812 17.632812-17.632812h89.015625c9.746094 0 17.632813 7.898437 17.632813 17.632812zm0 0" fill="#ffeb99" data-original="#FFEB99" class="active-path" style="fill:#FFD47A" data-old_color="#FDD379"/><path d="m169.179688 211.207031c0 9.746094-7.886719 17.632813-17.628907 17.632813h-6.183593v-35.265625h6.183593c9.742188 0 17.628907 7.898437 17.628907 17.632812zm0 0" fill="#ffda44" data-original="#FFDA44" class="" style="fill:#F3AF1A" data-old_color="#FFDA44"/><path d="m208.289062 228.839844h15.652344c9.738282 0 17.632813-7.894532 17.632813-17.632813s-7.894531-17.632812-17.632813-17.632812h-15.652344c-9.738281 0-17.628906 7.894531-17.628906 17.632812s7.890625 17.632813 17.628906 17.632813zm0 0" fill="#ffda44" data-original="#FFDA44" class="" style="fill:#F3AF1A" data-old_color="#FFDA44"/><path d="m169.179688 351.527344c0 9.730468-7.886719 17.632812-17.628907 17.632812h-89.019531c-9.734375 0-17.632812-7.898437-17.632812-17.632812 0-9.746094 7.898437-17.632813 17.632812-17.632813h89.015625c9.746094 0 17.632813 7.886719 17.632813 17.632813zm0 0" fill="#ffeb99" data-original="#FFEB99" class="active-path" style="fill:#FFD47A" data-old_color="#FDD379"/><path d="m169.179688 351.527344c0 9.730468-7.886719 17.632812-17.628907 17.632812h-6.183593v-35.265625h6.183593c9.742188 0 17.628907 7.886719 17.628907 17.632813zm0 0" fill="#ffda44" data-original="#FFDA44" class="" style="fill:#F3AF1A" data-old_color="#FFDA44"/><path d="m512 342.386719c0 82.683593-67.261719 149.945312-149.9375 149.945312h-.570312c-82.425782-.3125-149.375-67.449219-149.375-149.945312 0-82.488281 66.949218-149.625 149.375-149.9375h.570312c82.675781 0 149.9375 67.261719 149.9375 149.9375zm0 0" fill="#ff5e93" data-original="#FF5E93" class="" style="fill:#FF5722" data-old_color="#FF5E93"/><path d="m512 342.386719c0 82.683593-67.261719 149.945312-149.9375 149.945312h-.570312v-299.882812h.570312c82.675781 0 149.9375 67.261719 149.9375 149.9375zm0 0" fill="#ff3c7d" data-original="#FF3C7D" class="" style="fill:#FF5722" data-old_color="#FF3C7D"/><path d="m479.195312 342.386719c0 34.261719-14.703124 65.148437-38.144531 86.671875-20.960937 19.265625-48.910156 31.042968-79.558593 31.042968-30.085938 0-57.589844-11.351562-78.425782-30-24.109375-21.558593-39.300781-52.890624-39.300781-87.714843 0-64.910157 52.816406-117.707031 117.726563-117.707031 64.90625 0 117.703124 52.796874 117.703124 117.707031zm0 0" fill="#ffeb99" data-original="#FFEB99" class="active-path" style="fill:#FFD47A" data-old_color="#FDD379"/><path d="m479.195312 342.386719c0 34.261719-14.703124 65.148437-38.144531 86.671875-20.960937 19.265625-48.910156 31.042968-79.558593 31.042968v-235.421874c64.90625 0 117.703124 52.796874 117.703124 117.707031zm0 0" fill="#ffda44" data-original="#FFDA44" class="" style="fill:#F3AF1A" data-old_color="#FFDA44"/><path d="m441.050781 407.042969v22.015625c-20.960937 19.265625-48.910156 31.042968-79.558593 31.042968-30.085938 0-57.589844-11.351562-78.425782-30v-23.058593c0-33.800781 23.691406-62.054688 55.378906-69.101563-11.652343-7.675781-19.347656-20.882812-19.347656-35.875 0-23.535156 18.933594-42.65625 42.394532-42.949218.1875-.007813.375-.007813.5625-.007813 23.730468 0 42.957031 19.234375 42.957031 42.957031 0 14.992188-7.6875 28.1875-19.339844 35.875 31.6875 7.046875 55.378906 35.300782 55.378906 69.101563zm0 0" fill="#4895ff" data-original="#4895FF"/><path d="m441.050781 407.042969v22.015625c-20.960937 19.265625-48.910156 31.042968-79.558593 31.042968v-200.984374c.1875-.007813.375-.007813.5625-.007813 23.730468 0 42.957031 19.234375 42.957031 42.957031 0 14.992188-7.6875 28.1875-19.339844 35.875 31.6875 7.046875 55.378906 35.300782 55.378906 69.101563zm0 0" fill="#2682ff" data-original="#2682FF"/></g> </svg>
