<?xml version="1.0" encoding="UTF-8"?>
<svg width="32px" height="25px" viewBox="0 0 32 25" version="1.1" xmlns="http://www.w3.org/2000/svg" xmlns:xlink="http://www.w3.org/1999/xlink">
    <!-- Generator: Sketch 57.1 (83088) - https://sketch.com -->
    <title>Group 5</title>
    <desc>Created with Sketch.</desc>
    <g id="Feature-Platform" stroke="none" stroke-width="1" fill="none" fill-rule="evenodd">
        <g id="CREATE-FEATURE---ATTRIBUTE-FIRST---02" transform="translate(-70.000000, -794.000000)" fill="#D2D8E7" fill-rule="nonzero">
            <g id="Group-5" transform="translate(70.408598, 794.221698)">
                <path d="M29.2219059,24.1041085 L1.95635294,24.1041085 C0.876056471,24.1041085 -2.23820962e-13,23.2259858 -2.23820962e-13,22.1431415 C-2.23820962e-13,21.0606226 0.876056471,20.1821745 1.95635294,20.1821745 L29.2219059,20.1821745 C30.3018776,20.1821745 31.1772847,21.0606226 31.1772847,22.1431415 C31.1772847,23.2256604 30.3018776,24.1041085 29.2219059,24.1041085 Z" id="Path"></path>
                <path d="M11.9910635,14.9062783 L1.95635294,14.9062783 C0.876056471,14.9062783 -1.02673425e-12,14.0278302 -1.02673425e-12,12.9453113 L-1.02673425e-12,1.96096698 C-1.02673425e-12,0.878448113 0.876056471,-5.15143483e-14 1.95635294,-5.15143483e-14 L11.9910635,-5.15143483e-14 C13.0710353,-5.15143483e-14 13.9474165,0.878448113 13.9474165,1.96096698 L13.9474165,12.9453113 C13.9474165,14.0278302 13.0710353,14.9062783 11.9910635,14.9062783 Z M3.91270588,10.9840189 L10.0343859,10.9840189 L10.0343859,3.92225943 L3.91270588,3.92225943 L3.91270588,10.9840189 Z" id="Shape"></path>
                <path d="M29.2219059,4.51754717 L19.3167529,4.51754717 C18.2364565,4.51754717 17.3600753,3.63909906 17.3600753,2.55625472 C17.3600753,1.47341038 18.2364565,0.595287736 19.3167529,0.595287736 L29.2219059,0.595287736 C30.3018776,0.595287736 31.1772847,1.47341038 31.1772847,2.55625472 C31.1772847,3.63909906 30.3018776,4.51754717 29.2219059,4.51754717 Z" id="Path"></path>
                <path d="M29.2219059,14.3106651 L19.3167529,14.3106651 C18.2364565,14.3106651 17.3600753,13.4328679 17.3600753,12.3500236 C17.3600753,11.2671792 18.2364565,10.3890566 19.3167529,10.3890566 L29.2219059,10.3890566 C30.3018776,10.3890566 31.1772847,11.2671792 31.1772847,12.3500236 C31.1772847,13.4328679 30.3018776,14.3106651 29.2219059,14.3106651 Z" id="Path"></path>
            </g>
        </g>
    </g>
</svg>