<?xml version="1.0"?>
<svg xmlns="http://www.w3.org/2000/svg" height="512px" viewBox="-75 0 512 512" width="512px" class=""><g><path d="m115 0h-70c-8.285156 0-15 6.714844-15 15v56c0 8.285156 6.714844 15 15 15h70c8.285156 0 15-6.714844 15-15v-56c0-8.285156-6.714844-15-15-15zm0 0" fill="#0095ff" data-original="#0095FF" class="active-path" style="fill:#0D91E9" data-old_color="#0d91e9"/><path d="m316 0h-70c-8.285156 0-15 6.714844-15 15v56c0 8.285156 6.714844 15 15 15h70c8.285156 0 15-6.714844 15-15v-56c0-8.285156-6.714844-15-15-15zm0 0" fill="#0082ff" data-original="#0082FF" class=""/><path d="m346 422h-331c-8.285156 0-15 6.714844-15 15v60c0 8.285156 6.714844 15 15 15h331c8.285156 0 15-6.714844 15-15v-60c0-8.285156-6.714844-15-15-15zm0 0" fill="#006eff" data-original="#006EFF" class="" style="fill:#0D91E9" data-old_color="#0d91e9"/><path d="m346 422h-165.5v90h165.5c8.285156 0 15-6.714844 15-15v-60c0-8.285156-6.714844-15-15-15zm0 0" fill="#005fe4" data-original="#005FE4" class="" style="fill:#0D91E9" data-old_color="#0d91e9"/><path d="m346 56h-331c-8.285156 0-15 6.714844-15 15v381h361v-381c0-8.285156-6.714844-15-15-15zm0 0" fill="#a8ebfa" data-original="#A8EBFA" class=""/><path d="m346 56h-165.5v396h180.5v-381c0-8.285156-6.714844-15-15-15zm0 0" fill="#76e2f8" data-original="#76E2F8" class="" style="fill:#68B6ED" data-old_color="#67B6ED"/><path d="m100.894531 132.394531-18.894531 18.890625-1.394531-1.390625c-5.855469-5.859375-15.355469-5.859375-21.210938 0-5.859375 5.855469-5.859375 15.351563 0 21.210938l12 12c2.925781 2.929687 6.765625 4.394531 10.605469 4.394531 3.835938 0 7.675781-1.464844 10.605469-4.394531l29.5-29.5c5.859375-5.855469 5.859375-15.355469 0-21.210938-5.855469-5.859375-15.355469-5.859375-21.210938 0zm0 0" fill="#ff2828" data-original="#FF2828" class="" style="fill:#F3AF1A" data-old_color="#FF2828"/><path d="m171.246094 173.5h114.753906c8.285156 0 15-6.71875 15-15 0-8.285156-6.714844-15-15-15h-114.753906c-8.28125 0-15 6.714844-15 15 0 8.28125 6.71875 15 15 15zm0 0" fill="#27d8f6" data-original="#27D8F6" class=""/><path d="m100.894531 221.894531-18.894531 18.890625-1.394531-1.390625c-5.855469-5.859375-15.355469-5.859375-21.210938 0-5.859375 5.855469-5.859375 15.351563 0 21.210938l12 12c2.925781 2.929687 6.765625 4.394531 10.605469 4.394531 3.835938 0 7.675781-1.464844 10.605469-4.394531l29.5-29.5c5.859375-5.855469 5.859375-15.355469 0-21.210938-5.855469-5.859375-15.355469-5.859375-21.210938 0zm0 0" fill="#ff2828" data-original="#FF2828" class="" style="fill:#F3AF1A" data-old_color="#FF2828"/><path d="m286 233h-114.753906c-8.28125 0-15 6.714844-15 15s6.71875 15 15 15h114.753906c8.285156 0 15-6.714844 15-15s-6.714844-15-15-15zm0 0" fill="#27d8f6" data-original="#27D8F6" class=""/><path d="m100.894531 310.894531-18.894531 18.890625-1.394531-1.390625c-5.855469-5.859375-15.355469-5.859375-21.210938 0-5.859375 5.855469-5.859375 15.351563 0 21.210938l12 12c2.925781 2.929687 6.765625 4.394531 10.605469 4.394531 3.835938 0 7.675781-1.464844 10.605469-4.394531l29.5-29.5c5.859375-5.855469 5.859375-15.355469 0-21.210938-5.855469-5.859375-15.355469-5.859375-21.210938 0zm0 0" fill="#ff2828" data-original="#FF2828" class="" style="fill:#F3AF1A" data-old_color="#FF2828"/><path d="m286 322h-114.753906c-8.28125 0-15 6.714844-15 15 0 8.28125 6.71875 15 15 15h114.753906c8.285156 0 15-6.71875 15-15 0-8.285156-6.714844-15-15-15zm0 0" fill="#27d8f6" data-original="#27D8F6" class=""/><g fill="#00cef5"><path d="m286 143.5h-105.5v30h105.5c8.285156 0 15-6.71875 15-15 0-8.285156-6.714844-15-15-15zm0 0" data-original="#000000" class="" style="fill:#000000"/><path d="m286 233h-105.5v30h105.5c8.285156 0 15-6.714844 15-15s-6.714844-15-15-15zm0 0" data-original="#000000" class="" style="fill:#000000"/><path d="m286 322h-105.5v30h105.5c8.285156 0 15-6.71875 15-15 0-8.285156-6.714844-15-15-15zm0 0" data-original="#000000" class="" style="fill:#000000"/></g></g> </svg>
