<svg height='100px' width='100px'  fill="#d2d8e7" xmlns="http://www.w3.org/2000/svg" viewBox="0 0 64 64" x="0px" y="0px"><title>32- profile- menu- friend- contact</title><path d="M12,16.5A12.5,12.5,0,1,0,24.5,4,12.51,12.51,0,0,0,12,16.5Z"></path><path d="M42,32c0-.15,0-.3,0-.45A4,4,0,0,0,40,31H8a4,4,0,0,0-4,4V56a4,4,0,0,0,4,4H40a4,4,0,0,0,2.75-1.1A6,6,0,0,1,44,51.54V36.46A6,6,0,0,1,42,32Z"></path><path d="M58,6H41a2,2,0,0,0,0,4H58a2,2,0,0,0,0-4Z"></path><path d="M58,30H48a2,2,0,0,0,0,4H58a2,2,0,0,0,0-4Z"></path><path d="M58,54H48a2,2,0,0,0,0,4H58a2,2,0,0,0,0-4Z"></path></svg>