<svg fill="#30CD9A" xmlns="http://www.w3.org/2000/svg" xmlns:xlink="http://www.w3.org/1999/xlink" xmlns:sketch="http://www.bohemiancoding.com/sketch/ns" viewBox="0 0 32 32" version="1.1" x="0px" y="0px"><title>file_text_document_page_paper_checkmark_complete_finished_done_checked_selected</title><desc>Created with Sketch.</desc><g stroke="none" stroke-width="1" fill="none" fill-rule="evenodd" sketch:type="MSPage"><path d="M21.4644661,25.2928932 L24.2928932,28.1213203 L28.5355339,23.8786797 L29.9497475,25.2928932 L24.2928932,30.9497475 L20.0502525,26.7071068 L21.4644661,25.2928932 Z M10,20 L20,20 L20,22 L10,22 L10,20 Z M10,12 L22,12 L22,14 L10,14 L10,12 Z M10,24 L16,24 L16,26 L10,26 L10,24 Z M10,16 L18,16 L18,18 L10,18 L10,16 Z M28,21.8026932 L28,7 L21,0 L4.99339768,0 C4.99339768,0 4,0 4,1 L4,31 C4,31 4,32 5.00329963,32 L21.6822049,32 C20.9119535,31.4878691 20.2668165,30.8025019 19.8024159,29.9995206 L6,30 L6,2 L20,2 L20,7 C20,7 20,8 21,8 L26,8 L26,21.0829584 C26.7179235,21.2034032 27.3926158,21.4513404 28,21.8026932 L28,21.8026932 Z" fill="#30CD9A" sketch:type="MSShapeGroup"></path></g></svg>