<svg fill="#30CD9A" xmlns="http://www.w3.org/2000/svg" xmlns:xlink="http://www.w3.org/1999/xlink" version="1.1" x="0px" y="0px" viewBox="0 0 64 64" style="enable-background:new 0 0 64 64;" xml:space="preserve"><g><g><polygon points="3,53.42 15,60.277 15,48.58 3,41.723   "></polygon><polygon points="27.984,40 16,33.152 4.016,40 16,46.848   "></polygon><polygon points="29,41.723 17,48.58 17,60.277 29,53.42   "></polygon></g><g><polygon points="59.984,40 48,33.152 36.016,40 48,46.848   "></polygon><polygon points="61,41.723 49,48.58 49,60.277 61,53.42   "></polygon><polygon points="35,53.42 47,60.277 47,48.58 35,41.723   "></polygon></g><g><circle cx="18" cy="26" r="1"></circle><circle cx="18" cy="12" r="1"></circle><path d="M30.054,17.736C30.579,17.284,31.254,17,32,17c0.746,0,1.421,0.284,1.946,0.736l9.107-5.204    C43.023,12.359,43,12.182,43,12s0.023-0.359,0.054-0.532l-9.107-5.204C33.421,6.716,32.746,7,32,7    c-0.746,0-1.421-0.284-1.946-0.736l-9.107,5.204C20.977,11.641,21,11.818,21,12c0,0.182-0.023,0.359-0.054,0.532L30.054,17.736z"></path><path d="M45,23.184v-8.369c-0.351-0.125-0.669-0.313-0.946-0.552l-9.107,5.204C34.977,19.641,35,19.818,35,20    c0,1.302-0.839,2.402-2,2.816v7.369c0.637,0.227,1.174,0.656,1.53,1.218l8.524-4.871C43.023,26.359,43,26.182,43,26    C43,24.698,43.839,23.598,45,23.184z"></path><path d="M29.47,31.403c0.356-0.562,0.893-0.991,1.53-1.218v-7.369c-1.161-0.414-2-1.514-2-2.816c0-0.182,0.023-0.359,0.054-0.532    l-9.107-5.204c-0.277,0.239-0.595,0.426-0.946,0.552v8.369c1.161,0.414,2,1.514,2,2.816c0,0.182-0.023,0.359-0.054,0.532    L29.47,31.403z"></path><circle cx="46" cy="12" r="1"></circle><circle cx="32" cy="4" r="1"></circle><circle cx="46" cy="26" r="1"></circle><circle cx="32" cy="33" r="1"></circle><circle cx="32" cy="20" r="1"></circle></g></g></svg>