<?xml version="1.0" encoding="UTF-8"?>
<svg width="506px" height="61px" viewBox="0 0 506 61" version="1.1" xmlns="http://www.w3.org/2000/svg" xmlns:xlink="http://www.w3.org/1999/xlink">
    <!-- Generator: sketchtool 59.1 (101010) - https://sketch.com -->
    <title>A54C007C-3566-491C-8445-B47504E28A5F</title>
    <desc>Created with sketchtool.</desc>
    <g id="Page-1" stroke="none" stroke-width="1" fill="none" fill-rule="evenodd">
        <g id="SSO" transform="translate(-957.000000, -110.000000)" fill-rule="nonzero">
            <g id="Group" transform="translate(957.000000, 110.000000)">
                <path d="M113.88,14.025 C124.545,14.025 132.17,19.155 132.17,30.09 L132.17,43.925 C132.17,54.925 123.735,59.925 113.27,59.925 L97.07,59.925 L97.07,14.025 L113.88,14.025 Z M122.88,30.83 C122.88,24.755 118.83,21.99 113.88,21.99 L106.32,21.99 L106.32,52.025 L113.27,52.025 C118.4,52.025 122.855,49.525 122.855,43.25 L122.88,30.83 Z" id="Shape" fill="#0B1D40"></path>
                <path d="M171.58,13.62 L186.63,59.925 L176.37,59.925 L173.335,49.395 L159.09,49.395 L156,59.925 L145.725,59.925 L161.115,13.62 L171.58,13.62 Z M171.645,42.035 L166.315,24.15 L160.845,42.035 L171.645,42.035 Z" id="Shape" fill="#0B1D40"></path>
                <polygon id="Path" fill="#0B1D40" points="193.03 22 193.03 14.025 230.29 14.025 230.29 22 216.32 22 216.32 59.935 206.87 59.935 206.87 22"></polygon>
                <path d="M262.61,13.62 L277.66,59.925 L267.4,59.925 L264.365,49.395 L250.12,49.395 L247,59.925 L236.755,59.925 L252.145,13.62 L262.61,13.62 Z M262.675,42.035 L257.345,24.15 L251.875,42.035 L262.675,42.035 Z" id="Shape" fill="#0B1D40"></path>
                <polygon id="Path" fill="#0B1D40" points="295.6 14.025 305.1 48.38 314.885 14.025 325.1 14.025 310 59.925 300.195 59.925 285.345 14.025"></polygon>
                <polygon id="Path" fill="#0B1D40" points="340.07 14.025 349.455 14.025 349.455 59.925 340.07 59.925"></polygon>
                <path d="M400.13,47.03 C400.13,55.47 393.45,60.465 383.865,60.465 C377.25,60.465 370.5,57.965 366.45,53.375 L370.95,47.435 C374.294815,50.7421856 378.801323,52.6086803 383.505,52.635 C388.165,52.635 390.795,50.675 390.795,47.37 C390.795,43.925 388.705,42.575 381.955,40.55 C372.705,37.85 367.71,34.05 367.575,26.85 C367.44,17.85 375.205,13.415 383.64,13.415 C389.715,13.415 394.845,15.105 399.57,19.155 L395.32,25.43 C391.47,22.53 388.165,21.38 383.91,21.38 C379.525,21.38 376.91,23.27 376.91,26.58 C376.91,29.89 379.205,31.305 386.025,33.395 C395.27,36.095 400.065,40.145 400.13,47.03 Z" id="Path" fill="#0B1D40"></path>
                <path d="M453.105,28.335 L453.105,45.545 C453.105,55.4 445.545,60.6 434.81,60.6 L433.81,60.6 C422.94,60.6 415.45,55.47 415.45,45.545 L415.45,28.335 C415.45,18.95 423.28,13.335 433.74,13.335 L434.82,13.335 C445.14,13.35 453.105,19 453.105,28.335 Z M443.72,29.075 C443.72,24.075 439.94,21.315 434.81,21.315 L433.73,21.315 C428.535,21.315 424.89,24.15 424.89,29.01 L424.89,44.94 C424.89,50.205 428.33,52.7 433.8,52.7 L434.8,52.7 C440.2,52.7 443.71,50.135 443.71,44.94 L443.72,29.075 Z" id="Shape" fill="#0B1D40"></path>
                <path d="M496.155,40.55 L505.875,59.925 L495.75,59.925 L487.45,42.645 L479.415,42.645 L479.415,59.925 L470.035,59.925 L470.035,14.025 L489.205,14.025 C498.45,14.025 504.39,18.14 504.39,26.915 L504.39,29.145 C504.39,35.15 501.22,39.065 496.155,40.55 Z M479.415,35.285 L488.8,35.285 C492.04,35.22 495,33.53 495,30 L495,27.255 C495,23.88 492.375,22 488.595,22 L479.415,22 L479.415,35.285 Z" id="Shape" fill="#0B1D40"></path>
                <path d="M55.4,60.445 L-2.84217094e-14,60.445 L-2.84217094e-14,5.04999959 L24.73,5.04999959 C32.8637299,5.04867378 40.6647772,8.2788558 46.4166618,14.0298026 C52.1685463,19.7807494 55.4,27.58127 55.4,35.715 L55.4,60.445 Z M17.84,42.605 L37.555,42.605 L37.555,39.87 C37.555,30.4811593 29.9438407,22.87 20.555,22.87 L17.84,22.87 L17.84,42.605 Z" id="Shape" fill="#A3D180"></path>
                <polygon id="Path" fill="#0B1D40" points="37.555 42.605 37.555 42.605 17.84 42.605 17.84 22.89 17.84 22.89 -2.13162821e-14 5.05 -2.13162821e-14 60.445 55.4 60.445"></polygon>
                <polygon id="Path" fill="#9DDCF6" points="37.555 42.605 17.84 22.89 17.84 42.605"></polygon>
                <path d="M17.87,5.05 L24.705,5.05 C32.8387299,5.04867378 40.6397772,8.2788558 46.3916618,14.0298026 C52.1435463,19.7807494 55.3750001,27.58127 55.375,35.715 L55.375,42.605 L60.875,42.605 L60.875,34.605 C60.8722393,15.5329898 45.4120102,0.0727606587 26.34,0.07 L17.87,2.13162821e-14 L17.87,5.05" id="Path" fill="#FDF5A1"></path>
                <polyline id="Path" fill="#6DBE4C" points="17.87 22.915 17.87 5.05 3.55271368e-15 5.05 17.87 22.915"></polyline>
                <polyline id="Path" fill="#6DBE4C" points="37.53 42.58 55.375 42.58 55.4 60.445 37.53 42.58"></polyline>
            </g>
        </g>
    </g>
</svg>