<?xml version="1.0"?>
<svg xmlns="http://www.w3.org/2000/svg" viewBox="0 0 64 64" width="512px" height="512px" class=""><g><g id="Website"><path d="M59,13V41H5V13A4,4,0,0,1,9,9H55A4,4,0,0,1,59,13Z" style="fill:#D4E6F7" data-original="#5AAAE7" class="" data-old_color="#D2E5F6"/><path d="M59,13V41H21L53,9h2A4,4,0,0,1,59,13Z" style="fill:#9ECFF2" data-original="#3D9AE2" class="" data-old_color="#9CCDF0"/><path d="M46,9H41a1,1,0,0,1-1-1V3Z" style="fill:#bcbec0" data-original="#BCBEC0" class=""/><path d="M46,9V36a1,1,0,0,1-1,1H19a1,1,0,0,1-1-1V4a1,1,0,0,1,1-1H40V8a1,1,0,0,0,1,1Z" style="fill:#e6e7e8" data-original="#E6E7E8"/><circle cx="32" cy="20" r="9" style="fill:#F3AF1A" data-original="#FFD422" class="" data-old_color="#FFD422"/><polygon points="37 18 37 22 34 22 34 25 30 25 30 22 27 22 27 18 30 18 30 15 34 15 34 18 37 18" style="fill:#F8ECE8" data-original="#FF5023" class="" data-old_color="#EBD7D1"/><path d="M43,58v3H21V58a1,1,0,0,1,1-1H42A1,1,0,0,1,43,58Z" style="fill:#075FC5" data-original="#57565C" class="" data-old_color="#075FC6"/><polygon points="40 57 24 57 25 49 39 49 40 57" style="fill:#73BEF8" data-original="#787680" class="" data-old_color="#71BDF7"/><path d="M59,41v4a4,4,0,0,1-4,4H9a4,4,0,0,1-4-4V41Z" style="fill:#79D6FD" data-original="#898890" class="active-path" data-old_color="#78D5FC"/><polygon points="39.25 51 24.75 51 25 49 39 49 39.25 51" style="fill:#075FC5" data-original="#57565C" class="" data-old_color="#075FC6"/><path d="M55,8H46.414L40.707,2.293A1,1,0,0,0,40,2H19a2,2,0,0,0-2,2V8H9a5.006,5.006,0,0,0-5,5V45a5.006,5.006,0,0,0,5,5H23.867l-.75,6H22a2,2,0,0,0-2,2v2H18v2H46V60H44V58a2,2,0,0,0-2-2H40.883l-.75-6H55a5.006,5.006,0,0,0,5-5V13A5.006,5.006,0,0,0,55,8ZM41,5.414,43.586,8H41ZM19,4H39V8a2,2,0,0,0,2,2h4V36H19ZM9,10h8V36a2,2,0,0,0,2,2H45a2,2,0,0,0,2-2V10h8a3,3,0,0,1,3,3V40H6V13A3,3,0,0,1,9,10ZM42,60H22V58H42Zm-3.133-4H25.133l.75-6H38.117ZM55,48H9a3,3,0,0,1-3-3V42H58v3A3,3,0,0,1,55,48Z" data-original="#000000" class="" style="fill:#0D91E9" data-old_color="#0d91e9"/><rect x="53" y="44" width="2" height="2" data-original="#000000" class="" style="fill:#0D91E9" data-old_color="#0d91e9"/><path d="M32,10A10,10,0,1,0,42,20,10.011,10.011,0,0,0,32,10Zm0,18a8,8,0,1,1,8-8A8.009,8.009,0,0,1,32,28Z" data-original="#000000" class="" style="fill:#0D91E9" data-old_color="#0d91e9"/><path d="M35,17V15a1,1,0,0,0-1-1H30a1,1,0,0,0-1,1v2H27a1,1,0,0,0-1,1v4a1,1,0,0,0,1,1h2v2a1,1,0,0,0,1,1h4a1,1,0,0,0,1-1V23h2a1,1,0,0,0,1-1V18a1,1,0,0,0-1-1Zm1,4H34a1,1,0,0,0-1,1v2H31V22a1,1,0,0,0-1-1H28V19h2a1,1,0,0,0,1-1V16h2v2a1,1,0,0,0,1,1h2Z" data-original="#000000" class="" style="fill:#0D91E9" data-old_color="#0d91e9"/></g></g> </svg>
