<svg width="100" height="100" viewBox="0 0 100 100" fill="none" xmlns="http://www.w3.org/2000/svg">
<path d="M86 75.2005C81.3 71.9005 75.2 67.4005 70.5 64.1005C69.3 63.3005 68.2 61.7005 67 62.0005C65.9 62.2005 65.1 63.9005 64.1 65.0005C63.7 65.5005 63.5 65.8005 64.1 66.3005C69.2 71.2005 75.5 77.2005 80.6 82.1005C81.5 83.0005 82.5 83.1005 83.4 82.2005C84.6 80.9005 85.8 79.4005 87 78.1005C87.2 77.8005 87.4 77.5005 87.3 77.1005C87.3 76.2005 86.7 75.7005 86 75.2005ZM47.1 30.3005C36.9 30.3005 28.5 38.6005 28.4 48.6005C28.4 59.0005 36.8 67.3005 47.2 67.3005C57.5 67.3005 65.9 59.1005 65.9 48.9005C66 38.6005 57.6 30.3005 47.1 30.3005ZM89.7 77.9005C88.5 79.9005 86.9 81.6005 85.4 83.3005C83.5 85.6005 81.1 85.8005 78.9 83.7005C74.6 79.6005 70.4 75.5005 66.1 71.3005C64.9 70.2005 63.8 69.1005 62.6 67.9005C62.2 67.5005 61.5 67.2005 62 66.3005C62.3 65.7005 60.2 65.1005 59.9 65.4005C55.4 68.5005 50.4 69.9005 44.9 69.4005C34.3 68.5005 25.6 58.7005 26.2 48.1005C26.7 38.4005 32.9 30.8005 42.3 28.5005C54.1 25.6005 66.3 33.7005 68 45.6005C68.6 49.9005 68 53.9005 66.2 57.8005C66 58.2005 66.8 60.7005 67.8 59.8005C68.1 59.5005 68.4 60.0005 68.7 60.2005C75 64.6005 81.2 69.0005 87.5 73.4005C88.6 74.2005 89.2 75.2005 89.7 76.3005V77.9005Z" fill="#95989F" fill-opacity="0.6"/>
<path d="M33.2 44.4994C33.1 44.4994 33 44.4994 32.9 44.3994C32.4 44.1994 32.1 43.5994 32.3 43.0994C34.6 36.6994 40.8 32.3994 47.7 32.3994C48.3 32.3994 48.7 32.7994 48.7 33.3994C48.7 33.9994 48.3 34.3994 47.7 34.3994C41.6 34.3994 36.2 38.1994 34.2 43.7994C34 44.1994 33.6 44.4994 33.2 44.4994Z" fill="#95989F" fill-opacity="0.6"/>
<path d="M63 49.5C62.4 49.5 62 49.1 62 48.5C62 45 60.7 41.7 58.4 39.1C58 38.7 58.1 38.1 58.5 37.7C58.9 37.3 59.5 37.4 59.9 37.8C62.6 40.8 64.1 44.6 64.1 48.5C64 49.1 63.5 49.5 63 49.5Z" fill="#95989F" fill-opacity="0.6"/>
<path d="M47 21C46.4 21 46 20.6 46 20V13C46 12.4 46.4 12 47 12C47.6 12 48 12.4 48 13V20C48 20.5 47.6 21 47 21Z" fill="#95989F" fill-opacity="0.6"/>
<path d="M47 87.1006C46.4 87.1006 46 86.7006 46 86.1006V79.1006C46 78.5006 46.4 78.1006 47 78.1006C47.6 78.1006 48 78.5006 48 79.1006V86.1006C48 86.7006 47.6 87.1006 47 87.1006Z" fill="#95989F" fill-opacity="0.6"/>
<path d="M68.3 29.5997C68 29.5997 67.8 29.4997 67.6 29.2997C67.2 28.8997 67.2 28.2997 67.6 27.8997L72.6 22.9997C73 22.5997 73.6 22.5997 74 22.9997C74.4 23.3997 74.4 23.9997 74 24.3997L69 29.2997C68.8 29.4997 68.5 29.5997 68.3 29.5997Z" fill="#95989F" fill-opacity="0.6"/>
<path d="M20.9 76.4C20.6 76.4 20.4 76.3 20.2 76.1C19.8 75.7 19.8 75.1 20.2 74.7L25.2 69.8C25.6 69.4 26.2 69.4 26.6 69.8C27 70.2 27 70.8 26.6 71.2L21.6 76.1C21.4 76.3 21.1 76.4 20.9 76.4Z" fill="#95989F" fill-opacity="0.6"/>
<path d="M84.1 50.5H77.1C76.5 50.5 76.1 50.1 76.1 49.5C76.1 48.9 76.5 48.5 77.1 48.5H84.1C84.7 48.5 85.1 48.9 85.1 49.5C85.1 50.1 84.7 50.5 84.1 50.5Z" fill="#95989F" fill-opacity="0.6"/>
<path d="M17 50.5H10C9.4 50.5 9 50.1 9 49.5C9 48.9 9.4 48.5 10 48.5H17C17.6 48.5 18 48.9 18 49.5C18 50.1 17.6 50.5 17 50.5Z" fill="#95989F" fill-opacity="0.6"/>
<path d="M25.8 29.5997C25.5 29.5997 25.3 29.4997 25.1 29.2997L20.1 24.3997C19.7 23.9997 19.7 23.3997 20.1 22.9997C20.5 22.5997 21.1 22.5997 21.5 22.9997L26.5 27.8997C26.9 28.2997 26.9 28.8997 26.5 29.2997C26.4 29.4997 26.1 29.5997 25.8 29.5997Z" fill="#95989F" fill-opacity="0.6"/>
</svg>
