<?xml version="1.0"?>
<svg xmlns="http://www.w3.org/2000/svg" height="512px" viewBox="0 0 496 496" width="512px" class=""><g><path d="m72 264h240c17.671875 0 32-14.328125 32-32v-192c0-17.671875-14.328125-32-32-32h-272c-17.671875 0-32 14.328125-32 32v288zm0 0" fill="#e0a439" data-original="#E0A439" class=""/><path d="m32 304 40-40h240c17.671875 0 32-14.328125 32-32v-192c0-2.777344-.464844-5.433594-1.128906-8h-310.871094zm0 0" fill="#f6c046" data-original="#F6C046" class="active-path" style="fill:#0D91E9" data-old_color="#0d91e9"/><g fill="#a4bdca"><path d="m104 96c0 13.253906-10.746094 24-24 24s-24-10.746094-24-24 10.746094-24 24-24 24 10.746094 24 24zm0 0" data-original="#000000" class=""/><path d="m184 96c0 13.253906-10.746094 24-24 24s-24-10.746094-24-24 10.746094-24 24-24 24 10.746094 24 24zm0 0" data-original="#000000" class=""/><path d="m264 96c0 13.253906-10.746094 24-24 24s-24-10.746094-24-24 10.746094-24 24-24 24 10.746094 24 24zm0 0" data-original="#000000" class=""/></g><path d="m424 232h-240c-17.671875 0-32 14.328125-32 32v192c0 17.671875 14.328125 32 32 32h272c17.671875 0 32-14.328125 32-32v-288zm0 0" fill="#e0a439" data-original="#E0A439" class=""/><path d="m464 192-40 40h-240c-17.671875 0-32 14.328125-32 32v192c0 2.777344.464844 5.433594 1.128906 8h310.871094zm0 0" fill="#f6c046" data-original="#F6C046" class="active-path" style="fill:#0D91E9" data-old_color="#0d91e9"/><path d="m376 368c0-39.765625-25.070312-72-56-72s-56 32.234375-56 72 25.070312 72 56 72 56-32.234375 56-72zm0 0" fill="#db4841" data-original="#DB4841" class=""/><path d="m320 440c-30.929688 0-56-32.230469-56-72s25.070312-72 56-72" fill="#ed5a54" data-original="#ED5A54" class=""/><path d="m352 296c0 17.671875-14.328125 32-32 32s-32-14.328125-32-32 14.328125-32 32-32 32 14.328125 32 32zm0 0" fill="#a4bdca" data-original="#A4BDCA"/><path d="m8 336c-1.03125 0-2.070312-.199219-3.0625-.609375-2.984375-1.238281-4.9375-4.160156-4.9375-7.390625v-288c0-22.054688 17.945312-40 40-40h272c22.054688 0 40 17.945312 40 40v192h-16v-192c0-13.230469-10.769531-24-24-24h-272c-13.230469 0-24 10.769531-24 24v268.6875l50.34375-50.34375c1.496094-1.503906 3.535156-2.34375 5.65625-2.34375h80v16h-76.6875l-61.65625 61.65625c-1.527344 1.527344-3.578125 2.34375-5.65625 2.34375zm0 0" data-original="#000000" class=""/><path d="m456 496h-272c-22.054688 0-40-17.945312-40-40v-192c0-22.054688 17.945312-40 40-40h236.6875l61.65625-61.65625c2.289062-2.296875 5.71875-2.984375 8.71875-1.734375 2.984375 1.238281 4.9375 4.160156 4.9375 7.390625v288c0 22.054688-17.945312 40-40 40zm-272-256c-13.230469 0-24 10.769531-24 24v192c0 13.230469 10.769531 24 24 24h272c13.230469 0 24-10.769531 24-24v-268.6875l-50.34375 50.34375c-1.496094 1.503906-3.535156 2.34375-5.65625 2.34375zm0 0" data-original="#000000" class=""/><path d="m320 448c-35.289062 0-64-35.886719-64-80 0-27.160156 10.824219-52.207031 28.953125-67.007812l10.117187 12.390624c-14.445312 11.792969-23.070312 32.21875-23.070312 54.617188 0 35.289062 21.527344 64 48 64s48-28.710938 48-64c0-22.398438-8.625-42.824219-23.078125-54.625l10.125-12.390625c18.128906 14.808594 28.953125 39.863281 28.953125 67.015625 0 44.113281-28.710938 80-64 80zm0 0" data-original="#000000" class=""/><path d="m320 336c-22.054688 0-40-17.945312-40-40s17.945312-40 40-40 40 17.945312 40 40-17.945312 40-40 40zm0-64c-13.230469 0-24 10.769531-24 24s10.769531 24 24 24 24-10.769531 24-24-10.769531-24-24-24zm0 0" data-original="#000000" class=""/><path d="m392 448h-16v-11.71875l-20.441406-13.625 8.875-13.3125 24 16c2.230468 1.488281 3.566406 3.984375 3.566406 6.65625zm0 0" data-original="#000000" class=""/><path d="m410.34375 397.65625-13.65625-13.65625h-20.6875v-16h24c2.121094 0 4.160156.839844 5.65625 2.34375l16 16zm0 0" data-original="#000000" class=""/><path d="m373.65625 341.65625-11.3125-11.3125 24-24c1.496094-1.503906 3.535156-2.34375 5.65625-2.34375h16v16h-12.6875zm0 0" data-original="#000000" class=""/><path d="m264 448h-16v-16c0-2.671875 1.335938-5.167969 3.558594-6.65625l24-16 8.875 13.3125-20.433594 13.625zm0 0" data-original="#000000" class=""/><path d="m229.65625 397.65625-11.3125-11.3125 16-16c1.496094-1.503906 3.535156-2.34375 5.65625-2.34375h24v16h-20.6875zm0 0" data-original="#000000" class=""/><path d="m266.34375 341.65625-21.65625-21.65625h-12.6875v-16h16c2.121094 0 4.160156.839844 5.65625 2.34375l24 24zm0 0" data-original="#000000" class=""/><path d="m288 352h16v16h-16zm0 0" data-original="#000000" class=""/><path d="m328 392h16v16h-16zm0 0" data-original="#000000" class=""/><path d="m80 128c-17.648438 0-32-14.351562-32-32s14.351562-32 32-32 32 14.351562 32 32-14.351562 32-32 32zm0-48c-8.824219 0-16 7.175781-16 16s7.175781 16 16 16 16-7.175781 16-16-7.175781-16-16-16zm0 0" data-original="#000000" class=""/><path d="m160 128c-17.648438 0-32-14.351562-32-32s14.351562-32 32-32 32 14.351562 32 32-14.351562 32-32 32zm0-48c-8.824219 0-16 7.175781-16 16s7.175781 16 16 16 16-7.175781 16-16-7.175781-16-16-16zm0 0" data-original="#000000" class=""/><path d="m240 128c-17.648438 0-32-14.351562-32-32s14.351562-32 32-32 32 14.351562 32 32-14.351562 32-32 32zm0-48c-8.824219 0-16 7.175781-16 16s7.175781 16 16 16 16-7.175781 16-16-7.175781-16-16-16zm0 0" data-original="#000000" class=""/></g> </svg>
