<?xml version="1.0" encoding="UTF-8"?>
<svg width="20px" height="15px" viewBox="0 0 20 15" version="1.1" xmlns="http://www.w3.org/2000/svg" xmlns:xlink="http://www.w3.org/1999/xlink">
    <!-- Generator: Sketch 63.1 (92452) - https://sketch.com -->
    <title>Group</title>
    <desc>Created with Sketch.</desc>
    <g id="Feature-Platform" stroke="none" stroke-width="1" fill="none" fill-rule="evenodd" opacity="0.68">
        <g id="PACKAGE---MANAGE-CREATE" transform="translate(-121.000000, -275.000000)" fill="#FFFFFF" fill-rule="nonzero">
            <g id="Group" transform="translate(121.000000, 275.000000)">
                <rect id="Rectangle" x="0.104166667" y="4.22916667" width="2.875" height="6.14583333"></rect>
                <rect id="Rectangle" x="3.89583333" y="2.16666667" width="2.85416667" height="10.2708333"></rect>
                <path d="M13.7916667,4.10416667 C12.0416667,4.10416667 10.625,5.54166667 10.625,7.29166667 C10.625,9.04166667 12.0416667,10.4791667 13.8125,10.4791667 C15.5833333,10.4791667 16.9791667,9.04166667 16.9791667,7.29166667 C16.9791667,5.54166667 15.5416667,4.10416667 13.7916667,4.10416667 Z M15.2708333,6.91666667 L13.6875,8.60416667 C13.6041667,8.70833333 13.4791667,8.75 13.3541667,8.75 C13.2291667,8.75 13.1041667,8.6875 13.0208333,8.60416667 L12.1875,7.70833333 C12.0208333,7.52083333 12.0208333,7.22916667 12.2083333,7.0625 C12.3958333,6.89583333 12.6875,6.89583333 12.8541667,7.08333333 L13.3541667,7.60416667 L14.5833333,6.27083333 C14.75,6.08333333 15.0416667,6.0625 15.2291667,6.25 C15.4375,6.41666667 15.4583333,6.70833333 15.2708333,6.91666667 Z" id="Shape"></path>
                <path d="M7.6875,0.0833333333 L7.6875,14.4791667 L19.8958333,14.4791667 L19.8958333,0.0833333333 L7.6875,0.0833333333 Z M13.7916667,11.3958333 C11.5208333,11.3958333 9.6875,9.5625 9.6875,7.29166667 C9.6875,5.02083333 11.5208333,3.1875 13.7916667,3.1875 C16.0625,3.1875 17.8958333,5.02083333 17.8958333,7.29166667 C17.8958333,9.5625 16.0625,11.3958333 13.7916667,11.3958333 Z" id="Shape"></path>
            </g>
        </g>
    </g>
</svg>
