<?xml version="1.0" encoding="UTF-8"?>
<svg width="20px" height="20px" viewBox="0 0 20 20" version="1.1" xmlns="http://www.w3.org/2000/svg" xmlns:xlink="http://www.w3.org/1999/xlink">
    <g id="Page-1" stroke="none" stroke-width="1">
        <g id="07.1" transform="translate(-951.000000, -247.000000)">
            <g id="Float-Bar" transform="translate(110.000000, 236.000000)">
                <g id="area-select" transform="translate(842.000000, 12.000000)">
                    <path d="M6.25011719,0.833320313 L4.5834375,0.833320313 C4.3534375,0.833320313 4.16675781,1.02 4.16675781,1.25 C4.16675781,1.48 4.3534375,1.66667969 4.5834375,1.66667969 L6.25011719,1.66667969 C6.4809375,1.66667969 6.66679687,1.48 6.66679687,1.25 C6.66679687,1.02 6.48097656,0.833320313 6.25011719,0.833320313 Z" id="Path" stroke-width="0.4"></path>
                    <path d="M11.2501172,0.833320313 L9.5834375,0.833320313 C9.3534375,0.833320313 9.16675781,1.02 9.16675781,1.25 C9.16675781,1.48 9.3534375,1.66667969 9.5834375,1.66667969 L11.2501172,1.66667969 C11.4809375,1.66667969 11.6667969,1.48 11.6667969,1.25 C11.6667969,1.02 11.4809766,0.833320313 11.2501172,0.833320313 Z" id="Path" stroke-width="0.4"></path>
                    <path d="M6.25011719,13.75 L4.5834375,13.75 C4.3534375,13.75 4.16675781,13.9366797 4.16675781,14.1666797 C4.16675781,14.3966797 4.3534375,14.5833594 4.5834375,14.5833594 L6.25011719,14.5833594 C6.4809375,14.5833594 6.66679687,14.3966797 6.66679687,14.1666797 C6.66679687,13.9366797 6.48097656,13.75 6.25011719,13.75 Z" id="Path" stroke-width="0.4"></path>
                    <path d="M1.25011719,9.16667969 C1.01929688,9.16667969 0.8334375,9.35335938 0.8334375,9.58335938 L0.8334375,11.25 C0.8334375,11.48 1.02011719,11.6666797 1.25011719,11.6666797 C1.48011719,11.6666797 1.66679688,11.48 1.66679688,11.25 L1.66679688,9.58332031 C1.66679688,9.35332031 1.48097656,9.16667969 1.25011719,9.16667969 Z" id="Path" stroke-width="0.4"></path>
                    <path d="M1.25011719,4.16667969 C1.01929688,4.16667969 0.8334375,4.35335938 0.8334375,4.58335938 L0.8334375,6.25 C0.8334375,6.48 1.02011719,6.66667969 1.25011719,6.66667969 C1.4809375,6.66667969 1.66679688,6.48 1.66679688,6.25 L1.66679688,4.58332031 C1.66679688,4.35332031 1.48097656,4.16667969 1.25011719,4.16667969 Z" id="Path" stroke-width="0.4"></path>
                    <path d="M14.5834766,4.16667969 C14.3526562,4.16667969 14.1667969,4.35335938 14.1667969,4.58335938 L14.1667969,6.25 C14.1667969,6.48 14.3534766,6.66667969 14.5834766,6.66667969 C14.8134766,6.66667969 15.0001562,6.48 15.0001562,6.25 L15.0001562,4.58332031 C15.0001172,4.35332031 14.8142969,4.16667969 14.5834766,4.16667969 Z" id="Path" stroke-width="0.4"></path>
                    <path d="M14.8166797,13.5 C14.5858594,13.5 14.4,13.6866797 14.4,13.9166797 L14.4,15.5833203 C14.4,15.8133203 14.5866797,16 14.8166797,16 C15.0466797,16 15.2333594,15.8133203 15.2333594,15.5833203 L15.2333594,13.9166406 C15.2333203,13.6866406 15.0475,13.5 14.8166797,13.5 Z" id="Path" transform="translate(14.816680, 14.750000) rotate(-45.000000) translate(-14.816680, -14.750000) "></path>
                    <path d="M15.7166797,14.4 C15.4858594,14.4 15.3,14.5866797 15.3,14.8166797 L15.3,16.4833203 C15.3,16.7133203 15.4866797,16.9 15.7166797,16.9 C15.9466797,16.9 16.1333594,16.7133203 16.1333594,16.4833203 L16.1333594,14.8166406 C16.1333203,14.5866406 15.9475,14.4 15.7166797,14.4 Z" id="Path-Copy" transform="translate(15.716680, 15.650000) rotate(-45.000000) translate(-15.716680, -15.650000) "></path>
                    <path d="M16.6166797,15.3 C16.3858594,15.3 16.2,15.4866797 16.2,15.7166797 L16.2,17.3833203 C16.2,17.6133203 16.3866797,17.8 16.6166797,17.8 C16.8466797,17.8 17.0333594,17.6133203 17.0333594,17.3833203 L17.0333594,15.7166406 C17.0333203,15.4866406 16.8475,15.3 16.6166797,15.3 Z" id="Path-Copy-2" transform="translate(16.616680, 16.550000) rotate(-45.000000) translate(-16.616680, -16.550000) "></path>
                    <path d="M15.4167969,0 L13.7501172,0 C13.5201172,0 13.3334375,0.186679687 13.3334375,0.416679687 L13.3334375,2.08335937 C13.3334375,2.31335938 13.5201172,2.50003906 13.7501172,2.50003906 L15.4167969,2.50003906 C15.6476172,2.50003906 15.8334766,2.31335938 15.8334766,2.08335937 L15.8334766,0.416679687 C15.8334766,0.186679687 15.6476172,0 15.4167969,0 Z" id="Path" stroke-width="0.4"></path>
                    <path d="M2.08347656,0 L0.416796875,0 C0.186796875,0 0.0001171875,0.186679687 0.0001171875,0.416679688 L0.0001171875,2.08335938 C0.0001171875,2.31332031 0.186796875,2.5 0.416796875,2.5 L2.08347656,2.5 C2.31429687,2.5 2.50015625,2.31332031 2.50015625,2.08332031 L2.50015625,0.416679688 C2.50011719,0.186679687 2.31429687,0 2.08347656,0 Z" id="Path" stroke-width="0.4"></path>
                    <path d="M2.08347656,12.9166797 L0.416796875,12.9166797 C0.186796875,12.9166797 0.0001171875,13.1033594 0.0001171875,13.3333594 L0.0001171875,15 C0.0001171875,15.23 0.186796875,15.4166797 0.416796875,15.4166797 L2.08347656,15.4166797 C2.31429687,15.4166797 2.50015625,15.23 2.50015625,15 L2.50015625,13.3333203 C2.50011719,13.1033203 2.31429687,12.9166797 2.08347656,12.9166797 Z" id="Path" stroke-width="0.4"></path>
                    <path d="M17.1191408,12.2192031 L9.61914085,8.05252343 C9.46414085,7.96670312 9.27246116,7.98752343 9.14164085,8.10420312 C9.00914085,8.2208828 8.96414085,8.40752343 9.02996116,8.57170312 L12.3632815,16.9050234 C12.4257815,17.0617031 12.5766018,17.1650234 12.7449612,17.1667031 C12.7466408,17.1667031 12.7482815,17.1667031 12.7499612,17.1667031 C12.9166408,17.1667031 13.0674612,17.0675234 13.1332815,16.9142031 L14.3174612,14.1508828 L17.0807815,12.9667031 C17.2266018,12.9042031 17.3241018,12.7633828 17.3324612,12.6050234 C17.3407815,12.4467031 17.2574612,12.2967031 17.1191408,12.2192031 Z" id="Path" stroke-width="0.4"></path>
                </g>
            </g>
        </g>
    </g>
</svg>
