<?xml version="1.0" encoding="UTF-8"?>
<svg width="33px" height="33px" viewBox="0 0 33 33" version="1.1" xmlns="http://www.w3.org/2000/svg" xmlns:xlink="http://www.w3.org/1999/xlink">
    <!-- Generator: Sketch 63.1 (92452) - https://sketch.com -->
    <title>noun_test_1693796</title>
    <desc>Created with Sketch.</desc>
    <g id="Rule-Engine-Improvements-(Phase-III)" stroke="none" stroke-width="1" fill="none" fill-rule="evenodd">
        <g id="SINGLE-TEST---MANUAL" transform="translate(-83.000000, -220.000000)" fill-rule="nonzero">
            <g id="Group-2" transform="translate(74.000000, 208.000000)">
                <g id="noun_test_1693796" transform="translate(9.000000, 12.000000)">
                    <path d="M32.8932895,14.6377235 C32.850985,14.247168 32.6035862,13.9088149 32.2442246,13.7500347 L29.9229924,12.7259476 C29.8129814,12.298053 29.6831684,11.8932581 29.5423544,11.502763 L30.828383,9.28409101 C31.0230105,8.94839637 31.0263548,8.53500355 30.8371838,8.19620473 C30.230511,7.11376209 29.5062944,6.10152236 28.6776679,5.1778428 C28.410525,4.88002603 28.002735,4.7507105 27.6127614,4.84014706 L25.169417,5.40003999 C24.8547856,5.14484321 24.5236524,4.90064629 24.179318,4.66964921 L23.9482949,2.09018174 C23.9125486,1.69962543 23.6715398,1.35764104 23.3157316,1.19259306 C22.2043702,0.673269734 21.037797,0.281380723 19.8382839,0.0244077936 C19.4459845,-0.0575991969 19.0401219,0.0802015701 18.7788779,0.384103257 L17.1111111,2.31677888 C16.7050726,2.29587894 16.2982277,2.29587894 15.8921892,2.31677888 L14.2244224,0.383003271 C13.9631785,0.079101584 13.5573158,-0.058699183 13.1650165,0.0233078075 C11.9659043,0.280451372 10.7997145,0.672335566 9.68866881,1.19149307 C9.33243369,1.35624116 9.09096548,1.69828261 9.05500543,2.08908175 L8.81848178,4.66854922 C8.47634756,4.89954631 8.14521445,5.14374323 7.82838276,5.39784002 L5.39053895,4.84014706 C5.00030193,4.74949924 4.59173083,4.8794845 4.32563245,5.17894278 C3.49579046,6.10186295 2.77011177,7.11334586 2.16171604,8.19510474 C1.97296256,8.53361971 1.97630591,8.94647665 2.17051692,9.28189104 L3.45654554,11.501663 C3.31573145,11.8921581 3.1892188,12.298053 3.07590747,12.7259476 L0.755775435,13.7500347 C0.396413795,13.9088149 0.149015,14.247168 0.106710523,14.6377235 C-0.0355701742,15.8751657 -0.0355701742,17.1248343 0.106710523,18.3622765 C0.149015,18.752832 0.396413795,19.0911851 0.755775435,19.2499653 L3.07590747,20.2740524 C3.18591847,20.701947 3.31573145,21.1067419 3.45654554,21.497237 L2.17051692,23.715909 C1.97588941,24.0516036 1.97254511,24.4649964 2.16171604,24.8037953 C2.76838892,25.8862379 3.49260553,26.8984776 4.32123201,27.8221572 C4.5870588,28.1220331 4.99588176,28.2520985 5.38613851,28.1609529 L7.82948287,27.60106 C8.14411434,27.8562568 8.47524745,28.1004537 8.81958189,28.3314508 L9.05610554,30.9109182 C9.09185189,31.3014746 9.33286068,31.6434589 9.68866881,31.8085069 C10.8000303,32.3278303 11.9666034,32.7197193 13.1661166,32.9766922 C13.5584159,33.0586992 13.9642786,32.9208984 14.2255225,32.6169967 L15.8932893,30.6832211 C16.2993278,30.7041211 16.7061728,30.7041211 17.1122112,30.6832211 L18.779978,32.6169967 C18.9889136,32.8599431 19.2934081,33 19.6138614,33 C19.6877816,32.9993146 19.7614762,32.9915776 19.8338834,32.9766922 C21.0329956,32.7195486 22.1991854,32.3276644 23.3102311,31.8085069 C23.6664662,31.6437588 23.9079344,31.3017174 23.9438945,30.9109182 L24.1804181,28.3314508 C24.5225523,28.1004537 24.8536854,27.8562568 25.1705171,27.60216 L27.6127614,28.1598529 C28.0030083,28.2507493 28.4117051,28.1207241 28.6776679,27.8210572 C29.50649,26.8972817 30.2310616,25.8850615 30.838284,24.8026953 C31.0270374,24.4641803 31.0236941,24.0513234 30.8294831,23.715909 L29.5434545,21.496137 C29.6842685,21.1056419 29.8107812,20.699747 29.9240925,20.2718524 L32.2442246,19.2477653 C32.6035862,19.0889851 32.850985,18.750632 32.8932895,18.3600765 C33.0355702,17.1226344 33.0355702,15.8729657 32.8932895,14.6355235 L32.8932895,14.6377235 Z M30.7634765,17.4976874 L28.5412542,18.4777751 C28.2229737,18.6178063 27.9896432,18.9000555 27.9119913,19.2389655 C27.7666995,19.8987617 27.5653829,20.5449628 27.3102311,21.1705411 C27.1792517,21.4870925 27.203248,21.8465892 27.3751376,22.1429288 L28.6028604,24.2659021 C28.2562758,24.8252756 27.8729627,25.3610451 27.4554456,25.8696818 L25.1243125,25.3350886 C24.7791781,25.2540679 24.4162141,25.3464408 24.1518153,25.5825854 C23.6529624,26.0203691 23.1182686,26.415549 22.5533554,26.7639705 C22.2602781,26.946124 22.0696639,27.2552263 22.0385039,27.59886 L21.8118812,30.0639289 C21.2242787,30.3087022 20.6207708,30.5134014 20.0055006,30.6766212 L18.4158416,28.8275445 C18.1882042,28.5572856 17.8424557,28.4158777 17.4906491,28.4491493 C16.8316886,28.5031703 16.1694115,28.5031703 15.510451,28.4491493 C15.1586444,28.4158777 14.812896,28.5572856 14.5852585,28.8275445 L12.9911991,30.6766212 C12.3755684,30.5134069 11.7716942,30.3087081 11.1837183,30.0639289 L10.9636963,27.59886 C10.9326215,27.2546211 10.7415343,26.9450051 10.4477447,26.7628706 C9.88277395,26.4154567 9.34839305,26.020604 8.85038497,25.5825854 C8.58575906,25.3460324 8.22244484,25.2532643 7.8767876,25.3339886 L5.54675458,25.8685818 C5.12900714,25.360378 4.74603233,24.8245677 4.40043993,24.2648021 L5.62926283,22.1451288 C5.80115245,21.8487892 5.82514871,21.4892925 5.69416932,21.1727411 C5.43915891,20.5467349 5.23784701,19.9001806 5.09240914,19.2400654 C5.01475727,18.9011554 4.78142676,18.6189063 4.46314621,18.478875 L2.24092396,17.4987874 C2.2123211,17.1599917 2.20021989,16.8233959 2.20021989,16.5 C2.20021989,16.1766041 2.2123211,15.8455083 2.23652352,15.5012126 L4.45874577,14.521125 C4.77702632,14.3810937 5.01035683,14.0988446 5.0880087,13.7599346 C5.23330052,13.1001384 5.43461706,12.4539372 5.68976888,11.8283589 C5.82074827,11.5118075 5.79675201,11.1523108 5.62486239,10.8559712 L4.40043993,8.73409795 C4.74702452,8.17472439 5.13033761,7.63895493 5.54785469,7.13031817 L7.87898782,7.66491143 C8.22411067,7.74478745 8.58654907,7.65254824 8.85148508,7.41741455 C9.35068838,6.97958081 9.88575185,6.58439962 10.451045,6.23602945 C10.7441224,6.053876 10.9347366,5.74477368 10.9658965,5.40113998 L11.1925192,2.93607107 C11.7801217,2.69129778 12.3836296,2.4865986 12.9988999,2.3233788 L14.5874587,4.17245548 C14.8145187,4.44350595 15.1607018,4.58509164 15.5126513,4.55085071 C16.1716117,4.4968297 16.8338888,4.4968297 17.4928493,4.55085071 C17.8447702,4.58489678 18.1908657,4.44334689 18.4180418,4.17245548 L20.0121012,2.3233788 C20.6277319,2.48659311 21.2316061,2.69129185 21.819582,2.93607107 L22.039604,5.40113998 C22.0706789,5.74537886 22.2617661,6.05499492 22.5555556,6.23712944 C23.1205264,6.58454328 23.6549073,6.97939599 24.1529154,7.41741455 C24.4184308,7.65229384 24.7808774,7.74484041 25.1265127,7.66601142 L27.4565458,7.13141816 C27.8742932,7.63962198 28.257268,8.17543233 28.6028604,8.73519793 L27.3740375,10.8548712 C27.2021479,11.1512108 27.1781516,11.5107075 27.309131,11.8272589 C27.5641414,12.4532651 27.7654533,13.0998194 27.9108912,13.7599346 C27.9885431,14.0988446 28.2218736,14.3810937 28.5401541,14.521125 L30.7623764,15.5012126 C30.7865788,15.8455083 30.79868,16.1766041 30.79868,16.5 C30.79868,16.8233959 30.7909792,17.1599917 30.7667768,17.4987874 L30.7634765,17.4976874 Z" id="Shape" fill="#0D91E9"></path>
                    <path d="M16.5001388,7 C12.6578037,7 9.19380956,9.31456686 7.72341155,12.8644217 C6.25301354,16.4142765 7.06578134,20.5003362 9.78272259,23.2172774 C12.4996638,25.9342187 16.5857235,26.7469865 20.1355783,25.2765884 C23.6854331,23.8061904 26,20.3421963 26,16.4998612 C25.9941828,11.2556442 21.7443558,7.00581722 16.5001388,7 Z M16.5001388,23.8886421 C12.4194278,23.8886421 9.11135794,20.5805722 9.11135794,16.4998612 C9.11135794,12.4191501 12.4194278,9.11108026 16.5001388,9.11108026 C20.5808499,9.11108026 23.8889197,12.4191501 23.8889197,16.4998612 C23.8842663,20.5786431 20.5789208,23.8839886 16.5001388,23.8886421 L16.5001388,23.8886421 Z" id="Shape" fill="#0D91E9"></path>
                    <path d="M15.1736538,18.6770525 L12.4151923,16.158806 L11,17.7532305 L14.5263462,20.9721225 C14.9535817,21.3648521 15.6121665,21.3381284 16.0071154,20.9120365 L22,14.4742525 L20.4621154,13 L15.1736538,18.6770525 Z" id="Path" fill="#30B253"></path>
                </g>
            </g>
        </g>
    </g>
</svg>