<svg width="20" height="20" viewBox="0 020 20" xmlns="http://www.w3.org/2000/svg">
    <g>
        <path d="M8.1052 1.97739H6.21045C5.94898 1.97739 5.73676 2.19634 5.73676 2.46611C5.73676 2.73588 5.94898 2.95484 6.21045 2.95484H8.1052C8.3676 2.95484 8.5789 2.73588 8.5789 2.46611C8.5789 2.19634 8.36765 1.97739 8.1052 1.97739Z" stroke-width="0.4"/>
        <path d="M13.7894 1.97739H11.8947C11.6332 1.97739 11.421 2.19634 11.421 2.46611C11.421 2.73588 11.6332 2.95484 11.8947 2.95484H13.7894C14.0518 2.95484 14.2631 2.73588 14.2631 2.46611C14.2631 2.19634 14.0519 1.97739 13.7894 1.97739Z" stroke-width="0.4"/>
        <path d="M8.1052 17.1274H6.21045C5.94898 17.1274 5.73676 17.3464 5.73676 17.6162C5.73676 17.8859 5.94898 18.1049 6.21045 18.1049H8.1052C8.3676 18.1049 8.5789 17.8859 8.5789 17.6162C8.5789 17.3464 8.36765 17.1274 8.1052 17.1274Z" stroke-width="0.4"/>
        <path d="M13.517 17.1274H11.6223C11.3608 17.1274 11.1486 17.3464 11.1486 17.6162C11.1486 17.8859 11.3608 18.1049 11.6223 18.1049H13.517C13.7794 18.1049 13.9907 17.8859 13.9907 17.6162C13.9907 17.3464 13.7795 17.1274 13.517 17.1274Z" stroke-width="0.4"/>
        <path d="M2.42105 11.7517C2.15865 11.7517 1.94736 11.9706 1.94736 12.2404V14.1952C1.94736 14.465 2.15958 14.6839 2.42105 14.6839C2.68253 14.6839 2.89475 14.465 2.89475 14.1952V12.2403C2.89475 11.9706 2.6835 11.7517 2.42105 11.7517Z" stroke-width="0.4"/>
        <path d="M2.42105 5.88715C2.15865 5.88715 1.94736 6.1061 1.94736 6.37587V8.33068C1.94736 8.60045 2.15958 8.81941 2.42105 8.81941C2.68346 8.81941 2.89475 8.60045 2.89475 8.33068V6.37583C2.89475 6.10606 2.6835 5.88715 2.42105 5.88715Z" stroke-width="0.4"/>
        <path d="M17.5789 5.88715C17.3165 5.88715 17.1052 6.1061 17.1052 6.37587V8.33068C17.1052 8.60045 17.3174 8.81941 17.5789 8.81941C17.8404 8.81941 18.0526 8.60045 18.0526 8.33068V6.37583C18.0526 6.10606 17.8413 5.88715 17.5789 5.88715Z" stroke-width="0.4"/>
        <path d="M17.5789 11.4315C17.3165 11.4315 17.1052 11.6504 17.1052 11.9202V13.875C17.1052 14.1448 17.3174 14.3637 17.5789 14.3637C17.8404 14.3637 18.0526 14.1448 18.0526 13.875V11.9202C18.0526 11.6504 17.8413 11.4315 17.5789 11.4315Z" stroke-width="0.4"/>
        <path d="M18.5263 1H16.6316C16.3701 1 16.1579 1.21896 16.1579 1.48873V3.44358C16.1579 3.71335 16.3701 3.93231 16.6316 3.93231H18.5263C18.7887 3.93231 19 3.71335 19 3.44358V1.48873C19 1.21896 18.7887 1 18.5263 1Z" stroke-width="0.4"/>
        <path d="M18.5263 16.0677H16.6316C16.3701 16.0677 16.1579 16.2866 16.1579 16.5564V18.5113C16.1579 18.781 16.3701 19 16.6316 19H18.5263C18.7887 19 19 18.781 19 18.5113V16.5564C19 16.2866 18.7887 16.0677 18.5263 16.0677Z" stroke-width="0.4"/>
        <path d="M3.36844 1H1.4737C1.21222 1 1 1.21896 1 1.48873V3.44358C1 3.7133 1.21222 3.93226 1.4737 3.93226H3.36844C3.63085 3.93226 3.84214 3.7133 3.84214 3.44354V1.48873C3.8421 1.21896 3.63085 1 3.36844 1Z" stroke-width="0.4"/>
        <path d="M3.36844 16.0677H1.4737C1.21222 16.0677 1 16.2866 1 16.5564V18.5112C1 18.781 1.21222 18.9999 1.4737 18.9999H3.36844C3.63085 18.9999 3.84214 18.781 3.84214 18.5112V16.5564C3.8421 16.2866 3.63085 16.0677 3.36844 16.0677Z" stroke-width="0.4"/>
        <path d="M15.5818 10.1023L15.4935 10.0116C15.4935 10.004 15.4935 10.0002 15.4935 10.0002C15.4935 10.0002 15.4898 10.0002 15.4825 10.0002L14.0592 8.662C14.0077 8.60907 13.9452 8.58261 13.8716 8.58261C13.798 8.58261 13.7355 8.60907 13.684 8.662L13.6178 8.75273C13.5663 8.80565 13.5443 8.86614 13.5516 8.93418C13.5663 9.00223 13.5994 9.06271 13.6509 9.11564L14.5005 9.90951H10.3961V5.66797L11.1684 6.54123C11.2199 6.59415 11.2787 6.62817 11.3449 6.64329C11.4111 6.65086 11.47 6.62817 11.5215 6.57525L11.6097 6.5072C11.6612 6.45428 11.687 6.39001 11.687 6.3144C11.687 6.2388 11.6612 6.17453 11.6097 6.12161L10.363 4.71532C10.3483 4.68508 10.3299 4.65861 10.3078 4.63593C10.2857 4.60569 10.26 4.58301 10.2306 4.56789L10.2085 4.55654C10.1864 4.5263 10.1607 4.5074 10.1313 4.49984C10.1018 4.48472 10.0687 4.47716 10.032 4.47716C10.0025 4.47716 9.96944 4.48472 9.93266 4.49984C9.90324 4.5074 9.87749 4.5263 9.85543 4.55654L9.76716 4.64727C9.76716 4.64727 9.76348 4.65105 9.75613 4.65861L8.48728 6.09892C8.43579 6.15185 8.41005 6.21612 8.41005 6.29172C8.41005 6.36733 8.43579 6.4316 8.48728 6.48452L8.57555 6.55257C8.62704 6.60549 8.68588 6.62817 8.75208 6.62061C8.82564 6.60549 8.88448 6.57147 8.92862 6.51854L9.68993 5.64528V9.89817H5.54135L6.39093 9.11564C6.44242 9.06271 6.47184 9.00223 6.4792 8.93418C6.49391 8.86614 6.47552 8.80565 6.42403 8.75273L6.35783 8.662C6.30634 8.60907 6.24382 8.58261 6.17026 8.58261C6.0967 8.58261 6.03418 8.60907 5.98269 8.662L4.61455 9.94353C4.58512 9.95866 4.5557 9.97756 4.52628 10.0002C4.50421 10.0229 4.48582 10.0494 4.47111 10.0796L4.46008 10.1023C4.43065 10.125 4.40859 10.1515 4.39388 10.1817C4.38652 10.2119 4.38284 10.246 4.38284 10.2838C4.38284 10.314 4.38652 10.348 4.39388 10.3858C4.40859 10.4161 4.43065 10.4425 4.46008 10.4652L4.54834 10.556C4.54834 10.556 4.55202 10.5597 4.55938 10.5673L5.96062 11.8715C6.01211 11.9244 6.07464 11.9509 6.14819 11.9509C6.22175 11.9509 6.28427 11.9244 6.33576 11.8715L6.40196 11.7808C6.45345 11.7279 6.47184 11.6674 6.45713 11.5993C6.44977 11.5237 6.42035 11.4632 6.36886 11.4179L5.50825 10.6353H9.68993V14.8996L8.92862 14.0263C8.88448 13.9734 8.82564 13.9431 8.75208 13.9356C8.68588 13.9205 8.62704 13.9394 8.57555 13.9923L8.48728 14.0603C8.43579 14.1133 8.41005 14.1775 8.41005 14.2531C8.41005 14.3287 8.43579 14.393 8.48728 14.4459L9.75613 15.8862C9.76348 15.8938 9.76716 15.8976 9.76716 15.8976L9.85543 15.9883C9.87749 16.0185 9.90324 16.0374 9.93266 16.045C9.96944 16.0601 10.0025 16.0677 10.032 16.0677C10.0687 16.0677 10.1018 16.0601 10.1313 16.045C10.1607 16.0374 10.1864 16.0185 10.2085 15.9883L10.2968 15.8976C10.3041 15.8976 10.3078 15.8976 10.3078 15.8976C10.3078 15.8976 10.3078 15.8938 10.3078 15.8862L11.6097 14.4232C11.6612 14.3703 11.687 14.3061 11.687 14.2304C11.687 14.1548 11.6612 14.0906 11.6097 14.0376L11.5215 13.9696C11.47 13.9167 11.4111 13.8978 11.3449 13.9129C11.2787 13.9205 11.2199 13.9507 11.1684 14.0036L10.4071 14.8769V10.6353H14.5226L13.673 11.4179C13.6215 11.4632 13.5884 11.5237 13.5737 11.5993C13.5663 11.6674 13.5884 11.7279 13.6399 11.7808L13.7061 11.8715C13.7576 11.9244 13.8201 11.9509 13.8937 11.9509C13.9672 11.9509 14.0297 11.9244 14.0812 11.8715L15.4825 10.5673C15.4898 10.5597 15.4935 10.556 15.4935 10.556L15.5818 10.4652C15.6112 10.4425 15.6296 10.4161 15.6369 10.3858C15.6517 10.348 15.659 10.314 15.659 10.2838C15.659 10.246 15.6517 10.2119 15.6369 10.1817C15.6296 10.1515 15.6112 10.125 15.5818 10.1023Z" stroke-width="0.5"/>
    </g>
</svg>
