<?xml version="1.0" encoding="UTF-8"?>
<svg width="46px" height="33px" viewBox="0 0 46 33" version="1.1" xmlns="http://www.w3.org/2000/svg" xmlns:xlink="http://www.w3.org/1999/xlink">
    <!-- Generator: Sketch 63.1 (92452) - https://sketch.com -->
    <title>noun_Compare_570175</title>
    <desc>Created with Sketch.</desc>
    <g id="Rule-Engine-Improvements-(Phase-III)" stroke="none" stroke-width="1" fill="none" fill-rule="evenodd">
        <g id="SINGLE-TEST---MANUAL" transform="translate(-321.000000, -220.000000)" fill-rule="nonzero">
            <g id="Group-2" transform="translate(74.000000, 208.000000)">
                <g id="noun_Compare_570175" transform="translate(247.000000, 12.000000)">
                    <path d="M18.3293629,4.26187448 C17.5368453,4.93702875 16.820566,5.68948531 16.1922327,6.506945 C15.8700855,6.92283423 15.9622568,7.50917307 16.3981031,7.81656945 C16.8339494,8.12396583 17.4484247,8.03601502 17.770572,7.6201258 C18.3185435,6.90842307 18.942798,6.25318565 19.6332084,5.66504355 C19.9159446,5.44854006 20.0503892,5.10082397 19.9827666,4.76097584 C19.915144,4.42112772 19.656494,4.14463012 19.3102723,4.04207741 C18.9640505,3.93952471 18.5867802,4.02765933 18.3293629,4.27122894 L18.3293629,4.26187448 Z" id="Path" fill="#30B253"></path>
                    <path d="M22.0635003,4.98766377 C22.2431386,4.98915257 22.419951,4.93398626 22.5762357,4.82768789 C23.4147641,4.25016327 24.3015369,3.77996037 25.2219506,3.42482248 C25.5934056,3.31398397 25.8825017,2.96411754 25.9717216,2.5174435 C26.0609414,2.07076947 25.9354324,1.60164681 25.6462139,1.30077337 C25.3569953,0.999899934 24.9522141,0.917362891 24.5964134,1.08671346 C23.5258794,1.49058586 22.4945145,2.03102925 21.5200007,2.6987781 C21.1136962,2.97506643 20.9142673,3.54588853 21.0348969,4.08728274 C21.1555266,4.62867695 21.565744,5.00388768 22.0327362,5 L22.0635003,4.98766377 Z" id="Path" fill="#30B253"></path>
                    <path d="M13.0031718,17.0678228 C13.0021326,18.1205196 13.1406261,19.1705313 13.4164847,20.2014247 C13.5410903,20.6735838 14.0845523,21.0095105 14.7080874,20.9997946 L14.9664079,20.9997946 C15.3021455,20.946908 15.5969268,20.7931121 15.7858719,20.5722565 C15.974817,20.3514009 16.0424403,20.0815868 15.9738581,19.822199 C15.7175049,18.8938138 15.5876369,17.9472444 15.5863772,16.9979654 C15.5863772,16.446806 15.008107,16 14.2947745,16 L14.2947745,16 C13.9359641,15.9993229 13.5929579,16.1139992 13.3479597,16.316549 C13.1029615,16.5190988 12.9780539,16.7912656 13.0031718,17.0678228 L13.0031718,17.0678228 Z" id="Path" fill="#30B253"></path>
                    <path d="M14.9763442,13.9997463 C15.462848,14.0105573 15.8884723,13.674755 15.9905429,13.1995798 C16.1928114,12.2662433 16.4919253,11.3564999 16.8830379,10.4850907 C17.058927,10.151757 17.0350068,9.74846743 16.820944,9.43820221 C16.6068812,9.12793698 16.2380604,8.96198282 15.8635319,9.00740626 C15.4890034,9.05282969 15.1706767,9.30212225 15.0371961,9.6545381 C14.5918182,10.6565167 14.2519259,11.7020126 14.0229973,12.7741748 C13.9658786,13.037486 14.0161571,13.3126741 14.1627116,13.5388705 C14.3092662,13.765067 14.5400191,13.9236306 14.8039304,13.9794889 L14.9763442,13.9997463 Z" id="Path" fill="#30B253"></path>
                    <path d="M42.0775263,10.4137407 C42.4661421,11.3014945 42.7606717,12.2279516 42.9562384,13.1777718 C43.0548111,13.6639158 43.4847318,14.0097921 43.9779966,13.9997885 L44.1823483,13.9997885 C44.4479428,13.9453355 44.6811377,13.7869843 44.830608,13.5595872 C44.9800783,13.3321902 45.0335736,13.0543845 44.9793197,12.7873139 C44.7507487,11.6957676 44.408266,10.6315273 43.9575614,9.61227438 C43.7290193,9.09302642 43.1251764,8.85840767 42.6088406,9.08823874 C42.0925047,9.3180698 41.8592018,9.92531833 42.0877439,10.4445663 L42.0775263,10.4137407 Z" id="Path" fill="#30B253"></path>
                    <path d="M29.1157774,1.99003634 C30.0291958,1.89703185 30.9499829,1.89703185 31.8634012,1.99003634 L31.970578,1.99003634 C32.5086882,2.01905332 32.968905,1.61488695 32.998501,1.0873055 C33.0280971,0.559724044 32.615865,0.10851186 32.0777548,0.079494872 C31.0282501,-0.0264982907 29.9704153,-0.0264982907 28.9209105,0.079494872 C28.6549889,0.0938129359 28.4066353,0.214229359 28.2336184,0.412734475 C28.0606015,0.611239591 27.978003,0.870529879 28.0050359,1.13029268 C28.0290131,1.39167834 28.1616171,1.6318802 28.371713,1.79450004 C28.5818089,1.95711989 28.85089,2.02783302 29.1157774,1.99003634 Z" id="Path" fill="#30B253"></path>
                    <path d="M40.3231907,6.58494622 C40.6282602,6.90438753 40.9157201,7.2381689 41.1844511,7.58499069 C41.3849539,7.86842238 41.7353428,8.02633716 42.0972762,7.99638661 C42.4592097,7.96643607 42.774516,7.75343398 42.9187049,7.44147853 C43.0628939,7.12952307 43.0127907,6.76875318 42.7881774,6.50160918 C42.491191,6.11270299 42.1546065,5.72379681 41.7982229,5.35340996 C41.4396973,4.96472287 41.0596963,4.59383006 40.6597753,4.24224944 C40.25519,3.89705614 39.628037,3.92400317 39.2589897,4.30243732 C38.8899424,4.68087147 38.9187515,5.26748743 39.3233367,5.61268075 C39.6752657,5.91953063 40.0090458,6.24410087 40.3231907,6.58494622 L40.3231907,6.58494622 Z" id="Path" fill="#30B253"></path>
                    <path d="M34.7959637,3.42497406 C35.7298682,3.789878 36.6289198,4.27051994 37.4782935,4.8589743 C37.9719777,5.16605028 38.581486,4.95579863 38.86031,4.3822437 C39.139134,3.80868877 38.9881463,3.07574059 38.5179561,2.72033601 C37.5301873,2.04251384 36.484659,1.49136998 35.3989681,1.07618056 C35.0417044,0.919743418 34.6411021,1.00801081 34.3547001,1.30627113 C34.0682982,1.60453144 33.9419088,2.06507565 34.0252353,2.50679229 C34.1085617,2.94850893 34.3882753,3.30074203 34.7543772,3.42497406 L34.7959637,3.42497406 Z" id="Path" fill="#30B253"></path>
                    <path d="M22.5886537,29.028236 C21.8515317,28.5276076 21.1616628,27.9387079 20.5303538,27.2711888 C20.1522659,26.8789651 19.5717411,26.9166493 19.2337155,27.3553587 C18.8956899,27.7940681 18.9281668,28.4676725 19.3062547,28.8598961 C20.0316625,29.6280047 20.8249216,30.3051158 21.6728462,30.8799744 C22.1034121,31.1413238 22.6349937,30.9623806 22.8781696,30.4742335 C23.1213455,29.9860864 22.9896618,29.3622812 22.5795863,29.0597997 L22.5886537,29.028236 Z" id="Path" fill="#30B253"></path>
                    <path d="M44.3395435,22.0751771 C43.774737,21.8821123 43.1115348,22.0736746 42.856207,22.5036306 C42.4223342,23.2414829 41.8874631,23.9423223 41.2604965,24.5944836 C40.9927662,24.8394572 40.9255752,25.1775358 41.0860956,25.4720004 C41.2466159,25.7664651 41.608292,25.9686011 42.0248619,25.9966648 C42.4414319,26.0247284 42.8439807,25.8740769 43.0697175,25.6056338 C43.7888694,24.8570163 44.4028095,24.0528159 44.9014134,23.2062943 C45.1545968,22.7756015 44.9033838,22.2698772 44.3395435,22.0751771 Z" id="Path" fill="#30B253"></path>
                    <path d="M28.0632295,30.7481159 C27.1346397,30.6304951 26.2192345,30.403133 25.3317119,30.0696803 C24.9916239,29.9265914 24.6102807,30.0073273 24.3376477,30.2801381 C24.0650147,30.5529489 23.9447016,30.9741965 24.0240221,31.378223 C24.1033426,31.7822495 24.3696088,32.1044278 24.7181101,32.2180596 C25.7342648,32.600524 26.7822953,32.8619798 27.8454999,32.9982604 L27.9543647,32.9982604 C28.50095,33.032607 28.9684152,32.5542071 28.9984774,31.9297245 C29.0285396,31.3052418 28.6098149,30.7711552 28.0632295,30.7368086 L28.0632295,30.7481159 Z" id="Path" fill="#30B253"></path>
                    <path d="M39.4883209,27.2918019 C38.8611394,27.9525137 38.1775553,28.5344494 37.4485774,29.0282372 C37.0205985,29.3188453 36.873047,29.9643466 37.1190119,30.4700047 C37.3649768,30.9756628 37.9113162,31.1499953 38.3392951,30.8593872 C39.1866898,30.2855946 39.9808045,29.6083626 40.708604,28.8388079 L40.1207304,28.0495191 L40.7175112,28.8282841 C41.0722745,28.4364943 41.0960457,27.7811598 40.7709543,27.354945 C40.6104443,27.1406527 40.3829967,27.0128263 40.1410094,27.0009134 C39.8990221,26.9890005 39.6633627,27.0940286 39.4883209,27.2918019 Z" id="Path" fill="#30B253"></path>
                    <path d="M44.7082774,16 L44.7082774,16 C43.994984,16 43.4167455,16.4476928 43.4167455,16.9999499 C43.4137832,17.9444377 43.2839312,18.8861251 43.0292859,19.8098092 C42.9565481,20.0697619 43.0205752,20.3414399 43.2072052,20.5647512 C43.3938352,20.7880626 43.6876876,20.9446037 44.0237655,20.9997495 L44.2949872,20.9997495 C44.9145258,21.0104227 45.4565372,20.6789035 45.5865191,20.2097891 C45.8673653,19.1537972 46.0058709,18.0780861 45.9998094,16.9999499 C45.9998094,16.4476928 45.4215708,16 44.7082774,16 Z" id="Path" fill="#30B253"></path>
                    <path d="M33.7194076,30.043454 C32.8199019,30.3722904 31.8928123,30.5919616 30.9533573,30.6988616 C30.3998619,30.7306135 29.9736001,31.2711534 30.0012748,31.9061914 C30.0289496,32.5412293 30.5000811,33.0302893 31.0535765,32.9985374 L31.12373,32.9985374 C32.2026181,32.87785 33.2674553,32.6273412 34.300679,32.2511427 C34.8292671,32.0574562 35.12092,31.4088082 34.9521039,30.802347 C34.7832878,30.1958857 34.2179299,29.8612658 33.6893418,30.0549523 L33.7194076,30.043454 Z" id="Path" fill="#30B253"></path>
                    <path d="M16.9088654,26.6119668 C17.1398029,26.8769751 17.543378,27.0246252 17.96025,26.9966215 C18.3771221,26.9686178 18.7402893,26.7694611 18.906365,26.4777831 C19.0724407,26.1861052 19.0147323,25.8487858 18.7560244,25.5990065 C18.127086,24.9365841 17.5920167,24.2255909 17.1597142,23.4778502 C16.8878912,23.0662699 16.2393621,22.8882331 15.683748,23.0726621 C15.1281339,23.2570912 14.8598233,23.7394615 15.0731086,24.1704727 C15.5706082,25.0309213 16.1859116,25.8492538 16.9088654,26.6119668 L16.9088654,26.6119668 Z" id="Path" fill="#30B253"></path>
                    <path d="M16.8652747,30.7963754 C16.3956267,30.8466116 15.9238489,30.8714835 15.4517906,30.8708935 C10.3032155,30.8649101 5.59720698,27.8005343 3.28655039,22.9493466 C0.975893803,18.0981589 1.45496263,12.2881401 4.5249645,7.9301913 C7.59496636,3.57224246 12.7319259,1.41016041 17.804232,2.3411136 C18.1649386,2.40576884 18.5309591,2.2626118 18.7644172,1.96556836 C18.9978752,1.66852491 19.063303,1.26272302 18.9360545,0.901024331 C18.808806,0.539325642 18.5082133,0.276680791 18.1475067,0.212025549 C12.3556191,-0.775499141 6.52642406,1.73583595 3.04765904,6.71734524 C-0.431105977,11.6988545 -0.974944326,18.3135526 1.63890944,23.8519466 C4.2527632,29.3903406 9.58513346,32.9218782 15.4517906,33 C15.9946488,33.0008304 16.537193,32.9724054 17.0772973,32.914818 C17.4380039,32.8748839 17.7511049,32.6350823 17.8986582,32.2857442 C18.0462114,31.9364061 18.0058002,31.5306042 17.7926469,31.2212002 C17.5794936,30.9117961 17.2259813,30.7457958 16.8652747,30.78573 L16.8652747,30.7963754 Z" id="Path" fill="#0D91E9"></path>
                    <path d="M26.8399989,6.80304916 C29.4968911,9.56859559 30.9363346,13.267329 30.8415116,17.0851674 C30.7466886,20.9030059 29.1253706,24.5270399 26.3344058,27.1596287 C25.9036766,27.5659887 25.8868198,28.2415383 26.2967552,28.6685108 C26.7066906,29.0954833 27.388184,29.112193 27.8189132,28.705833 C31.0240137,25.6832126 32.8859882,21.5218963 32.9949367,17.1379677 C33.1038851,12.7540391 31.4508761,8.50688635 28.3998074,5.33148919 C27.989872,4.90451666 27.3083787,4.88780696 26.8776494,5.29416702 C26.4469202,5.70052708 26.4300635,6.37607663 26.8399989,6.80304916 L26.8399989,6.80304916 Z" id="Path" fill="#0D91E9"></path>
                    <path d="M22.5996036,11.6822062 L25.7814012,8.50040867 C26.0902872,8.13971984 26.0695196,7.60205615 25.7337317,7.26626828 C25.3979439,6.93048041 24.8602802,6.90971279 24.4995913,7.21859879 L21.3177938,10.4003964 C21.0583626,10.6225675 20.945358,10.9714094 21.025241,11.3034987 C21.1051239,11.635588 21.364412,11.8948761 21.6965013,11.974759 C22.0285906,12.054642 22.3774325,11.9416374 22.5996036,11.6822062 L22.5996036,11.6822062 Z" id="Path" fill="#0D91E9"></path>
                    <path d="M26.7253467,20.2600837 C26.3755914,19.9133054 25.8107234,19.9133054 25.460968,20.2600837 L22.3134721,23.4262437 C22.0575689,23.6448249 21.9461011,23.98803 22.0248977,24.3147532 C22.1036944,24.6414763 22.3594564,24.8965747 22.6870297,24.9751669 C23.0146029,25.053759 23.3587009,24.9425805 23.5778508,24.6873413 L26.7163795,21.5569571 C26.8957591,21.3893296 26.9982834,21.1556064 27,20.9104403 C27.0016738,20.6652743 26.9023912,20.4301629 26.7253467,20.2600837 Z" id="Path" fill="#0D91E9"></path>
                    <path d="M19.3420569,19.6848038 C19.7635189,20.1050654 20.4441959,20.1050654 20.8656579,19.6848038 L27.6732368,12.9103008 C27.9550532,12.6276102 28.065115,12.2155795 27.9619631,11.8294169 C27.8588111,11.4432543 27.5581167,11.1416269 27.1731484,11.0381549 C26.7881801,10.934683 26.3774238,11.0450863 26.0956074,11.3277769 L19.3420569,18.1022799 C19.1238358,18.3072187 19,18.5936815 19,18.8935419 C19,19.1934023 19.1238358,19.4798651 19.3420569,19.6848038 Z" id="Path" fill="#0D91E9"></path>
                </g>
            </g>
        </g>
    </g>
</svg>