<?xml version="1.0" encoding="UTF-8"?>
<svg width="24px" height="24px" viewBox="0 0 24 24" version="1.1" xmlns="http://www.w3.org/2000/svg" xmlns:xlink="http://www.w3.org/1999/xlink">
    <!-- Generator: Sketch 62 (91390) - https://sketch.com -->
    <title>Shape</title>
    <desc>Created with Sketch.</desc>
    <g id="dCube---FE,-Modeling,-Post-Filters" stroke="none" stroke-width="1" fill="none" fill-rule="evenodd">
        <g id="PREVIEW-CONFIGURATION-V3" transform="translate(-69.000000, -245.000000)" fill="#A8A8A8" fill-rule="nonzero">
            <path d="M87.9642858,266.974026 C87.9642858,267.55287 87.771114,268.044169 87.3874868,268.425961 C87.0038597,268.807753 86.5101986,269 85.9285714,269 C85.3469443,269 84.8532832,268.807753 84.469656,268.425961 C84.0860288,268.044169 83.8928572,267.55287 83.8928572,266.974026 L83.8928572,261.987013 C83.8928572,261.408169 84.0860288,260.91687 84.469656,260.535078 C84.8532832,260.153286 85.3469443,259.961039 85.9285714,259.961039 C86.5101986,259.961039 87.0038597,260.153286 87.3874868,260.535078 C87.771114,260.91687 87.9642858,261.408169 87.9642858,261.987013 L87.9642858,266.974026 Z M78.0857143,259.493506 C78.0857143,260.072351 77.8925426,260.56365 77.5089154,260.945441 C77.1252882,261.327233 76.6316271,261.519481 76.05,261.519481 C75.4683729,261.519481 74.9747118,261.327233 74.5910846,260.945441 C74.2074574,260.56365 74.0142857,260.072351 74.0142857,259.493506 L74.0142857,254.506494 C74.0142857,253.927649 74.2074574,253.43635 74.5910846,253.054559 C74.9747118,252.672767 75.4683729,252.480519 76.05,252.480519 C76.6316271,252.480519 77.1252882,252.672767 77.5089154,253.054559 C77.8925426,253.43635 78.0857143,253.927649 78.0857143,254.506494 L78.0857143,259.493506 Z M87.9642858,252.012987 C87.9642858,252.591831 87.771114,253.08313 87.3874868,253.464922 C87.0038597,253.846714 86.5101986,254.038961 85.9285714,254.038961 C85.3469443,254.038961 84.8532832,253.846714 84.469656,253.464922 C84.0860288,253.08313 83.8928572,252.591831 83.8928572,252.012987 L83.8928572,247.025974 C83.8928572,246.44713 84.0860288,245.955831 84.469656,245.574039 C84.8532832,245.192247 85.3469443,245 85.9285714,245 C86.5101986,245 87.0038597,245.192247 87.3874868,245.574039 C87.771114,245.955831 87.9642858,246.44713 87.9642858,247.025974 L87.9642858,252.012987 Z M69.4615385,255.615385 L73.2692308,255.615385 C73.3966811,255.615385 73.5,255.718704 73.5,255.846154 L73.5,258.153846 C73.5,258.281296 73.3966811,258.384615 73.2692308,258.384615 L69.4615385,258.384615 C69.2066378,258.384615 69,258.177978 69,257.923077 L69,256.076923 C69,255.822022 69.2066378,255.615385 69.4615385,255.615385 Z M88.7307692,248.230769 L92.5384615,248.230769 C92.7933622,248.230769 93,248.437407 93,248.692308 L93,250.538462 C93,250.793362 92.7933622,251 92.5384615,251 L88.7307692,251 C88.6033189,251 88.5,250.896681 88.5,250.769231 L88.5,248.461538 C88.5,248.334088 88.6033189,248.230769 88.7307692,248.230769 Z M78.8736264,255.615385 L92.5384615,255.615385 C92.7933622,255.615385 93,255.822022 93,256.076923 L93,257.923077 C93,258.177978 92.7933622,258.384615 92.5384615,258.384615 L78.8736264,258.384615 C78.7461761,258.384615 78.6428572,258.281296 78.6428572,258.153846 L78.6428572,255.846154 C78.6428572,255.718704 78.7461761,255.615385 78.8736264,255.615385 Z M69.4615385,248.230769 L83.1263736,248.230769 C83.2538239,248.230769 83.3571428,248.334088 83.3571428,248.461538 L83.3571428,250.769231 C83.3571428,250.896681 83.2538239,251 83.1263736,251 L69.4615385,251 C69.2066378,251 69,250.793362 69,250.538462 L69,248.692308 C69,248.437407 69.2066378,248.230769 69.4615385,248.230769 Z M88.7307692,263.230769 L92.5384615,263.230769 C92.7933622,263.230769 93,263.437407 93,263.692308 L93,265.538462 C93,265.793362 92.7933622,266 92.5384615,266 L88.7307692,266 C88.6033189,266 88.5,265.896681 88.5,265.769231 L88.5,263.461538 C88.5,263.334088 88.6033189,263.230769 88.7307692,263.230769 Z M69.4615385,263.230769 L83.1263736,263.230769 C83.2538239,263.230769 83.3571428,263.334088 83.3571428,263.461538 L83.3571428,265.769231 C83.3571428,265.896681 83.2538239,266 83.1263736,266 L69.4615385,266 C69.2066378,266 69,265.793362 69,265.538462 L69,263.692308 C69,263.437407 69.2066378,263.230769 69.4615385,263.230769 Z" id="Shape"></path>
        </g>
    </g>
</svg>