<?xml version="1.0" encoding="UTF-8"?>
<svg width="48px" height="48px" viewBox="0 0 48 48" version="1.1" xmlns="http://www.w3.org/2000/svg" xmlns:xlink="http://www.w3.org/1999/xlink">
    <title>Group 4</title>
    <g id="dCube---FE,-Modeling,-Post-Filters" stroke="none" stroke-width="1" fill="none" fill-rule="evenodd">
        <g id="V6-FEATURE-SELECTION-RUN-SMART-REC" transform="translate(-858.000000, -323.000000)" fill="#A8A8A8" fill-rule="nonzero">
            <g id="Group-4" transform="translate(858.000000, 323.000000)">
                <path d="M16.899038,15.9499747 L31.6599494,15.9499747 L31.6599494,0.949670886 C31.6599494,0.425316456 31.2346329,5.39652711e-14 30.7096709,5.39652711e-14 L0.949670886,5.39652711e-14 C0.424708861,5.39652711e-14 -8.63444337e-15,0.425316456 -8.63444337e-15,0.949670886 L-8.63444337e-15,30.7108861 C-8.63444337e-15,31.2358481 0.424708861,31.660557 0.949670886,31.660557 L15.9481519,31.660557 L15.9481519,16.8996456 C15.9481519,16.3752911 16.3740759,15.9499747 16.899038,15.9499747 Z" id="Path"></path>
                <path d="M46.659038,15.9499747 L31.6599494,15.9499747 L31.6599494,30.7108861 C31.6599494,31.2358481 31.2346329,31.660557 30.7096709,31.660557 L15.9481519,31.660557 L15.9481519,46.6608608 C15.9481519,47.1852152 16.3734684,47.6105316 16.8984304,47.6105316 L46.6584304,47.6105316 C47.1827848,47.6105316 47.6087115,47.1852152 47.6087115,46.6608608 L47.6087115,16.8996456 C47.6099241,16.3752911 47.184,15.9499747 46.659038,15.9499747 Z" id="Path"></path>
            </g>
        </g>
    </g>
</svg>