<?xml version="1.0" encoding="UTF-8"?>
<svg width="132px" height="132px" viewBox="0 0 132 132" version="1.1" xmlns="http://www.w3.org/2000/svg" xmlns:xlink="http://www.w3.org/1999/xlink">
    <title>8C05DD12-6294-4D18-9511-4DE923039311</title>
    <g id="dCube---FE,-Modeling,-Post-Filters" stroke="none" stroke-width="1" fill="none" fill-rule="evenodd">
        <g id="V6-FEATURE-SELECTION-ZERO-STATE" transform="translate(-891.000000, -314.000000)" fill-rule="nonzero">
            <g id="Group-3" transform="translate(766.000000, 314.000000)">
                <g id="icons8-registry-editor" transform="translate(125.000000, 0.000000)">
                    <path d="M30.6896552,130 L4.20689655,130 C2.98868966,130 2,129.01131 2,127.793103 L2,101.310345 C2,100.092138 2.98868966,99.1034483 4.20689655,99.1034483 L30.6896552,99.1034483 C31.9078621,99.1034483 32.8965517,100.092138 32.8965517,101.310345 L32.8965517,127.793103 C32.8965517,129.01131 31.9078621,130 30.6896552,130 Z M61.5862069,130 L35.1034483,130 C33.8852414,130 32.8965517,129.01131 32.8965517,127.793103 L32.8965517,101.310345 C32.8965517,100.092138 33.8852414,99.1034483 35.1034483,99.1034483 L61.5862069,99.1034483 C62.8044138,99.1034483 63.7931034,100.092138 63.7931034,101.310345 L63.7931034,127.793103 C63.7931034,129.01131 62.8044138,130 61.5862069,130 Z M92.4827586,130 L66,130 C64.7817931,130 63.7931034,129.01131 63.7931034,127.793103 L63.7931034,101.310345 C63.7931034,100.092138 64.7817931,99.1034483 66,99.1034483 L92.4827586,99.1034483 C93.7009655,99.1034483 94.6896552,100.092138 94.6896552,101.310345 L94.6896552,127.793103 C94.6896552,129.01131 93.7009655,130 92.4827586,130 Z M30.6896552,99.1034483 L4.20689655,99.1034483 C2.98868966,99.1034483 2,98.1147586 2,96.8965517 L2,70.4137931 C2,69.1955862 2.98868966,68.2068966 4.20689655,68.2068966 L30.6896552,68.2068966 C31.9078621,68.2068966 32.8965517,69.1955862 32.8965517,70.4137931 L32.8965517,96.8965517 C32.8965517,98.1147586 31.9078621,99.1034483 30.6896552,99.1034483 Z M61.5862069,99.1034483 L35.1034483,99.1034483 C33.8852414,99.1034483 32.8965517,98.1147586 32.8965517,96.8965517 L32.8965517,70.4137931 C32.8965517,69.1955862 33.8852414,68.2068966 35.1034483,68.2068966 L61.5862069,68.2068966 C62.8044138,68.2068966 63.7931034,69.1955862 63.7931034,70.4137931 L63.7931034,96.8965517 C63.7931034,98.1147586 62.8044138,99.1034483 61.5862069,99.1034483 Z M124.253241,78.8176552 L100.251034,90.0110345 C99.1453793,90.5252414 97.8322759,90.0485517 97.318069,88.9428966 L86.1268966,64.9406897 C85.6126897,63.8350345 86.0893793,62.521931 87.1950345,62.0077241 L111.197241,50.8165517 C112.302897,50.3023448 113.616,50.7790345 114.130207,51.8846897 L125.321379,75.8868966 C125.835586,76.9903448 125.358897,78.3034483 124.253241,78.8176552 Z M30.6896552,68.2068966 L4.20689655,68.2068966 C2.98868966,68.2068966 2,67.2182069 2,66 L2,39.5172414 C2,38.2990345 2.98868966,37.3103448 4.20689655,37.3103448 L30.6896552,37.3103448 C31.9078621,37.3103448 32.8965517,38.2990345 32.8965517,39.5172414 L32.8965517,66 C32.8965517,67.2182069 31.9078621,68.2068966 30.6896552,68.2068966 Z M64.4397241,53.1823448 L45.7142069,34.4568276 C44.8513103,33.593931 44.8513103,32.1969655 45.7142069,31.3362759 L64.4397241,12.6107586 C65.3026207,11.7478621 66.6995862,11.7478621 67.5602759,12.6107586 L86.2857931,31.3362759 C87.1486897,32.1991724 87.1486897,33.5961379 86.2857931,34.4568276 L67.5602759,53.1823448 C66.6995862,54.0452414 65.3004138,54.0452414 64.4397241,53.1823448 Z M127.793103,32.8965517 L101.310345,32.8965517 C100.092138,32.8965517 99.1034483,31.9078621 99.1034483,30.6896552 L99.1034483,4.20689655 C99.1034483,2.98868966 100.092138,2 101.310345,2 L127.793103,2 C129.01131,2 130,2.98868966 130,4.20689655 L130,30.6896552 C130,31.9078621 129.01131,32.8965517 127.793103,32.8965517 Z" id="Shape"></path>
                    <path d="M92.5909091,96.8186865 L66.1363636,96.8186865 L66.1363636,70.4327013 C66.1363636,68.0073895 64.1588864,66.0350371 61.7272727,66.0350371 L35.2727273,66.0350371 L35.2727273,39.649052 C35.2727273,37.2237402 33.29525,35.2513878 30.8636364,35.2513878 L4.40909091,35.2513878 C1.97747727,35.2513878 0,37.2237402 0,39.649052 L0,66.0350371 C0,66.8398097 0.233681818,67.5852138 0.612863636,68.2338692 C0.233681818,68.8825247 0,69.6279288 0,70.4327013 L0,96.8186865 C0,97.623459 0.233681818,98.3688631 0.612863636,99.0175186 C0.233681818,99.666174 0,100.411578 0,101.216351 L0,127.602336 C0,130.027648 1.97747727,132 4.40909091,132 L30.8636364,132 C31.6705,132 32.4178409,131.766924 33.0681818,131.388725 C33.7185227,131.766924 34.4658636,132 35.2727273,132 L61.7272727,132 C62.5341364,132 63.2814773,131.766924 63.9318182,131.388725 C64.5821591,131.766924 65.3295,132 66.1363636,132 L92.5909091,132 C95.0225227,132 97,130.027648 97,127.602336 L97,101.216351 C97,98.7910389 95.0225227,96.8186865 92.5909091,96.8186865 Z M61.7272727,70.4327013 L61.7294773,96.8186865 L61.7272727,96.8186865 L35.2727273,96.8186865 L35.2727273,70.4327013 L61.7272727,70.4327013 Z M4.40909091,70.4327013 L30.8636364,70.4327013 L30.8636364,96.8186865 L4.40909091,96.8186865 L4.40909091,70.4327013 Z M4.40909091,39.649052 L30.8636364,39.649052 L30.8658409,66.0350371 L30.8636364,66.0350371 L4.40909091,66.0350371 L4.40909091,39.649052 Z M4.40909091,127.602336 L4.40909091,101.216351 L30.8636364,101.216351 L30.8636364,127.602336 L4.40909091,127.602336 Z M35.2727273,127.602336 L35.2727273,101.216351 L61.7272727,101.216351 L61.7272727,127.602336 L35.2727273,127.602336 Z M66.1363636,127.602336 L66.1363636,101.216351 L92.5909091,101.216351 L92.5931136,127.602336 L66.1363636,127.602336 Z M63.0191364,54.8187946 C63.8789091,55.6763391 65.0076364,56.1051114 66.1363636,56.1051114 C67.2650909,56.1051114 68.3938182,55.6763391 69.2535909,54.8187946 L87.9591591,36.1617043 C89.6787045,34.4466152 89.6787045,31.6584961 87.9591591,29.9434071 L69.2535909,11.2863168 C67.53625,9.57122774 64.7364773,9.57122774 63.0191364,11.2863168 L44.3135682,29.9434071 C42.5940227,31.6584961 42.5940227,34.4466152 44.3135682,36.1617043 L63.0191364,54.8187946 Z M66.1363636,14.3954654 L84.8419318,33.0525557 L66.1385682,51.7118449 L47.4307955,33.0525557 L66.1363636,14.3954654 Z" id="Shape" fill="#007FEE"></path>
                    <path d="M22.2,114 C20.9856,114 20,115.008 20,116.25 L20,120.75 C20,121.992 20.9856,123 22.2,123 C23.4144,123 24.4,121.992 24.4,120.75 L24.4,116.25 C24.4,115.008 23.4144,114 22.2,114 Z M11.2,114 C9.9856,114 9,115.008 9,116.25 L9,120.75 C9,121.992 9.9856,123 11.2,123 C12.4144,123 13.4,121.992 13.4,120.75 L13.4,116.25 C13.4,115.008 12.4144,114 11.2,114 Z M53,114 C51.7856,114 50.8,115.008 50.8,116.25 L50.8,120.75 C50.8,121.992 51.7856,123 53,123 C54.2144,123 55.2,121.992 55.2,120.75 L55.2,116.25 C55.2,115.008 54.2144,114 53,114 Z M42,114 C40.7856,114 39.8,115.008 39.8,116.25 L39.8,120.75 C39.8,121.992 40.7856,123 42,123 C43.2144,123 44.2,121.992 44.2,120.75 L44.2,116.25 C44.2,115.008 43.2144,114 42,114 Z M83.8,114 C82.5856,114 81.6,115.008 81.6,116.25 L81.6,120.75 C81.6,121.992 82.5856,123 83.8,123 C85.0144,123 86,121.992 86,120.75 L86,116.25 C86,115.008 85.0144,114 83.8,114 Z M72.8,114 C71.5856,114 70.6,115.008 70.6,116.25 L70.6,120.75 C70.6,121.992 71.5856,123 72.8,123 C74.0144,123 75,121.992 75,120.75 L75,116.25 C75,115.008 74.0144,114 72.8,114 Z" id="Shape" fill="#007FEE"></path>
                    <path d="M110.53597,48.4154666 C111.605722,47.9169796 112.803404,47.8662486 113.910652,48.2676851 C115.017901,48.6713273 115.900171,49.4808173 116.398653,50.5483737 L116.398653,50.5483737 L127.58363,74.5375126 C128.082112,75.6072747 128.135048,76.8049671 127.73141,77.912226 C127.327771,79.0194849 126.518289,79.9017629 125.450742,80.40025 L125.450742,80.40025 L101.46403,91.5853293 C100.870703,91.8610412 100.237675,92 99.6024405,92 C99.0929297,92 98.5834188,91.9095665 98.0893477,91.7309052 C96.982099,91.327263 96.0998291,90.517773 95.6013466,89.4502166 L95.6013466,89.4502166 L84.4163703,65.4632834 C83.9178878,64.3935213 83.8649516,63.1958289 84.2685901,62.08857 C84.6722285,60.9813111 85.4817111,60.0990331 86.5492577,59.600546 L86.5492577,59.600546 Z M112.399765,52.4143917 L88.4130528,63.5994711 L99.5980292,87.5864043 L123.586947,76.4013249 L112.399765,52.4143917 Z" id="Combined-Shape" fill="#30B253"></path>
                    <path d="M127.625,0 C130.037813,0 132,1.9621875 132,4.375 L132,4.375 L132,30.625 C132,33.0378125 130.037813,35 127.625,35 L127.625,35 L101.375,35 C98.9621875,35 97,33.0378125 97,30.625 L97,30.625 L97,4.375 C97,1.9621875 98.9621875,0 101.375,0 L101.375,0 Z M127.625,4.375 L101.375,4.375 L101.375,30.625 L127.627188,30.625 L127.625,4.375 Z" id="Combined-Shape" fill="#30B253"></path>
                </g>
            </g>
        </g>
    </g>
</svg>