<?xml version="1.0" encoding="UTF-8"?>
<svg width="25px" height="32px" viewBox="0 0 25 32" version="1.1" xmlns="http://www.w3.org/2000/svg" xmlns:xlink="http://www.w3.org/1999/xlink">
    <title>Bulb</title>
    <g id="dCube---FE,-Modeling,-Post-Filters" stroke="none" stroke-width="1" fill="none" fill-rule="evenodd">
        <g id="V6-FEATURE-SELECTION-RUN-SMART-REC" transform="translate(-94.000000, -251.000000)" fill="#F3AF1A" fill-rule="nonzero">
            <g id="Bulb" transform="translate(94.000000, 251.000000)">
                <path d="M7.68990385,30.7869091 C7.68990385,31.3412021 8.13546662,31.7905455 8.68509615,31.7905455 L16.2817308,31.7905455 C16.8313603,31.7905455 17.2769231,31.3412021 17.2769231,30.7869091 L17.2769231,26.9061818 L7.68990385,26.9061818 L7.68990385,30.7869091 Z" id="Path"></path>
                <path d="M18.6370192,8.57309091 C16.675335,6.80291154 14.0510526,5.97357821 11.4384615,6.29818182 C7.16786893,6.80301354 3.80993703,10.2171946 3.34423077,14.528 C2.98879873,17.6090693 4.21410911,20.6605089 6.59519231,22.624 C7.25289385,23.1710824 7.65054116,23.9731249 7.68990385,24.832 L17.3100962,24.832 C17.3681202,24.0308606 17.7377567,23.2853149 18.3384615,22.7578182 C20.424504,21.0338845 21.6611442,18.4780716 21.7248848,15.7589639 C21.7886255,13.0398563 20.6731254,10.4279654 18.6701923,8.60654545 L18.6370192,8.57309091 Z M11.4052885,21.1185455 L11.7370192,16.6021818 L10.34375,16.6021818 L11.2394231,11.7847273 L13.9596154,11.7847273 L13.2298077,14.2938182 L15.2865385,14.2938182 L11.4052885,21.1185455 Z" id="Shape"></path>
                <rect id="Rectangle" x="11.5048077" y="0.209454545" width="1.99038462" height="4.10821818"></rect>
                <polygon id="Rectangle" transform="translate(22.499390, 6.731041) rotate(-45.000000) translate(-22.499390, -6.731041) " points="20.454813 5.74028187 24.5524118 5.72297156 24.5439677 7.72180023 20.4463689 7.73911054"></polygon>
                <polygon id="Rectangle" transform="translate(2.504352, 6.741568) rotate(-45.000000) translate(-2.504352, -6.741568) " points="1.51357838 4.70032249 3.51240706 4.69187844 3.49512489 8.78281445 1.49629622 8.79125851"></polygon>
            </g>
        </g>
    </g>
</svg>