<svg width="58" height="70" viewBox="0 0 58 70" fill="none" xmlns="http://www.w3.org/2000/svg">
<path fill-rule="evenodd" clip-rule="evenodd" d="M51 2.75V63.25C51 64.7659 49.7812 65.996 48.2751 66H2.72486C1.21878 65.996 -5.35496e-06 64.7659 0 63.25V2.75C-5.35496e-06 1.23408 1.21878 0.00404246 2.72486 0H48.2751C49.7812 0.00404246 51 1.23408 51 2.75ZM48.2751 64.1667C48.7753 64.1626 49.1786 63.7534 49.1786 63.25V2.75C49.1786 2.24659 48.7753 1.83736 48.2751 1.83333H2.72486C2.22473 1.83736 1.82141 2.24659 1.82143 2.75V63.25C1.82141 63.7534 2.22473 64.1626 2.72486 64.1667H48.2751Z" fill="#005CB9"/>
<path d="M49.1784 63.2507C49.1784 63.7541 48.7751 64.1633 48.275 64.1673H2.72472C2.22459 64.1633 1.82127 63.7541 1.82129 63.2507V2.75065C1.82127 2.24724 2.22459 1.83801 2.72472 1.83398H48.275C48.7751 1.83801 49.1784 2.24724 49.1784 2.75065V63.2507Z" fill="white"/>
<path fill-rule="evenodd" clip-rule="evenodd" d="M12.7483 11C12.246 11.001 11.8394 11.4111 11.8394 11.9167C11.8386 12.1597 11.9341 12.393 12.1047 12.565C12.2752 12.737 12.5068 12.8336 12.7483 12.8333H38.2519C38.7549 12.8333 39.1626 12.4229 39.1626 11.9167C39.1626 11.4104 38.7549 11 38.2519 11H12.7483ZM17.2964 15.5833C16.8073 15.5833 16.3929 15.994 16.3929 16.5C16.3912 16.7424 16.4856 16.9754 16.6552 17.1475C16.8248 17.3195 17.0556 17.4164 17.2964 17.4167H33.7038C34.1928 17.4167 34.6072 17.006 34.6072 16.5C34.6072 15.9903 34.2029 15.5833 33.7038 15.5833H17.2964Z" fill="#005CB9"/>
<path fill-rule="evenodd" clip-rule="evenodd" d="M13.6634 27.5C14.1588 27.5 14.5714 27.0903 14.5714 26.5842V25.6658C14.5714 25.1561 14.1643 24.75 13.6634 24.75H8.19364C7.69821 24.75 7.28566 25.1598 7.28566 25.6658V26.5842C7.28469 26.8271 7.37998 27.0603 7.55042 27.2322C7.72086 27.4041 7.95236 27.5005 8.19364 27.5H13.6634ZM16.3928 25.6658V26.5842C16.3928 27.0896 16.7996 27.4995 17.3017 27.5H42.8053C43.0467 27.5005 43.2783 27.4041 43.4489 27.2323C43.6195 27.0604 43.715 26.8272 43.7142 26.5842V25.6658C43.7142 25.1598 43.3062 24.75 42.8053 24.75H17.3017C16.7999 24.75 16.3928 25.1561 16.3928 25.6658ZM14.5714 33.0009C14.5714 33.5069 14.1588 33.9167 13.6634 33.9167H8.19364C7.95236 33.9172 7.72086 33.8208 7.55042 33.6489C7.37998 33.477 7.28469 33.2438 7.28566 33.0009V32.0824C7.28566 31.5764 7.69821 31.1667 8.19364 31.1667H13.6634C14.1643 31.1667 14.5714 31.5728 14.5714 32.0824V33.0009ZM16.3928 32.0824V33.0009C16.3928 33.5063 16.7996 33.9162 17.3017 33.9167H42.8053C43.0467 33.9172 43.2783 33.8208 43.4489 33.6489C43.6195 33.4771 43.715 33.2439 43.7142 33.0009V32.0824C43.7142 31.5764 43.3062 31.1667 42.8053 31.1667H17.3017C16.7999 31.1667 16.3928 31.5728 16.3928 32.0824ZM14.5714 39.4176C14.5714 39.9236 14.1588 40.3333 13.6634 40.3333H8.19364C7.95236 40.3338 7.72086 40.2374 7.55042 40.0655C7.37998 39.8936 7.28469 39.6604 7.28566 39.4176V38.4991C7.28566 37.9931 7.69821 37.5833 8.19364 37.5833H13.6634C14.1643 37.5833 14.5714 37.9894 14.5714 38.4991V39.4176ZM16.3928 38.4991V39.4176C16.3928 39.923 16.7996 40.3328 17.3017 40.3333H42.8053C43.0467 40.3338 43.2783 40.2375 43.4489 40.0656C43.6195 39.8937 43.715 39.6605 43.7142 39.4176V38.4991C43.7142 37.9931 43.3062 37.5833 42.8053 37.5833H17.3017C16.7999 37.5833 16.3928 37.9894 16.3928 38.4991ZM14.5714 45.8342C14.5714 46.3403 14.1588 46.75 13.6634 46.75H8.19364C7.95236 46.7505 7.72086 46.6541 7.55042 46.4822C7.37998 46.3103 7.28469 46.0771 7.28566 45.8342V44.9158C7.28566 44.4097 7.69821 44 8.19364 44H13.6634C14.1643 44 14.5714 44.4061 14.5714 44.9158V45.8342ZM16.3928 44.9158V45.8342C16.3928 46.3396 16.7996 46.7495 17.3017 46.75H42.8053C43.0467 46.7505 43.2783 46.6541 43.4489 46.4823C43.6195 46.3104 43.715 46.0772 43.7142 45.8342V44.9158C43.7142 44.4097 43.3062 44 42.8053 44H17.3017C16.7999 44 16.3928 44.4061 16.3928 44.9158ZM14.5714 52.2509C14.5714 52.7569 14.1588 53.1667 13.6634 53.1667H8.19364C7.95236 53.1672 7.72086 53.0708 7.55042 52.8989C7.37998 52.727 7.28469 52.4938 7.28566 52.2509V51.3324C7.28566 50.8264 7.69821 50.4167 8.19364 50.4167H13.6634C14.1643 50.4167 14.5714 50.8228 14.5714 51.3324V52.2509ZM16.3928 51.3324V52.2509C16.3928 52.7563 16.7996 53.1662 17.3017 53.1667H42.8053C43.0467 53.1672 43.2783 53.0708 43.4489 52.8989C43.6195 52.7271 43.715 52.4939 43.7142 52.2509V51.3324C43.7142 50.8264 43.3062 50.4167 42.8053 50.4167H17.3017C16.7999 50.4167 16.3928 50.8228 16.3928 51.3324Z" fill="#40A0FF"/>
<rect x="15.8335" y="47.8457" width="40.3333" height="20.3077" rx="1.25" fill="white"/>
<rect x="19.5" y="51.5391" width="16.5" height="12.9231" rx="1" fill="#A6D2FF"/>
<path d="M22.25 61.6926C22.25 61.1831 22.668 60.7695 23.1685 60.7695H32.3315C32.575 60.7688 32.8088 60.8658 32.9811 61.039C33.1535 61.2122 33.2502 61.4474 33.25 61.6926V64.4618C33.25 64.9714 32.832 65.3849 32.3315 65.3849H23.1685C22.925 65.3857 22.6912 65.2887 22.5189 65.1155C22.3465 64.9423 22.2498 64.7071 22.25 64.4618V61.6926Z" fill="#40A0FF"/>
<path fill-rule="evenodd" clip-rule="evenodd" d="M16.9792 46C15.3344 46.0015 14.0015 47.3438 14 49V67C14.0005 68.6566 15.334 69.9995 16.9792 70H55.0208C56.6656 69.9985 57.9985 68.6562 58 67V49C57.9995 47.3434 56.666 46.0005 55.0208 46H16.9792ZM15.8333 67V49C15.8333 48.3631 16.3494 47.8462 16.9792 47.8462H55.0208C55.6533 47.8462 56.1667 48.3658 56.1667 49V67C56.1667 67.6369 55.6497 68.1538 55.0208 68.1538H16.9792C16.3467 68.1538 15.8333 67.6351 15.8333 67ZM39.6667 55.2308C39.6662 54.9858 39.7626 54.7507 39.9346 54.5775C40.1066 54.4043 40.3401 54.3072 40.5833 54.3077H53.4167C53.9227 54.3077 54.3333 54.7166 54.3333 55.2298V56.1548C54.3336 56.3996 54.237 56.6344 54.0651 56.8074C53.8931 56.9804 53.6598 57.0774 53.4167 57.0769H40.5833C40.0773 57.0769 39.6667 56.668 39.6667 56.1548V55.2308ZM40.5852 58.924C40.0847 58.924 39.6667 59.3366 39.6667 59.8462V60.7702C39.6662 61.0154 39.7628 61.2508 39.9353 61.4241C40.1077 61.5973 40.3416 61.6942 40.5852 61.6932H49.7482C50.2487 61.6932 50.6667 61.2806 50.6667 60.7711V59.8462C50.6669 59.601 50.5701 59.3659 50.3977 59.1928C50.2254 59.0198 49.9916 58.923 49.7482 58.924H40.5852Z" fill="#005CB9"/>
<rect x="25.4585" y="54.3086" width="4.58333" height="5.53846" rx="2.29167" fill="white"/>
<path fill-rule="evenodd" clip-rule="evenodd" d="M20.4229 49.6914C18.904 49.6914 17.6665 50.9274 17.6665 52.4597V52.4606V63.5385C17.6675 64.2737 17.9584 64.9783 18.4754 65.4975C18.9923 66.0167 19.6928 66.3078 20.4229 66.3068H35.0768C36.5957 66.3068 37.8332 65.0708 37.8332 63.5376V52.4597C37.8322 51.7245 37.5412 51.0199 37.0243 50.5007C36.5074 49.9815 35.8068 49.6904 35.0768 49.6914H20.4229ZM24.4924 59.8693L24.4929 59.8702V59.8693L24.4924 59.8693ZM24.0832 58.4606C24.088 58.9592 24.2296 59.4467 24.4924 59.8693C22.7226 60.0422 21.3332 61.7137 21.3332 63.5366V64.4597H20.4229C19.9123 64.4597 19.4998 64.0471 19.4998 63.5376V52.4597C19.4998 51.9502 19.9123 51.5376 20.4229 51.5376H35.0768C35.5873 51.5376 35.9998 51.9502 35.9998 52.4606V63.5385C35.9998 64.048 35.5873 64.4606 35.0768 64.4606H34.1665V63.5376C34.1665 61.5862 32.8007 60.028 31.0095 59.8693C31.2662 59.4428 31.4165 58.9646 31.4165 58.4606V55.6914C31.4165 53.9099 29.5218 52.4606 27.7498 52.4606C25.9733 52.4606 24.0832 53.9062 24.0832 55.6914V58.4606ZM23.1665 63.5376V64.4606H32.3332V63.5376C32.3332 62.6246 31.3936 61.7016 30.4998 61.7016H24.9998C24.1015 61.7016 23.1665 62.632 23.1665 63.5376ZM25.9165 58.4819V55.6914C25.9165 54.9271 26.9853 54.3068 27.7498 54.3068C28.5088 54.3068 29.5832 54.9289 29.5832 55.6914V58.4819C29.5832 59.2471 28.5143 59.8554 27.7498 59.8554C26.9908 59.8554 25.9165 59.2443 25.9165 58.4819Z" fill="#005CB9"/>
</svg>
