<svg width="114" height="124" viewBox="0 0 114 124" fill="none" xmlns="http://www.w3.org/2000/svg">
<g id="Group 6">
<g id="Group 5">
<g id="icons8-cardboard-box">
<path id="Shape" fill-rule="evenodd" clip-rule="evenodd" d="M18.1647 57.1152C15.8012 57.1152 13.8735 59.0311 13.8735 61.3926V118.424C13.8735 120.779 15.8012 122.701 18.1647 122.701H95.4052C97.7687 122.701 99.6963 120.779 99.6963 118.424V61.3926C99.6963 59.0311 97.7687 57.1152 95.4052 57.1152H87.4934H18.1647ZM18.1647 59.9668H95.4052C96.193 59.9668 96.8356 60.6017 96.8356 61.3926V118.424C96.8356 119.209 96.193 119.849 95.4052 119.849H18.1647C17.3768 119.849 16.7343 119.209 16.7343 118.424V61.3926C16.7343 60.6017 17.3768 59.9668 18.1647 59.9668ZM41.0508 71.2894C41.0508 68.1427 43.6154 65.5863 46.7723 65.5863H66.7976C69.9545 65.5863 72.5191 68.1427 72.5191 71.2894C72.5191 74.4362 69.9545 76.9925 66.7976 76.9925H46.7723C43.6154 76.9925 41.0508 74.4362 41.0508 71.2894ZM46.7723 68.4379H66.7976C68.3732 68.4379 69.6583 69.7189 69.6583 71.2894C69.6583 72.86 68.3732 74.141 66.7976 74.141H46.7723C45.1966 74.141 43.9115 72.86 43.9115 71.2894C43.9115 69.7189 45.1966 68.4379 46.7723 68.4379ZM19.5951 112.72C19.5951 111.93 20.232 111.295 21.0254 111.295C21.8188 111.295 22.4558 111.93 22.4558 112.72V115.572C22.4558 116.357 21.8188 116.998 21.0254 116.998C20.232 116.998 19.5951 116.357 19.5951 115.572V112.72ZM28.1773 111.295C27.3839 111.295 26.747 111.93 26.747 112.72V115.572C26.747 116.357 27.3839 116.998 28.1773 116.998C28.9707 116.998 29.6077 116.357 29.6077 115.572V112.72C29.6077 111.93 28.9707 111.295 28.1773 111.295ZM33.8989 112.72C33.8989 111.93 34.5358 111.295 35.3292 111.295C36.1226 111.295 36.7596 111.93 36.7596 112.72V115.572C36.7596 116.357 36.1226 116.998 35.3292 116.998C34.5358 116.998 33.8989 116.357 33.8989 115.572V112.72ZM42.4811 111.295C41.6877 111.295 41.0508 111.93 41.0508 112.72V115.572C41.0508 116.357 41.6877 116.998 42.4811 116.998C43.2745 116.998 43.9115 116.357 43.9115 115.572V112.72C43.9115 111.93 43.2745 111.295 42.4811 111.295ZM48.2026 112.72C48.2026 111.93 48.8396 111.295 49.633 111.295C50.4264 111.295 51.0634 111.93 51.0634 112.72V115.572C51.0634 116.357 50.4264 116.998 49.633 116.998C48.8396 116.998 48.2026 116.357 48.2026 115.572V112.72ZM56.7849 111.295C55.9915 111.295 55.3545 111.93 55.3545 112.72V115.572C55.3545 116.357 55.9915 116.998 56.7849 116.998C57.5783 116.998 58.2153 116.357 58.2153 115.572V112.72C58.2153 111.93 57.5783 111.295 56.7849 111.295ZM62.5064 112.72C62.5064 111.93 63.1434 111.295 63.9368 111.295C64.7302 111.295 65.3672 111.93 65.3672 112.72V115.572C65.3672 116.357 64.7302 116.998 63.9368 116.998C63.1434 116.998 62.5064 116.357 62.5064 115.572V112.72ZM71.0887 111.295C70.2953 111.295 69.6583 111.93 69.6583 112.72V115.572C69.6583 116.357 70.2953 116.998 71.0887 116.998C71.8821 116.998 72.5191 116.357 72.5191 115.572V112.72C72.5191 111.93 71.8821 111.295 71.0887 111.295ZM76.8102 112.72C76.8102 111.93 77.4472 111.295 78.2406 111.295C79.034 111.295 79.671 111.93 79.671 112.72V115.572C79.671 116.357 79.034 116.998 78.2406 116.998C77.4472 116.998 76.8102 116.357 76.8102 115.572V112.72ZM85.3925 111.295C84.5991 111.295 83.9621 111.93 83.9621 112.72V115.572C83.9621 116.357 84.5991 116.998 85.3925 116.998C86.1859 116.998 86.8229 116.357 86.8229 115.572V112.72C86.8229 111.93 86.1859 111.295 85.3925 111.295ZM91.114 112.72C91.114 111.93 91.751 111.295 92.5444 111.295C93.3378 111.295 93.9748 111.93 93.9748 112.72V115.572C93.9748 116.357 93.3378 116.998 92.5444 116.998C91.751 116.998 91.114 116.357 91.114 115.572V112.72Z" fill="#007FEE"/>
</g>
<path id="Path 2" d="M15.7064 58.5405L1 42.7734" stroke="#007FEE" stroke-width="2" stroke-linecap="round"/>
<path id="Path 2_2" d="M98.2658 58.5405L112.972 42.7734" stroke="#007FEE" stroke-width="2" stroke-linecap="round"/>
<path id="Combined Shape" fill-rule="evenodd" clip-rule="evenodd" d="M36.5544 3.39521C36.7331 3.06972 37.0715 2.86301 37.4436 2.852C37.8377 2.84063 38.2049 3.05047 38.3942 3.39521L40.1888 6.66669C40.4943 7.22322 40.954 7.6814 41.5123 7.9859L44.7964 9.77685C45.1323 9.96042 45.3411 10.3119 45.3411 10.6938C45.3411 11.0756 45.1323 11.4271 44.7964 11.6107L41.5144 13.3996C40.956 13.7041 40.4964 14.1623 40.1909 14.7188L38.3942 17.9923C38.21 18.3272 37.8574 18.5353 37.4743 18.5353C37.0912 18.5353 36.7386 18.3272 36.5544 17.9923L34.7597 14.7208C34.4542 14.1643 33.9946 13.7061 33.4363 13.4016L30.1522 11.6107C29.8162 11.4271 29.6074 11.0756 29.6074 10.6938C29.6074 10.3119 29.8162 9.96042 30.1522 9.77685L33.4342 7.98795C33.9925 7.68345 34.4522 7.22526 34.7577 6.66873L36.5544 3.39521ZM38.3327 7.65445L37.4579 6.05955L36.5831 7.65445C36.0851 8.56172 35.336 9.30841 34.4258 9.80481L32.8258 10.6768L34.4258 11.5488C35.336 12.0452 36.0851 12.7919 36.5831 13.6991L37.4579 15.294L38.3327 13.6991C38.8307 12.7919 39.5798 12.0452 40.49 11.5488L42.0901 10.6768L40.49 9.80481C39.5798 9.30841 38.8307 8.56172 38.3327 7.65445Z" fill="#30B253"/>
<path id="Combined Shape_2" fill-rule="evenodd" clip-rule="evenodd" d="M78.0354 3.39521C78.2141 3.06972 78.5524 2.86301 78.9245 2.852C79.3186 2.84063 79.6858 3.05047 79.8751 3.39521L81.6698 6.66669C81.9753 7.22322 82.4349 7.6814 82.9933 7.9859L86.2774 9.77685C86.6133 9.96042 86.8221 10.3119 86.8221 10.6938C86.8221 11.0756 86.6133 11.4271 86.2774 11.6107L82.9953 13.3996C82.437 13.7041 81.9773 14.1623 81.6718 14.7188L79.8751 17.9923C79.691 18.3272 79.3383 18.5353 78.9552 18.5353C78.5722 18.5353 78.2195 18.3272 78.0354 17.9923L76.2407 14.7208C75.9352 14.1643 75.4755 13.7061 74.9172 13.4016L71.6331 11.6107C71.2972 11.4271 71.0884 11.0756 71.0884 10.6938C71.0884 10.3119 71.2972 9.96042 71.6331 9.77685L74.9152 7.98795C75.4735 7.68345 75.9332 7.22526 76.2386 6.66873L78.0354 3.39521ZM79.8137 7.65445L78.9389 6.05955L78.0641 7.65445C77.5661 8.56172 76.817 9.30841 75.9068 9.80481L74.3067 10.6768L75.9068 11.5488C76.817 12.0452 77.5661 12.7919 78.0641 13.6991L78.9389 15.294L79.8137 13.6991C80.3117 12.7919 81.0608 12.0452 81.971 11.5488L83.5711 10.6768L81.971 9.80481C81.0608 9.30841 80.3117 8.56172 79.8137 7.65445Z" fill="#30B253"/>
<path id="Combined Shape_3" fill-rule="evenodd" clip-rule="evenodd" d="M53.8564 4.07808C53.8694 3.80835 54.0247 3.56535 54.2644 3.43954C54.5184 3.30646 54.8253 3.32655 55.059 3.49154L57.2751 5.05782C57.6522 5.32421 58.0987 5.47716 58.5607 5.4982L61.2784 5.62186C61.5565 5.63476 61.8051 5.79794 61.9268 6.04754C62.0485 6.29715 62.0241 6.59348 61.8631 6.82056L60.288 9.03626C60.0202 9.4133 59.8658 9.85934 59.8435 10.3205L59.7127 13.0331C59.6991 13.3107 59.5349 13.5592 59.2845 13.6813C59.0341 13.8034 58.7372 13.7798 58.5101 13.6196L56.294 12.0534C55.9169 11.787 55.4704 11.634 55.0083 11.613L52.2907 11.4893C52.0126 11.4764 51.764 11.3132 51.6423 11.0636C51.5205 10.814 51.545 10.5177 51.706 10.2906L53.2811 8.07493C53.5489 7.69789 53.7033 7.25185 53.7256 6.79067L53.8564 4.07808ZM56.3767 6.29523L55.2964 5.5316L55.2331 6.85303C55.1968 7.60484 54.9452 8.33174 54.5085 8.94641L53.7406 10.0265L55.0645 10.0864C55.8177 10.1207 56.5454 10.3699 57.1602 10.8042L58.2405 11.5678L58.3038 10.2464C58.3401 9.49459 58.5917 8.76769 59.0284 8.15303L59.7963 7.07293L58.4724 7.01306C57.7192 6.97876 56.9915 6.7295 56.3767 6.29523Z" fill="#007FEE"/>
<path id="Combined Shape_4" fill-rule="evenodd" clip-rule="evenodd" d="M15.6751 15.7015C15.456 15.5437 15.3368 15.2811 15.3618 15.0115C15.3886 14.7261 15.5726 14.4796 15.8382 14.3735L18.3588 13.368C18.7876 13.1968 19.159 12.9056 19.4283 12.5296L21.0122 10.3177C21.1745 10.0915 21.4467 9.97189 21.7223 10.0057C21.998 10.0396 22.2332 10.2215 22.3359 10.4802L23.3363 13.0079C23.5067 13.4379 23.7967 13.8103 24.1713 14.0802L26.375 15.6673C26.6004 15.8299 26.7194 16.1029 26.6855 16.3794C26.6515 16.6559 26.47 16.892 26.212 16.9953L23.6914 18.0008C23.2626 18.172 22.8911 18.4632 22.6218 18.8392L21.038 21.0511C20.8757 21.2773 20.6035 21.3969 20.3278 21.363C20.0522 21.3292 19.817 21.1473 19.7142 20.8886L18.7138 18.3609C18.5435 17.9309 18.2535 17.5584 17.8789 17.2886L15.6751 15.7015ZM18.9073 14.7953L17.6785 15.2855L18.7522 16.0583C19.363 16.4982 19.8356 17.1051 20.1132 17.8061L20.6008 19.0384L21.3721 17.9607C21.8111 17.3477 22.4165 16.8731 23.1155 16.594L24.3443 16.1039L23.2706 15.3311C22.6598 14.8912 22.1872 14.2843 21.9096 13.5833L21.4219 12.351L20.6507 13.4287C20.2117 14.0417 19.6063 14.5163 18.9073 14.7953Z" fill="#007FEE"/>
<path id="Combined Shape_5" fill-rule="evenodd" clip-rule="evenodd" d="M101.193 11.207C101.18 10.9373 101.025 10.6943 100.785 10.5684C100.531 10.4354 100.224 10.4555 99.9908 10.6204L97.7747 12.1867C97.3976 12.4531 96.9511 12.6061 96.4891 12.6271L93.7714 12.7508C93.4933 12.7637 93.2447 12.9268 93.123 13.1764C93.0013 13.4261 93.0257 13.7224 93.1867 13.9495L94.7618 16.1652C95.0297 16.5422 95.184 16.9882 95.2063 17.4494L95.3371 20.162C95.3507 20.4396 95.5149 20.6881 95.7653 20.8102C96.0157 20.9323 96.3126 20.9087 96.5397 20.7485L98.7558 19.1823C99.1329 18.9159 99.5794 18.7629 100.041 18.7419L102.759 18.6182C103.037 18.6053 103.286 18.4422 103.408 18.1925C103.529 17.9429 103.505 17.6466 103.344 17.4195L101.769 15.2038C101.501 14.8268 101.346 14.3808 101.324 13.9196L101.193 11.207ZM98.6731 13.4241L99.7534 12.6605L99.8167 13.9819C99.853 14.7337 100.105 15.4606 100.541 16.0753L101.309 17.1554L99.9853 17.2153C99.2321 17.2496 98.5044 17.4988 97.8896 17.9331L96.8093 18.6967L96.746 17.3753C96.7097 16.6235 96.4581 15.8966 96.0214 15.2819L95.2535 14.2018L96.5774 14.142C97.3306 14.1077 98.0583 13.8584 98.6731 13.4241Z" fill="#007FEE"/>
<g id="icons8-registry-editor">
<path id="Combined Shape_6" fill-rule="evenodd" clip-rule="evenodd" d="M32.095 22.9828C32.7695 23.2396 33.307 23.7545 33.6107 24.4336L40.4245 39.6942C40.7282 40.3747 40.7605 41.1367 40.5146 41.841C40.2687 42.5454 39.7755 43.1067 39.1252 43.4238L24.5126 50.5391C24.1511 50.7145 23.7655 50.8029 23.3785 50.8029C23.0681 50.8029 22.7577 50.7454 22.4567 50.6317C21.7822 50.3749 21.2447 49.86 20.941 49.1809L14.1272 33.9217C13.8235 33.2412 13.7913 32.4793 14.0372 31.7749C14.2831 31.0705 14.7762 30.5092 15.4265 30.1921L30.0392 23.0768C30.6909 22.7597 31.4205 22.7274 32.095 22.9828ZM16.562 32.736L23.3758 47.9952L37.9898 40.8799L31.1746 25.6207L16.562 32.736Z" fill="#007FEE"/>
<path id="Combined Shape_7" fill-rule="evenodd" clip-rule="evenodd" d="M83.9631 22.9828C83.2886 23.2396 82.7511 23.7545 82.4474 24.4336L75.6336 39.6942C75.3299 40.3747 75.2976 41.1367 75.5435 41.841C75.7894 42.5454 76.2826 43.1067 76.9329 43.4238L91.5455 50.5391C91.907 50.7145 92.2926 50.8029 92.6796 50.8029C92.99 50.8029 93.3004 50.7454 93.6014 50.6317C94.2759 50.3749 94.8134 49.86 95.1171 49.1809L101.931 33.9217C102.235 33.2412 102.267 32.4793 102.021 31.7749C101.775 31.0705 101.282 30.5092 100.632 30.1921L86.0189 23.0768C85.3673 22.7597 84.6376 22.7274 83.9631 22.9828ZM99.4962 32.736L92.6823 47.9952L78.0683 40.8799L84.8835 25.6207L99.4962 32.736Z" fill="#007FEE"/>
</g>
</g>
<path id="Combined Shape_8" fill-rule="evenodd" clip-rule="evenodd" d="M58.5 43C64.8513 43 70 37.8513 70 31.5C70 25.1487 64.8513 20 58.5 20C52.1487 20 47 25.1487 47 31.5C47 37.8513 52.1487 43 58.5 43ZM58.5 41C63.7467 41 68 36.7467 68 31.5C68 26.2533 63.7467 22 58.5 22C53.2533 22 49 26.2533 49 31.5C49 36.7467 53.2533 41 58.5 41Z" fill="#30B253"/>
</g>
</svg>
