<?xml version="1.0" encoding="UTF-8"?>
<svg width="24px" height="19px" viewBox="0 0 24 19" version="1.1" xmlns="http://www.w3.org/2000/svg" xmlns:xlink="http://www.w3.org/1999/xlink">
    <!-- Generator: Sketch 59.1 (86144) - https://sketch.com -->
    <title>Group 11</title>
    <desc>Created with Sketch.</desc>
    <g id="Page-1" stroke="none" stroke-width="1" fill="none" fill-rule="evenodd">
        <g id="AUTO-MANUAL-TUNING" transform="translate(-73.000000, -463.000000)" fill="currentColor" fill-rule="nonzero">
            <g id="Group-11" transform="translate(73.000000, 463.221698)">
                <path d="M21.9164294,18.0780814 L1.46726471,18.0780814 C0.657042353,18.0780814 3.55271368e-15,17.4194894 3.55271368e-15,16.6073561 C3.55271368e-15,15.795467 0.657042353,15.1366309 1.46726471,15.1366309 L21.9164294,15.1366309 C22.7264082,15.1366309 23.3829635,15.795467 23.3829635,16.6073561 C23.3829635,17.4192453 22.7264082,18.0780814 21.9164294,18.0780814 Z" id="Path"></path>
                <path d="M8.99329765,11.1797087 L1.46726471,11.1797087 C0.657042353,11.1797087 1.10134124e-13,10.5208726 1.10134124e-13,9.70898349 L1.10134124e-13,1.47072524 C1.10134124e-13,0.658836085 0.657042353,-2.78888024e-13 1.46726471,-2.78888024e-13 L8.99329765,-2.78888024e-13 C9.80327647,-2.78888024e-13 10.4605624,0.658836085 10.4605624,1.47072524 L10.4605624,9.70898349 C10.4605624,10.5208726 9.80327647,11.1797087 8.99329765,11.1797087 Z M2.93452941,8.23801415 L7.52578941,8.23801415 L7.52578941,2.94169458 L2.93452941,2.94169458 L2.93452941,8.23801415 Z" id="Shape"></path>
                <path d="M21.9164294,3.38816038 L14.4875647,3.38816038 C13.6773424,3.38816038 13.0200565,2.72932429 13.0200565,1.91719104 C13.0200565,1.10505778 13.6773424,0.446465802 14.4875647,0.446465802 L21.9164294,0.446465802 C22.7264082,0.446465802 23.3829635,1.10505778 23.3829635,1.91719104 C23.3829635,2.72932429 22.7264082,3.38816038 21.9164294,3.38816038 Z" id="Path"></path>
                <path d="M21.9164294,10.7329988 L14.4875647,10.7329988 C13.6773424,10.7329988 13.0200565,10.0746509 13.0200565,9.26251769 C13.0200565,8.45038443 13.6773424,7.79179245 14.4875647,7.79179245 L21.9164294,7.79179245 C22.7264082,7.79179245 23.3829635,8.45038443 23.3829635,9.26251769 C23.3829635,10.0746509 22.7264082,10.7329988 21.9164294,10.7329988 Z" id="Path"></path>
            </g>
        </g>
    </g>
</svg>
