<svg height="480pt" viewBox="0 -8 480 480" width="480pt" xmlns="http://www.w3.org/2000/svg"><path d="m40 288h64v112h-64zm0 0" fill="#ef7559"/><path d="m472 456h-464c-4.417969 0-8-3.582031-8-8s3.582031-8 8-8h464c4.417969 0 8 3.582031 8 8s-3.582031 8-8 8zm0 0" fill="#92aeba"/><path d="m152 400v-304h64v304zm0 0" fill="#f7cc38"/><path d="m264 400v-400h64v400zm0 0" fill="#8cb28c"/><path d="m376 400v-192h64v192zm0 0" fill="#60a2d7"/><g fill="#ee638c"><path d="m88 448c0 8.835938-7.164062 16-16 16s-16-7.164062-16-16 7.164062-16 16-16 16 7.164062 16 16zm0 0"/><path d="m200 448c0 8.835938-7.164062 16-16 16s-16-7.164062-16-16 7.164062-16 16-16 16 7.164062 16 16zm0 0"/><path d="m312 448c0 8.835938-7.164062 16-16 16s-16-7.164062-16-16 7.164062-16 16-16 16 7.164062 16 16zm0 0"/><path d="m424 448c0 8.835938-7.164062 16-16 16s-16-7.164062-16-16 7.164062-16 16-16 16 7.164062 16 16zm0 0"/></g></svg>