<svg height='100px' width='100px'  fill="currentColor" xmlns="http://www.w3.org/2000/svg" xmlns:xlink="http://www.w3.org/1999/xlink" version="1.1" x="0px" y="0px" viewBox="0 0 80 80" style="enable-background:new 0 0 80 80;" xml:space="preserve"><path d="M65.89,14.55C65.72,14.21,65.38,14,65,14H15c-0.38,0-0.72,0.21-0.89,0.55c-0.17,0.33-0.14,0.74,0.08,1.04L33,41.33V65  c0,0.32,0.15,0.62,0.42,0.81C33.59,65.94,33.79,66,34,66c0.11,0,0.21-0.02,0.32-0.05l12-4C46.72,61.81,47,61.43,47,61V41.33  l18.81-25.74C66.03,15.29,66.06,14.88,65.89,14.55z"></path></svg>
