<?xml version="1.0" encoding="UTF-8"?>
<svg width="29px" height="32px" viewBox="0 0 29 32" version="1.1" xmlns="http://www.w3.org/2000/svg" xmlns:xlink="http://www.w3.org/1999/xlink">
    <!-- Generator: Sketch 55.1 (78136) - https://sketchapp.com -->
    <title>Group 9</title>
    <desc>Created with Sketch.</desc>
    <g id="DCube" stroke="none" stroke-width="1" fill="none" fill-rule="evenodd">
        <g id="MT---SELECT-FEATURES----SELECTION---UML-MANUAL" transform="translate(-634.000000, -252.000000)" fill-rule="nonzero">
            <g id="Group-9" transform="translate(634.000000, 252.000000)">
                <path d="M-1.7781332e-12,29.94999 C-1.7781332e-12,30.9406181 0.792502493,31.6670788 1.71708873,31.6670788 L24.699661,31.6670788 C25.6902891,31.6670788 26.4167498,30.8745763 26.4167498,29.94999 L26.4167498,29.2235294 L-1.7781332e-12,29.2235294 L-1.7781332e-12,29.94999 Z" id="Path" fill="#F3AF1A"></path>
                <path d="M24.699661,13.9678564 L1.71708873,13.9678564 C0.726460618,13.9678564 -1.7781332e-12,14.7603589 -1.7781332e-12,15.6849452 L-1.7781332e-12,26.1856032 L26.4167498,26.1856032 L26.4167498,15.750987 C26.4167498,14.7603589 25.6902891,13.9678564 24.699661,13.9678564 Z M14.199003,19.7134995 L2.11333998,19.7134995 L2.11333998,18.6568295 L14.199003,18.6568295 L14.199003,19.7134995 L14.199003,19.7134995 Z M14.199003,17.0718245 L2.11333998,17.0718245 L2.11333998,16.0151545 L14.199003,16.0151545 L14.199003,17.0718245 L14.199003,17.0718245 Z M22.5202792,19.7134995 C21.9919442,19.7134995 21.5956929,19.5153739 21.2654835,19.1851645 C20.9352742,19.5153739 20.4729811,19.7134995 20.0106879,19.7134995 C19.0200598,19.7134995 18.1615155,18.920997 18.1615155,17.864327 C18.1615155,16.8736989 18.9540179,16.0151545 20.0106879,16.0151545 C20.5390229,16.0151545 20.9352742,16.2132802 21.2654835,16.5434895 C21.5956929,16.2132802 22.057986,16.0151545 22.5202792,16.0151545 C23.5109073,16.0151545 24.3694516,16.807657 24.3694516,17.864327 C24.3694516,18.8549551 23.5109073,19.7134995 22.5202792,19.7134995 Z" id="Shape" fill="#F3AF1A"></path>
                <path d="M9.77419741,9.34492522 L10.500658,10.0713858 L7.7268993,12.8451446 L9.97232303,12.8451446 L11.6233699,11.1940977 L12.3498305,11.9205583 L11.4252443,12.8451446 L20.7371486,12.8451446 L25.6242473,7.95804586 L18.2275573,0.495314058 C17.5671386,-0.165104686 16.4444267,-0.165104686 15.784008,0.495314058 L3.43417747,12.8451446 L6.27397807,12.8451446 L9.77419741,9.34492522 Z M16.9727617,2.14636092 L20.6711067,5.91074776 L16.9727617,9.60909272 L13.2083749,5.91074776 L16.9727617,2.14636092 Z" id="Shape" fill="#F95050"></path>
                <path d="M28.2659222,10.533679 L27.8036291,10.0713858 L24.9638285,12.8451446 C25.8884148,12.9111864 26.6148754,13.4395214 27.1432104,14.1659821 L28.3319641,12.9772283 C28.926341,12.3168096 28.926341,11.1940977 28.2659222,10.533679 Z" id="Path" fill="#F95050"></path>
            </g>
        </g>
    </g>
</svg>