<svg width="20" height="20" viewBox="0 0 20 20" fill="none" xmlns="http://www.w3.org/2000/svg">
<path d="M13.6042 13.3125C13.1383 13.313 12.6852 13.4654 12.3138 13.7466C11.9423 14.0279 11.6727 14.4225 11.5458 14.8708H3.08333C3.00673 14.8708 2.93087 14.8859 2.8601 14.9152C2.78933 14.9445 2.72502 14.9875 2.67085 15.0417C2.61669 15.0958 2.57372 15.1601 2.5444 15.2309C2.51509 15.3017 2.5 15.3775 2.5 15.4541C2.5 15.5307 2.51509 15.6066 2.5444 15.6774C2.57372 15.7481 2.61669 15.8125 2.67085 15.8666C2.72502 15.9208 2.78933 15.9638 2.8601 15.9931C2.93087 16.0224 3.00673 16.0375 3.08333 16.0375H11.5458C11.6716 16.4866 11.9408 16.8823 12.3125 17.1642C12.6841 17.4461 13.1377 17.5986 13.6042 17.5986C14.0706 17.5986 14.5242 17.4461 14.8959 17.1642C15.2675 16.8823 15.5367 16.4866 15.6625 16.0375H16.9125C17.0672 16.0375 17.2156 15.976 17.325 15.8666C17.4344 15.7572 17.4958 15.6089 17.4958 15.4541C17.4958 15.2994 17.4344 15.1511 17.325 15.0417C17.2156 14.9323 17.0672 14.8708 16.9125 14.8708H15.6625C15.5356 14.4225 15.266 14.0279 14.8945 13.7466C14.5231 13.4654 14.0701 13.313 13.6042 13.3125ZM14.5833 15.4541C14.5833 15.647 14.5261 15.8355 14.419 15.9958C14.3119 16.1562 14.1596 16.2811 13.9814 16.3549C13.8033 16.4287 13.6072 16.448 13.4181 16.4104C13.229 16.3728 13.0553 16.2799 12.9189 16.1436C12.7825 16.0072 12.6897 15.8335 12.6521 15.6444C12.6144 15.4552 12.6338 15.2592 12.7075 15.081C12.7813 14.9029 12.9063 14.7506 13.0666 14.6435C13.227 14.5363 13.4155 14.4791 13.6083 14.4791C13.8669 14.4791 14.1149 14.5819 14.2978 14.7647C14.4806 14.9476 14.5833 15.1956 14.5833 15.4541Z" fill="currentColor"/>
<path d="M13.6042 2.40427C13.1383 2.40478 12.6852 2.55721 12.3138 2.83843C11.9423 3.11965 11.6727 3.51432 11.5458 3.9626L3.08333 3.9626C2.92862 3.9626 2.78025 4.02406 2.67085 4.13346C2.56146 4.24286 2.5 4.39123 2.5 4.54594C2.5 4.70065 2.56146 4.84902 2.67085 4.95842C2.78025 5.06781 2.92862 5.12927 3.08333 5.12927H11.5458C11.6716 5.57843 11.9408 5.97412 12.3125 6.25599C12.6841 6.53786 13.1377 6.69043 13.6042 6.69043C14.0706 6.69043 14.5242 6.53786 14.8959 6.25599C15.2675 5.97412 15.5367 5.57843 15.6625 5.12927H16.9125C17.0672 5.12927 17.2156 5.06781 17.325 4.95842C17.4344 4.84902 17.4958 4.70065 17.4958 4.54594C17.4958 4.39123 17.4344 4.24286 17.325 4.13346C17.2156 4.02406 17.0672 3.9626 16.9125 3.9626H15.6625C15.5356 3.51432 15.266 3.11965 14.8945 2.83843C14.5231 2.55721 14.0701 2.40478 13.6042 2.40427ZM14.5833 4.54594C14.5833 4.73877 14.5261 4.92728 14.419 5.08762C14.3119 5.24796 14.1596 5.37292 13.9814 5.44672C13.8033 5.52052 13.6072 5.53982 13.4181 5.5022C13.229 5.46458 13.0553 5.37172 12.9189 5.23537C12.7825 5.09901 12.6897 4.92528 12.6521 4.73615C12.6144 4.54702 12.6338 4.35098 12.7075 4.17282C12.7813 3.99466 12.9063 3.84239 13.0666 3.73525C13.227 3.62812 13.4155 3.57094 13.6083 3.57094C13.7364 3.57094 13.8632 3.59616 13.9814 3.64516C14.0997 3.69415 14.2072 3.76597 14.2978 3.85651C14.3883 3.94705 14.4601 4.05453 14.5091 4.17282C14.5581 4.29111 14.5833 4.4179 14.5833 4.54594Z" fill="currentColor"/>
<path d="M6.39582 12.1416C6.86171 12.1411 7.31473 11.9887 7.68619 11.7074C8.05764 11.4262 8.32725 11.0316 8.45415 10.5833H16.9166C17.0714 10.5833 17.2197 10.5218 17.3291 10.4124C17.4385 10.303 17.5 10.1546 17.5 9.99993C17.5 9.84523 17.4385 9.69685 17.3291 9.58746C17.2197 9.47806 17.0714 9.4166 16.9166 9.4166H8.45415C8.32838 8.96744 8.05915 8.57175 7.68752 8.28988C7.31588 8.00801 6.86225 7.85544 6.39582 7.85544C5.92938 7.85544 5.47575 8.00801 5.10412 8.28988C4.73248 8.57175 4.46325 8.96744 4.33748 9.4166H3.08748C2.93277 9.4166 2.7844 9.47806 2.675 9.58746C2.56561 9.69685 2.50415 9.84523 2.50415 9.99993C2.50415 10.1546 2.56561 10.303 2.675 10.4124C2.7844 10.5218 2.93277 10.5833 3.08748 10.5833H4.33748C4.46438 11.0316 4.734 11.4262 5.10545 11.7074C5.4769 11.9887 5.92992 12.1411 6.39582 12.1416ZM5.41665 9.99993C5.41665 9.8071 5.47383 9.61859 5.58097 9.45825C5.6881 9.29792 5.84038 9.17295 6.01853 9.09915C6.19669 9.02536 6.39273 9.00605 6.58186 9.04367C6.77099 9.08129 6.94472 9.17415 7.08108 9.31051C7.21744 9.44686 7.3103 9.62059 7.34792 9.80972C7.38554 9.99885 7.36623 10.1949 7.29243 10.3731C7.21864 10.5512 7.09367 10.7035 6.93333 10.8106C6.77299 10.9178 6.58449 10.9749 6.39165 10.9749C6.13306 10.9749 5.88507 10.8722 5.70222 10.6894C5.51937 10.5065 5.41665 10.2585 5.41665 9.99993Z" fill="currentColor"/>
</svg>
