<?xml version="1.0" encoding="UTF-8"?>
<svg width="65px" height="36px" viewBox="0 0 65 36" version="1.1" xmlns="http://www.w3.org/2000/svg" xmlns:xlink="http://www.w3.org/1999/xlink">
    <title>Group</title>
    <g id="dCube---FE,-Modeling,-Post-Filters" stroke="none" stroke-width="1" fill="none" fill-rule="evenodd">
        <g id="V6-FEATURE-SELECTION-RUN-SMART-REC" transform="translate(-491.000000, -329.000000)" fill="#A8A8A8" fill-rule="nonzero">
            <g id="Group" transform="translate(491.000000, 329.000000)">
                <path d="M20,0.8 C19.0666667,-0.133333333 17.6,-0.133333333 16.6666667,0.8 C15.7333333,1.73333333 15.7333333,3.2 16.6666667,4.13333333 L19.4666667,6.93333333 L14.8,6.93333333 C6.8,6.93333333 0.333333333,13.4666667 0.333333333,21.4 C0.333333333,29.4 6.8,35.8666667 14.8,35.8666667 L23.1333333,35.8666667 C24.4,35.8666667 25.4666667,34.8 25.4666667,33.5333333 C25.4666667,32.2666667 24.4,31.2 23.1333333,31.2 L14.8,31.2 C9.4,31.2 5,26.8 5,21.4 C5,16 9.4,11.6 14.8,11.6 L19.4666667,11.6 L16.6666667,14.4 C15.7333333,15.3333333 15.7333333,16.8 16.6666667,17.7333333 C17.1333333,18.2 17.7333333,18.4 18.3333333,18.4 C18.9333333,18.4 19.5333333,18.2 20,17.7333333 L26.8,10.9333333 C27.7333333,10 27.7333333,8.53333333 26.8,7.6 L20,0.8 Z" id="Path"></path>
                <path d="M35.6,11.6 L61.3333333,11.6 C62.6,11.6 63.6666667,10.5333333 63.6666667,9.26666667 C63.6666667,8 62.6,6.93333333 61.3333333,6.93333333 L35.6,6.93333333 C34.3333333,6.93333333 33.2666667,8 33.2666667,9.26666667 C33.2666667,10.5333333 34.3333333,11.6 35.6,11.6 Z" id="Path"></path>
                <path d="M61.3333333,31.2 L35.6,31.2 C34.3333333,31.2 33.2666667,32.2666667 33.2666667,33.5333333 C33.2666667,34.8 34.3333333,35.8666667 35.6,35.8666667 L61.3333333,35.8666667 C62.6,35.8666667 63.6666667,34.8 63.6666667,33.5333333 C63.6666667,32.2666667 62.6,31.2 61.3333333,31.2 Z" id="Path"></path>
                <path d="M61.3333333,19.0666667 L35.6,19.0666667 C34.3333333,19.0666667 33.2666667,20.1333333 33.2666667,21.4 C33.2666667,22.6666667 34.3333333,23.7333333 35.6,23.7333333 L61.3333333,23.7333333 C62.6,23.7333333 63.6666667,22.6666667 63.6666667,21.4 C63.6666667,20.1333333 62.6,19.0666667 61.3333333,19.0666667 Z" id="Path"></path>
            </g>
        </g>
    </g>
</svg>