<?xml version="1.0" encoding="UTF-8"?>
<svg width="24px" height="24px" viewBox="0 0 24 24" version="1.1" xmlns="http://www.w3.org/2000/svg" xmlns:xlink="http://www.w3.org/1999/xlink">
    <!-- Generator: Sketch 62 (91390) - https://sketch.com -->
    <title>Influence</title>
    <desc>Created with Sketch.</desc>
    <g id="dCube---FE,-Modeling,-Post-Filters" stroke="none" stroke-width="1" fill="none" fill-rule="evenodd">
        <g id="PREVIEW-CONFIGURATION-V3" transform="translate(-68.000000, -1522.000000)" fill="#A8A8A8" fill-rule="nonzero">
            <g id="Influence" transform="translate(68.000000, 1522.000000)">
                <path d="M2.75608277,0.05945325 C1.27315248,0.05945325 0.0594535558,1.27316573 0.0594535558,2.7560791 C0.0594535558,4.23900266 1.27315248,5.45270495 2.75608277,5.45271514 C3.3318132,5.45271514 3.8657727,5.26824022 4.30505365,4.9576293 L6.27275702,6.92532442 C5.09252327,8.2580487 4.37406042,10.0084507 4.37406042,11.9246253 C4.37406042,13.8149021 5.0739705,15.5433098 6.22588959,16.8691443 L4.24553898,18.8494775 C3.81793448,18.5640408 3.30579072,18.3965355 2.75608277,18.3965355 C1.27315248,18.3965355 0.0594535558,19.610248 0.0594535558,21.0931614 C0.0594535558,22.5760747 1.27315248,23.7897872 2.75608277,23.7897872 C4.23901316,23.7897872 5.45271208,22.5760747 5.45271208,21.0931614 C5.45271208,20.5479921 5.28721994,20.0402275 5.00609637,19.6147529 L6.98906264,17.6312602 C8.31370091,18.7784903 10.0386271,19.4751838 11.9246223,19.4751838 C13.8407928,19.4751838 15.591202,18.7567305 16.9239303,17.5764885 L18.8916061,19.5441836 C18.5810084,19.9834785 18.3965325,20.5174467 18.3965325,21.0931614 C18.3965325,22.5760747 19.6102307,23.7897872 21.0931614,23.7897872 C22.5760921,23.7897872 23.7897903,22.5760747 23.7897903,21.0931614 C23.7897903,19.610248 22.5760921,18.3965355 21.0931614,18.3965355 C20.5741417,18.3965355 20.0899888,18.5478661 19.6774315,18.8047143 L17.6786621,16.8054139 C18.7977094,15.4881406 19.4751838,13.7845912 19.4751838,11.9246253 C19.4751838,10.0386394 18.7784832,8.31371732 17.6312561,6.98905489 L19.6142219,5.006082 C20.039777,5.28738077 20.5478219,5.45271514 21.0931614,5.45271514 C22.5760921,5.45270495 23.7897903,4.23900266 23.7897903,2.7560791 C23.7897903,1.27316573 22.5760921,0.05945325 21.0931614,0.05945325 C19.6102307,0.05945325 18.3965325,1.27316573 18.3965325,2.7560791 C18.3965325,3.30578379 18.5640469,3.8179412 18.8494847,4.24554592 L16.8691341,6.22588928 C15.5433098,5.073981 13.8149052,4.37405665 11.9246223,4.37405665 C10.0646493,4.37405665 8.3611076,5.05153825 7.04383121,6.17058757 L5.04506267,4.1718171 C5.30180875,3.75929652 5.45271208,3.2749938 5.45271208,2.7560791 C5.45271208,1.27316573 4.23901316,0.05945325 2.75608277,0.05945325 L2.75608277,0.05945325 Z M11.9246223,5.45271514 C15.5053416,5.45271514 18.3965325,8.34389579 18.3965325,11.9246253 C18.3965325,14.0946721 17.3336022,16.0100925 15.6999025,17.1835773 L15.6999025,16.5878965 C15.6999025,14.4688912 14.0138089,12.7336141 11.9246223,12.7336141 C9.83538163,12.7336141 8.1493413,14.4688912 8.1493413,16.5878965 L8.1493413,17.1835773 C6.51564241,16.0100925 5.45271208,14.0946721 5.45271208,11.9246253 C5.45271208,8.34389579 8.34390312,5.45271514 11.9246223,5.45271514 L11.9246223,5.45271514 Z M11.9246223,12.7336141 C13.407552,12.7336141 14.6212512,11.5199016 14.6212512,10.0369781 C14.6212512,8.55405451 13.407552,7.34035222 11.9246223,7.34035222 C10.4416916,7.34035222 9.22799337,8.55405451 9.22799337,10.0369781 C9.22799337,11.5199016 10.4416916,12.7336141 11.9246223,12.7336141 Z" id="Shape"></path>
            </g>
        </g>
    </g>
</svg>