<?xml version="1.0" encoding="UTF-8"?>
<svg width="24px" height="24px" viewBox="0 0 24 24" version="1.1" xmlns="http://www.w3.org/2000/svg" xmlns:xlink="http://www.w3.org/1999/xlink">
    <!-- Generator: Sketch 59.1 (86144) - https://sketch.com -->
    <title>Label Source - SML Manual Tuning</title>
    <desc>Created with Sketch.</desc>
    <g id="Page-1" stroke="none" stroke-width="1" fill="none" fill-rule="evenodd">
        <g id="AUTO-MANUAL-TUNING" transform="translate(-73.000000, -211.000000)" fill="#D2D8E7" fill-rule="nonzero">
            <g id="Label-Source---SML-Manual-Tuning" transform="translate(73.000000, 211.000000)">
                <path d="M21.3479013,0.425245333 C21.0347337,0.112094943 20.5957667,-0.0410023401 20.1557787,0.009472 L14.0847813,0.705957333 C13.7590205,0.74333415 13.4555046,0.889882705 13.223648,1.121744 L0.425248,13.920144 C0.152967871,14.1924187 2.02743102e-06,14.5617056 2.02743102e-06,14.946764 C2.02743102e-06,15.3318224 0.152967871,15.7011093 0.425248,15.973384 L8.02661067,23.5747547 C8.2988884,23.8470351 8.66817788,24.0000013 9.05323867,24.0000013 C9.43829945,24.0000013 9.80758893,23.8470351 10.0798667,23.5747547 L22.8782667,10.7763547 C23.1101322,10.5444946 23.2566812,10.2409722 23.2940533,9.91520533 L23.9905387,3.844192 C24.0409992,3.40421203 23.8878966,2.96525855 23.5747493,2.65210133 L21.3479013,0.425245333 Z M20.5753093,6.014112 C19.8605391,6.72888072 18.7016689,6.72887989 17.9868997,6.01411016 C17.2721305,5.29934042 17.2721305,4.14047025 17.9868997,3.42570051 C18.7016689,2.71093077 19.8605391,2.71092995 20.5753093,3.42569867 C21.2900737,4.14047187 21.2900737,5.29933879 20.5753093,6.014112 Z" id="Shape"></path>
            </g>
        </g>
    </g>
</svg>