<?xml version="1.0" encoding="UTF-8"?>
<svg width="32px" height="32px" viewBox="0 0 32 32" version="1.1" xmlns="http://www.w3.org/2000/svg" xmlns:xlink="http://www.w3.org/1999/xlink">
    <!-- Generator: Sketch 55.1 (78136) - https://sketchapp.com -->
    <title>Group 6</title>
    <desc>Created with Sketch.</desc>
    <g id="DCube" stroke="none" stroke-width="1" fill="none" fill-rule="evenodd">
        <g id="MT---SELECT-FEATURES----SELECTION---UML-MANUAL" transform="translate(-361.000000, -252.000000)" fill-rule="nonzero">
            <g id="Group-6" transform="translate(361.000000, 252.000000)">
                <path d="M15.9889655,-5.72430991e-13 C14.7274742,-5.72430991e-13 13.7048276,1.02264662 13.7048276,2.28413793 C13.7048276,3.54562924 14.7274742,4.56827586 15.9889655,4.56827586 C17.2504568,4.56827586 18.2731034,3.54562924 18.2731034,2.28413793 C18.2731034,1.02264662 17.2504568,-5.72430991e-13 15.9889655,-5.72430991e-13 Z" id="Path" fill="#F3AF1A"></path>
                <path d="M15.9889655,7.23310345 C12.8254345,7.23310345 10.2786207,9.10080497 10.2786207,11.4206897 L10.2786207,14.0855172 L21.6993103,14.0855172 L21.6993103,11.4206897 C21.6993103,9.10080497 19.1524966,7.23310345 15.9889655,7.23310345 Z" id="Path" fill="#F3AF1A"></path>
                <path d="M15.9056706,16.3577548 C15.5134259,16.4008688 15.219108,16.7364957 15.2275862,17.1310116 L15.2275862,20.5096704 L11.7895018,22.5677548 C11.5286184,22.6932925 11.3614966,22.9559158 11.3582219,23.2454145 C11.3550423,23.5349131 11.516268,23.8011966 11.774288,23.9325189 C12.0323081,24.0638411 12.3424786,24.0374799 12.5746361,23.864498 L15.9889655,21.8182911 L19.4032949,23.864498 C19.6354524,24.0374799 19.945623,24.0638411 20.203643,23.9325189 C20.461663,23.8011966 20.6228888,23.5349131 20.6197091,23.2454145 C20.6164344,22.9559158 20.4493126,22.6932925 20.1884292,22.5677548 L16.7503448,20.5096704 L16.7503448,17.1310116 C16.7550634,16.9117369 16.6650031,16.701076 16.5032283,16.5529794 C16.3414536,16.4048827 16.1236768,16.3337341 15.9056706,16.3577548 L15.9056706,16.3577548 Z" id="Path" fill="#F95050"></path>
                <path d="M5.71034483,17.892391 C4.44885352,17.892391 3.4262069,18.9150756 3.4262069,20.176567 C3.4262069,21.4380583 4.44885352,22.4607049 5.71034483,22.4607049 C6.97183614,22.4607049 7.99448276,21.4380583 7.99448276,20.176567 C7.99448276,18.9150756 6.97183614,17.892391 5.71034483,17.892391 Z" id="Path" fill="#F3AF1A"></path>
                <path d="M26.2675862,17.892391 C25.0060949,17.892391 23.9834483,18.9150756 23.9834483,20.176567 C23.9834483,21.4380583 25.0060949,22.4607049 26.2675862,22.4607049 C27.5290775,22.4607049 28.5517241,21.4380583 28.5517241,20.176567 C28.5517241,18.9150756 27.5290775,17.892391 26.2675862,17.892391 Z" id="Path" fill="#F3AF1A"></path>
                <path d="M5.71034483,25.1255325 C2.54681379,25.1255325 -5.06616971e-12,26.993234 -5.06616971e-12,29.3131187 L-5.06616971e-12,31.9779463 L11.4206897,31.9779463 L11.4206897,29.3131187 C11.4206897,26.993234 8.87387586,25.1255325 5.71034483,25.1255325 Z" id="Path" fill="#F3AF1A"></path>
                <path d="M26.2675862,25.1255325 C23.1040552,25.1255325 20.5572414,26.993234 20.5572414,29.3131187 L20.5572414,31.9779463 L31.977931,31.9779463 L31.977931,29.3131187 C31.977931,26.993234 29.4311172,25.1255325 26.2675862,25.1255325 Z" id="Path" fill="#F3AF1A"></path>
            </g>
        </g>
    </g>
</svg>