<?xml version="1.0" encoding="UTF-8"?>
<svg width="48px" height="48px" viewBox="0 0 48 48" version="1.1" xmlns="http://www.w3.org/2000/svg" xmlns:xlink="http://www.w3.org/1999/xlink">
    <g id="Page-1" stroke="none" stroke-width="1">
        <g id="KG-icons" transform="translate(-638.000000, -242.000000)">
            <g id="move" transform="translate(638.000000, 242.000000)">
                <path d="M24.0410156,44.5839844 C24.1777344,44.5839844 24.3007813,44.5634766 24.4101563,44.5224609 C24.5195313,44.4814453 24.6152344,44.40625 24.6972656,44.296875 L25.0253906,43.96875 L25.0664063,43.96875 L25.0664063,43.96875 L25.0664063,43.9277344 L25.0664063,43.9277344 L29.90625,38.6367188 C30.0976563,38.4453125 30.1933594,38.2128906 30.1933594,37.9394531 C30.1933594,37.6660156 30.0976563,37.4335938 29.90625,37.2421875 L29.578125,36.9960938 C29.3867188,36.8046875 29.1679688,36.7294922 28.921875,36.7705078 C28.6757813,36.8115234 28.4570313,36.9277344 28.265625,37.1191406 L25.4355469,40.2773438 L25.4355469,24.9375 L40.734375,24.9375 L37.5761719,27.7675781 C37.3847656,27.9316406 37.2685547,28.1435547 37.2275391,28.4033203 C37.1865234,28.6630859 37.2617188,28.8886719 37.453125,29.0800781 L37.6992188,29.4082031 C37.890625,29.5996094 38.1230469,29.6953125 38.3964844,29.6953125 C38.6699219,29.6953125 38.9023438,29.5996094 39.09375,29.4082031 L44.3027344,24.6914063 L44.671875,24.3222656 C44.78125,24.2402344 44.8564453,24.1376953 44.8974609,24.0146484 C44.9384766,23.8916016 44.9589844,23.7753906 44.9589844,23.6660156 C44.9589844,23.5292969 44.9384766,23.40625 44.8974609,23.296875 C44.8564453,23.1875 44.78125,23.0917969 44.671875,23.0097656 L44.34375,22.6816406 L44.34375,22.640625 L44.34375,22.640625 L44.3027344,22.640625 L44.3027344,22.640625 L39.0117188,17.8007812 C38.8203125,17.609375 38.5878906,17.5136719 38.3144531,17.5136719 C38.0410156,17.5136719 37.8085938,17.609375 37.6171875,17.8007812 L37.3710938,18.1289062 C37.1796875,18.3203125 37.1044922,18.5390625 37.1455078,18.7851562 C37.1865234,19.03125 37.3027344,19.25 37.4941406,19.4414062 L40.6523438,22.3125 L25.3945313,22.3125 L25.3945313,6.97265625 L28.265625,10.1308594 C28.4570313,10.3222656 28.6757813,10.4384766 28.921875,10.4794922 C29.1679688,10.5205078 29.3867188,10.4453125 29.578125,10.2539062 L29.90625,10.0078125 C30.0976563,9.81640625 30.1933594,9.58398438 30.1933594,9.31054688 C30.1933594,9.03710938 30.0976563,8.8046875 29.90625,8.61328125 L25.2714844,3.52734375 C25.2167969,3.41796875 25.1484375,3.31542969 25.0664063,3.21972656 C24.984375,3.12402344 24.8886719,3.04882812 24.7792969,2.99414062 L24.6972656,2.953125 C24.6152344,2.84375 24.5195313,2.76855469 24.4101563,2.72753906 C24.3007813,2.68652344 24.1777344,2.66601562 24.0410156,2.66601562 C23.9316406,2.66601562 23.8154297,2.68652344 23.6923828,2.72753906 C23.5693359,2.76855469 23.4667969,2.84375 23.3847656,2.953125 L23.015625,3.32226562 L23.015625,3.32226562 L18.2988281,8.53125 C18.1074219,8.72265625 18.0117188,8.95507812 18.0117188,9.22851562 C18.0117188,9.50195312 18.1074219,9.734375 18.2988281,9.92578125 L18.6269531,10.171875 C18.8183594,10.3632812 19.0439453,10.4384766 19.3037109,10.3974609 C19.5634766,10.3564453 19.7753906,10.2402344 19.9394531,10.0488281 L22.7695312,6.890625 L22.7695312,22.2714844 L7.34765625,22.2714844 L10.5058594,19.4414062 C10.6972656,19.25 10.8134766,19.03125 10.8544922,18.7851562 C10.8955078,18.5390625 10.8203125,18.3203125 10.6289062,18.1289062 L10.3828125,17.8007812 C10.1914062,17.609375 9.95898438,17.5136719 9.68554688,17.5136719 C9.41210938,17.5136719 9.1796875,17.609375 8.98828125,17.8007812 L3.90234375,22.4355469 C3.79296875,22.4902344 3.69042969,22.5585938 3.59472656,22.640625 C3.49902344,22.7226562 3.42382812,22.8183594 3.36914062,22.9277344 L3.328125,23.0097656 C3.21875,23.0917969 3.14355469,23.1875 3.10253906,23.296875 C3.06152344,23.40625 3.04101562,23.5292969 3.04101562,23.6660156 C3.04101562,23.7753906 3.06152344,23.8916016 3.10253906,24.0146484 C3.14355469,24.1376953 3.21875,24.2402344 3.328125,24.3222656 L3.69726562,24.6914063 L3.69726562,24.6914063 L8.90625,29.4082031 C9.09765625,29.5996094 9.33007812,29.6953125 9.60351562,29.6953125 C9.87695312,29.6953125 10.109375,29.5996094 10.3007812,29.4082031 L10.546875,29.0800781 C10.7382812,28.8886719 10.8134766,28.6630859 10.7724609,28.4033203 C10.7314453,28.1435547 10.6152344,27.9316406 10.4238281,27.7675781 L7.22460938,24.9375 L22.7695312,24.9375 L22.7695312,40.359375 L19.9394531,37.2011719 C19.7753906,37.0097656 19.5634766,36.8935547 19.3037109,36.8525391 C19.0439453,36.8115234 18.8183594,36.8867188 18.6269531,37.078125 L18.2988281,37.3242188 C18.1074219,37.515625 18.0117188,37.7480469 18.0117188,38.0214844 C18.0117188,38.2949219 18.1074219,38.5273438 18.2988281,38.71875 L23.015625,43.9277344 L23.3847656,44.296875 C23.4667969,44.40625 23.5693359,44.4814453 23.6923828,44.5224609 C23.8154297,44.5634766 23.9316406,44.5839844 24.0410156,44.5839844 Z"></path>
            </g>
        </g>
    </g>
</svg>
