<?xml version="1.0" encoding="UTF-8"?>
<svg width="48px" height="48px" viewBox="0 0 48 48" version="1.1" xmlns="http://www.w3.org/2000/svg" xmlns:xlink="http://www.w3.org/1999/xlink">
    <title>noun_Add File_770463</title>
    <g id="dCube---FE,-Modeling,-Post-Filters" stroke="none" stroke-width="1" fill="none" fill-rule="evenodd">
        <g id="V6-FEATURE-SELECTION-RUN-SMART-REC" transform="translate(-147.000000, -323.000000)" fill="#A8A8A8" fill-rule="nonzero">
            <g id="noun_Add-File_770463" transform="translate(147.000000, 323.000000)">
                <path d="M40,38 L38,38 L38,40 C38,41.104 37.104,42 36,42 C34.896,42 34,41.104 34,40 L34,38 L32,38 C30.896,38 30,37.104 30,36 C30,34.896 30.896,34 32,34 L34,34 L34,32 C34,30.896 34.896,30 36,30 C37.104,30 38,30.896 38,32 L38,34 L40,34 C41.104,34 42,34.896 42,36 C42,37.104 41.104,38 40,38 M36,24 C29.382,24 24,29.382 24,36 C24,42.618 29.382,48 36,48 C42.618,48 48,42.618 48,36 C48,29.382 42.618,24 36,24" id="Shape"></path>
                <polygon id="Path" points="26 1.1718 26 11.9998 36.828 11.9998"></polygon>
                <path d="M18,36 L10,36 C8.896,36 8,35.104 8,34 C8,32.896 8.896,32 10,32 L18,32 C19.104,32 20,32.896 20,34 C20,35.104 19.104,36 18,36 M10,22 L18,22 C19.104,22 20,22.896 20,24 C20,25.104 19.104,26 18,26 L10,26 C8.896,26 8,25.104 8,24 C8,22.896 8.896,22 10,22 M10,12 L16,12 C17.104,12 18,12.896 18,14 C18,15.104 17.104,16 16,16 L10,16 C8.896,16 8,15.104 8,14 C8,12.896 8.896,12 10,12 M20,36 C20,27.178 27.178,20 36,20 C36.678,20 37.344,20.056 38,20.138 L38,16 L24,16 C22.896,16 22,15.104 22,14 L22,0 L2,0 C0.896,0 0,0.896 0,2 L0,46 C0,47.104 0.896,48 2,48 L25.452,48 C22.118,45.066 20,40.78 20,36" id="Shape"></path>
            </g>
        </g>
    </g>
</svg>