<svg width="62" height="80" viewBox="0 0 62 80" fill="none" xmlns="http://www.w3.org/2000/svg">
<path fill-rule="evenodd" clip-rule="evenodd" d="M50.0903 53.7227L61.6377 71.5703C61.937 72.0332 61.8051 72.6519 61.3423 72.9521L50.7358 79.8389C50.5727 79.9448 50.3833 80 50.1914 80C50.1215 80 50.0517 79.9927 49.9824 79.978C49.7226 79.9224 49.4956 79.7661 49.3515 79.543L37.8042 61.6836C37.0713 60.5605 36.8193 59.2163 37.0981 57.9019C37.2581 57.1472 37.5976 56.4664 38.0576 55.8743L34.5298 50.4224C34.4444 50.2905 34.4028 50.1461 34.3851 50C31.2849 51.3829 27.9583 52.0996 24.5805 52.0996C22.8715 52.0996 21.1508 51.9189 19.4404 51.5522C13.0854 50.1899 7.64156 46.4287 4.11129 40.9614C3.22213 39.6045 2.45699 38.103 1.83981 36.5044C0.529749 33.1499 -0.0107787 29.4541 0.277795 25.8208C0.561975 22.1299 1.71188 18.4883 3.6025 15.2925L3.69381 15.1465C3.7861 14.998 3.87692 14.853 3.9819 14.7017C5.82467 11.7583 8.25826 9.28027 11.1928 7.37061C11.1982 7.36588 11.2037 7.36137 11.2094 7.35679L11.2187 7.34912C11.2475 7.32568 11.2773 7.3042 11.3086 7.28369C11.4687 7.18066 11.622 7.09131 11.7788 7L11.9121 6.92236C16.5234 4.08643 21.8198 2.90723 27.2153 3.52295C30.167 3.8454 32.9949 4.70087 35.6355 6.05829C38.1765 2.30054 42.4663 0 47.0512 0C54.6416 0 60.8169 6.15527 60.8169 13.7212C60.8169 20.636 55.6331 26.4227 48.8538 27.3127C48.9724 34.3809 45.9953 41.1322 40.809 45.8178C40.9417 45.8945 41.063 45.9924 41.1518 46.1299L44.6323 51.5083C44.6411 51.5219 44.6455 51.5366 44.6499 51.5513C44.6536 51.5635 44.6572 51.5757 44.6634 51.5873C45.3912 51.4066 46.1522 51.3723 46.9082 51.5327C48.228 51.8125 49.3584 52.5903 50.0903 53.7227ZM58.8169 13.7212C58.8169 7.2583 53.539 2 47.0512 2C42.8549 2 38.9472 4.25195 36.853 7.87744L36.8512 7.88104L36.851 7.88135C36.6521 8.22241 36.4709 8.57489 36.3083 8.93622C35.8192 10.023 35.499 11.1877 35.3701 12.3608C35.3125 12.8525 35.2851 13.2954 35.2851 13.7212C35.2851 18.6689 38.4287 23.1074 43.1069 24.7651C44.6049 25.2959 46.1933 25.4902 47.791 25.4209C53.9658 25.0444 58.8169 19.9048 58.8169 13.7212ZM41.832 26.4189C41.9506 28.082 41.8359 29.7393 41.4892 31.355C41.4887 31.3555 41.4887 31.356 41.4887 31.3564C40.5244 35.8828 37.8457 39.7671 33.9448 42.2939C28.3803 45.9062 21.3794 46.0454 15.6777 42.6587C13.3652 41.2764 11.4516 39.4272 9.98532 37.1553C9.33346 36.165 8.79489 35.1089 8.37985 34.0068C7.43942 31.5889 7.04977 28.9497 7.25338 26.3726C7.45651 23.7407 8.27682 21.145 9.60201 18.9028L9.88375 18.4702C11.2246 16.333 12.9697 14.561 15.0556 13.2144L15.5649 12.8989C18.2651 11.2314 21.2973 10.3721 24.436 10.3721C25.0952 10.3721 25.7597 10.4102 26.4267 10.4863C28.8486 10.75 31.2309 11.5381 33.3217 12.7686C33.3207 12.782 33.3205 12.7949 33.3202 12.8077C33.3199 12.8197 33.3197 12.8317 33.3188 12.8442C33.2981 13.1438 33.2851 13.4363 33.2851 13.7212C33.2851 14.0767 33.2997 14.4298 33.327 14.7802C33.3323 14.8488 33.341 14.9166 33.3497 14.9844V14.9844V14.9845V14.9845C33.3557 15.0316 33.3617 15.0787 33.3666 15.1261L33.3738 15.196C33.3954 15.4056 33.4171 15.6153 33.4494 15.8223C33.4629 15.9088 33.4803 15.9942 33.4977 16.0795C33.5078 16.1293 33.5179 16.1791 33.5273 16.2291L33.5472 16.3361C33.5786 16.5057 33.61 16.6753 33.6494 16.8425C33.672 16.9387 33.6987 17.0335 33.7255 17.1283L33.7255 17.1285C33.7389 17.1757 33.7522 17.2229 33.765 17.2703L33.7928 17.3739C33.8345 17.5298 33.8762 17.6856 33.9248 17.839C33.9564 17.9387 33.992 18.0367 34.0276 18.1347C34.0435 18.1787 34.0595 18.2227 34.0752 18.2669L34.1066 18.356C34.1599 18.5074 34.2132 18.6587 34.2729 18.8073C34.3141 18.9097 34.3591 19.0102 34.4042 19.1107C34.4218 19.15 34.4394 19.1893 34.4568 19.2288L34.4829 19.2879C34.5502 19.4409 34.6175 19.5938 34.6912 19.7436C34.7434 19.8498 34.7994 19.9538 34.8555 20.0578L34.8555 20.0579L34.8557 20.0583L34.9076 20.1548L34.9283 20.1937L34.9284 20.1938C35.009 20.3449 35.0896 20.4957 35.1762 20.6433C35.2405 20.7528 35.3086 20.8596 35.3767 20.9666L35.3768 20.9667L35.3769 20.9669L35.377 20.9671L35.4252 21.0428L35.4294 21.0495C35.5265 21.2025 35.6234 21.3553 35.7264 21.5043C35.8066 21.6201 35.8906 21.7329 35.9747 21.8458L35.9747 21.8458L36.0052 21.8867C36.1144 22.0336 36.224 22.18 36.339 22.3224C36.4388 22.446 36.5427 22.566 36.6468 22.6861C36.7659 22.8236 36.8858 22.9601 37.0103 23.093C37.1202 23.2101 37.2335 23.3238 37.3475 23.4371C37.4759 23.5648 37.6054 23.6909 37.739 23.8136C37.8578 23.9228 37.9793 24.0287 38.1021 24.1339C38.2402 24.2521 38.38 24.3682 38.523 24.4811C38.6499 24.5814 38.779 24.6786 38.9096 24.7745C39.0571 24.8828 39.2066 24.9881 39.3588 25.0906C39.4937 25.1815 39.6301 25.27 39.7686 25.3563C39.9246 25.4536 40.0831 25.5472 40.2436 25.6385C40.3857 25.7193 40.5288 25.7982 40.6742 25.8741C40.8395 25.9604 41.0075 26.0423 41.177 26.1221C41.325 26.1919 41.4735 26.2604 41.6248 26.3251C41.6565 26.3386 41.6876 26.3533 41.7186 26.3679C41.756 26.3856 41.7934 26.4032 41.832 26.4189ZM5.78805 39.8711C9.03121 44.8945 14.0278 48.3462 19.8598 49.5967C25.6919 50.8481 31.6606 49.7466 36.6689 46.5005H36.6684C43.1172 42.3169 46.9648 35.0815 46.8686 27.4414C46.737 27.4397 46.6062 27.4308 46.4753 27.422L46.4753 27.422C46.413 27.4178 46.3506 27.4135 46.2882 27.4101C46.2335 27.4071 46.1787 27.4048 46.124 27.4025C46.0183 27.398 45.9126 27.3936 45.8075 27.3842C45.6169 27.367 45.428 27.34 45.2389 27.3129L45.2388 27.3129L45.1221 27.2963C45.0665 27.2885 45.0109 27.2816 44.9552 27.2748L44.9552 27.2748L44.9551 27.2747C44.8579 27.2627 44.7607 27.2507 44.6643 27.2338C44.4519 27.1966 44.2419 27.1476 44.0319 27.0987L43.9359 27.0764L43.9198 27.0728L43.9015 27.069C43.8889 27.0664 43.8764 27.0638 43.8639 27.0608C43.9141 28.6482 43.7765 30.2277 43.4448 31.7734C42.3691 36.8228 39.3818 41.1548 35.0327 43.9722C31.8183 46.0581 28.1733 47.106 24.5229 47.106C21.1245 47.106 17.7216 46.1987 14.6538 44.377C12.0732 42.8345 9.93942 40.7725 8.30953 38.2476C7.58151 37.1406 6.97506 35.9521 6.51168 34.7217C5.46676 32.0352 5.03219 29.0908 5.25924 26.2168C5.48629 23.2832 6.40035 20.3887 7.90328 17.8481L8.19869 17.3936C9.68698 15.0205 11.6372 13.041 13.9863 11.5239L14.5127 11.1978C18.167 8.94092 22.3618 8.00879 26.6484 8.49854C29.0824 8.76324 31.4715 9.52948 33.6313 10.6806C33.6393 10.6452 33.6496 10.6103 33.6599 10.5754L33.6599 10.5754C33.6689 10.5449 33.6779 10.5143 33.6854 10.4835C33.7552 10.1953 33.8318 9.9093 33.9207 9.62567C33.9669 9.47827 34.0163 9.33295 34.0675 9.18713C34.1629 8.91577 34.2676 8.64893 34.38 8.38416L34.4207 8.28749C34.4643 8.18372 34.5078 8.0802 34.5553 7.97797C34.5687 7.94907 34.5808 7.91959 34.5929 7.89012L34.5929 7.89007L34.5929 7.89002C34.607 7.85573 34.6211 7.82145 34.6372 7.78809C32.2392 6.56836 29.6728 5.80322 26.9936 5.51074C22.0459 4.94629 17.1865 6.02686 12.9423 8.63672L12.7832 8.72949L12.7483 8.74983C12.6547 8.80436 12.5619 8.85841 12.4672 8.91748C12.4331 8.94629 12.3969 8.97363 12.3589 8.99805C9.63619 10.7544 7.37936 13.0435 5.65133 15.8013C5.54194 15.9617 5.4687 16.0794 5.39405 16.1993L5.39108 16.2041L5.30953 16.3345C3.58834 19.2446 2.53268 22.5869 2.27194 25.9766C2.0068 29.313 2.50192 32.7021 3.70455 35.7808C4.27194 37.2515 4.97262 38.626 5.78805 39.8711ZM36.0564 49.1797C36.6325 48.8683 37.2012 48.5384 37.7568 48.1782H37.7573C38.3227 47.8114 38.8628 47.4161 39.3907 47.0077C39.3978 47.0274 39.4041 47.0474 39.4104 47.0673C39.4265 47.1185 39.4425 47.1696 39.4731 47.2168L42.8415 52.4219L39.5756 54.539L36.2085 49.3354C36.1795 49.2907 36.1415 49.2569 36.1035 49.2231C36.0876 49.2089 36.0717 49.1947 36.0564 49.1797ZM39.4814 60.5942L50.4873 77.6157L59.416 71.8184L48.4121 54.8105C47.9697 54.1265 47.289 53.6577 46.4936 53.4893C46.2827 53.4443 46.0708 53.4224 45.8603 53.4224C45.2798 53.4224 44.7114 53.5908 44.2138 53.916L40.4345 56.3652C40.4248 56.3716 40.354 56.4141 40.3442 56.4199C39.6909 56.8438 39.2226 57.5239 39.0547 58.3169C38.8872 59.1069 39.0385 59.916 39.4814 60.5942Z" fill="#4A505F"/>
<path d="M18.9836 16.6634C19.114 16.6634 19.2468 16.6375 19.3748 16.5833C19.7512 16.4231 20.1414 16.2806 20.5339 16.16C21.0618 15.9974 21.3582 15.4378 21.196 14.91C21.0334 14.3811 20.4685 14.0862 19.946 14.2478C19.4876 14.389 19.032 14.5555 18.5916 14.7425C18.0837 14.9588 17.8469 15.5462 18.0627 16.0545C18.2249 16.4349 18.5945 16.6634 18.9836 16.6634Z" fill="#4A505F"/>
<path d="M24.0786 39.8875C17.4175 39.8875 11.9985 34.4466 11.9985 27.7586C11.9985 24.3817 13.4175 21.1312 15.8911 18.8406C16.2959 18.4652 16.3203 17.8323 15.9453 17.4271C15.5684 17.0218 14.936 16.9974 14.5317 17.3729C11.6509 20.0413 9.99854 23.8265 9.99854 27.7586C9.99854 35.5491 16.3149 41.8875 24.0786 41.8875C24.6309 41.8875 25.0786 41.4398 25.0786 40.8875C25.0786 40.3353 24.6309 39.8875 24.0786 39.8875Z" fill="#4A505F"/>
<path fill-rule="evenodd" clip-rule="evenodd" d="M46.271 19.7266C46.479 19.6455 46.7559 19.5967 47.0513 19.5967C48.4033 19.5967 49.5034 20.6997 49.5034 22.0552C49.5034 23.2158 48.686 24.2271 47.5596 24.4595C47.4004 24.4946 47.2251 24.5137 47.0513 24.5137C45.6987 24.5137 44.5986 23.4106 44.5986 22.0552C44.5986 20.9941 45.271 20.0586 46.271 19.7266ZM47.1033 22.5071C47.1282 22.504 47.1531 22.501 47.1553 22.5005C47.3569 22.459 47.5034 22.2715 47.5034 22.0552C47.5034 21.8022 47.3008 21.5967 47.0513 21.5967C46.9823 21.5967 46.9513 21.607 46.9447 21.6093L46.9443 21.6094C46.7173 21.686 46.5986 21.8545 46.5986 22.0552C46.5986 22.3081 46.8018 22.5137 47.0513 22.5137C47.0535 22.5132 47.0784 22.5101 47.1033 22.5071Z" fill="#4A505F"/>
<path fill-rule="evenodd" clip-rule="evenodd" d="M43.6841 6.95703C43.6831 6.94727 43.6821 6.93652 43.6816 6.92578L43.6294 6.47559C43.625 6.43701 43.6226 6.39844 43.6226 6.35986C43.6226 4.46777 45.1606 2.92871 47.0513 2.92871C47.3936 2.92871 47.7368 2.97998 48.0439 3.07666C49.0469 3.37305 49.8765 4.14648 50.2466 5.14062C50.4004 5.54883 50.4795 5.96045 50.4795 6.35986C50.4795 6.39844 50.4771 6.43701 50.4727 6.47559L50.4204 6.92529C50.4199 6.93604 50.4189 6.94629 50.418 6.95508L49.499 16.167C49.5034 17.4229 48.4033 18.5205 47.0513 18.5205C45.6987 18.5205 44.5986 17.4229 44.5986 16.0732L44.5469 15.5942L43.6841 6.95703ZM47.4595 4.98926C47.3276 4.94775 47.1924 4.92871 47.0513 4.92871C46.2803 4.92871 45.6499 5.54346 45.6235 6.30957L45.6724 6.73047C45.6768 6.76904 45.6792 6.80762 45.6792 6.84619L46.5938 15.9756C46.5986 16.3242 46.7974 16.5205 47.0513 16.5205C47.3047 16.5205 47.5034 16.3242 47.5034 16.0732L48.4785 6.3125C48.4722 6.16797 48.437 6.01025 48.3735 5.84277C48.2202 5.43066 47.8794 5.11328 47.4595 4.98926Z" fill="#4A505F"/>
</svg>
