<?xml version="1.0" encoding="UTF-8"?>
<svg width="72px" height="64px" viewBox="0 0 72 64" version="1.1" xmlns="http://www.w3.org/2000/svg" xmlns:xlink="http://www.w3.org/1999/xlink">
    <!-- Generator: Sketch 63.1 (92452) - https://sketch.com -->
    <title>noun_wrong_225891</title>
    <desc>Created with Sketch.</desc>
    <g id="dVector" stroke="none" stroke-width="1" fill="none" fill-rule="evenodd" opacity="0.38">
        <g id="DARK-CLUSTERS-NO-RESULTS" transform="translate(-924.000000, -579.000000)" fill="#FFFFFF" fill-rule="nonzero">
            <g id="noun_wrong_225891" transform="translate(924.000000, 579.000000)">
                <path d="M9.84489796,51.7959184 L34.8979592,51.7959184 C35.9265306,51.7959184 36.7346939,52.6040816 36.7346939,53.6326531 C36.7346939,54.6612245 35.9265306,55.4693878 34.8979592,55.4693878 L9.84489796,55.4693878 C8.81632653,55.4693878 8.00816327,54.6612245 8.00816327,53.6326531 C8.00816327,52.6040816 8.88979592,51.7959184 9.84489796,51.7959184 Z M50.4,13.2979592 L50.4,7.86122449 C50.4,3.52653061 46.9469388,0.0734693878 42.6122449,0.0734693878 L17.1183673,0.0734693878 C16.677551,0.0734693878 16.2367347,0.146938776 15.7959184,0.293877551 C15.355102,0.440816327 14.9877551,0.734693878 14.6938776,1.02857143 L1.32244898,13.8857143 C0.955102041,14.1795918 0.734693878,14.6204082 0.514285714,15.0612245 C0.293877551,15.5020408 0.220408163,15.9428571 0.220408163,16.4571429 L0.220408163,55.3959184 C0.220408163,59.7306122 3.67346939,63.1836735 8.00816327,63.1836735 L42.5387755,63.1836735 C46.8734694,63.1836735 50.3265306,59.7306122 50.3265306,55.3959184 L50.3265306,51.2081633 C49.1510204,51.722449 47.9020408,52.1632653 46.6530612,52.4571429 L46.6530612,55.3959184 C46.6530612,57.6734694 44.8163265,59.5102041 42.5387755,59.5102041 L8.08163265,59.5102041 C5.80408163,59.5102041 3.96734694,57.6734694 3.96734694,55.3959184 L3.96734694,17.4857143 L10.5061224,17.4857143 C14.7673469,17.4857143 18.2938776,13.9591837 18.2938776,9.69795918 L18.2938776,3.74693878 L42.6122449,3.74693878 C44.8897959,3.74693878 46.7265306,5.58367347 46.7265306,7.86122449 L46.7265306,12.0489796 C47.9755102,12.3428571 49.2244898,12.7836735 50.4,13.2979592 Z M27.4040816,17.5591837 C28.3591837,16.6040816 29.3877551,15.7959184 30.4163265,15.0612245 L23.7306122,15.0612245 C22.7020408,15.0612245 21.8938776,15.8693878 21.8938776,16.8979592 C21.8938776,17.9265306 22.7020408,18.7346939 23.7306122,18.7346939 L26.3020408,18.7346939 C26.6693878,18.3673469 26.9632653,17.9265306 27.4040816,17.5591837 Z M25.2734694,44.4489796 L9.99183673,44.4489796 C8.96326531,44.4489796 8.15510204,45.2571429 8.15510204,46.2857143 C8.15510204,47.3142857 8.96326531,48.122449 9.99183673,48.122449 L28.7265306,48.122449 C28.2122449,47.755102 27.7714286,47.3142857 27.3306122,46.8734694 C26.5959184,46.0653061 25.9346939,45.2571429 25.2734694,44.4489796 Z M8.15510204,38.9387755 C8.15510204,39.9673469 8.96326531,40.7755102 9.99183673,40.7755102 L23.1428571,40.7755102 C22.6285714,39.6 22.1877551,38.3510204 21.8938776,37.1020408 L9.99183673,37.1020408 C9.03673469,37.1020408 8.15510204,37.9102041 8.15510204,38.9387755 L8.15510204,38.9387755 Z M9.99183673,29.755102 C8.96326531,29.755102 8.15510204,30.5632653 8.15510204,31.5918367 C8.15510204,32.6204082 8.96326531,33.4285714 9.99183673,33.4285714 L21.3061224,33.4285714 C21.3061224,32.9877551 21.2326531,32.6204082 21.2326531,32.1795918 C21.2326531,31.3714286 21.3061224,30.5632653 21.3795918,29.755102 L9.99183673,29.755102 Z M8.15510204,24.244898 C8.15510204,25.2734694 8.96326531,26.0816327 9.99183673,26.0816327 L22.1877551,26.0816327 C22.555102,24.8326531 23.0693878,23.5836735 23.7306122,22.4081633 L9.99183673,22.4081633 C9.03673469,22.4081633 8.15510204,23.2163265 8.15510204,24.244898 Z M70.8244898,60.9795918 C70.1632653,61.6408163 69.355102,61.9346939 68.5469388,61.9346939 C67.7387755,61.9346939 66.8571429,61.6408163 66.2693878,60.9795918 L53.4857143,48.2693878 L54.1469388,47.6081633 L52.3102041,45.7714286 C49.2979592,48.0489796 45.6244898,49.2244898 42.0244898,49.2244898 C37.6897959,49.2244898 33.2816327,47.5346939 29.9755102,44.2285714 C23.2897959,37.5428571 23.2897959,26.8163265 29.9755102,20.1306122 C33.2816327,16.8244898 37.6897959,15.1346939 42.0244898,15.1346939 C46.3591837,15.1346939 50.7673469,16.8244898 54.0734694,20.1306122 C60.1714286,26.2285714 60.6857143,35.7795918 55.6163265,42.4653061 L57.4530612,44.3020408 L58.1142857,43.6408163 L70.8244898,56.3510204 C72.0734694,57.6734694 72.0734694,59.7306122 70.8244898,60.9795918 Z M50.9142857,23.2897959 C48.4897959,20.8653061 45.2571429,19.6163265 42.0244898,19.6163265 C38.7918367,19.6163265 35.5591837,20.8653061 33.1346939,23.2897959 C28.2122449,28.2122449 28.2122449,36.1469388 33.1346939,41.0693878 C35.5591837,43.4938776 38.7918367,44.7428571 42.0244898,44.7428571 C45.2571429,44.7428571 48.4897959,43.4938776 50.9142857,41.0693878 C55.8367347,36.2204082 55.8367347,28.2122449 50.9142857,23.2897959 Z M46.0653061,25.5673469 L42.0244898,29.6081633 L37.9836735,25.5673469 L35.4122449,28.1387755 L39.4530612,32.1795918 L35.4122449,36.2204082 L37.9836735,38.7918367 L42.0244898,34.7510204 L46.0653061,38.7918367 L48.6367347,36.2204082 L44.5959184,32.1795918 L48.6367347,28.1387755 L46.0653061,25.5673469 Z" id="Shape"></path>
            </g>
        </g>
    </g>
</svg>