<svg height='100px' width='100px'  fill="#8496be" xmlns="http://www.w3.org/2000/svg" data-name="Layer 1" viewBox="0 0 100 100" x="0px" y="0px"><title>A2</title><path d="M35.432,53.748a.49869.49869,0,0,0-.86371,0l-23.385,40.504a.49865.49865,0,0,0,.43182.748h46.77a.49867.49867,0,0,0,.43189-.748ZM19.41223,90,35.00012,63.00049,50.588,90ZM6.00275,45H43.99744a1.00268,1.00268,0,0,0,1.00268-1.00269V6.00269A1.00268,1.00268,0,0,0,43.99744,5H6.00275A1.00267,1.00267,0,0,0,5.00012,6.00269V43.99731A1.00267,1.00267,0,0,0,6.00275,45Zm3.99737-35h30V40h-30Zm64,23a21,21,0,1,0,21,21A21,21,0,0,0,74.00012,33Zm0,37a16,16,0,1,1,16-16A16.01833,16.01833,0,0,1,74.00012,70Z"></path></svg>