<?xml version="1.0" encoding="UTF-8"?>
<svg width="32px" height="21px" viewBox="0 0 32 21" version="1.1" xmlns="http://www.w3.org/2000/svg" xmlns:xlink="http://www.w3.org/1999/xlink">
    <!-- Generator: Sketch 55.1 (78136) - https://sketchapp.com -->
    <title>Group 14</title>
    <desc>Created with Sketch.</desc>
    <g id="DCube" stroke="none" stroke-width="1" fill="none" fill-rule="evenodd">
        <g id="MT---SELECT-FEATURES----SELECTION---UML-MANUAL" transform="translate(-1089.000000, -257.000000)" fill-rule="nonzero">
            <g id="Group-14" transform="translate(1089.000000, 257.000000)">
                <path d="M11.5657143,14.6499048 C11.6007619,14.6499048 11.6007619,14.6499048 11.6358095,14.6499048 C16.1569524,15.4910476 21.5893333,17.1382857 26.6361905,20.2575238 C26.9165714,20.4327619 27.2670476,20.327619 27.4422857,20.0822857 C27.512381,19.9771429 27.5474286,19.872 27.5474286,19.7668571 L27.5474286,0.595809524 C27.5474286,0.245333333 27.232,-1.42641454e-12 26.9165714,-1.42641454e-12 L26.9165714,-1.42641454e-12 C26.8114286,-1.42641454e-12 26.7413333,0.035047619 26.6361905,0.105142857 C24.4632381,1.43695238 22.2201905,2.52342857 20.0121905,3.36457143 C16.928,4.55619048 13.8788571,5.3272381 11.2152381,5.78285714 C11.2152381,5.78285714 11.2152381,5.78285714 11.2152381,5.78285714 C10.7245714,5.85295238 10.2339048,5.92304762 9.7432381,5.95809524 C9.63809524,5.95809524 9.568,6.0632381 9.568,6.13333333 L9.568,14.1942857 C9.568,14.3344762 9.67314286,14.439619 9.77828571,14.439619 C10.304,14.5447619 11.0750476,14.5798095 11.5657143,14.6499048 Z M11.320381,7.39504762 C11.320381,7.28990476 11.3904762,7.21980952 11.495619,7.21980952 C12.6521905,7.14971429 19.5215238,6.58895238 25.5146667,3.32952381 C25.6198095,3.25942857 25.7950476,3.36457143 25.7950476,3.46971429 L25.76,7.5352381 C25.76,7.81561905 25.5497143,8.02590476 25.2693333,8.02590476 L11.5306667,7.95580952 C11.4255238,7.95580952 11.3554286,7.88571429 11.3554286,7.78057143 L11.320381,7.39504762 Z" id="Shape" fill="#F3AF1A"></path>
                <path d="M29.0895238,6.69409524 C28.8441905,6.624 28.6339048,6.7992381 28.6339048,7.04457143 L28.5988571,13.8438095 C28.5988571,14.0891429 28.8441905,14.264381 29.0544762,14.1942857 C30.5965714,13.6685714 31.7180952,12.1965714 31.7531429,10.4441905 C31.7531429,8.72685714 30.631619,7.25485714 29.0895238,6.69409524 Z" id="Path" fill="#F3AF1A"></path>
                <path d="M3.39961905,14.9653333 C3.53980952,15.000381 3.64495238,15.0704762 3.68,15.2106667 L5.7127619,20.608 C5.74780952,20.7481905 5.92304762,20.8533333 6.0632381,20.8533333 L7.50019048,20.8533333 C7.74552381,20.8533333 7.9207619,20.6430476 7.88571429,20.3977143 L6.72914286,14.7550476 C6.69409524,14.5097143 6.90438095,14.2994286 7.14971429,14.2994286 C7.28990476,14.2994286 7.39504762,14.3344762 7.5352381,14.3344762 C7.57028571,14.3344762 7.67542857,14.3695238 7.71047619,14.3344762 C7.71047619,14.2994286 7.71047619,14.2994286 7.71047619,14.264381 C7.71047619,14.1592381 7.71047619,14.0540952 7.71047619,13.9489524 C7.71047619,13.8087619 7.71047619,13.703619 7.71047619,13.5634286 C7.71047619,13.3881905 7.71047619,13.248 7.71047619,13.0727619 C7.71047619,12.8975238 7.71047619,12.6872381 7.71047619,12.512 C7.71047619,12.3017143 7.71047619,12.0914286 7.71047619,11.8811429 C7.71047619,11.6708571 7.71047619,11.4255238 7.71047619,11.2152381 C7.71047619,10.9699048 7.71047619,10.759619 7.71047619,10.5142857 C7.71047619,10.2689524 7.71047619,10.0586667 7.71047619,9.81333333 C7.71047619,9.568 7.71047619,9.35771429 7.71047619,9.11238095 C7.71047619,8.90209524 7.71047619,8.6567619 7.71047619,8.44647619 C7.71047619,8.23619048 7.71047619,8.02590476 7.71047619,7.85066667 C7.71047619,7.67542857 7.71047619,7.50019048 7.71047619,7.28990476 C7.71047619,7.14971429 7.71047619,6.97447619 7.71047619,6.83428571 C7.71047619,6.72914286 7.71047619,6.58895238 7.71047619,6.48380952 C7.71047619,6.41371429 7.71047619,6.30857143 7.71047619,6.23847619 C7.71047619,6.20342857 7.71047619,6.16838095 7.71047619,6.13333333 C7.71047619,6.02819048 7.60533333,5.92304762 7.50019048,5.95809524 C4.45104762,6.27352381 1.71733333,6.30857143 0.700952381,6.27352381 C0.490666667,6.27352381 0.280380952,6.37866667 0.175238095,6.55390476 C0.105142857,6.65904762 0.0700952381,6.76419048 0.0700952381,6.90438095 L2.62856403e-12,13.3531429 C2.62856403e-12,13.528381 0.0700952381,13.6685714 0.175238095,13.7737143 C0.280380952,13.8788571 0.455619048,13.984 0.630857143,13.9489524 C0.946285714,13.9489524 1.22666667,13.9489524 1.71733333,13.9489524 C1.92761905,13.9489524 2.10285714,14.1241905 2.10285714,14.3344762 C2.10285714,14.439619 2.13790476,14.5097143 2.17295238,14.5798095 C2.24304762,14.6499048 2.31314286,14.6849524 2.3832381,14.72 L3.39961905,14.9653333 Z" id="Path" fill="#F95050"></path>
            </g>
        </g>
    </g>
</svg>