<svg width="24" height="24" viewBox="0 0 24 24" xmlns="http://www.w3.org/2000/svg">
    <path d="M11.2 3.19922C9.5431 3.19922 8.19995 4.54236 8.19995 6.19922C8.19995 7.85607 9.5431 9.19922 11.2 9.19922C12.8568 9.19922 14.2 7.85607 14.2 6.19922C14.2 4.54236 12.8568 3.19922 11.2 3.19922ZM7.19995 11.1992C6.12815 11.1992 5.13777 11.771 4.60187 12.6992C4.06598 13.6274 4.06598 14.771 4.60187 15.6992C5.13777 16.6274 6.12815 17.1992 7.19995 17.1992C8.27175 17.1992 9.26213 16.6274 9.79803 15.6992C10.3339 14.771 10.3339 13.6274 9.79803 12.6992C9.26213 11.771 8.27175 11.1992 7.19995 11.1992ZM13.8 17.7992C13.8 16.1424 15.1431 14.7992 16.8 14.7992C18.4568 14.7992 19.8 16.1424 19.8 17.7992C19.8 19.4561 18.4568 20.7992 16.8 20.7992C15.1431 20.7992 13.8 19.4561 13.8 17.7992Z" />
</svg>
