<?xml version="1.0" encoding="UTF-8"?>
<svg width="29px" height="34px" viewBox="0 0 29 34" version="1.1" xmlns="http://www.w3.org/2000/svg" xmlns:xlink="http://www.w3.org/1999/xlink">
    <!-- Generator: Sketch 63.1 (92452) - https://sketch.com -->
    <title>noun_ar_2254891</title>
    <desc>Created with Sketch.</desc>
    <g id="Rule-Engine-Improvements-(Phase-III)" stroke="none" stroke-width="1" fill="none" fill-rule="evenodd">
        <g id="SINGLE-TEST---MANUAL" transform="translate(-585.000000, -218.000000)" fill-rule="nonzero">
            <g id="Group-2" transform="translate(74.000000, 208.000000)">
                <g id="noun_ar_2254891" transform="translate(511.000000, 10.000000)">
                    <path d="M23,4.73623188 L14.5,0 L6,4.73623188 L6,14.2637681 L14.5,19 L23,14.2637681 L23,4.73623188 Z M21.2315436,5.06666667 L14.5,8.8115942 L7.76845638,5.06666667 L14.5,1.26666667 L21.2315436,5.06666667 Z M7.1409396,5.94782609 L13.9295302,9.74782609 L13.9295302,17.4028986 L7.1409396,13.6028986 L7.1409396,5.94782609 Z M15.0704698,17.4028986 L15.0704698,9.74782609 L21.8590604,5.94782609 L21.8590604,13.6028986 L15.0704698,17.4028986 Z" id="Shape" fill="#0D91E9"></path>
                    <rect id="Rectangle" fill="#30B253" x="0" y="8" width="1" height="1"></rect>
                    <rect id="Rectangle" fill="#30B253" x="0" y="10" width="1" height="3"></rect>
                    <rect id="Rectangle" fill="#30B253" x="0" y="20" width="1" height="3"></rect>
                    <rect id="Rectangle" fill="#30B253" x="0" y="29" width="1" height="3"></rect>
                    <rect id="Rectangle" fill="#30B253" x="0" y="15" width="1" height="3"></rect>
                    <rect id="Rectangle" fill="#30B253" x="0" y="24" width="1" height="3"></rect>
                    <rect id="Rectangle" fill="#30B253" x="0" y="33" width="1" height="1"></rect>
                    <rect id="Rectangle" fill="#30B253" x="11" y="23" width="1" height="1"></rect>
                    <rect id="Rectangle" fill="#30B253" x="11" y="30" width="1" height="2"></rect>
                    <rect id="Rectangle" fill="#30B253" x="11" y="26" width="1" height="2"></rect>
                    <rect id="Rectangle" fill="#30B253" x="11" y="33" width="1" height="1"></rect>
                    <rect id="Rectangle" fill="#30B253" x="17" y="23" width="1" height="1"></rect>
                    <rect id="Rectangle" fill="#30B253" x="17" y="30" width="1" height="2"></rect>
                    <rect id="Rectangle" fill="#30B253" x="17" y="26" width="1" height="2"></rect>
                    <rect id="Rectangle" fill="#30B253" x="17" y="33" width="1" height="1"></rect>
                    <rect id="Rectangle" fill="#30B253" x="6" y="18" width="1" height="1"></rect>
                    <rect id="Rectangle" fill="#30B253" x="6" y="30" width="1" height="2"></rect>
                    <rect id="Rectangle" fill="#30B253" x="6" y="22" width="1" height="2"></rect>
                    <rect id="Rectangle" fill="#30B253" x="6" y="25" width="1" height="2"></rect>
                    <rect id="Rectangle" fill="#30B253" x="6" y="33" width="1" height="1"></rect>
                    <rect id="Rectangle" fill="#30B253" x="22" y="18" width="1" height="1"></rect>
                    <rect id="Rectangle" fill="#30B253" x="22" y="30" width="1" height="2"></rect>
                    <rect id="Rectangle" fill="#30B253" x="22" y="25" width="1" height="2"></rect>
                    <rect id="Rectangle" fill="#30B253" x="22" y="22" width="1" height="2"></rect>
                    <rect id="Rectangle" fill="#30B253" x="22" y="33" width="1" height="1"></rect>
                    <rect id="Rectangle" fill="#30B253" x="28" y="8" width="1" height="1"></rect>
                    <rect id="Rectangle" fill="#30B253" x="28" y="15" width="1" height="3"></rect>
                    <rect id="Rectangle" fill="#30B253" x="28" y="20" width="1" height="3"></rect>
                    <rect id="Rectangle" fill="#30B253" x="28" y="10" width="1" height="3"></rect>
                    <rect id="Rectangle" fill="#30B253" x="28" y="24" width="1" height="3"></rect>
                    <rect id="Rectangle" fill="#30B253" x="28" y="29" width="1" height="3"></rect>
                    <rect id="Rectangle" fill="#30B253" x="28" y="33" width="1" height="1"></rect>
                </g>
            </g>
        </g>
    </g>
</svg>