<?xml version="1.0" encoding="UTF-8"?>
<svg width="48px" height="48px" viewBox="0 0 48 48" version="1.1" xmlns="http://www.w3.org/2000/svg" xmlns:xlink="http://www.w3.org/1999/xlink">
    <g id="Page-1" stroke="none" stroke-width="1" fill="none" fill-rule="evenodd">
        <g id="V6-icons" transform="translate(-446.000000, -242.000000)">
            <g id="smart_layout_cluster" transform="translate(446.000000, 242.000000)">
                <polygon id="Path" points="0 0 48 0 48 48 0 48"></polygon>
                <path class="node" d="M30.3333333,40 C31.4379028,40 32.3333333,40.8954305 32.3333333,42 C32.3333333,43.1045695 31.4379028,44 30.3333333,44 C29.2287638,44 28.3333333,43.1045695 28.3333333,42 C28.3333333,40.8954305 29.2287638,40 30.3333333,40 Z M13,38 C14.1045695,38 15,38.8954305 15,40 C15,41.1045695 14.1045695,42 13,42 C11.8954305,42 11,41.1045695 11,40 C11,38.8954305 11.8954305,38 13,38 Z M23.6666667,34.6666667 C25.139426,34.6666667 26.3333333,35.860574 26.3333333,37.3333333 C26.3333333,38.8060927 25.139426,40 23.6666667,40 C22.1939073,40 21,38.8060927 21,37.3333333 C21,35.860574 22.1939073,34.6666667 23.6666667,34.6666667 Z M30.3333333,32 C31.4379028,32 32.3333333,32.8954305 32.3333333,34 C32.3333333,35.1045695 31.4379028,36 30.3333333,36 C29.2287638,36 28.3333333,35.1045695 28.3333333,34 C28.3333333,32.8954305 29.2287638,32 30.3333333,32 Z M23,20 C24.8409492,20 26.3333333,21.4923842 26.3333333,23.3333333 C26.3333333,25.1742825 24.8409492,26.6666667 23,26.6666667 C21.1590508,26.6666667 19.6666667,25.1742825 19.6666667,23.3333333 C19.6666667,21.4923842 21.1590508,20 23,20 Z M5.66666667,20 C6.77123617,20 7.66666667,20.8954305 7.66666667,22 C7.66666667,23.1045695 6.77123617,24 5.66666667,24 C4.56209717,24 3.66666667,23.1045695 3.66666667,22 C3.66666667,20.8954305 4.56209717,20 5.66666667,20 Z M45.6666667,20 C46.7712362,20 47.6666667,20.8954305 47.6666667,22 C47.6666667,23.1045695 46.7712362,24 45.6666667,24 C44.5620972,24 43.6666667,23.1045695 43.6666667,22 C43.6666667,20.8954305 44.5620972,20 45.6666667,20 Z M11.6666667,13.3333333 C13.139426,13.3333333 14.3333333,14.5272407 14.3333333,16 C14.3333333,17.4727593 13.139426,18.6666667 11.6666667,18.6666667 C10.1939073,18.6666667 9,17.4727593 9,16 C9,14.5272407 10.1939073,13.3333333 11.6666667,13.3333333 Z M3,12 C4.1045695,12 5,12.8954305 5,14 C5,15.1045695 4.1045695,16 3,16 C1.8954305,16 1,15.1045695 1,14 C1,12.8954305 1.8954305,12 3,12 Z M29.6666667,12 C30.7712362,12 31.6666667,12.8954305 31.6666667,14 C31.6666667,15.1045695 30.7712362,16 29.6666667,16 C28.5620972,16 27.6666667,15.1045695 27.6666667,14 C27.6666667,12.8954305 28.5620972,12 29.6666667,12 Z M39,10.6666667 C40.4727593,10.6666667 41.6666667,11.860574 41.6666667,13.3333333 C41.6666667,14.8060927 40.4727593,16 39,16 C37.5272407,16 36.3333333,14.8060927 36.3333333,13.3333333 C36.3333333,11.860574 37.5272407,10.6666667 39,10.6666667 Z M17,6.66666667 C18.1045695,6.66666667 19,7.56209717 19,8.66666667 C19,9.77123617 18.1045695,10.6666667 17,10.6666667 C15.8954305,10.6666667 15,9.77123617 15,8.66666667 C15,7.56209717 15.8954305,6.66666667 17,6.66666667 Z M45.6666667,6.66666667 C46.7712362,6.66666667 47.6666667,7.56209717 47.6666667,8.66666667 C47.6666667,9.77123617 46.7712362,10.6666667 45.6666667,10.6666667 C44.5620972,10.6666667 43.6666667,9.77123617 43.6666667,8.66666667 C43.6666667,7.56209717 44.5620972,6.66666667 45.6666667,6.66666667 Z M6.33333333,6 C7.43790283,6 8.33333333,6.8954305 8.33333333,8 C8.33333333,9.1045695 7.43790283,10 6.33333333,10 C5.22876383,10 4.33333333,9.1045695 4.33333333,8 C4.33333333,6.8954305 5.22876383,6 6.33333333,6 Z M34.3333333,4 C35.4379028,4 36.3333333,4.8954305 36.3333333,6 C36.3333333,7.1045695 35.4379028,8 34.3333333,8 C33.2287638,8 32.3333333,7.1045695 32.3333333,6 C32.3333333,4.8954305 33.2287638,4 34.3333333,4 Z" id="Combined-Shape" fill="#000000"></path>
                <path class="link" d="M12,16.3333333 L23.3333333,23.6666667 M12,16.3333333 L17.3333333,9 M12,16.3333333 L6.66666667,7.66666667 M12,16.3333333 L3.33333333,14.3333333 M12,16.3333333 L6,21.6666667 M39.3333333,13.6666667 L23.3333333,23.6666667 M39.3333333,13 L30,14.3333333 M39.3333333,13 L34.6666667,6.33333333 M39.3333333,13 L46,8.33333333 M39.3333333,13 L46,21.6666667 M24,37.6666667 L23.3333333,23.6666667 M24,37.6666667 L30,42.3333333 M24,37.6666667 L13.3333333,40.3333333 M23.3333333,37.6666667 L30,34.3333333" id="Combined-Shape" stroke="#000000" fill="#000000" stroke-linecap="square"></path>
            </g>
        </g>
    </g>
</svg>