<svg width="19" height="18" viewBox="0 0 19 18" xmlns="http://www.w3.org/2000/svg">
    <path d="M3.80796 3.91685L8.15465 2.3354L8.36693 2.91885L4.02024 4.5003L3.80796 3.91685Z"/>
    <path d="M10.2098 3.32381L10.6486 2.88498L15.6133 7.84966L15.1744 8.28848L10.2098 3.32381Z"/>
    <path d="M11.0089 8.57962L11.0933 7.96482L14.8186 8.47608L14.7343 9.09087L11.0089 8.57962Z"/>
    <path d="M3.46164 5.40049L3.73909 4.84559L8.70236 7.32723L8.42491 7.88212L3.46164 5.40049Z"/>
    <path d="M3.66973 13.5761L3.94793 13.0209L8.3921 15.248L8.11389 15.8032L3.66973 13.5761Z"/>
    <path d="M9.18965 9.31036H9.81034V14.5862H9.18965V9.31036Z"/>
    <path d="M3.21027 11.3116L8.43953 3.24664L8.96029 3.58429L3.73103 11.6493L3.21027 11.3116Z"/>
    <path d="M10.3175 14.8283L15.2138 9.70525L15.6625 10.1341L10.7662 15.2572L10.3175 14.8283Z"/>
    <path d="M3.19881 6.13957L3.7326 5.8224L8.84811 14.4317L8.31432 14.7488L3.19881 6.13957Z"/>
    <path d="M4.84483 12.7241C4.84483 13.0748 4.76414 13.4038 4.61517 13.6955C4.26138 14.4093 3.52276 14.8965 2.67241 14.8965C1.47138 14.8965 0.5 13.9251 0.5 12.7241C0.5 11.5231 1.47138 10.5517 2.67241 10.5517C3.11 10.5517 3.51345 10.6789 3.85172 10.8993C4.45069 11.2872 4.84483 11.9576 4.84483 12.7241Z"/>
    <path d="M11.1478 14.4155C11.4768 14.7941 11.6723 15.2876 11.6723 15.8276C11.6723 17.0286 10.701 18 9.49995 18C8.29895 18 7.32759 17.0286 7.32759 15.8276C7.32759 15.5762 7.37104 15.3372 7.44862 15.1138C7.59758 14.6762 7.8831 14.3069 8.2555 14.0462C8.60618 13.7979 9.03445 13.6552 9.49995 13.6552C10.161 13.6552 10.7537 13.95 11.1478 14.4155Z"/>
    <path d="M16.3276 6.82758C17.5286 6.82758 18.5 7.79896 18.5 8.99999C18.5 10.201 17.5286 11.1724 16.3276 11.1724C15.7441 11.1724 15.2165 10.9459 14.8286 10.5672C14.4128 10.1762 14.1552 9.61758 14.1552 8.99999C14.1552 8.90068 14.1614 8.80447 14.1769 8.70827C14.239 8.22413 14.4624 7.79275 14.7914 7.46378C15.1855 7.06964 15.7255 6.82758 16.3276 6.82758V6.82758Z"/>
    <path d="M11.6506 8.36068C11.5109 9.42206 10.6017 10.2414 9.49995 10.2414C8.29895 10.2414 7.32759 9.26999 7.32759 8.06896C7.32759 7.71827 7.40828 7.3893 7.55724 7.09758C7.91103 6.38379 8.64963 5.89655 9.49995 5.89655C10.701 5.89655 11.6723 6.86792 11.6723 8.06896C11.6723 8.16827 11.6661 8.26448 11.6506 8.36068Z" />
    <path d="M9.49995 0C10.701 0 11.6723 0.971379 11.6723 2.17241C11.6723 2.77448 11.4303 3.31448 11.0361 3.70862C10.642 4.10276 10.102 4.34483 9.49995 4.34483C9.06238 4.34483 8.65894 4.21759 8.32067 3.99724C7.92654 3.74276 7.61931 3.36414 7.45793 2.91414C7.37414 2.68448 7.32759 2.4331 7.32759 2.17241C7.32759 0.971379 8.29895 0 9.49995 0V0Z"/>
    <path d="M4.71448 3.91348C4.79828 4.14313 4.84483 4.39451 4.84483 4.6552C4.84483 5.00589 4.76414 5.33486 4.61517 5.62658C4.42897 5.999 4.14034 6.30934 3.78345 6.52037C3.46069 6.71589 3.07897 6.82762 2.67241 6.82762C1.47138 6.82762 0.5 5.85624 0.5 4.6552C0.5 3.45417 1.47138 2.48279 2.67241 2.48279C3.61276 2.48279 4.41034 3.07865 4.71448 3.91348Z"/>
</svg>
