<?xml version="1.0" encoding="UTF-8"?>
<svg width="49px" height="48px" viewBox="0 0 49 48" version="1.1" xmlns="http://www.w3.org/2000/svg" xmlns:xlink="http://www.w3.org/1999/xlink">
    <g id="Page-1" stroke="none" stroke-width="1" fill="none" fill-rule="evenodd">
        <g id="KG-icons" transform="translate(-349.000000, -242.000000)">
            <g id="smart_layout_tree" transform="translate(350.000000, 242.000000)">
                <polygon id="Path" points="0 0 48 0 48 48 0 48"></polygon>
                <path class="link" d="M3,24.6666667 L22.6666667,40.6666667 M3,24.6666667 L22.6666667,27.3333333 M3,23.6666667 L22,12.6666667 M22,41.6666667 L43,43.6666667 M22.6666667,40.6666667 L43,31.6666667 M22.6666667,27.3333333 L43,31.6666667 M22.6666667,12.6666667 L42,22.6666667 M21.5,13.1666667 L43,4.66666667 M20.5,13.1666667 L43,12.6666667" id="Combined-Shape" fill="#000000" stroke-linecap="square"></path>
                <path class="node" d="M43,41.6666667 C44.1045695,41.6666667 45,42.5620972 45,43.6666667 C45,44.7712362 44.1045695,45.6666667 43,45.6666667 C41.8954305,45.6666667 41,44.7712362 41,43.6666667 C41,42.5620972 41.8954305,41.6666667 43,41.6666667 Z M21.6666667,38.3333333 C23.139426,38.3333333 24.3333333,39.5272407 24.3333333,41 C24.3333333,42.4727593 23.139426,43.6666667 21.6666667,43.6666667 C20.1939073,43.6666667 19,42.4727593 19,41 C19,39.5272407 20.1939073,38.3333333 21.6666667,38.3333333 Z M43,29.3333333 C44.1045695,29.3333333 45,30.2287638 45,31.3333333 C45,32.4379028 44.1045695,33.3333333 43,33.3333333 C41.8954305,33.3333333 41,32.4379028 41,31.3333333 C41,30.2287638 41.8954305,29.3333333 43,29.3333333 Z M21.6666667,25 C23.139426,25 24.3333333,26.1939073 24.3333333,27.6666667 C24.3333333,29.139426 23.139426,30.3333333 21.6666667,30.3333333 C20.1939073,30.3333333 19,29.139426 19,27.6666667 C19,26.1939073 20.1939073,25 21.6666667,25 Z M3.33333333,21 C5.1742825,21 6.66666667,22.4923842 6.66666667,24.3333333 C6.66666667,26.1742825 5.1742825,27.6666667 3.33333333,27.6666667 C1.49238417,27.6666667 -1.8197862e-12,26.1742825 -1.81967347e-12,24.3333333 C-1.81956075e-12,22.4923842 1.49238417,21 3.33333333,21 Z M43,21 C44.1045695,21 45,21.8954305 45,23 C45,24.1045695 44.1045695,25 43,25 C41.8954305,25 41,24.1045695 41,23 C41,21.8954305 41.8954305,21 43,21 Z M21.6666667,10.3333333 C23.139426,10.3333333 24.3333333,11.5272407 24.3333333,13 C24.3333333,14.4727593 23.139426,15.6666667 21.6666667,15.6666667 C20.1939073,15.6666667 19,14.4727593 19,13 C19,11.5272407 20.1939073,10.3333333 21.6666667,10.3333333 Z M43,11 C44.1045695,11 45,11.8954305 45,13 C45,14.1045695 44.1045695,15 43,15 C41.8954305,15 41,14.1045695 41,13 C41,11.8954305 41.8954305,11 43,11 Z M43,3 C44.1045695,3 45,3.8954305 45,5 C45,6.1045695 44.1045695,7 43,7 C41.8954305,7 41,6.1045695 41,5 C41,3.8954305 41.8954305,3 43,3 Z" id="Combined-Shape" fill="#000000" stroke-linecap="square"></path>
            </g>
        </g>
    </g>
</svg>