<?xml version="1.0" encoding="UTF-8"?>
<svg width="48px" height="48px" viewBox="0 0 48 48" version="1.1" xmlns="http://www.w3.org/2000/svg" xmlns:xlink="http://www.w3.org/1999/xlink">
    <g id="Page-1" stroke="none" stroke-width="1" fill="none" fill-rule="evenodd">
        <g id="V6-icons" transform="translate(-542.000000, -242.000000)">
            <g id="smart_layout_parallel" transform="translate(542.000000, 242.000000)">
                <polygon id="Path" points="0 0 48 0 48 48 0 48"></polygon>
                <path class="link" d="M7.66666667,11.6666667 L25,6.33333333 M7.16666667,11.3333333 L7.5,35 M7.66666667,11.6666667 L25,15 M41,9 L25,15 M41.6666667,19 L25,6.33333333 M41.3333333,8.33333333 L41.3333333,39 M41.6666667,9 L25,6.33333333 M41,19.6666667 L25,24.3333333 M41,19.6666667 L25,15 M41.6666667,29 L25,33.6666667 M41.6666667,29 L25,24.3333333 M41.6666667,29 L25,15 M41.6666667,29 L25,42.3333333 M41.6666667,39 L24.6666667,42.6666667 M7.66666667,23.6666667 L25,24.3333333 M6.33333333,23.6666667 L25,33.6666667 M7.66666667,35 L25,15 M7.66666667,35.6666667 L25,42.3333333" id="Combined-Shape" stroke="#000000" fill="#000000" stroke-linecap="square"></path>
                <path class="node" d="M24.6666667,40 C25.7712362,40 26.6666667,40.8954305 26.6666667,42 C26.6666667,43.1045695 25.7712362,44 24.6666667,44 C23.5620972,44 22.6666667,43.1045695 22.6666667,42 C22.6666667,40.8954305 23.5620972,40 24.6666667,40 Z M41.3333333,36 C42.8060927,36 44,37.1939073 44,38.6666667 C44,40.139426 42.8060927,41.3333333 41.3333333,41.3333333 C39.860574,41.3333333 38.6666667,40.139426 38.6666667,38.6666667 C38.6666667,37.1939073 39.860574,36 41.3333333,36 Z M7.33333333,31.3333333 C9.1742825,31.3333333 10.6666667,32.8257175 10.6666667,34.6666667 C10.6666667,36.5076158 9.1742825,38 7.33333333,38 C5.49238417,38 4,36.5076158 4,34.6666667 C4,32.8257175 5.49238417,31.3333333 7.33333333,31.3333333 Z M24.6666667,31.3333333 C25.7712362,31.3333333 26.6666667,32.2287638 26.6666667,33.3333333 C26.6666667,34.4379028 25.7712362,35.3333333 24.6666667,35.3333333 C23.5620972,35.3333333 22.6666667,34.4379028 22.6666667,33.3333333 C22.6666667,32.2287638 23.5620972,31.3333333 24.6666667,31.3333333 Z M41.3333333,26 C42.8060927,26 44,27.1939073 44,28.6666667 C44,30.139426 42.8060927,31.3333333 41.3333333,31.3333333 C39.860574,31.3333333 38.6666667,30.139426 38.6666667,28.6666667 C38.6666667,27.1939073 39.860574,26 41.3333333,26 Z M7.33333333,20 C9.1742825,20 10.6666667,21.4923842 10.6666667,23.3333333 C10.6666667,25.1742825 9.1742825,26.6666667 7.33333333,26.6666667 C5.49238417,26.6666667 4,25.1742825 4,23.3333333 C4,21.4923842 5.49238417,20 7.33333333,20 Z M24.6666667,22 C25.7712362,22 26.6666667,22.8954305 26.6666667,24 C26.6666667,25.1045695 25.7712362,26 24.6666667,26 C23.5620972,26 22.6666667,25.1045695 22.6666667,24 C22.6666667,22.8954305 23.5620972,22 24.6666667,22 Z M41.3333333,16.6666667 C42.8060927,16.6666667 44,17.860574 44,19.3333333 C44,20.8060927 42.8060927,22 41.3333333,22 C39.860574,22 38.6666667,20.8060927 38.6666667,19.3333333 C38.6666667,17.860574 39.860574,16.6666667 41.3333333,16.6666667 Z M24.6666667,12.6666667 C25.7712362,12.6666667 26.6666667,13.5620972 26.6666667,14.6666667 C26.6666667,15.7712362 25.7712362,16.6666667 24.6666667,16.6666667 C23.5620972,16.6666667 22.6666667,15.7712362 22.6666667,14.6666667 C22.6666667,13.5620972 23.5620972,12.6666667 24.6666667,12.6666667 Z M7.33333333,8 C9.1742825,8 10.6666667,9.49238417 10.6666667,11.3333333 C10.6666667,13.1742825 9.1742825,14.6666667 7.33333333,14.6666667 C5.49238417,14.6666667 4,13.1742825 4,11.3333333 C4,9.49238417 5.49238417,8 7.33333333,8 Z M41.3333333,6 C42.8060927,6 44,7.19390733 44,8.66666667 C44,10.139426 42.8060927,11.3333333 41.3333333,11.3333333 C39.860574,11.3333333 38.6666667,10.139426 38.6666667,8.66666667 C38.6666667,7.19390733 39.860574,6 41.3333333,6 Z M24.6666667,4 C25.7712362,4 26.6666667,4.8954305 26.6666667,6 C26.6666667,7.1045695 25.7712362,8 24.6666667,8 C23.5620972,8 22.6666667,7.1045695 22.6666667,6 C22.6666667,4.8954305 23.5620972,4 24.6666667,4 Z" id="Combined-Shape" fill="#000000"></path>
            </g>
        </g>
    </g>
</svg>