<?xml version="1.0" encoding="UTF-8"?>
<svg width="32px" height="31px" viewBox="0 0 32 31" version="1.1" xmlns="http://www.w3.org/2000/svg" xmlns:xlink="http://www.w3.org/1999/xlink">
    <!-- Generator: Sketch 55.1 (78136) - https://sketchapp.com -->
    <title>Group 12</title>
    <desc>Created with Sketch.</desc>
    <g id="DCube" stroke="none" stroke-width="1" fill="none" fill-rule="evenodd">
        <g id="MT---SELECT-FEATURES----SELECTION---UML-MANUAL" transform="translate(-877.000000, -252.000000)" fill-rule="nonzero">
            <g id="Group-12" transform="translate(877.000000, 252.000000)">
                <path d="M6.40989549,12.305035 C6.66238777,12.4542886 6.78339752,12.7543364 6.70509765,13.0369989 C6.62679778,13.3196615 6.36865062,13.5146797 6.07535004,13.5127441 C5.96495413,13.5101446 5.85691777,13.4802622 5.76087731,13.4257623 C5.46874799,13.2379588 5.37622494,12.8534698 5.55093522,12.5533265 C5.72564551,12.2531832 6.10567009,12.1437593 6.41324094,12.305035 L6.40989549,12.305035 Z" id="Path" fill="#F3AF1A"></path>
                <path d="M3.97440458,17.2964532 C3.93301341,17.6497113 4.18365656,17.9704748 4.53644094,18.0157259 L4.59665913,18.0157259 C4.93699559,18.0282351 5.22911443,17.7755523 5.26575004,17.4369623 L5.26575004,17.4369623 C5.26575004,17.4369623 5.26575004,17.4369623 5.26575004,17.4369623 C5.30455055,17.0803671 5.04692705,16.7598355 4.69033185,16.721035 C4.33373665,16.6822345 4.01320509,16.939858 3.97440458,17.2964532 L3.97440458,17.2964532 Z" id="Path" fill="#F3AF1A"></path>
                <path d="M20.5143319,29.5909986 C20.7720236,29.5824154 21.0001969,29.4221077 21.0956402,29.1825888 C21.1910835,28.9430699 21.1356944,28.6697685 20.9545276,28.4863093 C20.7733607,28.30285 20.5007773,28.244029 20.2600773,28.3364532 L20.2600773,28.3364532 C19.982642,28.4608117 19.828717,28.7610966 19.8897314,29.0589433 C19.9507458,29.3567899 20.2103454,29.5723636 20.5143319,29.5776168 L20.5143319,29.5909986 Z" id="Path" fill="#F3AF1A"></path>
                <path d="M27.2052409,18.0357986 L27.2855319,18.0357986 C27.6299313,18.0141182 27.8948982,17.7229072 27.8840525,17.3779965 C27.8732069,17.0330859 27.5904675,16.7590974 27.2453864,16.7590974 C26.9003052,16.7590974 26.6175659,17.0330859 26.6067202,17.3779965 C26.5958746,17.7229072 26.8608415,18.0141182 27.2052409,18.0357986 L27.2052409,18.0357986 Z" id="Path" fill="#F3AF1A"></path>
                <path d="M11.5618955,28.3364532 C11.3484916,28.2302744 11.0940573,28.2496173 10.8991573,28.3868366 C10.7042573,28.5240559 10.6002573,28.7570686 10.628263,28.993777 C10.6562688,29.2304853 10.8117732,29.4327952 11.0333137,29.5207441 C11.1121378,29.5567879 11.1975611,29.5761505 11.2842228,29.5776168 C11.5926081,29.5834365 11.8624906,29.3714093 11.9298301,29.0704097 C11.9971696,28.76941 11.8433624,28.4625951 11.5618955,28.3364532 L11.5618955,28.3364532 Z" id="Path" fill="#F3AF1A"></path>
                <path d="M25.7466228,13.5461986 C25.8640319,13.5486653 25.9798292,13.518558 26.0811682,13.4592168 C26.3605161,13.2972812 26.4772918,12.9538826 26.3545742,12.655221 C26.2318565,12.3565594 25.9073791,12.1944682 25.5948783,12.2757185 C25.2823774,12.3569687 25.077942,12.6565772 25.1162354,12.9771891 C25.1545289,13.297801 25.4237767,13.5408334 25.7466228,13.5461986 L25.7466228,13.5461986 Z" id="Path" fill="#F3AF1A"></path>
                <path d="M8.88553185,8.83579865 C8.67216339,8.9894136 8.57254975,9.25657877 8.63326333,9.51238635 C8.69397691,9.76819392 8.90302199,9.96210178 9.16266368,10.0034521 C9.42230536,10.0448025 9.68124397,9.92542534 9.81841788,9.70113318 C9.95559179,9.47684102 9.94389834,9.19194917 9.78880458,8.9796532 C9.57839601,8.691641 9.17499904,8.6273963 8.88553185,8.83579865 L8.88553185,8.83579865 Z" id="Path" fill="#F3AF1A"></path>
                <path d="M15.9109864,30.5812532 L15.9109864,30.5812532 C16.26485,30.5702248 16.5445887,30.2776379 16.5397261,29.9236358 C16.5348635,29.5696338 16.2471939,29.2848409 15.8931608,29.2835317 C15.5391278,29.2822316 15.249367,29.5648966 15.2418845,29.9188532 C15.2408679,30.0948118 15.3116987,30.2635677 15.4380025,30.3860824 C15.5643062,30.5085971 15.7351407,30.5742564 15.9109864,30.5678714 L15.9109864,30.5812532 Z" id="Path" fill="#F3AF1A"></path>
                <path d="M22.2205137,9.9063441 C22.5097107,10.1177316 22.915487,10.0548438 23.1271319,9.76583501 C23.2822573,9.55400557 23.2944738,9.26957944 23.1580829,9.04522896 C23.021692,8.82087847 22.7635649,8.70080416 22.5041065,8.74101543 C22.2446481,8.78122669 22.0349757,8.9738013 21.9728924,9.22891162 C21.9108091,9.48402194 22.0085462,9.75140728 22.2205137,9.9063441 L22.2205137,9.9063441 Z" id="Path" fill="#F3AF1A"></path>
                <path d="M19.8619682,14.9947805 C22.0410542,17.174036 22.0409626,20.7071558 19.8617635,22.8862984 C17.6825645,25.0654409 14.1494447,25.0654409 11.9702456,22.8862984 C9.79104659,20.7071558 9.79095495,17.174036 11.9700409,14.9947805 C13.0143566,13.9440743 14.4345936,13.3532536 15.9160046,13.3532536 C17.3974156,13.3532536 18.8176526,13.9440743 19.8619682,14.9947805 Z" id="Path" fill="#F95050"></path>
                <polygon id="Path" fill="#FFFFFF" points="18.8181864 19.7352896 18.8181864 18.1461986 16.71055 18.1461986 16.71055 16.0385623 15.1181137 16.0385623 15.1181137 18.1461986 13.0104773 18.1461986 13.0104773 19.738635 15.1181137 19.738635 15.1181137 21.8462714 16.71055 21.8462714 16.71055 19.738635"></polygon>
                <path d="M14.3252409,5.83827138 C13.3557965,6.32383309 12.4416444,6.91270402 11.5986955,7.59463501 C11.3860588,7.77004903 11.2632811,8.03156546 11.2641455,8.30721683 L11.2641455,9.60190774 L20.5645146,9.60190774 L20.5645146,8.30052592 C20.5649099,8.02497942 20.4422223,7.76365481 20.2299682,7.5879441 C19.387754,6.90854626 18.4747447,6.32193221 17.5067682,5.83827138 C17.4774977,5.82393912 17.4592186,5.79390916 17.4599319,5.76132592 L17.4599319,4.87812592 C17.5913476,4.65538055 17.6809181,4.41047895 17.7242228,4.15550774 C17.8245864,4.15550774 17.9584046,4.00496229 18.1022591,3.48641683 C18.29295,2.81732592 18.1022591,2.70023501 17.9316409,2.70692592 C18.3598591,0.746489559 17.26255,0.73979865 17.26255,0.73979865 C17.0837098,0.235117529 16.5702651,-0.070135927 16.0414591,0.0138350134 C15.4856544,0.0766829636 14.9245366,0.0766829636 14.3687319,0.0138350134 C14.3734963,0.171387048 14.4483257,0.318592382 14.5728046,0.415289559 C13.5892409,1.01747138 13.8133864,2.33892592 13.9037137,2.72030774 C13.7364409,2.72030774 13.5691682,2.84743501 13.7464773,3.49979865 C13.8903319,4.00496229 14.02415,4.14881683 14.1245137,4.16888956 C14.1678183,4.42386076 14.2573888,4.66876237 14.3888046,4.89150774 L14.3888046,5.77470774 C14.3817717,5.80644893 14.3569821,5.83123853 14.3252409,5.83827138 Z" id="Path" fill="#F3AF1A"></path>
                <path d="M28.7642228,25.2419077 C28.7349523,25.2275755 28.7166731,25.1975455 28.7173864,25.1649623 L28.7173864,24.2884532 C28.8488022,24.0657078 28.9383727,23.8208062 28.9816773,23.565835 C29.0820409,23.565835 29.2158591,23.4152896 29.3597137,22.8967441 C29.5504046,22.2276532 29.3597137,22.1105623 29.1890955,22.1172532 C29.6173137,20.1568168 28.5200046,20.1501259 28.5200046,20.1501259 C28.3352876,19.6450647 27.8152703,19.3448921 27.2855319,19.4375441 C26.7297271,19.5003921 26.1686093,19.5003921 25.6128046,19.4375441 C25.6134571,19.592339 25.6819308,19.7390683 25.80015,19.8389986 C24.8165864,20.4411805 25.0407319,21.762635 25.1310591,22.1440168 C24.9637864,22.1440168 24.7965137,22.2711441 24.9738228,22.9235077 C25.1176773,23.4286714 25.2514955,23.5725259 25.3518591,23.5925986 C25.3972102,23.8380998 25.4855478,24.0736666 25.6128046,24.2884532 L25.6128046,25.1716532 C25.6135178,25.2042364 25.5952387,25.2342664 25.5659682,25.2485986 C24.6026409,25.7330927 23.6941548,26.3196831 22.85615,26.9982714 C22.6435134,27.1736854 22.5207357,27.4352018 22.5216,27.7108532 L22.5216,29.0055441 L31.8186273,29.0055441 L31.8186273,27.7075077 C31.8194917,27.4318564 31.696714,27.1703399 31.4840773,26.9949259 C30.6417046,26.316693 29.7287013,25.7312044 28.7608773,25.2485986 L28.7642228,25.2419077 Z" id="Path" fill="#F3AF1A"></path>
                <path d="M9.29702372,27.7075077 C9.29741896,27.4319612 9.17473135,27.1706366 8.96247731,26.9949259 C8.12026305,26.3155281 7.2072538,25.728914 6.23927731,25.2452532 C6.2100068,25.2309209 6.19172769,25.200891 6.19244094,25.1683077 L6.19244094,24.2884532 C6.32385672,24.0657078 6.41342722,23.8208062 6.45673185,23.565835 C6.55709549,23.565835 6.69091367,23.4152896 6.83476822,22.8967441 C7.02545913,22.2276532 6.83476822,22.1105623 6.66415004,22.1172532 C7.09236822,20.1568168 5.99505913,20.1501259 5.99505913,20.1501259 C5.81103137,19.6493476 5.29693986,19.3501632 4.77062276,19.4375441 C4.214818,19.5003921 3.65370025,19.5003921 3.09789549,19.4375441 C3.098548,19.592339 3.16702167,19.7390683 3.28524094,19.8389986 C2.30167731,20.4411805 2.52582276,21.762635 2.61615004,22.1440168 C2.44887731,22.1440168 2.28160458,22.2711441 2.45891367,22.9235077 C2.60276822,23.4286714 2.7365864,23.5725259 2.83695004,23.5925986 C2.88025467,23.8475699 2.96982517,24.0924715 3.10124094,24.3152168 L3.10124094,25.1984168 C3.1019542,25.2310001 3.08367509,25.26103 3.05440458,25.2753623 C2.08880496,25.7507887 1.17697357,26.3283941 0.334550035,26.9982714 C0.121913351,27.1736854 -0.000864315201,27.4352018 -5.75539616e-13,27.7108532 L-5.75539616e-13,29.0055441 L9.29702372,29.0055441 L9.29702372,27.7075077 Z" id="Path" fill="#F3AF1A"></path>
            </g>
        </g>
    </g>
</svg>