<svg width="20" height="19" viewBox="0 0 20 19" fill="none" xmlns="http://www.w3.org/2000/svg">
<path d="M11.1423 3.69995C10.8192 4.02459 10.4269 4.22169 10 4.22169C9.57308 4.22169 9.16923 4.01299 8.85769 3.69995C7.78462 3.81589 7 4.17531 7 5.12604C7 5.77531 7.35769 6.56372 7.91154 7.2014C8.53462 7.52604 9.25 7.69995 10 7.69995C10.75 7.69995 11.4538 7.51444 12.0885 7.2014C12.6423 6.57531 13 5.77531 13 5.12604C13 4.17531 12.2154 3.81589 11.1423 3.69995Z" fill="#FA9000"/>
<path d="M9.18571 3.7625C9.42857 3.9125 9.71429 4 10 4C10.2857 4 10.5714 3.9125 10.8143 3.7625C11.5143 3.35 12 2.475 12 1.6875C12 0.6125 11.1 0 10 0C8.9 0 8 0.6125 8 1.6875C8 2.475 8.48571 3.35 9.18571 3.7625Z" fill="#FA9000"/>
<path d="M18.1423 14.7C17.8192 15.0246 17.4269 15.2217 17 15.2217C16.5731 15.2217 16.1692 15.013 15.8577 14.7C14.7846 14.8159 14 15.1753 14 16.126C14 16.7753 14.3577 17.5637 14.9115 18.2014C15.5346 18.526 16.25 18.7 17 18.7C17.75 18.7 18.4538 18.5144 19.0885 18.2014C19.6423 17.5753 20 16.7753 20 16.126C20 15.1753 19.2154 14.8159 18.1423 14.7Z" fill="#FA9000"/>
<path d="M16.1857 14.7625C16.4286 14.9125 16.7143 15 17 15C17.2857 15 17.5714 14.9125 17.8143 14.7625C18.5143 14.35 19 13.475 19 12.6875C19 11.6125 18.1 11 17 11C15.9 11 15 11.6125 15 12.6875C15 13.475 15.4857 14.35 16.1857 14.7625Z" fill="#FA9000"/>
<path d="M4.14231 14.7C3.81923 15.0246 3.42692 15.2217 3 15.2217C2.57308 15.2217 2.16923 15.013 1.85769 14.7C0.784615 14.8159 0 15.1753 0 16.126C0 16.7753 0.357692 17.5637 0.911538 18.2014C1.53462 18.526 2.25 18.7 3 18.7C3.75 18.7 4.45385 18.5144 5.08846 18.2014C5.64231 17.5753 6 16.7753 6 16.126C6 15.1753 5.21538 14.8159 4.14231 14.7Z" fill="#FA9000"/>
<path d="M2.18571 14.7625C2.42857 14.9125 2.71429 15 3 15C3.28571 15 3.57143 14.9125 3.81429 14.7625C4.51429 14.35 5 13.475 5 12.6875C5 11.6125 4.1 11 3 11C1.9 11 1 11.6125 1 12.6875C1 13.475 1.48571 14.35 2.18571 14.7625Z" fill="#FA9000"/>
<path d="M13.2867 13.2105L10.4307 11.6096V9.41667C10.4307 9.19737 10.2267 9 10 9C9.77333 9 9.56932 9.19737 9.56932 9.41667V11.6096L6.71327 13.1886C6.50926 13.2982 6.44126 13.5614 6.5546 13.7588C6.6226 13.8904 6.78127 13.9781 6.93994 13.9781C7.00794 13.9781 7.07594 13.9561 7.14394 13.9342L10 12.3333L12.8561 13.9342C12.9241 13.9781 12.9921 14 13.0827 14C13.2414 14 13.3774 13.9342 13.4454 13.8026C13.5587 13.5833 13.4907 13.3202 13.2867 13.2105Z" fill="#FA9000"/>
</svg>
