<?xml version="1.0" encoding="UTF-8"?>
<svg width="32px" height="20px" viewBox="0 0 32 20" version="1.1" xmlns="http://www.w3.org/2000/svg" xmlns:xlink="http://www.w3.org/1999/xlink">
    <!-- Generator: Sketch 55.1 (78136) - https://sketchapp.com -->
    <title>Group 2</title>
    <desc>Created with Sketch.</desc>
    <g id="DCube" stroke="none" stroke-width="1" fill="none" fill-rule="evenodd">
        <g id="MT---SELECT-FEATURES----SELECTION---UML-MANUAL" transform="translate(-83.000000, -258.000000)" fill-rule="nonzero">
            <g id="Group-2" transform="translate(83.000000, 258.000000)">
                <path d="M21.9322487,3.93018951e-14 C20.5231834,3.93018951e-14 19.3295787,0.7564608 18.6282376,1.86158487 L24.7185038,1.86158487 C24.8996802,1.86158487 25.0709809,1.91550022 25.2486245,1.93557295 C24.5596081,0.792431127 23.3689742,3.93018951e-14 21.9322487,3.93018951e-14 Z" id="Path" fill="#F3AF1A"></path>
                <path d="M9.96135587,9.03721542e-13 C8.51435311,9.03721542e-13 7.31693463,0.802989382 6.63269551,1.96022225 C6.85815238,1.92754385 7.07883194,1.86158487 7.31075223,1.86158487 L13.2653669,1.86158487 C12.5640258,0.7564608 11.3704613,9.03721542e-13 9.96135587,9.03721542e-13 Z" id="Path" fill="#F3AF1A"></path>
                <path d="M7.31075223,2.65060364 C5.84869492,2.65060364 4.51586583,3.44676829 3.78481711,4.70946327 L2.45335296,7.16283229 C3.64824227,6.34334313 5.08649332,5.85597731 6.64502016,5.85601745 C9.72405609,5.85601745 12.3376055,7.73767505 13.4626417,10.4051799 C13.9910763,9.56710342 14.8889695,8.9750784 15.9529847,8.9750784 C17.0169597,8.9750784 17.9025684,9.56710342 18.431003,10.4051799 C19.5560392,7.73767505 22.1695485,5.85601745 25.2486245,5.85601745 C26.8922999,5.85601745 28.3944625,6.40777658 29.6252017,7.31076829 L28.2443988,4.70946327 C27.5133902,3.44676829 26.1805611,2.65060364 24.7185038,2.65060364 L7.31075223,2.65060364 Z" id="Path" fill="#F3AF1A"></path>
                <path d="M25.2486245,6.64503622 C21.5782461,6.64503622 18.6035883,9.61965382 18.6035883,13.2900323 C18.6035883,16.9604108 21.5782461,19.9350685 25.2486245,19.9350685 C28.9189629,19.9350685 31.8936206,16.9604108 31.8936206,13.2900323 C31.8936206,9.61965382 28.9189629,6.64503622 25.2486245,6.64503622 Z M25.2486245,8.62990778 C27.8178533,8.62990778 29.908749,10.7207633 29.908749,13.2900323 C29.908749,15.8593012 27.8178533,17.9378723 25.2486245,17.9378723 C22.6793556,17.9378723 20.6007845,15.8593012 20.6007845,13.2900323 C20.6007845,10.7207633 22.6793556,8.62990778 25.2486245,8.62990778 Z" id="Shape" fill="#F3AF1A"></path>
                <path d="M6.64502016,6.64503622 C2.97464169,6.64503622 2.95408142e-12,9.61965382 2.95408142e-12,13.2900323 C2.95408142e-12,16.9604108 2.97464169,19.9350685 6.64502016,19.9350685 C10.3153986,19.9350685 13.2900564,16.9604108 13.2900564,13.2900323 C13.2900564,9.61965382 10.3153986,6.64503622 6.64502016,6.64503622 Z M6.64502016,8.62990778 C9.21428911,8.62990778 11.29282,10.7207633 11.29282,13.2900323 C11.29282,15.8593012 9.21428911,17.9378723 6.64502016,17.9378723 C4.07575121,17.9378723 1.98485551,15.8593012 1.98485551,13.2900323 C1.98485551,10.7207633 4.07575121,8.62990778 6.64502016,8.62990778 Z" id="Shape" fill="#F3AF1A"></path>
                <path d="M15.9529847,9.59151185 C14.6469326,9.59151185 13.5859284,10.6525562 13.5859284,11.9585681 C13.5859284,13.2645801 14.6469326,14.3256244 15.9529847,14.3256244 C17.2589966,14.3256244 18.3077163,13.2645801 18.3077163,11.9585681 C18.3077163,10.6525562 17.2589966,9.59151185 15.9529847,9.59151185 Z M15.9529847,11.0092887 C16.4753975,11.0092887 16.8899394,11.4361553 16.8899394,11.9585681 C16.8899394,12.4809809 16.4753975,12.9078476 15.9529847,12.9078476 C15.4305719,12.9078476 15.0037053,12.4809809 15.0037053,11.9585681 C15.0037053,11.4361553 15.4305719,11.0092887 15.9529847,11.0092887 Z" id="Shape" fill="#F3AF1A"></path>
                <path d="M27.7099022,11.7584029 C27.0453343,11.0273542 26.181364,10.6285894 25.250953,10.6285894 C24.3205419,10.6285894 23.3901309,11.0273542 22.7920037,11.7584029 C22.5262007,12.024206 22.5926414,12.4229708 22.8584846,12.688814 C23.1242877,12.954617 23.5230525,12.8881763 23.7888957,12.6223331 C24.5863851,11.7584029 25.9820017,11.7584029 26.7794911,12.6223331 C26.9124127,12.7552547 27.1117751,12.8217356 27.2446967,12.8217356 C27.3776183,12.8217356 27.5769806,12.7552547 27.7099022,12.6223331 C27.9757454,12.4229708 27.9757454,12.024206 27.7099022,11.7584029 Z" id="Path" fill="#F95050"></path>
                <path d="M6.64273187,10.6285894 C5.71232081,10.6285894 4.78190976,11.0273542 4.18378263,11.7584029 C3.91793943,12.024206 3.98442031,12.4229708 4.25026351,12.688814 C4.51606656,12.954617 4.91483136,12.8881763 5.18067456,12.6223331 C5.97816401,11.7584029 7.3737806,11.7584029 8.17127005,12.6223331 C8.30419165,12.7552547 8.50355398,12.8217356 8.63647558,12.8217356 C8.76939718,12.8217356 8.96875951,12.7552547 9.10168111,12.6223331 C9.36752431,12.35653 9.36752431,11.9577652 9.16812183,11.691922 C8.50355398,11.0273542 7.57314292,10.6285894 6.64273187,10.6285894 Z" id="Path" fill="#F95050"></path>
            </g>
        </g>
    </g>
</svg>