<svg width="70" height="70" viewBox="0 0 70 70" fill="none" xmlns="http://www.w3.org/2000/svg">
<!-- <circle cx="35" cy="35" r="35" fill="#2E2E2E"/> -->
<path fill-rule="evenodd" clip-rule="evenodd" d="M34.0573 31.5993C34.3173 31.8593 34.6587 31.9893 35 31.9893C35.3413 31.9893 35.6827 31.8593 35.9427 31.5993L41.5993 25.9427C42.1193 25.4227 42.1193 24.5773 41.5993 24.0573L35.9427 18.4007C35.4233 17.8807 34.5767 17.8807 34.0573 18.4007L28.4007 24.0573C27.8807 24.5773 27.8807 25.4227 28.4007 25.9427L34.0573 31.5993ZM43 44.3333H35V36.3333C35 35.598 34.402 35 33.6667 35H25.6667V27C25.6667 26.2647 25.0687 25.6667 24.3333 25.6667H16.3333C15.598 25.6667 15 26.2647 15 27V35C15 35.244 15.0707 35.47 15.1853 35.6667C15.0707 35.8633 15 36.0893 15 36.3333V44.3333C15 44.5773 15.0707 44.8033 15.1853 45C15.0707 45.1967 15 45.4227 15 45.6667V53.6667C15 54.402 15.598 55 16.3333 55H24.3333C24.5773 55 24.8033 54.9293 25 54.8147C25.1967 54.9293 25.4227 55 25.6667 55H33.6667C33.9107 55 34.1367 54.9293 34.3333 54.8147C34.53 54.9293 34.756 55 35 55H43C43.7353 55 44.3333 54.402 44.3333 53.6667V45.6667C44.3333 44.9313 43.7353 44.3333 43 44.3333ZM33.6665 36.3333L33.6672 44.3333H33.6665H25.6665V36.3333H33.6665ZM24.3331 36.3333H16.3331V44.3333H24.3331V36.3333ZM16.3331 27H24.3331L24.3338 35H24.3331H16.3331V27ZM16.3331 45.6667V53.6667H24.3331V45.6667H16.3331ZM25.6665 53.6667V45.6667H33.6665V53.6667H25.6665ZM35 45.6667V53.6667H43.0007L43 45.6667H35ZM40.6567 25L35.0001 19.3433L29.3434 25L35.0007 30.6573L40.6567 25Z" fill="currentColor"/>
<path fill-rule="evenodd" clip-rule="evenodd" d="M17.6669 50.3333C17.6669 49.9653 17.9656 49.6667 18.3336 49.6667C18.7016 49.6667 19.0002 49.9653 19.0002 50.3333V51.6667C19.0002 52.0347 18.7016 52.3333 18.3336 52.3333C17.9656 52.3333 17.6669 52.0347 17.6669 51.6667V50.3333ZM21.0003 50.3333C21.0003 49.9653 21.2989 49.6667 21.6669 49.6667C22.0349 49.6667 22.3336 49.9653 22.3336 50.3333V51.6667C22.3336 52.0347 22.0349 52.3333 21.6669 52.3333C21.2989 52.3333 21.0003 52.0347 21.0003 51.6667V50.3333ZM31 49.6667C30.632 49.6667 30.3334 49.9653 30.3334 50.3333V51.6667C30.3334 52.0347 30.632 52.3333 31 52.3333C31.368 52.3333 31.6667 52.0347 31.6667 51.6667V50.3333C31.6667 49.9653 31.368 49.6667 31 49.6667ZM26.9999 50.3333C26.9999 49.9653 27.2986 49.6667 27.6666 49.6667C28.0346 49.6667 28.3332 49.9653 28.3332 50.3333V51.6667C28.3332 52.0347 28.0346 52.3333 27.6666 52.3333C27.2986 52.3333 26.9999 52.0347 26.9999 51.6667V50.3333ZM40.3331 49.6667C39.9651 49.6667 39.6665 49.9653 39.6665 50.3333V51.6667C39.6665 52.0347 39.9651 52.3333 40.3331 52.3333C40.7011 52.3333 40.9998 52.0347 40.9998 51.6667V50.3333C40.9998 49.9653 40.7011 49.6667 40.3331 49.6667ZM36.3334 50.3333C36.3334 49.9653 36.632 49.6667 37 49.6667C37.368 49.6667 37.6667 49.9653 37.6667 50.3333V51.6667C37.6667 52.0347 37.368 52.3333 37 52.3333C36.632 52.3333 36.3334 52.0347 36.3334 51.6667V50.3333Z" fill="currentColor"/>
<path fill-rule="evenodd" clip-rule="evenodd" d="M49.3914 29.7647C49.726 29.8867 49.9927 30.1313 50.1434 30.454L53.524 37.7047C53.6747 38.028 53.6907 38.39 53.5687 38.7247C53.4467 39.0593 53.202 39.326 52.8794 39.4767L45.6294 42.8573C45.45 42.9407 45.2587 42.9827 45.0667 42.9827C44.9127 42.9827 44.7587 42.9553 44.6094 42.9013C44.2747 42.7793 44.008 42.5347 43.8574 42.212L40.4767 34.962C40.326 34.6387 40.31 34.2767 40.432 33.942C40.554 33.6073 40.7987 33.3407 41.1214 33.19L48.3714 29.8093C48.6947 29.6587 49.0567 29.6433 49.3914 29.7647ZM41.6844 34.3987L45.0651 41.6487L52.3158 38.268L48.9344 31.018L41.6844 34.3987Z" fill="currentColor"/>
<path fill-rule="evenodd" clip-rule="evenodd" d="M45.6668 15H53.6668C54.4021 15 55.0001 15.598 55.0001 16.3333V24.3333C55.0001 25.0687 54.4021 25.6667 53.6668 25.6667H45.6668C44.9315 25.6667 44.3335 25.0687 44.3335 24.3333V16.3333C44.3335 15.598 44.9315 15 45.6668 15ZM45.6665 16.3333V24.3333H53.6672L53.6665 16.3333H45.6665Z" fill="currentColor"/>
</svg>
