<svg width="60" height="60" viewBox="0 0 60 60" fill="none" xmlns="http://www.w3.org/2000/svg">
<g id="Group 4">
<!-- <circle id="Ellipse 2" cx="30" cy="30" r="30" fill="#2E2E2E"/> -->
<g id="icons8-database">
<path id="Shape" fill-rule="evenodd" clip-rule="evenodd" d="M12 19.216C12 15.1698 19.4928 12 29.056 12C38.6192 12 46.112 15.1698 46.112 19.216V38.896C46.112 42.9422 38.6192 46.112 29.056 46.112C19.4928 46.112 12 42.9422 12 38.896V19.216ZM44.8001 19.216C44.8001 16.3639 38.4733 13.312 29.0561 13.312C19.6389 13.312 13.3121 16.3639 13.3121 19.216C13.3121 22.0681 19.6389 25.12 29.0561 25.12C38.4733 25.12 44.8001 22.0681 44.8001 19.216ZM29.056 14.624C26.1553 14.624 23.4211 14.9264 21.143 15.4978C20.792 15.5849 20.5793 15.9437 20.669 16.2947C20.7433 16.592 21.0098 16.7893 21.3045 16.7893C21.3557 16.7893 21.4095 16.7842 21.4633 16.7688C23.6056 16.2332 26.3013 15.936 29.056 15.936C29.9273 15.936 30.796 15.9642 31.639 16.0206C31.9978 16.0564 32.313 15.7746 32.336 15.4132C32.3616 15.0494 32.0875 14.7367 31.7261 14.7137C30.8549 14.6547 29.9555 14.624 29.056 14.624ZM34.058 15.6029C34.1144 15.2441 34.4501 15.0007 34.8088 15.0596C35.5699 15.1801 36.2951 15.3287 36.969 15.4978C37.3201 15.5849 37.5328 15.9437 37.4431 16.2947C37.3688 16.592 37.1023 16.7893 36.8076 16.7893C36.7563 16.7893 36.7025 16.7842 36.6487 16.7688C36.0106 16.6099 35.3239 16.4716 34.6013 16.3562C34.2425 16.2973 33.9991 15.9616 34.058 15.6029ZM13.3121 22.0424C15.8618 24.6459 21.876 26.432 29.0561 26.432C36.2362 26.432 42.2504 24.6459 44.8001 22.0424V25.776C44.8001 28.6281 38.4733 31.68 29.0561 31.68C19.6389 31.68 13.3121 28.6281 13.3121 25.776V22.0424ZM29.0561 32.992C21.876 32.992 15.8618 31.2059 13.3121 28.6024V32.336C13.3121 35.042 18.6754 37.5225 25.7889 38.1067C26.1502 38.1375 26.4193 38.4552 26.3911 38.814C26.3604 39.1574 26.0759 39.4187 25.7351 39.4187C25.7277 39.4187 25.7191 39.4182 25.7102 39.4175C25.7006 39.4169 25.6906 39.4162 25.6813 39.4162C19.9234 38.9421 15.421 37.3149 13.3121 35.1471V38.896C13.3121 41.7481 19.6389 44.8 29.0561 44.8C38.4759 44.8 44.8001 41.7481 44.8001 38.896V35.1778C44.2389 35.7544 43.506 36.2976 42.5964 36.7922C42.4964 36.846 42.3888 36.8716 42.2812 36.8716C42.0505 36.8716 41.825 36.7486 41.7046 36.5282C41.5329 36.2105 41.6508 35.8133 41.9685 35.6391C43.7956 34.6448 44.8001 33.4712 44.8001 32.336V28.6024C42.2504 31.2059 36.2362 32.992 29.0561 32.992ZM38.8958 35.616C38.532 35.616 38.2398 35.9107 38.2398 36.272V37.584C38.2398 37.9453 38.532 38.24 38.8958 38.24C39.2597 38.24 39.5518 37.9453 39.5518 37.584V36.272C39.5518 35.9107 39.2597 35.616 38.8958 35.616ZM34.9602 36.9921C34.9602 36.6307 35.2523 36.3361 35.6162 36.3361C35.98 36.3361 36.2722 36.6307 36.2722 36.9921V38.3041C36.2722 38.6679 35.98 38.9601 35.6162 38.9601C35.2523 38.9601 34.9602 38.6679 34.9602 38.3041V36.9921ZM32.3361 36.7973C31.9722 36.7973 31.6801 37.092 31.6801 37.4533V38.7653C31.6801 39.1266 31.9722 39.4213 32.3361 39.4213C32.7 39.4213 32.9921 39.1266 32.9921 38.7653V37.4533C32.9921 37.092 32.7 36.7973 32.3361 36.7973ZM28.4 37.584C28.4 37.2227 28.6921 36.928 29.056 36.928C29.4199 36.928 29.712 37.2227 29.712 37.584V38.896C29.712 39.2573 29.4199 39.552 29.056 39.552C28.6921 39.552 28.4 39.2573 28.4 38.896V37.584Z" fill="url(#paint0_linear)"/>
</g>
<g id="icons8-settings">
<path id="Path" d="M50.8804 36.5272L48.5503 35.9429C48.4457 35.6374 48.3207 35.3394 48.1759 35.0508L49.4144 32.9865C49.6531 32.5872 49.5897 32.0767 49.2605 31.748L48.0954 30.5795C47.7667 30.2503 47.2562 30.1868 46.8569 30.4255L44.7927 31.664C44.503 31.52 44.2037 31.3961 43.897 31.2932L43.3128 28.9596C43.2004 28.5079 42.7951 28.1905 42.3296 28.1899H40.6783C40.2128 28.1905 39.8075 28.5079 39.6951 28.9596L39.1109 31.2897C38.8053 31.3941 38.5073 31.5192 38.2187 31.664L36.151 30.4255C35.7517 30.1868 35.2412 30.2503 34.9125 30.5795L33.7474 31.7445C33.4182 32.0732 33.3548 32.5837 33.5935 32.983L34.832 35.0473C34.6881 35.337 34.5641 35.6362 34.4611 35.9429L32.1275 36.5272C31.6758 36.6395 31.3585 37.0448 31.3578 37.5103V39.1582C31.3585 39.6237 31.6758 40.029 32.1275 40.1413L34.4576 40.7256C34.5622 41.0311 34.6872 41.3291 34.832 41.6177L33.5935 43.689C33.3548 44.0883 33.4182 44.5988 33.7474 44.9275L34.9125 46.0925C35.2412 46.4217 35.7517 46.4852 36.151 46.2465L38.2152 45.008C38.5049 45.152 38.8042 45.2759 39.1109 45.3788L39.6951 47.7124C39.8075 48.1641 40.2128 48.4814 40.6783 48.4821H42.3261C42.7916 48.4814 43.1969 48.1641 43.3093 47.7124L43.8935 45.3823C44.1991 45.2779 44.4971 45.1528 44.7857 45.008L46.8499 46.2465C47.2489 46.4865 47.7603 46.4229 48.0884 46.0925L49.2535 44.9275C49.5827 44.5988 49.6461 44.0883 49.4074 43.689L48.1689 41.6247C48.3128 41.335 48.4367 41.0358 48.5398 40.7291L50.8734 40.1448C51.3279 40.0352 51.6486 39.6292 51.6501 39.1617V37.5103C51.6494 37.0448 51.3321 36.6395 50.8804 36.5272Z" fill="currentColor"/>
<path id="Shape_2" fill-rule="evenodd" clip-rule="evenodd" d="M44.2261 35.9639C44.3191 35.9644 44.4085 35.9279 44.4746 35.8624L44.9679 35.3691C45.0867 35.2303 45.0787 35.0234 44.9495 34.8942C44.8203 34.7649 44.6134 34.7569 44.4746 34.8758L43.9812 35.3691C43.8803 35.4692 43.85 35.6204 43.9045 35.7517C43.959 35.883 44.0875 35.9682 44.2296 35.9674L44.2261 35.9639ZM46.0523 37.9861H45.3526C45.1594 37.9861 45.0027 38.1428 45.0027 38.336C45.0027 38.5292 45.1594 38.6859 45.3526 38.6859H46.0523C46.2456 38.6859 46.4022 38.5292 46.4022 38.336C46.4022 38.1428 46.2456 37.9861 46.0523 37.9861ZM41.5042 41.8347C41.3109 41.8347 41.1543 41.9913 41.1543 42.1845V42.8843C41.1543 43.0775 41.3109 43.2341 41.5042 43.2341C41.6974 43.2341 41.854 43.0775 41.854 42.8843V42.1845C41.854 41.9913 41.6974 41.8347 41.5042 41.8347ZM43.9997 40.8279C44.129 40.6987 44.3359 40.6907 44.4747 40.8096L44.968 41.3029C45.0869 41.4417 45.0789 41.6486 44.9497 41.7778C44.8204 41.9071 44.6135 41.9151 44.4747 41.7962L43.9814 41.3029C43.8625 41.1641 43.8705 40.9571 43.9997 40.8279ZM45.2059 39.4521L45.8531 39.7145L45.8496 39.7005C45.973 39.7419 46.0631 39.8483 46.0837 39.9768C46.1043 40.1053 46.0519 40.2346 45.9477 40.3124C45.8434 40.3903 45.7046 40.4039 45.5872 40.3477L44.94 40.0853C44.8017 40.0566 44.6943 39.9476 44.6677 39.8089C44.641 39.6703 44.7002 39.5292 44.8179 39.4512C44.9355 39.3732 45.0885 39.3735 45.2059 39.4521ZM43.3306 41.7437C43.2851 41.6238 43.1777 41.5383 43.0507 41.521C42.9236 41.5037 42.7973 41.5572 42.7214 41.6606C42.6455 41.764 42.6322 41.9006 42.6868 42.0166L42.9597 42.6603C43.0051 42.7803 43.1125 42.8657 43.2396 42.883C43.3666 42.9004 43.493 42.8468 43.5689 42.7434C43.6448 42.6401 43.658 42.5035 43.6034 42.3875L43.3306 41.7437ZM45.1849 37.1534C45.0071 37.2286 44.802 37.1457 44.7266 36.968C44.6514 36.7902 44.7343 36.5852 44.912 36.5097L45.5557 36.2368C45.7315 36.1702 45.9285 36.2544 46.0018 36.4274C46.0752 36.6005 45.9987 36.8005 45.8286 36.8806L45.1849 37.1534Z" fill="url(#paint1_linear)"/>
<path id="Shape_3" fill-rule="evenodd" clip-rule="evenodd" d="M48.795 35.8589L51.2056 36.4642C51.6725 36.5813 51.9998 37.001 51.9998 37.4823V39.1897C51.9982 39.6697 51.6712 40.0875 51.2056 40.2043L48.7915 40.806C48.6846 41.1235 48.556 41.4333 48.4067 41.7332L49.6872 43.8709C49.9361 44.2842 49.8711 44.8139 49.5298 45.1549L48.3227 46.3619C47.9823 46.7015 47.4547 46.7664 47.0422 46.5194L44.9045 45.2388C44.6058 45.3891 44.2972 45.5188 43.9809 45.6272L43.3756 48.0378C43.2585 48.5046 42.8388 48.832 42.3575 48.832H40.6501C40.1675 48.8336 39.746 48.5059 39.6285 48.0378L39.0268 45.6237C38.7104 45.5167 38.4018 45.3881 38.1031 45.2388L35.9654 46.5194C35.5529 46.7664 35.0253 46.7015 34.6849 46.3619L33.4779 45.1549C33.1365 44.8139 33.0716 44.2842 33.3204 43.8709L34.6009 41.7367C34.4508 41.4379 34.3211 41.1293 34.2126 40.813L31.802 40.2078C31.3351 40.0906 31.0078 39.671 31.0078 39.1897V37.4823C31.0094 37.0023 31.3364 36.5845 31.802 36.4677L34.2161 35.8659C34.323 35.5484 34.4516 35.2387 34.6009 34.9388L33.3204 32.8011C33.0716 32.3878 33.1365 31.858 33.4779 31.5171L34.6884 30.31C35.0288 29.9705 35.5564 29.9056 35.9689 30.1526L38.1031 31.4331C38.4018 31.2829 38.7104 31.1531 39.0268 31.0448L39.632 28.6342C39.7491 28.1673 40.1688 27.84 40.6501 27.84H42.3575C42.8401 27.8383 43.2617 28.166 43.3791 28.6342L43.9809 31.0483C44.2972 31.1552 44.6058 31.2838 44.9045 31.4331L47.0422 30.1526C47.4547 29.9056 47.9823 29.9705 48.3227 30.31L49.5298 31.5136C49.8711 31.8545 49.9361 32.3843 49.6872 32.7976L48.4067 34.9353C48.5568 35.234 48.6866 35.5426 48.795 35.8589ZM51.0342 39.5395C51.1942 39.5001 51.3049 39.3543 51.3001 39.1897L51.2966 37.4928C51.3014 37.3281 51.1907 37.1824 51.0307 37.1429L48.6166 36.5412C48.3868 36.4824 48.2025 36.3112 48.1268 36.0863C48.0286 35.7991 47.9118 35.5186 47.777 35.2467C47.67 35.0332 47.6792 34.78 47.8015 34.5749L49.089 32.4442C49.1713 32.3067 49.1497 32.1309 49.0365 32.0174L47.8294 30.8104C47.716 30.6972 47.5401 30.6755 47.4026 30.7579L45.2649 32.0384C45.0653 32.1531 44.8219 32.1623 44.6142 32.0629C44.3422 31.9282 44.0617 31.8113 43.7745 31.713C43.5497 31.6374 43.3784 31.453 43.3197 31.2232L42.7179 28.8091C42.6784 28.6492 42.5327 28.5384 42.368 28.5432H40.6607C40.496 28.5384 40.3503 28.6492 40.3108 28.8091L39.709 31.2232C39.6503 31.453 39.479 31.6374 39.2542 31.713C38.967 31.8113 38.6865 31.9282 38.4145 32.0629C38.2011 32.1698 37.9479 32.1606 37.7428 32.0384L35.6121 30.7509C35.4746 30.6685 35.2987 30.6902 35.1853 30.8034L33.9782 32.0104C33.865 32.1239 33.8434 32.2997 33.9257 32.4372L35.2063 34.5749C35.3247 34.7773 35.3339 35.0256 35.2307 35.2362C35.0959 35.5081 34.979 35.7886 34.8809 36.0758C34.8053 36.3007 34.6209 36.4719 34.3911 36.5307L31.977 37.1324C31.817 37.1719 31.7063 37.3176 31.7111 37.4823V39.1792C31.7063 39.3438 31.817 39.4896 31.977 39.529L34.3911 40.1308C34.6209 40.1896 34.8053 40.3608 34.8809 40.5856C34.9791 40.8728 35.096 41.1533 35.2307 41.4253C35.3377 41.6387 35.3285 41.892 35.2063 42.0971L33.9152 44.2277C33.8329 44.3652 33.8545 44.5411 33.9677 44.6546L35.1748 45.8616C35.2882 45.9748 35.4641 45.9964 35.6016 45.9141L37.7393 44.6336C37.8453 44.5707 37.9659 44.5369 38.0892 44.5356C38.1984 44.5352 38.3063 44.5604 38.404 44.6091C38.676 44.7438 38.9565 44.8607 39.2437 44.959C39.4685 45.0346 39.6398 45.219 39.6985 45.4488L40.3003 47.8629C40.3398 48.0228 40.4855 48.1335 40.6502 48.1288H42.347C42.5117 48.1335 42.6574 48.0228 42.6969 47.8629L43.2987 45.4488C43.3575 45.219 43.5287 45.0346 43.7535 44.959C44.0407 44.8607 44.3212 44.7438 44.5932 44.6091C44.8066 44.5021 45.0598 44.5114 45.2649 44.6336L47.3956 45.9211C47.5331 46.0034 47.709 45.9818 47.8224 45.8686L49.0295 44.6616C49.1427 44.5481 49.1643 44.3722 49.082 44.2347L47.8015 42.0971C47.6841 41.8941 47.6762 41.6458 47.7805 41.4358C47.9153 41.1639 48.0322 40.8834 48.1303 40.5961C48.206 40.3713 48.3903 40.2001 48.6201 40.1413L51.0342 39.5395Z" fill="url(#paint2_linear)"/>
<path id="Shape_4" fill-rule="evenodd" clip-rule="evenodd" d="M38.7051 38.336C38.7051 36.7902 39.9582 35.5371 41.504 35.5371C43.0498 35.5371 44.3029 36.7902 44.3029 38.336C44.3029 39.8818 43.0498 41.1349 41.504 41.1349C39.9582 41.1349 38.7051 39.8818 38.7051 38.336ZM39.4047 38.336C39.4047 39.4954 40.3445 40.4352 41.5039 40.4352C42.6632 40.4352 43.6031 39.4954 43.6031 38.336C43.6031 37.1766 42.6632 36.2368 41.5039 36.2368C40.3445 36.2368 39.4047 37.1766 39.4047 38.336Z" fill="url(#paint3_linear)"/>
<path id="Shape_5" fill-rule="evenodd" clip-rule="evenodd" d="M42.0673 34.1761C42.3191 34.2095 42.5674 34.2657 42.809 34.344C42.9899 34.3956 43.1793 34.295 43.2376 34.1161C43.296 33.9373 43.2025 33.7443 43.0259 33.6793C42.7444 33.588 42.4552 33.5224 42.1618 33.4833C42.0368 33.4671 41.9126 33.5188 41.836 33.6189C41.7595 33.719 41.7421 33.8524 41.7906 33.9688C41.839 34.0851 41.9458 34.1668 42.0708 34.1831L42.0673 34.1761ZM39.5411 42.0481C38.0011 41.2337 37.1239 39.5528 37.3368 37.8237C37.5496 36.0946 38.8082 34.6766 40.4998 34.26C40.6253 34.2341 40.7267 34.1415 40.7638 34.0188C40.801 33.8961 40.768 33.7628 40.6779 33.6716C40.5878 33.5804 40.455 33.5457 40.3318 33.5813C38.3515 34.0626 36.8762 35.7198 36.6273 37.7425C36.3783 39.7652 37.4078 41.7307 39.2123 42.6778C39.3833 42.7687 39.5955 42.7036 39.6863 42.5326C39.7771 42.3616 39.7121 42.1494 39.5411 42.0586V42.0481ZM40.8041 38.336C40.8041 37.9495 41.1174 37.6363 41.5038 37.6363C41.8903 37.6363 42.2036 37.9495 42.2036 38.336C42.2036 38.7224 41.8903 39.0357 41.5038 39.0357C41.1174 39.0357 40.8041 38.7224 40.8041 38.336Z" fill="url(#paint4_linear)"/>
</g>
</g>
<defs>
<linearGradient id="paint0_linear" x1="29.056" y1="12" x2="29.056" y2="46.112" gradientUnits="userSpaceOnUse">
<stop stop-color="#007FEE"/>
<stop offset="1" stop-color="#30B253"/>
</linearGradient>
<linearGradient id="paint1_linear" x1="43.7782" y1="34.7917" x2="43.7782" y2="43.2341" gradientUnits="userSpaceOnUse">
<stop stop-color="#007FEE"/>
<stop offset="1" stop-color="#30B253"/>
</linearGradient>
<linearGradient id="paint2_linear" x1="41.5038" y1="27.84" x2="41.5038" y2="48.832" gradientUnits="userSpaceOnUse">
<stop stop-color="#007FEE"/>
<stop offset="1" stop-color="#30B253"/>
</linearGradient>
<linearGradient id="paint3_linear" x1="41.504" y1="35.5371" x2="41.504" y2="41.1349" gradientUnits="userSpaceOnUse">
<stop stop-color="#007FEE"/>
<stop offset="1" stop-color="#30B253"/>
</linearGradient>
<linearGradient id="paint4_linear" x1="39.9227" y1="33.4804" x2="39.9227" y2="42.7189" gradientUnits="userSpaceOnUse">
<stop stop-color="#007FEE"/>
<stop offset="1" stop-color="#30B253"/>
</linearGradient>
</defs>
</svg>
