<svg xmlns="http://www.w3.org/2000/svg" version="1.0" width="1856.000000pt" height="2054.000000pt" viewBox="0 0 1856.000000 2054.000000" preserveAspectRatio="xMidYMid meet">

    <defs xmlns="http://www.w3.org/2000/svg">
        <linearGradient id="grad3" x1="0%" y1="0%" x2="0%" y2="100%">
            <stop offset="0%" style="stop-color: #4a9050; stop-opacity: 1;"/>
            <stop offset="100%" style="stop-color: #436cb3; stop-opacity: 1"/>
        </linearGradient>
    </defs>

    <g transform="translate(250.000000,1804.000000) scale(0.100000,-0.100000)" fill="#000000" stroke="none" style="fill: url(#grad3);">
        <path d="M6698 15519 c-28 -6 -2322 -1318 -3363 -1923 -88 -52 -846 -488 -1685 -971 -839 -483 -1540 -892 -1558 -909 -19 -17 -43 -49 -55 -71 l-22 -40 0 -3830 0 -3830 22 -46 c13 -25 35 -57 50 -71 16 -15 413 -248 883 -519 470 -270 1242 -714 1715 -987 473 -272 982 -565 1130 -650 149 -85 477 -274 730 -420 253 -145 597 -344 765 -440 168 -96 377 -217 465 -268 519 -299 874 -502 902 -513 21 -8 63 -12 120 -9 l88 3 770 444 c424 244 1072 617 1440 829 369 212 918 528 1220 702 303 174 640 369 750 432 585 336 2091 1203 2225 1280 173 100 200 122 233 187 l22 46 0 3830 0 3830 -22 40 c-12 22 -36 54 -55 71 -28 27 -963 568 -3798 2199 -289 166 -1030 593 -1647 948 -671 387 -1140 651 -1165 657 -51 11 -109 11 -160 -1z m-140 -2195 l-3 -1675 -1415 -816 c-778 -448 -1421 -817 -1428 -820 -10 -4 -12 331 -10 1672 l3 1677 1420 818 c781 450 1423 819 1428 819 4 1 6 -753 5 -1675z m1882 853 l1415 -815 3 -1677 c2 -1341 0 -1676 -10 -1672 -7 3 -650 372 -1428 820 l-1415 816 -3 1676 c-2 1341 0 1676 10 1672 7 -3 650 -372 1428 -820z m-5130 -2608 c0 -966 -4 -1559 -9 -1557 -22 7 -2701 1553 -2701 1558 0 3 174 106 388 228 213 122 819 472 1347 776 528 305 963 555 968 555 4 1 7 -701 7 -1560z m8277 797 c730 -420 1337 -771 1348 -779 18 -14 18 -17 5 -30 -15 -14 -2676 -1547 -2685 -1547 -3 0 -5 702 -5 1560 0 858 2 1560 4 1560 2 0 602 -344 1333 -764z m-4187 -1390 c327 -188 970 -558 1428 -822 457 -263 832 -481 832 -484 0 -3 -435 -256 -967 -563 -533 -306 -1179 -678 -1438 -827 -258 -149 -474 -269 -480 -268 -19 5 -2875 1652 -2875 1658 0 13 2876 1660 2890 1654 8 -3 282 -159 610 -348z m-5773 -447 c670 -386 1278 -735 1351 -777 72 -42 132 -79 132 -82 0 -5 -2679 -1551 -2700 -1558 -7 -2 -10 566 -10 1557 0 859 2 1561 4 1561 3 0 553 -316 1223 -701z m11533 -859 c0 -858 -2 -1560 -5 -1560 -10 0 -2705 1555 -2705 1560 0 3 438 257 973 565 534 308 1141 657 1347 777 206 119 378 217 383 217 4 1 7 -701 7 -1559z m-9850 -1901 c0 -959 -4 -1559 -9 -1557 -23 8 -2701 1554 -2701 1558 0 4 406 240 902 525 497 286 1103 635 1348 777 245 141 448 257 453 257 4 1 7 -701 7 -1560z m1830 738 l1415 -815 3 -1676 c1 -922 -1 -1676 -5 -1676 -5 0 -647 369 -1428 819 l-1420 818 -3 1677 c-2 1342 0 1677 10 1673 7 -3 650 -372 1428 -820z m4718 -854 l-3 -1676 -385 -222 c-212 -122 -848 -488 -1414 -814 -566 -326 -1035 -595 -1043 -598 -11 -4 -13 265 -11 1672 l3 1677 1420 819 c781 450 1423 818 1428 818 4 1 6 -754 5 -1676z m1154 1244 c414 -238 1022 -588 1351 -777 328 -189 597 -347 597 -350 0 -5 -2679 -1551 -2701 -1558 -5 -2 -9 581 -9 1557 0 859 2 1561 5 1561 3 0 343 -195 757 -433z m-9540 -2079 c585 -336 1236 -711 1448 -833 l385 -222 3 -1678 c2 -1524 1 -1677 -14 -1671 -8 3 -146 81 -306 173 -160 93 -807 465 -1437 828 l-1146 660 -3 1678 c-1 922 0 1677 2 1677 3 0 483 -275 1068 -612z m11688 -1062 c0 -1327 -3 -1676 -12 -1683 -7 -6 -418 -243 -913 -528 -495 -285 -985 -567 -1090 -628 -575 -331 -867 -499 -880 -504 -13 -4 -15 205 -13 1673 l3 1677 1370 789 c754 434 1404 809 1445 833 41 24 78 44 83 44 4 1 7 -752 7 -1673z m-8987 -492 c537 -310 766 -441 1697 -977 l685 -394 3 -1677 c1 -992 -2 -1676 -7 -1676 -5 0 -170 93 -367 207 -1107 637 -1703 980 -2071 1191 l-412 237 -1 1678 c0 922 2 1677 5 1677 3 0 214 -120 468 -266z m5687 -1411 l-1 -1678 -247 -141 c-136 -78 -647 -373 -1137 -655 -1405 -809 -1457 -839 -1466 -839 -5 0 -8 721 -7 1676 l3 1677 1140 656 c627 361 1266 729 1420 818 154 89 283 162 288 162 4 1 7 -754 7 -1676z"/>
    </g>
</svg>
