<svg width="60" height="60" viewBox="0 0 60 60" fill="none" xmlns="http://www.w3.org/2000/svg">
<g id="icons8-registry-editor">
<!-- <circle id="Ellipse 11" cx="30" cy="30" r="30" fill="#2E2E2E"/> -->
<path id="Shape" fill-rule="evenodd" clip-rule="evenodd" d="M28.7224 26.6945C28.9369 26.909 29.2185 27.0162 29.5001 27.0162C29.7817 27.0162 30.0633 26.909 30.2778 26.6945L34.9445 22.0277C35.3735 21.5987 35.3735 20.9013 34.9445 20.4723L30.2778 15.8056C29.8493 15.3766 29.1508 15.3766 28.7224 15.8056L24.0556 20.4723C23.6266 20.9013 23.6266 21.5987 24.0556 22.0277L28.7224 26.6945ZM36.1 37.2H29.5V30.6C29.5 29.9934 29.0067 29.5 28.4 29.5H21.8V22.9C21.8 22.2934 21.3067 21.8 20.7 21.8H14.1C13.4933 21.8 13 22.2934 13 22.9V29.5C13 29.7013 13.0583 29.8878 13.1529 30.05C13.0583 30.2123 13 30.3987 13 30.6V37.2C13 37.4013 13.0583 37.5878 13.1529 37.75C13.0583 37.9123 13 38.0987 13 38.3V44.9C13 45.5067 13.4933 46 14.1 46H20.7C20.9013 46 21.0878 45.9417 21.25 45.8471C21.4123 45.9417 21.5987 46 21.8 46H28.4C28.6013 46 28.7878 45.9417 28.95 45.8471C29.1123 45.9417 29.2987 46 29.5 46H36.1C36.7067 46 37.2 45.5067 37.2 44.9V38.3C37.2 37.6934 36.7067 37.2 36.1 37.2ZM28.3999 30.6L28.4004 37.2H28.3999H21.7999V30.6H28.3999ZM20.7001 30.6H14.1001V37.2H20.7001V30.6ZM14.1001 22.9H20.7001L20.7007 29.5H20.7001H14.1001V22.9ZM14.1001 38.3V44.9H20.7001V38.3H14.1001ZM21.7999 44.9V38.3H28.3999V44.9H21.7999ZM29.5 38.3V44.9H36.1005L36.1 38.3H29.5ZM34.1667 21.25L29.4999 16.5833L24.8332 21.25L29.5005 25.9173L34.1667 21.25Z" fill="url(#paint0_linear)"/>
<path id="Shape_2" fill-rule="evenodd" clip-rule="evenodd" d="M15.2003 42.15C15.2003 41.8464 15.4467 41.6 15.7503 41.6C16.0539 41.6 16.3003 41.8464 16.3003 42.15V43.25C16.3003 43.5536 16.0539 43.8 15.7503 43.8C15.4467 43.8 15.2003 43.5536 15.2003 43.25V42.15ZM17.9501 42.15C17.9501 41.8464 18.1965 41.6 18.5001 41.6C18.8037 41.6 19.0501 41.8464 19.0501 42.15V43.25C19.0501 43.5536 18.8037 43.8 18.5001 43.8C18.1965 43.8 17.9501 43.5536 17.9501 43.25V42.15ZM26.2002 41.6C25.8966 41.6 25.6502 41.8464 25.6502 42.15V43.25C25.6502 43.5536 25.8966 43.8 26.2002 43.8C26.5038 43.8 26.7502 43.5536 26.7502 43.25V42.15C26.7502 41.8464 26.5038 41.6 26.2002 41.6ZM22.9001 42.15C22.9001 41.8464 23.1465 41.6 23.4501 41.6C23.7537 41.6 24.0001 41.8464 24.0001 42.15V43.25C24.0001 43.5536 23.7537 43.8 23.4501 43.8C23.1465 43.8 22.9001 43.5536 22.9001 43.25V42.15ZM33.8999 41.6C33.5963 41.6 33.3499 41.8464 33.3499 42.15V43.25C33.3499 43.5536 33.5963 43.8 33.8999 43.8C34.2035 43.8 34.4499 43.5536 34.4499 43.25V42.15C34.4499 41.8464 34.2035 41.6 33.8999 41.6ZM30.6002 42.15C30.6002 41.8464 30.8466 41.6 31.1502 41.6C31.4538 41.6 31.7002 41.8464 31.7002 42.15V43.25C31.7002 43.5536 31.4538 43.8 31.1502 43.8C30.8466 43.8 30.6002 43.5536 30.6002 43.25V42.15Z" fill="#007FEE"/>
<path id="Combined Shape" fill-rule="evenodd" clip-rule="evenodd" d="M41.3727 25.1809C41.6488 25.2815 41.8688 25.4834 41.9931 25.7496L44.7821 31.7314C44.9064 31.9981 44.9196 32.2968 44.819 32.5729C44.7183 32.849 44.5165 33.069 44.2503 33.1933L38.269 35.9823C38.1211 36.0511 37.9632 36.0857 37.8048 36.0857C37.6778 36.0857 37.5507 36.0632 37.4275 36.0186C37.1514 35.918 36.9314 35.7161 36.8071 35.4499L34.0181 29.4687C33.8938 29.2019 33.8806 28.9033 33.9812 28.6272C34.0819 28.3511 34.2837 28.1311 34.5499 28.0068L40.5312 25.2177C40.7979 25.0934 41.0966 25.0808 41.3727 25.1809ZM35.0149 29.0039L37.804 34.9852L43.7858 32.1961L40.9962 26.2149L35.0149 29.0039Z" fill="url(#paint1_linear)"/>
<path id="Combined Shape_2" fill-rule="evenodd" clip-rule="evenodd" d="M38.3001 13H44.9001C45.5068 13 46.0001 13.4933 46.0001 14.1V20.7C46.0001 21.3067 45.5068 21.8 44.9001 21.8H38.3001C37.6935 21.8 37.2001 21.3067 37.2001 20.7V14.1C37.2001 13.4933 37.6935 13 38.3001 13ZM38.2998 14.1V20.7H44.9004L44.8998 14.1H38.2998Z" fill="url(#paint2_linear)"/>
</g>
<defs>
<linearGradient id="paint0_linear" x1="25.1" y1="15.4838" x2="25.1" y2="46" gradientUnits="userSpaceOnUse">
<stop stop-color="#007FEE"/>
<stop offset="1" stop-color="#30B253"/>
</linearGradient>
<linearGradient id="paint1_linear" x1="39.4001" y1="25.1141" x2="39.4001" y2="36.0857" gradientUnits="userSpaceOnUse">
<stop stop-color="#007FEE"/>
<stop offset="1" stop-color="#30B253"/>
</linearGradient>
<linearGradient id="paint2_linear" x1="41.6001" y1="13" x2="41.6001" y2="21.8" gradientUnits="userSpaceOnUse">
<stop stop-color="#007FEE"/>
<stop offset="1" stop-color="#30B253"/>
</linearGradient>
</defs>
</svg>
