<svg width="220" height="220" viewBox="0 0 220 220" fill="none" xmlns="http://www.w3.org/2000/svg">
<g opacity="0.15" clip-path="url(#clip0)">
<path d="M77.0469 62.6104C67.9991 65.0346 59.5231 69.2386 52.1029 74.9825C44.6827 80.7263 38.4636 87.8974 33.8006 96.0864C29.1376 104.275 26.1222 113.322 24.9264 122.709C23.7305 132.097 24.3778 141.642 26.8312 150.798C29.2846 159.955 33.4961 168.545 39.2252 176.077C44.9542 183.609 52.0888 189.936 60.2213 194.697C68.3539 199.458 77.3253 202.559 86.6233 203.823C95.9212 205.088 105.364 204.491 114.411 202.067C123.459 199.642 131.935 195.438 139.356 189.695C146.776 183.951 152.995 176.78 157.658 168.591C162.321 160.402 165.336 151.355 166.532 141.968C167.728 132.58 167.081 123.035 164.627 113.879C162.174 104.722 157.962 96.1321 152.233 88.6C146.504 81.0679 139.37 74.7409 131.237 69.9802C123.105 65.2195 114.133 62.1184 104.835 60.8539C95.5372 59.5894 86.0947 60.1863 77.0469 62.6104Z" fill="white" fill-opacity="0.22"/>
<path d="M164.828 114.641C154.516 76.1406 115.328 53.1094 77.1719 63.4219C73.5625 64.4531 69.9531 65.6563 66.6875 67.2031C95.3906 64.2813 123.062 79.0625 136.984 104.5C136.812 104.5 136.641 104.5 136.469 104.672C130.969 106.219 127.703 111.719 129.25 117.219C130.797 122.719 136.297 125.984 141.797 124.438C142.656 124.266 143.516 123.922 144.203 123.406C151.766 157.266 134.406 191.125 103.812 204.875C107.422 204.531 111.203 203.844 114.812 202.813C152.625 192.672 175.141 153.141 164.828 114.641Z" fill="currentColor" fill-opacity="0.54"/>
<path d="M85.9375 136.469C82.5187 136.469 79.2399 137.827 76.8224 140.244C74.405 142.662 73.0469 145.941 73.0469 149.359C73.0469 152.778 74.405 156.057 76.8224 158.474C79.2399 160.892 82.5187 162.25 85.9375 162.25C89.3563 162.25 92.6351 160.892 95.0526 158.474C97.47 156.057 98.8281 152.778 98.8281 149.359C98.8281 145.941 97.47 142.662 95.0526 140.244C92.6351 137.827 89.3563 136.469 85.9375 136.469ZM80.2656 87.6562C78.4423 87.6562 76.6936 88.3806 75.4043 89.6699C74.115 90.9592 73.3906 92.7079 73.3906 94.5312C73.3906 96.3546 74.115 98.1033 75.4043 99.3926C76.6936 100.682 78.4423 101.406 80.2656 101.406C82.089 101.406 83.8377 100.682 85.127 99.3926C86.4163 98.1033 87.1406 96.3546 87.1406 94.5312C87.1406 92.7079 86.4163 90.9592 85.127 89.6699C83.8377 88.3806 82.089 87.6562 80.2656 87.6562Z" fill="currentColor"/>
<path d="M96.9375 209.859C96.25 209.859 95.5625 209.859 94.875 209.859C91.9531 209.859 89.7188 207.453 89.8906 204.531C89.8906 201.781 92.2969 199.547 95.0469 199.547H95.2188C119.625 200.234 142.313 187.516 154.344 166.547C162.938 151.766 165.344 134.578 161.219 117.906C160.531 115.156 162.25 112.406 165 111.719C167.75 111.031 170.5 112.75 171.188 115.5C175.828 134.75 173.078 154.687 163.281 171.703C149.703 195.422 124.438 209.859 96.9375 209.859ZM54.3125 195.937C53.2813 195.937 52.25 195.594 51.2188 194.906C19.0781 171.703 9.62501 128.562 29.3906 94.3593C39.7031 76.6562 56.2031 63.9374 76.1406 58.7812C96.0781 53.6249 116.875 56.3749 134.75 66.6874C140.938 70.2968 146.781 74.7656 151.766 79.9218C153.828 81.9843 153.656 85.2499 151.594 87.1406C149.531 89.2031 146.266 89.0312 144.375 86.9687C140.078 82.4999 135.094 78.7187 129.594 75.4531C114.125 66.5156 96.0781 64.1093 78.8906 68.5781C61.7031 73.0468 47.2656 84.0468 38.5 99.3437C21.4844 128.906 29.7344 166.375 57.5781 186.484C59.8125 188.203 60.3281 191.297 58.7813 193.703C57.5781 195.25 56.0313 195.937 54.3125 195.937Z" fill="currentColor"/>
<path d="M51.7344 210.719C45.3751 210.719 39.8751 209 35.5782 205.391C27.3282 198.516 24.9219 186.484 28.3594 170.328C28.8751 167.578 31.6251 165.688 34.5469 166.375C37.2969 166.891 39.1876 169.641 38.5001 172.562C35.9219 184.422 37.2969 193.359 42.2813 197.656C54.1407 207.625 88.8594 192.5 121.516 154.172C151.25 118.937 159.844 75.625 160.016 75.1094C160.531 72.3594 163.281 70.4688 166.031 70.9844C168.781 71.5 170.672 74.25 170.156 77C169.813 78.8906 160.875 123.406 129.25 160.531C102.438 192.156 72.5313 210.719 51.7344 210.719ZM130.797 36.6094C129.422 36.6094 128.047 36.0937 127.188 35.0625C126.156 34.0312 125.641 32.8281 125.641 31.4531C125.641 30.0781 126.156 28.7031 127.188 27.8438C129.078 25.9531 132.516 25.9531 134.406 27.8438C135.438 28.875 135.953 30.0781 135.953 31.4531C135.953 32.8281 135.438 34.2031 134.406 35.0625C133.375 35.9219 132.172 36.6094 130.797 36.6094Z" fill="currentColor"/>
<path d="M200.406 93.3281C199.031 93.3281 197.656 92.8125 196.797 91.7813C195.766 90.75 195.25 89.5469 195.25 88.1719C195.25 86.7969 195.766 85.4219 196.797 84.5625C198.688 82.6719 202.125 82.6719 204.016 84.5625C205.047 85.5938 205.562 86.7969 205.562 88.1719C205.562 89.5469 205.047 90.9219 204.016 91.7813C203.156 92.8125 201.781 93.3281 200.406 93.3281Z" fill="currentColor"/>
<path d="M182.016 59.4687L177.203 56.375C176 55.5156 175.312 54.1406 175.656 52.5937L177.891 39.5312C178.406 36.4375 177.891 33.3437 176.344 30.5937C175.313 28.875 173.078 28.5312 171.531 29.7344C169.125 31.7969 167.578 34.5469 166.891 37.6406L164.656 50.7031C164.313 52.25 163.281 53.2812 161.734 53.625L156.406 54.6562C154.859 55 153.828 56.2031 153.484 57.5781L152.797 61.3594L162.422 63.0781L165 63.5937L170.844 64.625L173.422 65.1406L183.047 66.8594L183.734 63.4219C183.906 61.7031 183.391 60.3281 182.016 59.4687Z" fill="currentColor"/>
</g>
<defs>
<clipPath id="clip0">
<rect width="220" height="220" fill="white"/>
</clipPath>
</defs>
</svg>
