<svg width="35" height="46" viewBox="0 0 35 46" fill="none" xmlns="http://www.w3.org/2000/svg">
<g opacity="0.9">
<mask id="mask0" mask-type="alpha" maskUnits="userSpaceOnUse" x="0" y="2" width="30" height="44">
<path d="M17.1059 2.05017C15.056 3.48717 13.5028 5.58448 12.755 8.0333L12.9229 8.05523L12.755 8.03332C12.4344 9.08352 12.2619 10.1984 12.2619 11.3535V25.8861C12.2619 31.6818 16.6045 36.4632 22.214 37.1538L22.2139 37.154C22.6729 37.2106 23.1408 37.2397 23.6154 37.2397C25.6689 37.2397 27.595 36.6945 29.257 35.7411L17.8587 43.14C17.6383 43.2944 17.4122 43.4411 17.1807 43.5798L16.8033 43.8248L16.7838 43.8068C15.1707 44.687 13.3206 45.1872 11.3536 45.1872C5.08317 45.1872 0 40.104 0 33.8336V19.301C0 15.0837 2.29936 11.4035 5.7128 9.44561L17.1059 2.05017Z" fill="white"/>
</mask>
<g mask="url(#mask0)">
<path d="M17.1059 2.05017C15.056 3.48717 13.5028 5.58448 12.755 8.0333L12.9229 8.05523L12.755 8.03332C12.4344 9.08352 12.2619 10.1984 12.2619 11.3535V25.8861C12.2619 31.6818 16.6045 36.4632 22.214 37.1538L22.2139 37.154C22.6729 37.2106 23.1408 37.2397 23.6154 37.2397C25.6689 37.2397 27.595 36.6945 29.257 35.7411L17.8587 43.14C17.6383 43.2944 17.4122 43.4411 17.1807 43.5798L16.8033 43.8248L16.7838 43.8068C15.1707 44.687 13.3206 45.1872 11.3536 45.1872C5.08317 45.1872 0 40.104 0 33.8336V19.301C0 15.0837 2.29936 11.4035 5.7128 9.44561L17.1059 2.05017Z" fill="#011E41"/>
<path fill-rule="evenodd" clip-rule="evenodd" d="M-5.26628 31.6765L17.4409 16.2356L23.6854 -14.3055L-6.06103 -2.95639e-05L-10.1483 16.3491L-5.26628 31.6765Z" fill="#95D4E9"/>
<path fill-rule="evenodd" clip-rule="evenodd" d="M-3.56885 29.4192L15.0249 17.3443L15.6715 18.5489L-3.1857 30.7949L-3.56885 29.4192Z" fill="white"/>
</g>
<mask id="mask1" mask-type="alpha" maskUnits="userSpaceOnUse" x="0" y="2" width="30" height="44">
<path d="M17.1059 2.05017C15.056 3.48717 13.5028 5.58448 12.755 8.0333L12.9229 8.05523L12.755 8.03332C12.4344 9.08352 12.2619 10.1984 12.2619 11.3535V25.8861C12.2619 31.6818 16.6045 36.4632 22.214 37.1538L22.2139 37.154C22.6729 37.2106 23.1408 37.2397 23.6154 37.2397C25.6689 37.2397 27.595 36.6945 29.257 35.7411L17.8587 43.14C17.6383 43.2944 17.4122 43.4411 17.1807 43.5798L16.8033 43.8248L16.7838 43.8068C15.1707 44.687 13.3206 45.1872 11.3536 45.1872C5.08317 45.1872 0 40.104 0 33.8336V19.301C0 15.0837 2.29936 11.4035 5.7128 9.44561L17.1059 2.05017Z" fill="white"/>
</mask>
<g mask="url(#mask1)">
<path d="M17.1059 2.05017C15.056 3.48717 13.5028 5.58448 12.755 8.0333L12.9229 8.05523L12.755 8.03332C12.4344 9.08352 12.2619 10.1984 12.2619 11.3535V25.8861C12.2619 31.6818 16.6045 36.4632 22.214 37.1538L22.2139 37.154C22.6729 37.2106 23.1408 37.2397 23.6154 37.2397C25.6689 37.2397 27.595 36.6945 29.257 35.7411L17.8587 43.14C17.6383 43.2944 17.4122 43.4411 17.1807 43.5798L16.8033 43.8248L16.7838 43.8068C15.1707 44.687 13.3206 45.1872 11.3536 45.1872C5.08317 45.1872 0 40.104 0 33.8336V19.301C0 15.0837 2.29936 11.4035 5.7128 9.44561L17.1059 2.05017Z" stroke="white" stroke-width="5.6304"/>
</g>
<mask id="mask2" mask-type="alpha" maskUnits="userSpaceOnUse" x="12" y="0" width="24" height="38">
<path d="M23.6465 0C29.917 0 35.0001 5.08317 35.0001 11.3536V25.8862C35.0001 32.1566 29.917 37.2397 23.6465 37.2397C23.2076 37.2397 22.7745 37.2148 22.3485 37.1664L22.2451 37.1539C22.5657 36.1037 22.7383 34.9888 22.7383 33.8337V19.3011C22.7383 13.5053 18.3955 8.72387 12.7861 8.03339C14.2063 3.38271 18.5314 0 23.6465 0Z" fill="white"/>
</mask>
<g mask="url(#mask2)">
<path d="M23.6465 0C29.917 0 35.0001 5.08317 35.0001 11.3536V25.8862C35.0001 32.1566 29.917 37.2397 23.6465 37.2397C23.2076 37.2397 22.7745 37.2148 22.3485 37.1664L22.2451 37.1539C22.5657 36.1037 22.7383 34.9888 22.7383 33.8337V19.3011C22.7383 13.5053 18.3955 8.72387 12.7861 8.03339C14.2063 3.38271 18.5314 0 23.6465 0Z" fill="#A1D683"/>
<path fill-rule="evenodd" clip-rule="evenodd" d="M18.0087 29.9735L38.4452 17.9387L36.8557 -4.31434L20.7336 -7.49335L13.4673 -5.4497L6.8822 1.57356e-05V8.62874C9.90982 11.8077 11.4236 13.3972 11.4236 13.3972C11.4236 13.3972 13.4673 15.668 17.5546 20.2094L18.0087 29.9735Z" fill="#6DBE4B"/>
<path fill-rule="evenodd" clip-rule="evenodd" d="M18.4569 29.4192L37.0507 17.3443L37.6973 18.5489L18.8401 30.7949L18.4569 29.4192Z" fill="white"/>
</g>
<mask id="mask3" mask-type="alpha" maskUnits="userSpaceOnUse" x="12" y="0" width="24" height="38">
<path d="M23.6465 0C29.917 0 35.0001 5.08317 35.0001 11.3536V25.8862C35.0001 32.1566 29.917 37.2397 23.6465 37.2397C23.2076 37.2397 22.7745 37.2148 22.3485 37.1664L22.2451 37.1539C22.5657 36.1037 22.7383 34.9888 22.7383 33.8337V19.3011C22.7383 13.5053 18.3955 8.72387 12.7861 8.03339C14.2063 3.38271 18.5314 0 23.6465 0Z" fill="white"/>
</mask>
<g mask="url(#mask3)">
<path d="M23.6465 0C29.917 0 35.0001 5.08317 35.0001 11.3536V25.8862C35.0001 32.1566 29.917 37.2397 23.6465 37.2397C23.2076 37.2397 22.7745 37.2148 22.3485 37.1664L22.2451 37.1539C22.5657 36.1037 22.7383 34.9888 22.7383 33.8337V19.3011C22.7383 13.5053 18.3955 8.72387 12.7861 8.03339C14.2063 3.38271 18.5314 0 23.6465 0Z" stroke="white" stroke-width="5.6304"/>
</g>
</g>
</svg>
