<svg width="70" height="70" viewBox="0 0 70 70" fill="none" xmlns="http://www.w3.org/2000/svg">
<!-- <circle cx="35" cy="35" r="35" fill="#2E2E2E"/> -->
<path opacity="0.6" d="M47.9415 26.1034C50.4707 26.1034 52.5024 24.0759 52.5024 21.5517C52.5024 19.0276 50.4707 17 47.9415 17C45.4122 17 43.3805 19.0276 43.3805 21.5517C43.3805 22.669 43.7951 23.6621 44.4171 24.4483L38.861 30.3655C38.0732 29.7034 37.0366 29.2897 35.9171 29.2897C34.7976 29.2897 33.8024 29.6621 33.0146 30.3241L27.4171 25.1517C27.6659 24.6966 27.8317 24.2 27.8317 23.6207C27.8317 21.9655 26.4634 20.6 24.8049 20.6C23.1463 20.6 21.778 21.9655 21.778 23.6207C21.778 25.2759 23.1463 26.6414 24.8049 26.6414C25.4683 26.6414 26.0902 26.3931 26.6293 26.0207L32.2268 31.1931C31.6878 31.9379 31.3976 32.8483 31.3976 33.8C31.3976 34.8759 31.7707 35.869 32.3927 36.6552L26.2146 43.1931C25.4683 42.6552 24.5561 42.3241 23.561 42.3241C21.0317 42.3241 19 44.3517 19 46.8759C19 49.4 21.0317 51.4276 23.561 51.4276C26.0902 51.4276 28.122 49.4 28.122 46.8759C28.122 45.8 27.7488 44.8069 27.1268 44.0207L33.2634 37.5241C33.9683 38.0621 34.8805 38.3517 35.8341 38.3931L36.622 45.5103C35.0878 45.9655 33.9683 47.331 33.9683 48.9862C33.9683 51.0138 35.5854 52.6276 37.6171 52.6276C39.6488 52.6276 41.2659 51.0138 41.2659 48.9862C41.2659 47.0414 39.7317 45.469 37.8244 45.3448L37.0366 38.269C37.8659 38.0621 38.6537 37.6069 39.2341 36.9862L44.9146 41.0828C44.7488 41.4552 44.6244 41.869 44.6244 42.3241C44.6244 43.9793 45.9927 45.3448 47.6512 45.3448C49.3098 45.3448 50.678 43.9793 50.678 42.3241C50.678 40.669 49.3098 39.3034 47.6512 39.3034C46.8634 39.3034 46.1585 39.5931 45.6195 40.0897L39.939 35.9931C40.2707 35.3724 40.478 34.6276 40.478 33.8414C40.478 32.8897 40.1878 32.0207 39.6902 31.2759L45.3293 25.3172C46.0756 25.8138 46.9463 26.1034 47.9415 26.1034Z" fill="currentColor"/>
</svg>
