<svg width="60" height="60" viewBox="0 0 60 60" fill="none" xmlns="http://www.w3.org/2000/svg">
<!-- <circle cx="30" cy="30" r="30" fill="#2E2E2E"/> -->
<path d="M30.0002 34.098C32.0578 34.098 33.7257 32.4301 33.7257 30.3726C33.7257 28.315 32.0578 26.6471 30.0002 26.6471C27.9427 26.6471 26.2747 28.315 26.2747 30.3726C26.2747 32.4301 27.9427 34.098 30.0002 34.098Z" fill="url(#paint0_linear)"/>
<path d="M46.7647 26.2745H45.6463C45.32 26.2745 45.0368 26.0674 44.9422 25.7596C44.5942 24.6264 44.1189 23.5355 43.5287 22.5177C43.3604 22.2279 43.408 21.8613 43.645 21.6251L44.4892 20.7802C44.9116 20.3584 45.1441 19.7966 45.1441 19.1991C45.1441 18.6022 44.9116 18.0404 44.4892 17.6187L42.382 15.5116C41.5378 14.6674 40.0648 14.6674 39.2206 15.5116L38.2661 16.4653C38.0336 16.6985 37.6827 16.7492 37.3929 16.5927C36.3929 16.0518 35.3401 15.6226 34.2627 15.3156C33.946 15.2255 33.7255 14.9334 33.7255 14.6055V13.2353C33.7255 12.0029 32.7226 11 31.4902 11H28.5098C27.2774 11 26.2745 12.0029 26.2745 13.2353V14.6055C26.2745 14.9334 26.054 15.2255 25.738 15.3156C24.6606 15.6226 23.6078 16.0518 22.6079 16.5927C22.3188 16.7484 21.9671 16.6978 21.7339 16.4653L20.7802 15.5116C19.9352 14.6674 18.4629 14.6674 17.6187 15.5116L15.5108 17.6187C15.0884 18.0404 14.8559 18.6022 14.8559 19.1991C14.8559 19.7966 15.0891 20.3584 15.5101 20.7794L16.355 21.6251C16.5912 21.8613 16.6389 22.2286 16.4713 22.5177C15.8811 23.5348 15.405 24.6256 15.0578 25.7589C14.9632 26.0674 14.68 26.2745 14.3537 26.2745H13.2353C12.0029 26.2745 11 27.2774 11 28.5098V31.4902C11 32.7226 12.0029 33.7255 13.2353 33.7255H14.1458C14.4826 33.7255 14.7762 33.9513 14.8589 34.2746C15.1711 35.4906 15.6315 36.6671 16.2261 37.7714C16.3796 38.0567 16.3267 38.4047 16.0942 38.6364L15.5116 39.2191C15.0891 39.6408 14.8566 40.2026 14.8566 40.8002C14.8566 41.397 15.0891 41.9588 15.5116 42.3806L17.6187 44.4877C18.4629 45.3319 19.936 45.3319 20.7802 44.4877L21.2518 44.016C21.4887 43.7798 21.8538 43.7314 22.1392 43.8968C23.2762 44.5607 24.4915 45.0771 25.75 45.4332C26.0584 45.5204 26.2745 45.8117 26.2745 46.1403V46.7647C26.2745 47.9971 27.2774 49 28.5098 49H31.4902C32.7226 49 33.7255 47.9971 33.7255 46.7647V46.1403C33.7255 45.8117 33.9416 45.5204 34.2508 45.4332C35.5093 45.0778 36.7245 44.5615 37.8615 43.8983C38.1462 43.7314 38.512 43.7806 38.7489 44.0168L39.2198 44.4884C40.0648 45.3326 41.5371 45.3326 42.3813 44.4884L44.4884 42.3813C44.9109 41.9596 45.1434 41.3978 45.1434 40.8009C45.1434 40.2034 44.9102 39.6416 44.4892 39.2206L43.9058 38.6372C43.6733 38.4047 43.6211 38.0575 43.7739 37.7721C44.3685 36.6679 44.8289 35.4906 45.1411 34.2754C45.2238 33.9513 45.5174 33.7262 45.8542 33.7262H46.7647C47.9971 33.7262 49 32.7233 49 31.4909V28.5105C49 27.2774 47.9971 26.2745 46.7647 26.2745ZM47.5098 31.4902C47.5098 31.9015 47.1753 32.2353 46.7647 32.2353H45.8542C44.8371 32.2353 43.9497 32.9215 43.6971 33.9036C43.4147 35.0033 42.999 36.0666 42.461 37.0658C41.9938 37.9346 42.1503 38.9896 42.8507 39.69L43.4349 40.2742C43.5749 40.4142 43.6524 40.6005 43.6524 40.8002C43.6524 40.9991 43.5749 41.1862 43.4341 41.327L41.327 43.4341C41.0453 43.715 40.5543 43.7165 40.2727 43.4341L39.801 42.9625C39.0865 42.2479 37.9807 42.1019 37.109 42.61C36.0807 43.2098 34.9825 43.677 33.8447 43.9974C32.8977 44.2664 32.2353 45.1471 32.2353 46.1403V46.7647C32.2353 47.176 31.9007 47.5098 31.4902 47.5098H28.5098C28.0993 47.5098 27.7647 47.176 27.7647 46.7647V46.1403C27.7647 45.1471 27.1023 44.2664 26.1538 43.9996C25.016 43.6778 23.9178 43.2106 22.8895 42.6108C22.5423 42.4089 22.1578 42.3105 21.7749 42.3105C21.1982 42.3105 20.6267 42.534 20.1975 42.964L19.7258 43.4356C19.4449 43.718 18.9539 43.7165 18.6723 43.4356L16.5651 41.3285C16.4243 41.1876 16.3468 41.0006 16.3468 40.8017C16.3468 40.602 16.4243 40.4157 16.5651 40.2749L17.1478 39.6915C17.8489 38.9911 18.0054 37.936 17.5375 37.0673C16.9995 36.0681 16.5838 35.0041 16.3014 33.9051C16.0488 32.923 15.1621 32.2368 14.1443 32.2368H13.2353C12.8247 32.2368 12.4902 31.903 12.4902 31.4917V28.5113C12.4902 28.1 12.8247 27.7662 13.2353 27.7662H14.3537C15.338 27.7662 16.1933 27.1358 16.4824 26.1978C16.7969 25.1733 17.2275 24.1875 17.761 23.2673C18.2677 22.3933 18.1231 21.2853 17.4101 20.573L16.5644 19.7266C16.4243 19.5865 16.3468 19.4002 16.3468 19.2005C16.3468 19.0016 16.4243 18.8146 16.5651 18.6738L18.673 16.5666C18.9539 16.2842 19.4449 16.2842 19.7266 16.5666L20.6803 17.5204C21.3822 18.223 22.4425 18.378 23.3172 17.9056C24.2218 17.4168 25.174 17.0278 26.1471 16.7507C27.0993 16.4772 27.7647 15.5958 27.7647 14.6055V13.2353C27.7647 12.824 28.0993 12.4902 28.5098 12.4902H31.4902C31.9007 12.4902 32.2353 12.824 32.2353 13.2353V14.6055C32.2353 15.5958 32.9007 16.4772 33.8536 16.7492C34.8267 17.0264 35.7782 17.4153 36.6835 17.9041C37.5583 18.3772 38.6178 18.2222 39.3197 17.5189L40.2742 16.5651C40.5551 16.2827 41.0461 16.2842 41.3277 16.5651L43.4349 18.6723C43.5757 18.8131 43.6532 19.0001 43.6532 19.1991C43.6532 19.3987 43.5757 19.585 43.4349 19.7258L42.5907 20.5715C41.8769 21.2838 41.7331 22.3918 42.2397 23.2658C42.7732 24.1853 43.2031 25.1718 43.5183 26.197C43.8067 27.1351 44.662 27.7647 45.6463 27.7647H46.7647C47.1753 27.7647 47.5098 28.0985 47.5098 28.5098V31.4902Z" fill="url(#paint1_linear)"/>
<path d="M25.5294 30.3726C25.5294 32.8381 27.5344 34.8431 30 34.8431C32.4655 34.8431 34.4706 32.8381 34.4706 30.3726C34.4706 27.907 32.4655 25.902 30 25.902C27.5344 25.902 25.5294 27.907 25.5294 30.3726ZM30 27.3922C31.6437 27.3922 32.9804 28.7289 32.9804 30.3726C32.9804 32.0162 31.6437 33.3529 30 33.3529C28.3563 33.3529 27.0196 32.0162 27.0196 30.3726C27.0196 28.7289 28.3563 27.3922 30 27.3922Z" fill="url(#paint2_linear)"/>
<path d="M32.3836 18.6894C32.1653 18.6484 31.9373 18.7021 31.7637 18.8429C31.5908 18.9852 31.4902 19.1968 31.4902 19.4204V24.0571C31.4902 24.373 31.6891 24.6547 31.9872 24.759C34.329 25.5875 35.9243 27.8124 35.9571 30.2943C35.96 30.5059 36.0517 30.7064 36.2111 30.8449L40.1639 34.3104C40.3017 34.4311 40.4761 34.4952 40.6549 34.4952C40.722 34.4952 40.789 34.4862 40.8553 34.4676C41.0975 34.3998 41.2897 34.215 41.3657 33.9751C41.7346 32.8083 41.9216 31.596 41.9216 30.3726C41.9216 24.7262 37.91 19.8123 32.3836 18.6894ZM40.2339 32.391L37.4339 29.9359C37.2692 27.1478 35.5316 24.6673 32.9797 23.5504V20.3733C37.3474 21.6735 40.4306 25.741 40.4306 30.3726C40.4314 31.0521 40.3651 31.7271 40.2339 32.391Z" fill="url(#paint3_linear)"/>
<path d="M35.5377 34.2187C35.3895 34.0883 35.1965 34.0235 34.9968 34.0354C34.7993 34.0489 34.6153 34.1398 34.4849 34.2888C33.3501 35.5882 31.7154 36.3333 30.0002 36.3333C28.4221 36.3333 26.9348 35.7216 25.8105 34.6099C25.5326 34.335 25.0892 34.3216 24.7957 34.5794L21.4353 37.5262C21.2825 37.6603 21.1909 37.8511 21.1819 38.0538C21.173 38.2564 21.2475 38.4546 21.3876 38.6007C23.6624 40.9827 26.721 42.2941 30.0002 42.2941C33.4284 42.2941 36.6956 40.8076 38.9652 38.2147C39.2364 37.9047 39.2051 37.4346 38.8959 37.1634L35.5377 34.2187ZM30.0002 40.8039C27.3923 40.8039 24.9432 39.8554 23.0231 38.1163L25.28 36.1374C26.6092 37.2289 28.2611 37.8235 30.0002 37.8235C31.8957 37.8235 33.7122 37.0963 35.0884 35.8065L37.3342 37.7758C35.3835 39.7086 32.7503 40.8039 30.0002 40.8039Z" fill="url(#paint4_linear)"/>
<path d="M24.0645 30.8576C24.0518 30.6974 24.0391 30.5365 24.0391 30.3725C24.0391 27.8563 25.6366 25.6009 28.0127 24.759C28.3108 24.6539 28.5097 24.3723 28.5097 24.0563V19.4196C28.5097 19.1961 28.4091 18.9845 28.2363 18.8429C28.0627 18.7013 27.8354 18.6477 27.6164 18.6894C22.09 19.8123 18.0784 24.7262 18.0784 30.3725C18.0784 31.7689 18.3302 33.1585 18.8279 34.5034C18.9129 34.7336 19.1058 34.9072 19.3435 34.9676C19.4039 34.9832 19.4657 34.9899 19.5268 34.9899C19.7056 34.9899 19.8807 34.9258 20.0178 34.8051L23.8126 31.4775C23.99 31.3218 24.0831 31.0923 24.0645 30.8576ZM19.8949 32.9312C19.6781 32.0878 19.5685 31.2309 19.5685 30.3725C19.5685 25.741 22.6518 21.6735 27.0195 20.3733V23.5504C24.3245 24.7269 22.5489 27.4048 22.5489 30.3725C22.5489 30.4493 22.5504 30.5245 22.5542 30.5998L19.8949 32.9312Z" fill="url(#paint5_linear)"/>
<defs>
<linearGradient id="paint0_linear" x1="30.0002" y1="26.6471" x2="30.0002" y2="34.098" gradientUnits="userSpaceOnUse">
<stop stop-color="#007FEE"/>
<stop offset="1" stop-color="#30B253"/>
</linearGradient>
<linearGradient id="paint1_linear" x1="30" y1="8.70137" x2="30" y2="51.245" gradientUnits="userSpaceOnUse">
<stop stop-color="#007FEE"/>
<stop offset="1" stop-color="#30B253"/>
</linearGradient>
<linearGradient id="paint2_linear" x1="30" y1="8.70137" x2="30" y2="51.245" gradientUnits="userSpaceOnUse">
<stop stop-color="#007FEE"/>
<stop offset="1" stop-color="#30B253"/>
</linearGradient>
<linearGradient id="paint3_linear" x1="36.7059" y1="8.70137" x2="36.7059" y2="51.245" gradientUnits="userSpaceOnUse">
<stop stop-color="#008FEC"/>
<stop offset="1" stop-color="#30B253"/>
</linearGradient>
<linearGradient id="paint4_linear" x1="30.1656" y1="8.70137" x2="30.1656" y2="51.245" gradientUnits="userSpaceOnUse">
<stop stop-color="#007FEE"/>
<stop offset="0.484467" stop-color="#1798A3"/>
<stop offset="1" stop-color="#30B253"/>
</linearGradient>
<linearGradient id="paint5_linear" x1="23.294" y1="8.70137" x2="23.294" y2="51.245" gradientUnits="userSpaceOnUse">
<stop stop-color="#007FEE"/>
<stop offset="1" stop-color="#30B253"/>
</linearGradient>
</defs>
</svg>
