<svg width="65" height="60" viewBox="0 0 65 60" fill="none" xmlns="http://www.w3.org/2000/svg">
<!-- <circle cx="30" cy="30" r="30" fill="#2E2E2E"/> -->
<path d="M46.1576 36.1856C44.222 34.2513 41.3335 33.8474 38.9925 34.9605L38.2378 34.2058C37.6169 33.5855 36.6375 33.4574 35.8597 33.8082L31.8169 29.7653C31.6944 29.6428 31.5572 29.5413 31.4214 29.4398C31.5579 29.3383 31.6951 29.2368 31.8169 29.1143L35.7932 25.1379C36.0775 25.273 36.3834 25.3486 36.6921 25.3486C37.2305 25.3486 37.7681 25.1435 38.1776 24.734L38.9309 23.9807C39.7682 24.3812 40.6881 24.5996 41.6429 24.5996C43.3252 24.5996 44.908 23.9436 46.0974 22.7535C48.5539 20.297 48.5539 16.2997 46.0974 13.8432C43.6409 11.3867 39.6436 11.3846 37.1871 13.8432C35.997 15.0326 35.341 16.6154 35.341 18.2976C35.341 19.2532 35.5594 20.1731 35.9599 21.0104L35.2066 21.7629C34.5618 22.4077 34.433 23.3675 34.8027 24.1473L30.8263 28.1237C30.4301 28.5213 29.9029 28.7397 29.3415 28.7397H28.2725C27.9827 27.927 27.2126 27.3396 26.3011 27.3396H25.2335C24.3662 24.8964 22.0378 23.1393 19.3005 23.1393C15.8261 23.1393 13 25.9654 13 29.4398C13 32.9142 15.8261 35.7403 19.3005 35.7403C22.0378 35.7403 24.3662 33.9832 25.2335 31.54H26.3011C27.2126 31.54 27.9827 30.9526 28.2725 30.1399H29.3415C29.9029 30.1399 30.4308 30.359 30.827 30.7552L34.8622 34.7904C34.7291 35.069 34.6521 35.3728 34.6521 35.6906C34.6521 36.2521 34.8713 36.7799 35.2675 37.1755L36.0222 37.9301C34.9084 40.2711 35.3116 43.1603 37.2473 45.0959C38.4759 46.3238 40.0895 46.9378 41.7024 46.9378C43.3154 46.9378 44.929 46.3238 46.1576 45.0959C48.6141 42.6387 48.6141 38.6428 46.1576 36.1856ZM38.1776 14.8338C39.1325 13.8789 40.3877 13.4007 41.6422 13.4007C42.8974 13.4007 44.1526 13.8789 45.1075 14.8338C47.018 16.7442 47.018 19.8532 45.1075 21.7636C44.1821 22.6891 42.9513 23.1995 41.6429 23.1995C40.3338 23.1995 39.1031 22.6891 38.1776 21.7636C37.2522 20.8382 36.7418 19.6075 36.7418 18.2983C36.7418 16.9899 37.2522 15.7592 38.1776 14.8338ZM37.1878 22.7535C37.3544 22.9201 37.5308 23.0742 37.7121 23.2198L37.1878 23.7441C36.9224 24.0087 36.4625 24.008 36.1972 23.7441C35.9242 23.4704 35.9242 23.0273 36.1972 22.7535L36.7222 22.2292C36.8671 22.4105 37.0211 22.5869 37.1878 22.7535ZM19.3005 34.3402C16.599 34.3402 14.4001 32.1413 14.4001 29.4398C14.4001 26.7383 16.599 24.5394 19.3005 24.5394C22.0021 24.5394 24.201 26.7383 24.201 29.4398C24.201 32.1413 22.0021 34.3402 19.3005 34.3402ZM26.3011 30.1399H25.5598C25.5857 29.9095 25.6011 29.6764 25.6011 29.4398C25.6011 29.2032 25.5857 28.9701 25.5598 28.7397H26.3011C26.6876 28.7397 27.0012 29.0534 27.0012 29.4398C27.0012 29.8262 26.6876 30.1399 26.3011 30.1399ZM36.2574 36.1849C36.1251 36.0533 36.0523 35.8782 36.0523 35.6906C36.0523 35.5037 36.1251 35.328 36.2574 35.1957C36.5234 34.9318 36.9826 34.9311 37.2473 35.1957L37.7716 35.72C37.591 35.8649 37.4146 36.0183 37.2473 36.1856C37.0799 36.3529 36.9266 36.5286 36.7817 36.7099L36.2574 36.1849ZM45.1677 44.106C43.2573 46.0165 40.1476 46.0165 38.2371 44.106C36.3267 42.1956 36.3267 39.0859 38.2371 37.1755C40.1483 35.265 43.258 35.265 45.1677 37.1755C47.0782 39.0859 47.0782 42.1956 45.1677 44.106Z" fill="url(#paint0_linear)"/>
<path d="M41.7024 21.7391C42.6377 21.7391 43.517 21.3744 44.1772 20.7136C44.838 20.0534 45.2027 19.1741 45.2027 18.2388C45.2027 17.3036 44.838 16.4243 44.1772 15.7641C43.517 15.1033 42.6377 14.7385 41.7024 14.7385C40.7672 14.7385 39.8879 15.1033 39.2277 15.7641C38.5669 16.4243 38.2021 17.3036 38.2021 18.2388C38.2021 19.1741 38.5669 20.0527 39.2277 20.7136C39.8886 21.3744 40.7672 21.7391 41.7024 21.7391ZM40.2176 16.754C40.6139 16.3578 41.141 16.1387 41.7024 16.1387C42.2639 16.1387 42.791 16.3578 43.1873 16.754C43.5835 17.1502 43.8026 17.6774 43.8026 18.2388C43.8026 18.8003 43.5835 19.3274 43.1873 19.7237C42.3941 20.5168 41.0108 20.5168 40.2176 19.7237C39.8214 19.3274 39.6023 18.8003 39.6023 18.2388C39.6023 17.6774 39.8214 17.1502 40.2176 16.754Z" fill="url(#paint1_linear)"/>
<path d="M44.1772 38.166C43.517 37.5052 42.6377 37.1405 41.7024 37.1405C40.7672 37.1405 39.8886 37.5052 39.2277 38.166C38.5669 38.8269 38.2021 39.7055 38.2021 40.6407C38.2021 41.576 38.5669 42.4553 39.2277 43.1155C39.8879 43.7763 40.7672 44.141 41.7024 44.141C42.6377 44.141 43.517 43.7763 44.1772 43.1155C44.838 42.4553 45.2027 41.576 45.2027 40.6407C45.2027 39.7055 44.838 38.8262 44.1772 38.166ZM43.1873 42.1256C42.3941 42.9187 41.0108 42.9187 40.2176 42.1256C39.8214 41.7293 39.6023 41.2022 39.6023 40.6407C39.6023 40.0793 39.8214 39.5522 40.2176 39.1559C40.6139 38.7597 41.141 38.5406 41.7024 38.5406C42.2639 38.5406 42.791 38.7597 43.1873 39.1559C43.5835 39.5522 43.8026 40.0793 43.8026 40.6407C43.8026 41.2022 43.5842 41.7293 43.1873 42.1256Z" fill="url(#paint2_linear)"/>
<path d="M19.3005 33.0018C21.2337 33.0018 22.8008 31.4346 22.8008 29.5015C22.8008 27.5683 21.2337 26.0012 19.3005 26.0012C17.3674 26.0012 15.8002 27.5683 15.8002 29.5015C15.8002 31.4346 17.3674 33.0018 19.3005 33.0018Z" fill="url(#paint3_linear)"/>
<defs>
<linearGradient id="paint0_linear" x1="30.5001" y1="9.43559" x2="30.5001" y2="42.9838" gradientUnits="userSpaceOnUse">
<stop stop-color="#007FEE"/>
<stop offset="1" stop-color="#30B253"/>
</linearGradient>
<linearGradient id="paint1_linear" x1="41.7024" y1="9.43559" x2="41.7024" y2="42.9838" gradientUnits="userSpaceOnUse">
<stop stop-color="#007FEE"/>
<stop offset="1" stop-color="#30B253"/>
</linearGradient>
<linearGradient id="paint2_linear" x1="41.7024" y1="9.43559" x2="41.7024" y2="42.9838" gradientUnits="userSpaceOnUse">
<stop stop-color="#007FEE"/>
<stop offset="1" stop-color="#30B253"/>
</linearGradient>
<linearGradient id="paint3_linear" x1="19.3005" y1="26.0313" x2="19.3005" y2="32.1974" gradientUnits="userSpaceOnUse">
<stop stop-color="#007FEE"/>
<stop offset="1" stop-color="#30B253"/>
</linearGradient>
</defs>
</svg>
