<svg width="70" height="70" viewBox="0 0 70 70" fill="none" xmlns="http://www.w3.org/2000/svg">
<!-- <circle cx="35" cy="35" r="35" fill="#2E2E2E"/> -->
<path fill-rule="evenodd" clip-rule="evenodd" d="M51.8441 21.281C51.6946 21.4067 51.4914 21.4407 51.3111 21.3701C49.3727 20.6198 47.272 20.4311 45.237 20.8245C44.9388 20.8798 44.6536 20.6755 44.5999 20.368C44.5463 20.0606 44.7445 19.7665 45.0427 19.7112C47.273 19.287 49.5735 19.5007 51.6944 20.3291C51.8748 20.3997 52.0049 20.5641 52.0358 20.7605C52.0666 20.9568 51.9936 21.1552 51.8441 21.281ZM54.8753 23.2865C54.6742 23.3518 54.4546 23.2903 54.313 23.1291C53.9943 22.8737 53.6627 22.6359 53.3196 22.4166C53.091 22.2442 53.0304 21.9189 53.1809 21.6715C53.3315 21.4241 53.6418 21.3386 53.8919 21.4758C54.2747 21.724 54.6442 21.9935 54.9987 22.283C55.1777 22.398 55.2754 22.6098 55.2489 22.8255C55.2224 23.0412 55.0765 23.2212 54.8753 23.2865Z" fill="currentColor"/>
<path d="M47.8857 16C43.4859 16 39.2783 17.7681 36.244 20.8921V16.5436C36.244 16.2434 35.9958 16 35.6896 16C35.3835 16 35.1353 16.2434 35.1353 16.5436V22.0227C35.1353 22.3229 35.3835 22.5662 35.6896 22.5662H41.2333C41.5395 22.5662 41.7877 22.3229 41.7877 22.0227C41.7877 21.7225 41.5395 21.4791 41.2333 21.4791H37.2086C41.8742 16.8215 49.1167 15.7457 54.9799 18.8393C60.8431 21.9328 63.9174 28.452 62.5234 34.8357C61.1294 41.2194 55.6023 45.9328 48.9612 46.4013C48.655 46.4118 48.4155 46.6637 48.4262 46.9639C48.4369 47.2641 48.6938 47.4989 49 47.4884H49.0388C57.6868 46.8985 64.3005 39.692 63.9894 31.1976C63.6783 22.7032 56.5546 15.9803 47.8857 16Z" fill="currentColor"/>
<path fill-rule="evenodd" clip-rule="evenodd" d="M9 22.2741C9 21.0641 9.99 20.0741 11.2 20.0741H30.2667C31.4767 20.0741 32.4667 21.0641 32.4667 22.2741V34.7407H43.4667C44.6767 34.7407 45.6667 35.7307 45.6667 36.9407V56.0074C45.6667 57.2174 44.6767 58.2074 43.4667 58.2074H24.4C23.19 58.2074 22.2 57.2174 22.2 56.0074V43.5407H11.2C9.99 43.5407 9 42.5507 9 41.3407V22.2741ZM30.2669 21.5408H11.2002C10.7969 21.5408 10.4669 21.8708 10.4669 22.2741V41.3408C10.4669 41.7441 10.7969 42.0741 11.2002 42.0741H30.2669C30.6702 42.0741 31.0002 41.7441 31.0002 41.3408V22.2741C31.0002 21.8708 30.6702 21.5408 30.2669 21.5408ZM12.6666 23.7407C12.2618 23.7407 11.9333 24.0693 11.9333 24.4741C11.9333 24.8789 12.2618 25.2074 12.6666 25.2074H14.1333C14.5381 25.2074 14.8666 24.8789 14.8666 24.4741C14.8666 24.0693 14.5381 23.7407 14.1333 23.7407H12.6666ZM11.9333 28.1408C11.9333 27.736 12.2618 27.4074 12.6666 27.4074H14.1333C14.5381 27.4074 14.8666 27.736 14.8666 28.1408C14.8666 28.5456 14.5381 28.8741 14.1333 28.8741H12.6666C12.2618 28.8741 11.9333 28.5456 11.9333 28.1408ZM12.6666 31.0741C12.2618 31.0741 11.9333 31.4026 11.9333 31.8074C11.9333 32.2122 12.2618 32.5408 12.6666 32.5408H14.1333C14.5381 32.5408 14.8666 32.2122 14.8666 31.8074C14.8666 31.4026 14.5381 31.0741 14.1333 31.0741H12.6666ZM11.9333 35.4741C11.9333 35.0693 12.2618 34.7408 12.6666 34.7408H14.1333C14.5381 34.7408 14.8666 35.0693 14.8666 35.4741C14.8666 35.8789 14.5381 36.2074 14.1333 36.2074H12.6666C12.2618 36.2074 11.9333 35.8789 11.9333 35.4741ZM32.4668 36.2074H43.4668C43.8701 36.2074 44.2001 36.5374 44.2001 36.9408V56.0074C44.2001 56.4108 43.8701 56.7408 43.4668 56.7408H24.4001C23.9968 56.7408 23.6668 56.4108 23.6668 56.0074V43.5408H30.2668C31.4768 43.5408 32.4668 42.5508 32.4668 41.3408V36.2074ZM11.9333 39.1408C11.9333 38.736 12.2618 38.4074 12.6666 38.4074H14.1333C14.5381 38.4074 14.8666 38.736 14.8666 39.1408C14.8666 39.5456 14.5381 39.8741 14.1333 39.8741H12.6666C12.2618 39.8741 11.9333 39.5456 11.9333 39.1408Z" fill="currentColor"/>
</svg>
