<?xml version="1.0" encoding="UTF-8"?>
<svg width="37px" height="37px" viewBox="0 0 37 37" version="1.1" xmlns="http://www.w3.org/2000/svg" xmlns:xlink="http://www.w3.org/1999/xlink">
    <!-- Generator: Sketch 60 (88103) - https://sketch.com -->
    <title>icons8-phishing</title>
    <desc>Created with Sketch.</desc>
    <g id="Feature-Platform" stroke="none" stroke-width="1" fill="none" fill-rule="evenodd">
        <g id="NEW-DASHBOARD-V3" transform="translate(-1008.000000, -989.000000)" fill-rule="nonzero">
            <g id="icons8-phishing" transform="translate(1008.000000, 989.000000)">
                <g id="Group">
                    <path d="M6.72727273,36.4113636 C3.34261364,36.4113636 0.588636364,33.6513843 0.588636364,30.2574697 L0.588636364,6.65349288 C0.588636364,3.26042122 3.34177273,0.49959893 6.72727273,0.49959893 L30.2727273,0.49959893 C33.6573864,0.49959893 36.4113636,3.25957822 36.4113636,6.65349288 L36.4113636,30.2574697 C36.4113636,33.6505413 33.6582273,36.4113636 30.2727273,36.4113636 L6.72727273,36.4113636 Z" id="Path"></path>
                    <path d="M30.2727273,1.17727273 C33.3327955,1.17727273 35.8227273,3.66720455 35.8227273,6.72727273 L35.8227273,30.2727273 C35.8227273,33.3327955 33.3327955,35.8227273 30.2727273,35.8227273 L6.72727273,35.8227273 C3.66720455,35.8227273 1.17727273,33.3327955 1.17727273,30.2727273 L1.17727273,6.72727273 C1.17727273,3.66720455 3.66720455,1.17727273 6.72727273,1.17727273 L30.2727273,1.17727273 M30.2727273,0 L6.72727273,0 C3.01213636,0 0,3.01213636 0,6.72727273 L0,30.2727273 C0,33.9878636 3.01213636,37 6.72727273,37 L30.2727273,37 C33.9878636,37 37,33.9878636 37,30.2727273 L37,6.72727273 C37,3.01213636 33.9878636,0 30.2727273,0 L30.2727273,0 Z" id="Shape" fill="#007FEE"></path>
                </g>
                <path d="M31.9024091,6.67513636 L28.6438864,6.67513636 C28.4117955,6.67513636 28.2234318,6.48677273 28.2234318,6.25468182 C28.2234318,6.02259091 28.4117955,5.83422727 28.6438864,5.83422727 L31.9024091,5.83422727 C32.1345,5.83422727 32.3228636,6.02259091 32.3228636,6.25468182 C32.3228636,6.48677273 32.1345,6.67513636 31.9024091,6.67513636 Z" id="Path" fill="#007FEE"></path>
                <path d="M26.0261364,6.67513636 L0.851840909,6.67513636 C0.61975,6.67513636 0.431386364,6.48677273 0.431386364,6.25468182 C0.431386364,6.02259091 0.61975,5.83422727 0.851840909,5.83422727 L26.0261364,5.83422727 C26.2582273,5.83422727 26.4465909,6.02259091 26.4465909,6.25468182 C26.4465909,6.48677273 26.2590682,6.67513636 26.0261364,6.67513636 Z" id="Path" fill="#007FEE"></path>
                <path d="M36.1069545,6.67513636 L34.4251364,6.67513636 C34.1930455,6.67513636 34.0046818,6.48677273 34.0046818,6.25468182 C34.0046818,6.02259091 34.1930455,5.83422727 34.4251364,5.83422727 L36.1069545,5.83422727 C36.3390455,5.83422727 36.5274091,6.02259091 36.5274091,6.25468182 C36.5274091,6.48677273 36.3390455,6.67513636 36.1069545,6.67513636 Z" id="Path" fill="#007FEE"></path>
                <g id="Group" transform="translate(5.045455, 1.681818)" fill="#007FEE">
                    <path d="M1.94502273,3.27365909 C1.22015909,3.27365909 0.629840909,2.68334091 0.629840909,1.95847727 C0.629840909,1.23277273 1.22015909,0.643295455 1.94502273,0.643295455 C2.66988636,0.643295455 3.26020455,1.23361364 3.26020455,1.95847727 C3.26020455,2.68334091 2.66988636,3.27365909 1.94502273,3.27365909 Z M1.94502273,1.147 C1.49765909,1.147 1.13354545,1.51111364 1.13354545,1.95847727 C1.13354545,2.40584091 1.49765909,2.76995455 1.94502273,2.76995455 C2.39238636,2.76995455 2.7565,2.40584091 2.7565,1.95847727 C2.7565,1.51111364 2.39238636,1.147 1.94502273,1.147 Z" id="Shape"></path>
                    <path d="M5.66688636,3.27365909 C4.94202273,3.27365909 4.35254545,2.68334091 4.35254545,1.95847727 C4.35254545,1.23277273 4.94202273,0.643295455 5.66688636,0.643295455 C6.39175,0.643295455 6.98206818,1.23361364 6.98206818,1.95847727 C6.98206818,2.68334091 6.39175,3.27365909 5.66688636,3.27365909 Z M5.66688636,1.147 C5.22036364,1.147 4.85625,1.51111364 4.85625,1.95847727 C4.85625,2.40584091 5.22036364,2.76995455 5.66688636,2.76995455 C6.11425,2.76995455 6.47836364,2.40584091 6.47836364,1.95847727 C6.47836364,1.51111364 6.11425,1.147 5.66688636,1.147 Z" id="Shape"></path>
                    <path d="M9.38959091,3.27365909 C8.66472727,3.27365909 8.07440909,2.68334091 8.07440909,1.95847727 C8.07440909,1.23277273 8.66472727,0.643295455 9.38959091,0.643295455 C10.1144545,0.643295455 10.7039318,1.23361364 10.7039318,1.95847727 C10.7039318,2.68334091 10.1144545,3.27365909 9.38959091,3.27365909 Z M9.38959091,1.147 C8.94222727,1.147 8.57811364,1.51111364 8.57811364,1.95847727 C8.57811364,2.40584091 8.94222727,2.76995455 9.38959091,2.76995455 C9.83611364,2.76995455 10.2002273,2.40584091 10.2002273,1.95847727 C10.1993864,1.51111364 9.83611364,1.147 9.38959091,1.147 Z" id="Shape"></path>
                </g>
                <path d="M13.4545455,12.5615 L5.05554545,12.5615 C4.82345455,12.5615 4.63509091,12.3731364 4.63509091,12.1410455 C4.63509091,11.9089545 4.82345455,11.7205909 5.05554545,11.7205909 L13.4545455,11.7205909 C13.6866364,11.7205909 13.875,11.9089545 13.875,12.1410455 C13.875,12.3731364 13.6866364,12.5615 13.4545455,12.5615 Z" id="Path" fill="#007FEE"></path>
                <path d="M13.4545455,16.7660455 L5.05554545,16.7660455 C4.82345455,16.7660455 4.63509091,16.5776818 4.63509091,16.3455909 C4.63509091,16.1135 4.82345455,15.9251364 5.05554545,15.9251364 L13.4545455,15.9251364 C13.6866364,15.9251364 13.875,16.1135 13.875,16.3455909 C13.875,16.5776818 13.6866364,16.7660455 13.4545455,16.7660455 Z" id="Path" fill="#007FEE"></path>
                <path d="M13.4545455,20.9705909 L5.05554545,20.9705909 C4.82345455,20.9705909 4.63509091,20.7822273 4.63509091,20.5501364 C4.63509091,20.3180455 4.82345455,20.1296818 5.05554545,20.1296818 L13.4545455,20.1296818 C13.6866364,20.1296818 13.875,20.3180455 13.875,20.5501364 C13.875,20.7822273 13.6866364,20.9705909 13.4545455,20.9705909 Z" id="Path" fill="#007FEE"></path>
                <path d="M13.4545455,25.1751364 L5.05554545,25.1751364 C4.82345455,25.1751364 4.63509091,24.9867727 4.63509091,24.7546818 C4.63509091,24.5225909 4.82345455,24.3342273 5.05554545,24.3342273 L13.4545455,24.3342273 C13.6866364,24.3342273 13.875,24.5225909 13.875,24.7546818 C13.875,24.9867727 13.6866364,25.1751364 13.4545455,25.1751364 Z" id="Path" fill="#007FEE"></path>
                <path d="M13.4545455,29.3796818 L5.05554545,29.3796818 C4.82345455,29.3796818 4.63509091,29.1913182 4.63509091,28.9592273 C4.63509091,28.7271364 4.82345455,28.5387727 5.05554545,28.5387727 L13.4545455,28.5387727 C13.6866364,28.5387727 13.875,28.7271364 13.875,28.9592273 C13.875,29.1913182 13.6866364,29.3796818 13.4545455,29.3796818 Z" id="Path" fill="#007FEE"></path>
                <path d="M24.8068182,33.2159091 C21.0975682,33.2159091 18.0795455,30.1978864 18.0795455,26.4886364 L18.0795455,23.9659091 C18.0795455,23.5017273 18.4554318,23.125 18.9204545,23.125 C19.3854773,23.125 19.7613636,23.5017273 19.7613636,23.9659091 L19.7613636,26.4886364 C19.7613636,29.2712045 22.02425,31.5340909 24.8068182,31.5340909 C27.5893864,31.5340909 29.8522727,29.2712045 29.8522727,26.4886364 L29.8522727,13.875 C29.8522727,13.4108182 30.2281591,13.0340909 30.6931818,13.0340909 C31.1582045,13.0340909 31.5340909,13.4108182 31.5340909,13.875 L31.5340909,26.4886364 C31.5340909,30.1978864 28.5160682,33.2159091 24.8068182,33.2159091 Z" id="Path" fill="#30B253"></path>
                <g id="Group" transform="translate(17.659091, 15.977273)">
                    <polygon id="Path" fill="#1C3257" points="1.26136364 4.625 1.26136364 7.65227273 2.94318182 8.40909091"></polygon>
                    <polygon id="Path" fill="#30B253" points="4.60565909 10.0791364 0.420454545 8.19634091 0.420454545 0.662636364"></polygon>
                </g>
                <path d="M30.6931818,14.2954545 C29.0702273,14.2954545 27.75,12.9752273 27.75,11.3522727 C27.75,9.72931818 29.0702273,8.40909091 30.6931818,8.40909091 C32.3161364,8.40909091 33.6363636,9.72931818 33.6363636,11.3522727 C33.6363636,12.9752273 32.3161364,14.2954545 30.6931818,14.2954545 Z M30.6931818,10.0909091 C29.99775,10.0909091 29.4318182,10.6568409 29.4318182,11.3522727 C29.4318182,12.0477045 29.99775,12.6136364 30.6931818,12.6136364 C31.3886136,12.6136364 31.9545455,12.0477045 31.9545455,11.3522727 C31.9545455,10.6568409 31.3886136,10.0909091 30.6931818,10.0909091 Z" id="Shape" fill="#30B253"></path>
            </g>
        </g>
    </g>
</svg>
