<?xml version="1.0" encoding="UTF-8"?>
<svg width="51px" height="47px" viewBox="0 0 51 47" version="1.1" xmlns="http://www.w3.org/2000/svg" xmlns:xlink="http://www.w3.org/1999/xlink">
    <!-- Generator: Sketch 60 (88103) - https://sketch.com -->
    <title>Group 20</title>
    <desc>Created with Sketch.</desc>
    <g id="Feature-Platform" stroke="none" stroke-width="1" fill="none" fill-rule="evenodd">
        <g id="NEW-DASHBOARD-V3-NEW-ICONS" transform="translate(-159.000000, -1005.000000)" fill-rule="nonzero">
            <g id="Group-20" transform="translate(159.000000, 1005.000000)">
                <g id="icons8-form">
                    <rect id="Rectangle" x="0.772921109" y="0.772921109" width="41.7377399" height="38.6460554" rx="2"></rect>
                    <rect id="Rectangle" x="16.2313433" y="14.6855011" width="18.5501066" height="6.18336887" rx="1"></rect>
                    <rect id="Rectangle" x="16.2313433" y="6.95628998" width="18.5501066" height="3.09168443" rx="1"></rect>
                    <path d="M40.9648188,7.81597009e-13 C42.2454364,7.81597009e-13 43.2835821,1.0381457 43.2835821,2.31876333 L43.2835821,2.31876333 L43.2841618,28.9800142 C42.8228476,28.5235651 42.3032937,28.1258606 41.7376433,27.7990437 L41.7377399,2.31876333 C41.7377399,1.89189079 41.3916913,1.54584222 40.9648188,1.54584222 L40.9648188,1.54584222 L2.31876333,1.54584222 C1.89189079,1.54584222 1.54584222,1.89189079 1.54584222,2.31876333 L1.54584222,2.31876333 L1.54584222,37.8731343 C1.54584222,38.3000069 1.89189079,38.6460554 2.31876333,38.6460554 L2.31876333,38.6460554 L31.6724306,38.6465629 C31.7922467,38.8222159 31.9192454,38.9925755 32.0530032,39.1572185 C32.3310998,39.5842422 32.6539336,39.9846522 33.0184385,40.3510087 L32.865,40.191 L2.31876333,40.1918977 C1.09150477,40.1918977 0.0869331001,39.2384618 0.00534945145,38.0318911 L1.38555833e-13,37.8731343 L1.38555833e-13,2.31876333 C1.38555833e-13,1.0381457 1.0381457,7.81597009e-13 2.31876333,7.81597009e-13 L2.31876333,7.81597009e-13 Z" id="Combined-Shape" fill="#007FEE"></path>
                    <path d="M7.72921109,34.0085288 C7.30233855,34.0085288 6.95628998,34.3545774 6.95628998,34.7814499 L6.95628998,36.3272921 C6.95628998,36.7541647 7.30233855,37.1002132 7.72921109,37.1002132 C8.15608363,37.1002132 8.5021322,36.7541647 8.5021322,36.3272921 L8.5021322,34.7814499 C8.5021322,34.3545774 8.15608363,34.0085288 7.72921109,34.0085288 Z M3.86460554,34.0085288 C3.437733,34.0085288 3.09168443,34.3545774 3.09168443,34.7814499 L3.09168443,36.3272921 C3.09168443,36.7541647 3.437733,37.1002132 3.86460554,37.1002132 C4.29147808,37.1002132 4.63752665,36.7541647 4.63752665,36.3272921 L4.63752665,34.7814499 C4.63752665,34.3545774 4.29147808,34.0085288 3.86460554,34.0085288 Z M19.3230277,34.0085288 C18.8961552,34.0085288 18.5501066,34.3545774 18.5501066,34.7814499 L18.5501066,36.3272921 C18.5501066,36.7541647 18.8961552,37.1002132 19.3230277,37.1002132 C19.7499003,37.1002132 20.0959488,36.7541647 20.0959488,36.3272921 L20.0959488,34.7814499 C20.0959488,34.3545774 19.7499003,34.0085288 19.3230277,34.0085288 Z M23.1876333,34.0085288 C22.7607607,34.0085288 22.4147122,34.3545774 22.4147122,34.7814499 L22.4147122,36.3272921 C22.4147122,36.7541647 22.7607607,37.1002132 23.1876333,37.1002132 C23.6145058,37.1002132 23.9605544,36.7541647 23.9605544,36.3272921 L23.9605544,34.7814499 C23.9605544,34.3545774 23.6145058,34.0085288 23.1876333,34.0085288 Z M27.0522388,34.0085288 C26.6253663,34.0085288 26.2793177,34.3545774 26.2793177,34.7814499 L26.2793177,36.3272921 C26.2793177,36.7541647 26.6253663,37.1002132 27.0522388,37.1002132 C27.4791113,37.1002132 27.8251599,36.7541647 27.8251599,36.3272921 L27.8251599,34.7814499 C27.8251599,34.3545774 27.4791113,34.0085288 27.0522388,34.0085288 Z M30.9168443,34.0085288 C30.4899718,34.0085288 30.1439232,34.3545774 30.1439232,34.7814499 L30.1439232,36.3272921 C30.1439232,36.7541647 30.4899718,37.1002132 30.9168443,37.1002132 C31.3437169,37.1002132 31.6897655,36.7541647 31.6897655,36.3272921 L31.6897655,34.7814499 C31.6897655,34.3545774 31.3437169,34.0085288 30.9168443,34.0085288 Z M11.5938166,34.0085288 C11.1669441,34.0085288 10.8208955,34.3545774 10.8208955,34.7814499 L10.8208955,36.3272921 C10.8208955,36.7541647 11.1669441,37.1002132 11.5938166,37.1002132 C12.0206892,37.1002132 12.3667377,36.7541647 12.3667377,36.3272921 L12.3667377,34.7814499 C12.3667377,34.3545774 12.0206892,34.0085288 11.5938166,34.0085288 Z M15.4584222,34.0085288 C15.0315496,34.0085288 14.6855011,34.3545774 14.6855011,34.7814499 L14.6855011,36.3272921 C14.6855011,36.7541647 15.0315496,37.1002132 15.4584222,37.1002132 C15.8852947,37.1002132 16.2313433,36.7541647 16.2313433,36.3272921 L16.2313433,34.7814499 C16.2313433,34.3545774 15.8852947,34.0085288 15.4584222,34.0085288 Z M34.7814499,24.7334755 L21.641791,24.7334755 C21.2149185,24.7334755 20.8688699,25.079524 20.8688699,25.5063966 C20.8688699,25.9332691 21.2149185,26.2793177 21.641791,26.2793177 L34.7814499,26.2793177 C35.2083224,26.2793177 35.554371,25.9332691 35.554371,25.5063966 C35.554371,25.079524 35.2083224,24.7334755 34.7814499,24.7334755 Z M31.6897655,27.8251599 L21.641791,27.8251599 C21.2149185,27.8251599 20.8688699,28.1712085 20.8688699,28.598081 C20.8688699,29.0249536 21.2149185,29.3710021 21.641791,29.3710021 L31.6897655,29.3710021 C32.116638,29.3710021 32.4626866,29.0249536 32.4626866,28.598081 C32.4626866,28.1712085 32.116638,27.8251599 31.6897655,27.8251599 Z M11.5938166,15.4584222 L6.95628998,15.4584222 C6.52941744,15.4584222 6.18336887,15.8044707 6.18336887,16.2313433 C6.18336887,16.6582158 6.52941744,17.0042644 6.95628998,17.0042644 L11.5938166,17.0042644 C12.0206892,17.0042644 12.3667377,16.6582158 12.3667377,16.2313433 C12.3667377,15.8044707 12.0206892,15.4584222 11.5938166,15.4584222 Z M34.0085288,13.91258 L17.0042644,13.91258 C16.1505193,13.91258 15.4584222,14.6046771 15.4584222,15.4584222 L15.4584222,20.0959488 C15.4584222,20.9496939 16.1505193,21.641791 17.0042644,21.641791 L34.0085288,21.641791 C34.8622739,21.641791 35.554371,20.9496939 35.554371,20.0959488 L35.554371,15.4584222 C35.554371,14.6046771 34.8622739,13.91258 34.0085288,13.91258 Z M17.0042644,20.0959488 L17.0042644,15.4584222 L34.0085288,15.4584222 L34.0085288,20.0959488 L17.0042644,20.0959488 Z M11.5938166,7.72921109 L6.95628998,7.72921109 C6.52941744,7.72921109 6.18336887,8.07525965 6.18336887,8.5021322 C6.18336887,8.92900474 6.52941744,9.2750533 6.95628998,9.2750533 L11.5938166,9.2750533 C12.0206892,9.2750533 12.3667377,8.92900474 12.3667377,8.5021322 C12.3667377,8.07525965 12.0206892,7.72921109 11.5938166,7.72921109 Z M34.0085288,6.18336887 L17.0042644,6.18336887 C16.1505193,6.18336887 15.4584222,6.87546601 15.4584222,7.72921109 L15.4584222,9.2750533 C15.4584222,10.1287984 16.1505193,10.8208955 17.0042644,10.8208955 L34.0085288,10.8208955 C34.8622739,10.8208955 35.554371,10.1287984 35.554371,9.2750533 L35.554371,7.72921109 C35.554371,6.87546601 34.8622739,6.18336887 34.0085288,6.18336887 Z M17.0042644,9.2750533 L17.0042644,7.72921109 L34.0085288,7.72921109 L34.0085288,9.2750533 L17.0042644,9.2750533 Z" id="Shape" fill="#007FEE"></path>
                </g>
                <g id="icons8-google-web-search" transform="translate(31.000000, 27.000000)">
                    <path d="M8.48214286,0.892857143 C4.2906961,0.892857143 0.892857143,4.2906961 0.892857143,8.48214286 C0.892857143,12.6735896 4.2906961,16.0714286 8.48214286,16.0714286 C12.6735896,16.0714286 16.0714286,12.6735896 16.0714286,8.48214286 C16.0714286,4.2906961 12.6735896,0.892857143 8.48214286,0.892857143 Z" id="Path"></path>
                    <path d="M16.4385363,13.5985375 C16.3869584,13.5466976 16.2895335,13.4199779 16.2952643,13.4026979 C18.4339345,9.61294718 17.4461134,4.81692453 13.9862402,2.19203209 C10.526367,-0.432860352 5.66656394,-0.0732384881 2.62648827,3.03264541 C-0.413587404,6.13852932 -0.691897419,11.0282447 1.97594076,14.4623173 C4.64377895,17.8963899 9.43107349,18.8106923 13.1662047,16.599492 C13.1662047,16.599492 13.292284,16.6686119 13.338131,16.7146918 L15.9686043,19.3585269 C16.5125742,19.9613587 17.3425801,20.2142191 18.1280118,20.0163882 C18.9134434,19.8185572 19.5267148,19.2021706 19.7235459,18.4127492 C19.9203771,17.6233278 19.6687946,16.7891058 19.0690095,16.2423727 L16.4385363,13.5985375 Z M1.37205672,9.16334569 C1.37205672,5.02784509 4.70759893,1.67535947 8.82219877,1.67535947 C12.9367986,1.67535947 16.2723408,5.02784509 16.2723408,9.16334569 C16.2723408,13.2988463 12.9367986,16.6513319 8.82219877,16.6513319 C6.84629825,16.6513319 4.95132547,15.8624213 3.55415281,14.4581515 C2.15698015,13.0538817 1.37205672,11.1492831 1.37205672,9.16334569 Z M18.2552248,18.5463684 C18.0584997,18.7443971 17.7915015,18.8556741 17.513076,18.8556741 C17.2346506,18.8556741 16.9676523,18.7443971 16.7709272,18.5463684 L14.1576467,15.9198133 C14.7054187,15.4802227 15.1980587,14.9754095 15.6247515,14.416456 L18.2494939,17.0602912 C18.4465217,17.2580155 18.5572363,17.52637 18.5572363,17.8062098 C18.5572363,18.0860495 18.4465217,18.354404 18.2494939,18.5521284 L18.2552248,18.5463684 Z" id="Shape" fill="#30B253"></path>
                </g>
            </g>
        </g>
    </g>
</svg>