<?xml version="1.0" encoding="UTF-8"?>
<svg width="83px" height="83px" viewBox="0 0 83 83" version="1.1" xmlns="http://www.w3.org/2000/svg" xmlns:xlink="http://www.w3.org/1999/xlink">
    <!-- Generator: Sketch 63.1 (92452) - https://sketch.com -->
    <title>Group 4</title>
    <desc>Created with Sketch.</desc>
    <g id="Feature-Platform" stroke="none" stroke-width="1" fill="none" fill-rule="evenodd">
        <g id="NEW-DASHBOARD-V3-NEW-ICONS" transform="translate(-613.000000, -705.000000)" fill-rule="nonzero">
            <g id="Group-4" transform="translate(613.000000, 706.000000)">
                <g id="icons8-pencil-2" transform="translate(62.500000, 54.500000) rotate(-45.000000) translate(-62.500000, -54.500000) translate(43.000000, 35.000000)">
                    <path d="M30.2495556,8.90355556 C31.5278889,10.6679444 32.9730556,12.3182222 34.437,13.9518889 L36.4722222,11.9166667 C38.6663333,9.72255556 38.6663333,6.16633333 36.4722222,3.97222222 L35.0277778,2.52777778 C32.8336667,0.333666667 29.2774444,0.333666667 27.0833333,2.52777778 L25.9126111,3.6985 C27.6690556,5.12777778 28.9221111,7.07127778 30.2495556,8.90355556 Z" id="Path"></path>
                    <path d="M34.4406111,7.94444444 C34.4406111,8.52294444 34.2152778,9.06677778 33.8057778,9.47627778 C33.1008889,10.1804444 32.7484444,11.1041667 32.7477222,12.0278889 C33.3031111,12.675 33.8671667,13.3156111 34.437,13.9518889 L36.4722222,11.9166667 C38.4915556,9.89733333 38.6468333,6.72605556 36.9488889,4.52327778 C35.4972222,4.99127778 34.4406111,6.3375 34.4406111,7.94444444 Z" id="Path"></path>
                    <path d="M1.44444444,33.9444444 L0.722222222,37.8610556 C0.722222222,38.0914444 0.908555556,38.2777778 1.13894444,38.2777778 L5.05555556,37.5555556 L1.44444444,33.9444444 Z" id="Path" fill="#007FEE"></path>
                    <path d="M30.4048333,10.3118889 C28.7877778,8.24922222 27.4718889,5.84566667 25.4070556,4.20405556 L5.15594444,24.4551667 C4.79988889,24.8112222 3.51072222,26.1003889 3.51072222,26.1003889 L12.8996111,35.4892778 C12.8996111,35.4892778 14.1245,34.2643889 14.5448333,33.8440556 L33.9328889,14.456 C32.7217222,13.1003889 31.5221111,11.7368333 30.4048333,10.3118889 Z" id="Path"></path>
                    <path d="M33.0727222,10.9828333 L28.3161667,15.7393889 C28.0337778,16.0217778 27.7051667,16.1503333 27.5823889,16.0268333 L22.9738889,11.4183333 C22.8503889,11.2948333 22.9789444,10.9662222 23.2613333,10.6845556 L28.0178889,5.928 C28.3002778,5.64561111 28.6288889,5.51705556 28.7516667,5.64055556 L33.3601667,10.2490556 C33.4829444,10.3718333 33.3543889,10.7011667 33.0727222,10.9828333 Z" id="Path"></path>
                    <path d="M1.44444444,39 C0.647833333,39 7.27595761e-12,38.3521667 7.27595761e-12,37.5555556 C7.27595761e-12,37.4985 0.00722222223,37.4414444 0.0202222222,37.3865556 C2.821,25.7681667 2.91416667,25.675 3.1005,25.4893889 L20.1030556,8.48683333 L21.1242778,9.50805556 L4.23583333,26.3965 C3.93827778,27.3931667 2.43027778,33.5544444 1.47188889,37.5266667 L12.6302222,34.7374444 L29.4016667,17.966 L30.4228889,18.9872222 L13.5106111,35.8995 C13.4181667,35.9919444 13.3018889,36.0576667 13.1747778,36.0894444 L1.61922222,38.9783333 C1.56216667,38.9927778 1.50366667,39 1.44444444,39 Z" id="Shape" fill="#007FEE"></path>
                    <path d="M18.3148333,16.3590556 C18.1299444,16.3590556 17.9450556,16.2882778 17.8042222,16.1474444 C17.5218333,15.8650556 17.5218333,15.4078889 17.8042222,15.1262222 L20.0691111,12.8620556 C20.3515,12.5796667 20.8079444,12.5796667 21.0903333,12.8620556 C21.3727222,13.1444444 21.3727222,13.6016111 21.0903333,13.8832778 L18.8254444,16.1474444 C18.6846111,16.2882778 18.4997222,16.3590556 18.3148333,16.3590556 Z M8.30916667,26.3647222 C8.12427778,26.3647222 7.93938889,26.2939444 7.79855556,26.1531111 C7.51616667,25.8707222 7.51616667,25.4142778 7.79855556,25.1318889 L15.7278333,17.2026111 C16.0102222,16.9202222 16.4666667,16.9202222 16.7490556,17.2026111 C17.0314444,17.485 17.0314444,17.9414444 16.7490556,18.2238333 L8.81977778,26.1531111 C8.67894444,26.2946667 8.49405556,26.3647222 8.30916667,26.3647222 Z M31.0555556,19.9225 C30.6857778,19.9225 30.316,19.7816667 30.0343333,19.5 L19.5,8.96566667 C18.9366667,8.40233333 18.9366667,7.48655556 19.5,6.92322222 L24.2565556,2.16666667 C24.8191667,1.60333333 25.7363889,1.60333333 26.299,2.16666667 L36.8333333,12.701 C37.3966667,13.2643333 37.3966667,14.1801111 36.8333333,14.7434444 L32.0767778,19.5 C31.7951111,19.7816667 31.4253333,19.9225 31.0555556,19.9225 Z M25.2777778,3.18788889 L20.5212222,7.94444444 L31.0555556,18.4787778 L35.8128333,13.7215 L25.2777778,3.18788889 Z" id="Shape" fill="#007FEE"></path>
                    <polygon id="Path" fill="#007FEE" transform="translate(8.666931, 30.694690) rotate(-47.119000) translate(-8.666931, -30.694690) " points="7.94470906 23.7956624 9.3891535 23.7956624 9.3891535 37.593718 7.94470906 37.593718"></polygon>
                    <path d="M24.9224444,9.69294444 C24.7375556,9.69294444 24.5526667,9.62216667 24.4118333,9.48133333 C24.1294444,9.19894444 24.1294444,8.7425 24.4118333,8.46011111 L25.4330556,7.43888889 C25.7154444,7.1565 26.1718889,7.1565 26.4542778,7.43888889 C26.7366667,7.72127778 26.7366667,8.17772222 26.4542778,8.46011111 L25.4330556,9.48133333 C25.2922222,9.62288889 25.1073333,9.69294444 24.9224444,9.69294444 Z M27.4755,12.2467222 C27.2906111,12.2467222 27.1057222,12.1759444 26.9648889,12.0351111 C26.6825,11.7527222 26.6825,11.2962778 26.9648889,11.0138889 L27.9861111,9.99266667 C28.2685,9.71027778 28.7249444,9.71027778 29.0073333,9.99266667 C29.2897222,10.2750556 29.2897222,10.7315 29.0073333,11.0138889 L27.9861111,12.0351111 C27.8452778,12.1759444 27.6603889,12.2467222 27.4755,12.2467222 Z M30.0285556,14.8005 C29.8436667,14.8005 29.6587778,14.7297222 29.5179444,14.5888889 C29.2355556,14.3065 29.2355556,13.8500556 29.5179444,13.5676667 L30.5391667,12.5464444 C30.8215556,12.2640556 31.278,12.2640556 31.5603889,12.5464444 C31.8427778,12.8288333 31.8427778,13.2852778 31.5603889,13.5676667 L30.5391667,14.5888889 C30.3983333,14.7297222 30.2134444,14.8005 30.0285556,14.8005 Z" id="Shape" fill="#007FEE"></path>
                </g>
                <path d="M3.72240278,28.4658472 C3.53751389,28.4658472 3.352625,28.3950694 3.21179167,28.2542361 C2.92940278,27.9718472 2.92940278,27.5154028 3.21179167,27.2330139 L4.23301389,26.2117917 C4.51540278,25.9294028 4.97184722,25.9294028 5.25423611,26.2117917 C5.536625,26.4941806 5.536625,26.950625 5.25423611,27.2330139 L4.23301389,28.2542361 C4.09218056,28.3957917 3.90729167,28.4658472 3.72240278,28.4658472 Z M6.27545833,31.019625 C6.09056944,31.019625 5.90568056,30.9488472 5.76484722,30.8080139 C5.48245833,30.525625 5.48245833,30.0691806 5.76484722,29.7867917 L6.78606944,28.7655694 C7.06845833,28.4831806 7.52490278,28.4831806 7.80729167,28.7655694 C8.08968056,29.0479583 8.08968056,29.5044028 7.80729167,29.7867917 L6.78606944,30.8080139 C6.64523611,30.9488472 6.46034722,31.019625 6.27545833,31.019625 Z M8.82851389,33.5734028 C8.643625,33.5734028 8.45873611,33.502625 8.31790278,33.3617917 C8.03551389,33.0794028 8.03551389,32.6229583 8.31790278,32.3405694 L9.339125,31.3193472 C9.62151389,31.0369583 10.0779583,31.0369583 10.3603472,31.3193472 C10.6427361,31.6017361 10.6427361,32.0581806 10.3603472,32.3405694 L9.339125,33.3617917 C9.19829167,33.502625 9.01340278,33.5734028 8.82851389,33.5734028 Z" id="Shape" fill="#007FEE" transform="translate(6.786069, 29.786701) rotate(-45.000000) translate(-6.786069, -29.786701) "></path>
                <path d="M13.6643819,31.0191143 C13.479493,31.0191143 13.2946041,30.9483365 13.1537707,30.8075032 C12.8713819,30.5251143 12.8713819,30.0686699 13.1537707,29.786281 L14.174993,28.7650588 C14.4573819,28.4826699 14.9138263,28.4826699 15.1962152,28.7650588 C15.4786041,29.0474476 15.4786041,29.5038921 15.1962152,29.786281 L14.174993,30.8075032 C14.0341596,30.9490588 13.8492707,31.0191143 13.6643819,31.0191143 Z" id="Path" fill="#007FEE" transform="translate(14.174993, 29.786191) rotate(-45.000000) translate(-14.174993, -29.786191) "></path>
                <path d="M17.67307,31.019625 C17.4881811,31.019625 17.3032922,30.9488472 17.1624589,30.8080139 C16.88007,30.525625 16.88007,30.0691806 17.1624589,29.7867917 L18.1836811,28.7655694 C18.46607,28.4831806 18.9225145,28.4831806 19.2049034,28.7655694 C19.4872922,29.0479583 19.4872922,29.5044028 19.2049034,29.7867917 L18.1836811,30.8080139 C18.0428478,30.9488472 17.8579589,31.019625 17.67307,31.019625 Z" id="Path" fill="#007FEE" transform="translate(18.183681, 29.786701) rotate(-45.000000) translate(-18.183681, -29.786701) "></path>
                <path d="M34.6101775,14.5788877 C34.4317014,14.5577608 34.2453151,14.4687203 34.0936269,14.3174933 C33.7894724,14.0142639 33.7384597,13.5762903 33.9794939,13.3375968 L44.2938247,3.02326602 C44.5348589,2.78457252 44.627499,3.35786527 44.9316534,3.66109473 C45.2358078,3.96432419 45.6331208,3.88283441 45.3920866,4.12152791 L35.0794282,14.4341862 C34.9593001,14.5539208 34.7886535,14.6000145 34.6101775,14.5788877 Z" id="Path" fill="#007FEE" transform="translate(39.646871, 8.775207) rotate(45.000000) translate(-39.646871, -8.775207) "></path>
                <path d="M5.17598483,27.8029535 C4.99750877,27.7818267 4.8111225,27.6927862 4.65943423,27.5415592 C4.35527982,27.2383297 4.30426705,26.8003562 4.54530124,26.5616627 L16.9925141,14.1144498 C17.2335483,13.8757563 17.6904123,14.1804059 17.9945667,14.4836354 C18.2987211,14.7868648 18.1257351,15.1800933 17.8847009,15.4187868 L5.64523562,27.6582521 C5.52510747,27.7779866 5.35446089,27.8240804 5.17598483,27.8029535 Z" id="Path" fill="#007FEE" transform="translate(11.275151, 20.918351) rotate(45.000000) translate(-11.275151, -20.918351) "></path>
                <path d="M5.07569314,31.5387077 C4.89721707,31.5175809 4.7108308,31.4285404 4.55914254,31.2773134 C4.25498812,30.9740839 4.20397536,30.5361104 4.44500954,30.2974169 L16.327375,18.4150515 C16.5684092,18.176358 17.0407019,18.1883702 17.3448563,18.4915996 C17.6490107,18.7948291 17.6666711,19.2746199 17.4256369,19.5133134 L5.54494392,31.3940063 C5.42481577,31.5137408 5.2541692,31.5598346 5.07569314,31.5387077 Z" id="Path" fill="#007FEE" transform="translate(10.942159, 24.896204) rotate(45.000000) translate(-10.942159, -24.896204) "></path>
                <path d="M18.0189755,30.4032395 C17.8262733,30.4135093 17.6375026,30.3636292 17.4985404,30.2517657 C17.2199035,30.0274652 17.1226992,29.4623451 17.4327072,29.2066735 L26.0457098,21.9066612 C26.3557178,21.6509896 27.2303011,21.8547302 27.508938,22.0790307 C27.7875749,22.3033313 27.6319036,22.4752081 27.3218956,22.7308798 L18.5629189,30.195041 C18.4082712,30.3231637 18.2116777,30.3929697 18.0189755,30.4032395 Z" id="Path" fill="#007FEE" transform="translate(22.447400, 26.096209) rotate(105.000000) translate(-22.447400, -26.096209) "></path>
                <path d="M21.1710903,29.9184987 C21.0174209,29.9546636 20.4863011,29.7135452 20.3751807,29.5806551 C20.15237,29.3141934 20.6301108,28.6601925 20.8980645,28.3485904 L36.1743246,10.5838927 C36.4422782,10.2722906 36.7443324,10.3457883 36.9671431,10.61225 C37.1899538,10.8787117 37.3848099,11.2309868 37.1168563,11.5425889 L21.7762885,29.587959 C21.6425966,29.7441008 21.3247596,29.8823337 21.1710903,29.9184987 Z" id="Path" fill="#007FEE" transform="translate(28.782218, 20.150891) rotate(-23.000000) translate(-28.782218, -20.150891) "></path>
                <g id="icons8-settings" transform="translate(0.000000, 37.000000)">
                    <path d="M41.4068966,18.2562069 L36.5841379,17.0468966 C36.3677815,16.4146172 36.1089151,15.7976925 35.8093103,15.2003448 L38.3727586,10.927931 C38.8668038,10.1014518 38.7354771,9.04486898 38.0541379,8.36448276 L35.6427586,5.94586207 C34.9623724,5.26452288 33.9057895,5.13319619 33.0793103,5.62724138 L28.8068966,8.19068966 C28.2073003,7.89261612 27.5879068,7.63614848 26.9531034,7.42310345 L25.7437931,2.59310345 C25.5112473,1.65818186 24.672373,1.00141197 23.7089655,1 L20.2910345,1 C19.327627,1.00141197 18.4887527,1.65818186 18.2562069,2.59310345 L17.0468966,7.41586207 C16.4145541,7.63205247 15.7976183,7.89092355 15.2003448,8.19068966 L10.9206897,5.62724138 C10.0942105,5.13319619 9.0376276,5.26452288 8.35724138,5.94586207 L5.94586207,8.35724138 C5.26452288,9.0376276 5.13319619,10.0942105 5.62724138,10.9206897 L8.19068966,15.1931034 C7.89278216,15.7927752 7.63631931,16.4121572 7.42310345,17.0468966 L2.59310345,18.2562069 C1.65818186,18.4887527 1.00141197,19.327627 1,20.2910345 L1,23.7017241 C1.00141197,24.6651316 1.65818186,25.5040059 2.59310345,25.7365517 L7.41586207,26.9458621 C7.63221849,27.5781414 7.89108491,28.1950661 8.19068966,28.7924138 L5.62724138,33.0793103 C5.13319619,33.9057895 5.26452288,34.9623724 5.94586207,35.6427586 L8.35724138,38.0541379 C9.0376276,38.7354771 10.0942105,38.8668038 10.9206897,38.3727586 L15.1931034,35.8093103 C15.7926997,36.1073839 16.4120932,36.3638515 17.0468966,36.5768966 L18.2562069,41.4068966 C18.4887527,42.3418181 19.327627,42.998588 20.2910345,43 L23.7017241,43 C24.6651316,42.998588 25.5040059,42.3418181 25.7365517,41.4068966 L26.9458621,36.5841379 C27.5782046,36.3679475 28.1951403,36.1090765 28.7924138,35.8093103 L33.0648276,38.3727586 C33.8907376,38.8694974 34.9491009,38.7379494 35.6282759,38.0541379 L38.0396552,35.6427586 C38.7209944,34.9623724 38.852321,33.9057895 38.3582759,33.0793103 L35.7948276,28.8068966 C36.0927351,28.2072248 36.3491979,27.5878428 36.5624138,26.9531034 L41.3924138,25.7437931 C42.3330862,25.5169009 42.9969461,24.6766097 43,23.7089655 L43,20.2910345 C42.998588,19.327627 42.3418181,18.4887527 41.4068966,18.2562069 Z" id="Path"></path>
                    <path d="M31.2666667,20.8108226 L29.8,20.8108226 C29.3949912,20.8108226 29.0666667,21.1447936 29.0666667,21.5567678 C29.0666667,21.9687419 29.3949912,22.3027129 29.8,22.3027129 L31.2666667,22.3027129 C31.6716755,22.3027129 32,21.9687419 32,21.5567678 C32,21.1447936 31.6716755,20.8108226 31.2666667,20.8108226 Z M21.7333333,29.0162194 C21.3283245,29.0162194 21,29.3501904 21,29.7621645 L21,31.2540548 C21,31.666029 21.3283245,32 21.7333333,32 C22.1383421,32 22.4666667,31.666029 22.4666667,31.2540548 L22.4666667,29.7621645 C22.4666667,29.3501904 22.1383421,29.0162194 21.7333333,29.0162194 Z M27.9593333,26.8306 C27.6683758,26.5771452 27.2346576,26.594186 26.963787,26.869715 C26.6929163,27.1452441 26.6761637,27.5864213 26.9253333,27.8823827 L27.9593333,28.9341654 C28.2502909,29.1876203 28.6840091,29.1705795 28.9548797,28.8950504 C29.2257503,28.6195214 29.242503,28.1783441 28.9933333,27.8823827 L27.9593333,26.8306 Z M27.4386667,16.4992596 C27.6335889,16.5004059 27.8209395,16.4225664 27.9593333,16.2829355 L28.9933333,15.2311528 C29.242503,14.9351914 29.2257503,14.4940142 28.9548797,14.2184851 C28.6840091,13.942956 28.2502909,13.9259153 27.9593333,14.1793701 L26.9253333,15.2311528 C26.713796,15.4445606 26.6502146,15.7669404 26.7644613,16.0468301 C26.878708,16.3267197 27.1480723,16.5084814 27.446,16.5067317 L27.4386667,16.4992596 Z M30.8486667,24.4957917 L29.492,23.9363328 C29.2461119,23.7688782 28.9253766,23.768153 28.6787591,23.934494 C28.4321416,24.1008351 28.3079699,24.4016455 28.3639155,24.6972145 C28.419861,24.9927835 28.6449604,25.2251901 28.9346667,25.2864936 L30.2913333,25.8459524 C30.5373312,25.9657277 30.8283534,25.9367461 31.0468433,25.7707145 C31.2653333,25.604683 31.3751945,25.3290314 31.3320493,25.0551074 C31.2889042,24.7811834 31.0998806,24.5542417 30.8413333,24.4659539 L30.8486667,24.4957917 Z M25.5613333,28.8222736 C25.4660958,28.5666173 25.2409969,28.3844404 24.9746898,28.3474917 C24.7083827,28.310543 24.4435417,28.4247434 24.2844721,28.6451159 C24.1254026,28.8654885 24.0975946,29.1567198 24.212,29.4041108 L24.784,30.7766499 C24.8792375,31.0323062 25.1043365,31.2144832 25.3706436,31.2514319 C25.6369506,31.2883806 25.9017917,31.1741802 26.0608612,30.9538076 C26.2199307,30.7334351 26.2477387,30.4422038 26.1333333,30.1948127 L25.5613333,28.8222736 Z M28.4873333,18.6401222 C28.6455171,19.0189002 29.0753892,19.1958089 29.448,19.0354731 L30.7973333,18.4536359 C31.15382,18.2830603 31.3141164,17.8564568 31.1603572,17.487505 C31.0065981,17.1185532 30.5937301,16.9391001 30.2253333,17.0810968 L28.876,17.662934 C28.5036261,17.8238382 28.3297083,18.2611033 28.4873333,18.6401222 L28.4873333,18.6401222 Z" id="Shape" fill="#30B253"></path>
                    <path d="M42.3353333,18.0766712 L37.2826667,16.808006 C37.0553236,16.1450473 36.7833687,15.4982365 36.4686667,14.8720082 L39.1526667,10.3913468 C39.6742869,9.52501314 39.5381403,8.41466309 38.8226667,7.70001655 L36.2926667,5.1773528 C35.5791923,4.46557662 34.4733119,4.32960789 33.6086667,4.84735318 L29.128,7.53135008 C28.5018909,7.21846606 27.8550362,6.94894358 27.192,6.72468434 L25.9306667,1.6646902 C25.6845118,0.683476979 24.8009469,-0.00340308416 23.7893333,1.26825927e-05 L20.2106667,1.26825927e-05 C19.2017853,1.26825927e-05 18.3221611,0.686134203 18.0766667,1.6646902 L16.808,6.71735102 C16.1449764,6.94452551 15.4981536,7.21648479 14.872,7.53135008 L10.3986667,4.84735318 C9.53402141,4.32960789 8.42814108,4.46557662 7.71466667,5.1773528 L5.17733333,7.70734987 C4.46185968,8.42199641 4.32571306,9.53234646 4.84733333,10.3986801 L7.53133333,14.8793416 C7.21832872,15.5079132 6.9488073,16.1572141 6.72466667,16.8226727 L1.66466667,18.0840045 C0.688755537,18.3288292 0.0032975677,19.2045233 0,20.2106687 L0,23.7893313 C0,24.7982114 0.686109537,25.6778346 1.66466667,25.9233288 L6.71733333,27.191994 C6.94467645,27.8549527 7.21663131,28.5017635 7.53133333,29.1279918 L4.84733333,33.6013199 C4.32571306,34.4676535 4.46185968,35.5780036 5.17733333,36.2926501 L7.70733333,38.8226472 C8.42080775,39.5344234 9.52668807,39.6703921 10.3913333,39.1526468 L14.872,36.4686499 C15.4981091,36.7815339 16.1449638,37.0510564 16.808,37.2753157 L18.0693333,42.3353098 C18.3154882,43.316523 19.1990531,44.0034031 20.2106667,43.9999873 L23.7893333,43.9999873 C24.7982147,43.9999873 25.6778389,43.3138658 25.9233333,42.3353098 L27.192,37.282649 C27.8550236,37.0554745 28.5018464,36.7835152 29.128,36.4686499 L33.6086667,39.1526468 C34.4733119,39.6703921 35.5791923,39.5344234 36.2926667,38.8226472 L38.8226667,36.2926501 C39.5381403,35.5780036 39.6742869,34.4676535 39.1526667,33.6013199 L36.4686667,29.1206584 C36.7816713,28.4920868 37.0511927,27.8427859 37.2753333,27.1773273 L42.3353333,25.9159955 C43.3112445,25.6711708 43.9967024,24.7954767 44,23.7893313 L44,20.2106687 C44,19.2017886 43.3138905,18.3221654 42.3353333,18.0766712 Z M42.5336478,23.7893313 C42.54339,24.1345088 42.3112677,24.4399325 41.976,24.5226637 L36.916,25.7839956 C36.4343102,25.9072114 36.0478435,26.2660729 35.8893333,26.7373279 C35.6836538,27.3394045 35.4386829,27.9273339 35.156,28.4973258 C34.9375433,28.9375216 34.9540624,29.4578711 35.2,29.8833242 L37.884,34.3639857 C38.056582,34.6522004 38.011259,35.0208268 37.774,35.2586513 L35.244,37.7886484 C35.0061752,38.0259071 34.6375484,38.07123 34.3493333,37.8986483 L29.8833333,35.1999847 C29.4534874,34.9438042 28.9226932,34.9244524 28.4753333,35.1486515 C27.9051934,35.4310105 27.3172847,35.6759722 26.7153333,35.8819839 C26.2440779,36.0404939 25.8852159,36.4269602 25.762,36.9086494 L24.5006667,41.9686436 C24.4179353,42.3039109 24.1125113,42.5360329 23.7673333,42.5262907 L20.2106667,42.5262907 C19.8654887,42.5360329 19.5600647,42.3039109 19.4773333,41.9686436 L18.216,36.9086494 C18.0927841,36.4269602 17.7339221,36.0404939 17.2626667,35.8819839 C16.6607153,35.6759722 16.0728066,35.4310105 15.5026667,35.1486515 C15.2977066,35.0464955 15.0716725,34.9937543 14.8426667,34.9946516 C14.5844069,34.9973338 14.3314348,35.0681659 14.1093333,35.1999847 L9.62866667,37.8839816 C9.34045158,38.0565634 8.9718248,38.0112405 8.734,37.7739817 L6.204,35.2439847 C5.966741,35.0061601 5.92141803,34.6375338 6.094,34.349319 L8.8,29.8833242 C9.05618081,29.4534787 9.07553269,28.9226851 8.85133333,28.4753258 C8.56880336,27.9052642 8.32383673,27.317345 8.118,26.7153279 C7.95948981,26.2440729 7.57302311,25.8852114 7.09133333,25.7619956 L2.03133333,24.5006638 C1.69606559,24.4179325 1.46394334,24.1125088 1.47368554,23.7673313 L1.47368554,20.2106687 C1.46394334,19.8654912 1.69606559,19.5600675 2.03133333,19.4773363 L7.09133333,18.2160044 C7.57302311,18.0927886 7.95948981,17.7339271 8.118,17.2626721 C8.32367958,16.6605955 8.56865044,16.0726661 8.85133333,15.5026742 C9.06754826,15.0612601 9.04827514,14.5408865 8.8,14.1166758 L6.116,9.63601431 C5.94341803,9.34779955 5.988741,8.97917321 6.226,8.74134868 L8.756,6.21135161 C8.9938248,5.97409288 9.36245158,5.92876997 9.65066667,6.10135173 L14.1166667,8.80001528 C14.5465126,9.05619579 15.0773068,9.07554764 15.5246667,8.85134855 C16.0948066,8.56898948 16.6827153,8.32402783 17.2846667,8.11801607 C17.7559221,7.95950606 18.1147841,7.57303981 18.238,7.09135059 L19.4993333,2.03135644 C19.5820647,1.69608909 19.8874887,1.46396711 20.2326667,1.47370929 L23.8113333,1.47370929 C24.1565113,1.46396711 24.4619353,1.69608909 24.5446667,2.03135644 L25.806,7.09135059 C25.9292159,7.57303981 26.2880779,7.95950606 26.7593333,8.11801607 C27.3612847,8.32402783 27.9491934,8.56898948 28.5193333,8.85134855 C28.9547444,9.05974049 29.4648172,9.04054423 29.8833333,8.80001528 L34.364,6.11601838 C34.6522151,5.94343662 35.0208419,5.98875953 35.2586667,6.22601825 L37.7886667,8.75601533 C38.0259257,8.99383986 38.0712486,9.3624662 37.8986667,9.65068096 L35.2,14.1166758 C34.9438192,14.5465213 34.9244673,15.0773149 35.1486667,15.5246742 C35.4311966,16.0947358 35.6761633,16.682655 35.882,17.2846721 C36.0405102,17.7559271 36.4269769,18.1147886 36.9086667,18.2380044 L41.9686667,19.4993362 C42.3039344,19.5820675 42.5360567,19.8874912 42.526,20.2326687 L42.5336478,23.7893313 Z" id="Shape" fill="#30B253"></path>
                    <path d="M22,16 C18.6862915,16 16,18.6862915 16,22 C16,25.3137085 18.6862915,28 22,28 C25.3137085,28 28,25.3137085 28,22 C28,18.6862915 25.3137085,16 22,16 Z M22,26.5 C19.5147186,26.5 17.5,24.4852814 17.5,22 C17.5,19.5147186 19.5147186,17.5 22,17.5 C24.4852814,17.5 26.5,19.5147186 26.5,22 C26.5,24.4852814 24.4852814,26.5 22,26.5 Z" id="Shape" fill="#30B253"></path>
                    <path d="M18.1985601,29.6204514 C14.9633226,27.9455744 13.1207521,24.488645 13.5678553,20.9325779 C14.0149585,17.3765108 16.6588308,14.4602301 20.2123728,13.6034498 C20.4761695,13.5500722 20.689004,13.3596904 20.7670532,13.1072846 C20.8451024,12.8548789 20.7758595,12.5808958 20.586595,12.3932413 C20.3973306,12.2055868 20.1183733,12.1343314 19.8595881,12.2075386 C15.6996006,13.1974715 12.6003423,16.6057019 12.077382,20.7655706 C11.5544218,24.9254393 13.7170382,28.9676923 17.50769,30.9156267 C17.8669219,31.102401 18.3127934,30.9687088 18.5035718,30.6170169 C18.6943503,30.265325 18.5577919,29.8288119 18.1985601,29.6420377 L18.1985601,29.6204514 Z M23.50503,13.4307598 C24.0340104,13.4995023 24.5555268,13.6151031 25.0631624,13.7761398 C25.4432001,13.8823209 25.840967,13.6752651 25.9635682,13.3074374 C26.0861695,12.9396098 25.8897057,12.5427171 25.5188427,12.4090103 C24.9273968,12.2212752 24.3197874,12.086409 23.7034714,12.0060669 C23.4408925,11.9726481 23.1800488,12.0789118 23.0191974,12.2848294 C22.858346,12.490747 22.8219241,12.7650349 22.9236515,13.0043713 C23.0253789,13.2437077 23.2498008,13.4117318 23.5123797,13.4451506 L23.50503,13.4307598 Z M22.3217313,20.5470287 C21.5099079,20.5470287 20.851795,21.1913284 20.851795,21.9861124 C20.851795,22.7808964 21.5099079,23.4251961 22.3217313,23.4251961 C23.1335547,23.4251961 23.7916675,22.7808964 23.7916675,21.9861124 C23.7916675,21.1913284 23.1335547,20.5470287 22.3217313,20.5470287 Z" id="Shape" fill="#30B253"></path>
                </g>
                <circle id="Oval" fill="#30B253" cx="62.625" cy="18.625" r="3.125"></circle>
                <path d="M62.7484375,-3.55271368e-15 C58.9265625,-3.55271368e-15 55.3734375,1.1546875 52.40625,3.125 L48.8140625,6.25 C45.83125,9.571875 44,13.9453125 44,18.75 C44,25.1 47.1890625,30.9203125 52.425,34.375 L59.1859375,34.375 C60.290507,34.375 61.1859375,33.4795695 61.1859375,32.375 L61.1859375,24.778125 L61.1859375,24.778125 C58.496875,24.0796875 56.4984375,21.6546875 56.4984375,18.75 C56.4984375,15.303125 59.3015625,12.5 62.7484375,12.5 C66.1953125,12.5 68.9984375,15.303125 68.9984375,18.75 C68.9984375,21.6546875 67,24.0796875 64.3109375,24.778125 L64.3109375,32.375 C64.3109375,33.4795695 65.206368,34.375 66.3109375,34.375 L73.0734375,34.375 L73.0734375,34.375 C78.309375,30.9203125 81.4984375,25.1 81.4984375,18.75 C81.4984375,8.4109375 73.0875,-3.55271368e-15 62.7484375,-3.55271368e-15 Z" id="Path" stroke="#007FEE" stroke-width="1.5"></path>
            </g>
        </g>
    </g>
</svg>