<?xml version="1.0" encoding="UTF-8"?>
<svg width="40px" height="35px" viewBox="0 0 40 35" version="1.1" xmlns="http://www.w3.org/2000/svg" xmlns:xlink="http://www.w3.org/1999/xlink">
    <!-- Generator: Sketch 60 (88103) - https://sketch.com -->
    <title>icons8-data-grid</title>
    <desc>Created with Sketch.</desc>
    <g id="Feature-Platform" stroke="none" stroke-width="1" fill="none" fill-rule="evenodd">
        <g id="NEW-DASHBOARD-V3" transform="translate(-1301.000000, -672.000000)" fill="currentColor" fill-rule="nonzero">
            <g id="icons8-data-grid" transform="translate(1301.000000, 672.000000)">
                <path d="M2.14285714,0 C0.962611429,0 0,0.962611429 0,2.14285714 L0,32.1428571 C0,33.3231029 0.962611429,34.2857143 2.14285714,34.2857143 L37.8571429,34.2857143 C39.0373886,34.2857143 40,33.3231029 40,32.1428571 L40,2.14285714 C40,0.962611429 39.0373886,0 37.8571429,0 L2.14285714,0 Z M2.14285714,1.42857143 L37.8571429,1.42857143 C38.2505579,1.42857143 38.5714286,1.74944214 38.5714286,2.14285714 L38.5714286,7.14285714 L1.42857143,7.14285714 L1.42857143,2.14285714 C1.42857143,1.74944214 1.74944214,1.42857143 2.14285714,1.42857143 Z M3.57142857,2.85714286 C3.17522357,2.85714286 2.85714286,3.17801357 2.85714286,3.57142857 L2.85714286,5 C2.85714286,5.393415 3.17522357,5.71428571 3.57142857,5.71428571 C3.96763429,5.71428571 4.28571429,5.393415 4.28571429,5 L4.28571429,3.57142857 C4.28571429,3.17801357 3.96763429,2.85714286 3.57142857,2.85714286 Z M7.14285714,2.85714286 C6.74665214,2.85714286 6.42857143,3.17801357 6.42857143,3.57142857 L6.42857143,5 C6.42857143,5.393415 6.74665214,5.71428571 7.14285714,5.71428571 C7.53906286,5.71428571 7.85714286,5.393415 7.85714286,5 L7.85714286,3.57142857 C7.85714286,3.17801357 7.53906286,2.85714286 7.14285714,2.85714286 Z M10.7142857,2.85714286 C10.3180807,2.85714286 10,3.17801357 10,3.57142857 L10,5 C10,5.393415 10.3180807,5.71428571 10.7142857,5.71428571 C11.1104914,5.71428571 11.4285714,5.393415 11.4285714,5 L11.4285714,3.57142857 C11.4285714,3.17801357 11.1104914,2.85714286 10.7142857,2.85714286 Z M14.2857143,2.85714286 C13.8895093,2.85714286 13.5714286,3.17801357 13.5714286,3.57142857 L13.5714286,5 C13.5714286,5.393415 13.8895093,5.71428571 14.2857143,5.71428571 C14.68192,5.71428571 15,5.393415 15,5 L15,3.57142857 C15,3.17801357 14.68192,2.85714286 14.2857143,2.85714286 Z M17.8571429,2.85714286 C17.4609379,2.85714286 17.1428571,3.17801357 17.1428571,3.57142857 L17.1428571,5 C17.1428571,5.393415 17.4609379,5.71428571 17.8571429,5.71428571 C18.2533486,5.71428571 18.5714286,5.393415 18.5714286,5 L18.5714286,3.57142857 C18.5714286,3.17801357 18.2533486,2.85714286 17.8571429,2.85714286 Z M21.4285714,2.85714286 C21.0323664,2.85714286 20.7142857,3.17801357 20.7142857,3.57142857 L20.7142857,5 C20.7142857,5.393415 21.0323664,5.71428571 21.4285714,5.71428571 C21.8247771,5.71428571 22.1428571,5.393415 22.1428571,5 L22.1428571,3.57142857 C22.1428571,3.17801357 21.8247771,2.85714286 21.4285714,2.85714286 Z M25,2.85714286 C24.603795,2.85714286 24.2857143,3.17801357 24.2857143,3.57142857 L24.2857143,5 C24.2857143,5.393415 24.603795,5.71428571 25,5.71428571 C25.3962057,5.71428571 25.7142857,5.393415 25.7142857,5 L25.7142857,3.57142857 C25.7142857,3.17801357 25.3962057,2.85714286 25,2.85714286 Z M28.5714286,2.85714286 C28.1752236,2.85714286 27.8571429,3.17801357 27.8571429,3.57142857 L27.8571429,5 C27.8571429,5.393415 28.1752236,5.71428571 28.5714286,5.71428571 C28.9676343,5.71428571 29.2857143,5.393415 29.2857143,5 L29.2857143,3.57142857 C29.2857143,3.17801357 28.9676343,2.85714286 28.5714286,2.85714286 Z M32.1428571,2.85714286 C31.7466521,2.85714286 31.4285714,3.17801357 31.4285714,3.57142857 L31.4285714,5 C31.4285714,5.393415 31.7466521,5.71428571 32.1428571,5.71428571 C32.5390629,5.71428571 32.8571429,5.393415 32.8571429,5 L32.8571429,3.57142857 C32.8571429,3.17801357 32.5390629,2.85714286 32.1428571,2.85714286 Z M35.7142857,2.85714286 C35.3180807,2.85714286 35,3.17801357 35,3.57142857 L35,5 C35,5.393415 35.3180807,5.71428571 35.7142857,5.71428571 C36.1104914,5.71428571 36.4285714,5.393415 36.4285714,5 L36.4285714,3.57142857 C36.4285714,3.17801357 36.1104914,2.85714286 35.7142857,2.85714286 Z M1.42857143,8.57142857 L38.5714286,8.57142857 L38.5714286,32.1428571 C38.5714286,32.5362721 38.2505579,32.8571429 37.8571429,32.8571429 L2.14285714,32.8571429 C1.74944214,32.8571429 1.42857143,32.5362721 1.42857143,32.1428571 L1.42857143,8.57142857 Z M5.71428571,11.5150671 C4.92745571,11.5150671 4.28571429,12.1568079 4.28571429,12.9436386 L4.28571429,17.2293529 C4.28571429,18.0161829 4.92745571,18.6579243 5.71428571,18.6579243 L11.4285714,18.6579243 C12.2154021,18.6579243 12.8571429,18.0161829 12.8571429,17.2293529 L12.8571429,12.9436386 C12.8571429,12.1568079 12.2154021,11.5150671 11.4285714,11.5150671 L5.71428571,11.5150671 Z M17.1428571,11.5150671 C16.3560271,11.5150671 15.7142857,12.1568079 15.7142857,12.9436386 L15.7142857,17.2293529 C15.7142857,18.0161829 16.3560271,18.6579243 17.1428571,18.6579243 L22.8571429,18.6579243 C23.6439736,18.6579243 24.2857143,18.0161829 24.2857143,17.2293529 L24.2857143,12.9436386 C24.2857143,12.1568079 23.6439736,11.5150671 22.8571429,11.5150671 L17.1428571,11.5150671 Z M28.5714286,11.5150671 C27.7845986,11.5150671 27.1428571,12.1568079 27.1428571,12.9436386 L27.1428571,17.2293529 C27.1428571,18.0161829 27.7845986,18.6579243 28.5714286,18.6579243 L34.2857143,18.6579243 C35.072545,18.6579243 35.7142857,18.0161829 35.7142857,17.2293529 L35.7142857,12.9436386 C35.7142857,12.1568079 35.072545,11.5150671 34.2857143,11.5150671 L28.5714286,11.5150671 Z M5.71428571,12.9436386 L11.4285714,12.9436386 L11.4285714,17.2293529 L5.71428571,17.2293529 L5.71428571,12.9436386 Z M17.1428571,12.9436386 L22.8571429,12.9436386 L22.8571429,17.2293529 L17.1428571,17.2293529 L17.1428571,12.9436386 Z M28.5714286,12.9436386 L34.2857143,12.9436386 L34.2857143,17.2293529 L28.5714286,17.2293529 L28.5714286,12.9436386 Z M5.71428571,21.5150671 C4.92745571,21.5150671 4.28571429,22.1568079 4.28571429,22.9436386 L4.28571429,27.2293529 C4.28571429,28.0161829 4.92745571,28.6579243 5.71428571,28.6579243 L11.4285714,28.6579243 C12.2154021,28.6579243 12.8571429,28.0161829 12.8571429,27.2293529 L12.8571429,22.9436386 C12.8571429,22.1568079 12.2154021,21.5150671 11.4285714,21.5150671 L5.71428571,21.5150671 Z M17.1428571,21.5150671 C16.3560271,21.5150671 15.7142857,22.1568079 15.7142857,22.9436386 L15.7142857,27.2293529 C15.7142857,28.0161829 16.3560271,28.6579243 17.1428571,28.6579243 L22.8571429,28.6579243 C23.6439736,28.6579243 24.2857143,28.0161829 24.2857143,27.2293529 L24.2857143,22.9436386 C24.2857143,22.1568079 23.6439736,21.5150671 22.8571429,21.5150671 L17.1428571,21.5150671 Z M28.5714286,21.5150671 C27.7845986,21.5150671 27.1428571,22.1568079 27.1428571,22.9436386 L27.1428571,27.2293529 C27.1428571,28.0161829 27.7845986,28.6579243 28.5714286,28.6579243 L34.2857143,28.6579243 C35.072545,28.6579243 35.7142857,28.0161829 35.7142857,27.2293529 L35.7142857,22.9436386 C35.7142857,22.1568079 35.072545,21.5150671 34.2857143,21.5150671 L28.5714286,21.5150671 Z M5.71428571,22.9436386 L11.4285714,22.9436386 L11.4285714,27.2293529 L5.71428571,27.2293529 L5.71428571,22.9436386 Z M17.1428571,22.9436386 L22.8571429,22.9436386 L22.8571429,27.2293529 L17.1428571,27.2293529 L17.1428571,22.9436386 Z M28.5714286,22.9436386 L34.2857143,22.9436386 L34.2857143,27.2293529 L28.5714286,27.2293529 L28.5714286,22.9436386 Z" id="Shape"></path>
            </g>
        </g>
    </g>
</svg>
