<?xml version="1.0" encoding="UTF-8"?>
<svg width="64px" height="63px" viewBox="0 0 64 63" version="1.1" xmlns="http://www.w3.org/2000/svg" xmlns:xlink="http://www.w3.org/1999/xlink">
    <!-- Generator: Sketch 60 (88103) - https://sketch.com -->
    <title>Group 11</title>
    <desc>Created with Sketch.</desc>
    <g id="Feature-Platform" stroke="none" stroke-width="1" fill="none" fill-rule="evenodd">
        <g id="NEW-DASHBOARD-V3" transform="translate(-1388.000000, -238.000000)">
            <g id="Group-11" transform="translate(1388.000000, 238.000000)">
                <path d="M33,47 C37.418278,47 41,50.581722 41,55 C41,59.418278 37.418278,63 33,63 C28.581722,63 25,59.418278 25,55 C25,50.581722 28.581722,47 33,47 Z M33,49 C29.6862915,49 27,51.6862915 27,55 C27,58.3137085 29.6862915,61 33,61 C36.3137085,61 39,58.3137085 39,55 C39,51.6862915 36.3137085,49 33,49 Z" id="Combined-Shape" fill="#30B253"></path>
                <g id="icons8-registry-editor" transform="translate(0.000000, 12.000000)" fill="#007FEE" fill-rule="nonzero">
                    <path d="M11.3262727,21.8613968 C11.7818788,21.6389841 12.2919697,21.6163492 12.7635455,21.7954603 C13.2351212,21.9755556 13.6108788,22.3367302 13.8231818,22.8130476 L13.8231818,22.8130476 L18.5868485,33.5164127 C18.7991515,33.9937143 18.821697,34.5280952 18.6497879,35.022127 C18.4778788,35.5161587 18.1331212,35.9098095 17.6784545,36.1322222 L17.6784545,36.1322222 L7.46254545,41.1227302 C7.20984848,41.245746 6.94024242,41.307746 6.66969697,41.307746 C6.45269697,41.307746 6.23569697,41.2673968 6.02527273,41.1876825 C5.55369697,41.0075873 5.17793939,40.6464127 4.96563636,40.1700952 L4.96563636,40.1700952 L0.201969697,29.4677143 C-0.0103333333,28.9904127 -0.0328787879,28.4560317 0.139030303,27.962 C0.310939394,27.4679683 0.65569697,27.0743175 1.11036364,26.8519048 L1.11036364,26.8519048 Z M12.1200606,23.645619 L1.90415152,28.636127 L6.66781818,39.3385079 L16.8846667,34.348 L12.1200606,23.645619 Z" id="Combined-Shape"></path>
                    <path d="M18.7878788,0 C19.8240303,0 20.6666667,0.882761905 20.6666667,1.96825397 L20.6666667,1.96825397 L20.6666667,13.7777778 C20.6666667,14.8632698 19.8240303,15.7460317 18.7878788,15.7460317 L18.7878788,15.7460317 L7.51515152,15.7460317 C6.479,15.7460317 5.63636364,14.8632698 5.63636364,13.7777778 L5.63636364,13.7777778 L5.63636364,1.96825397 C5.63636364,0.882761905 6.479,0 7.51515152,0 L7.51515152,0 Z M18.7878788,1.96825397 L7.51515152,1.96825397 L7.51515152,13.7777778 L18.7888182,13.7777778 L18.7878788,1.96825397 Z" id="Combined-Shape"></path>
                    <path d="M60.1212121,18.6984127 C61.1573636,18.6984127 62,19.5811746 62,20.6666667 L62,20.6666667 L62,32.4761905 C62,33.5616825 61.1573636,34.4444444 60.1212121,34.4444444 L60.1212121,34.4444444 L48.8484848,34.4444444 C47.8123333,34.4444444 46.969697,33.5616825 46.969697,32.4761905 L46.969697,32.4761905 L46.969697,20.6666667 C46.969697,19.5811746 47.8123333,18.6984127 48.8484848,18.6984127 L48.8484848,18.6984127 Z M60.1212121,20.6666667 L48.8484848,20.6666667 L48.8484848,32.4761905 L60.1221515,32.4761905 L60.1212121,20.6666667 Z" id="Combined-Shape"></path>
                </g>
                <g id="icons8-pencil-2" transform="translate(25.000000, 0.000000)" fill-rule="nonzero">
                    <path d="M30.2495556,8.90355556 C31.5278889,10.6679444 32.9730556,12.3182222 34.437,13.9518889 L36.4722222,11.9166667 C38.6663333,9.72255556 38.6663333,6.16633333 36.4722222,3.97222222 L35.0277778,2.52777778 C32.8336667,0.333666667 29.2774444,0.333666667 27.0833333,2.52777778 L25.9126111,3.6985 C27.6690556,5.12777778 28.9221111,7.07127778 30.2495556,8.90355556 Z" id="Path"></path>
                    <path d="M34.4406111,7.94444444 C34.4406111,8.52294444 34.2152778,9.06677778 33.8057778,9.47627778 C33.1008889,10.1804444 32.7484444,11.1041667 32.7477222,12.0278889 C33.3031111,12.675 33.8671667,13.3156111 34.437,13.9518889 L36.4722222,11.9166667 C38.4915556,9.89733333 38.6468333,6.72605556 36.9488889,4.52327778 C35.4972222,4.99127778 34.4406111,6.3375 34.4406111,7.94444444 Z" id="Path"></path>
                    <path d="M3.51072222,26.1003889 L0.722222222,37.375 C0.722222222,37.8733333 1.12666667,38.2777778 1.625,38.2777778 L12.8996111,35.4892778 L3.51072222,26.1003889 Z" id="Path"></path>
                    <path d="M1.44444444,33.9444444 L0.722222222,37.8610556 C0.722222222,38.0914444 0.908555556,38.2777778 1.13894444,38.2777778 L5.05555556,37.5555556 L1.44444444,33.9444444 Z" id="Path" fill="#007FEE"></path>
                    <path d="M30.4048333,10.3118889 C28.7877778,8.24922222 27.4718889,5.84566667 25.4070556,4.20405556 L5.15594444,24.4551667 C4.79988889,24.8112222 3.51072222,26.1003889 3.51072222,26.1003889 L12.8996111,35.4892778 C12.8996111,35.4892778 14.1245,34.2643889 14.5448333,33.8440556 L33.9328889,14.456 C32.7217222,13.1003889 31.5221111,11.7368333 30.4048333,10.3118889 Z" id="Path"></path>
                    <path d="M25.9436667,7.9495 C24.9181111,6.80188889 25.7616667,6.00744444 24.7960556,4.81505556 L3.51072222,26.1003889 L5.77777778,28.1666667 L25.9436667,7.9495 Z" id="Path"></path>
                    <path d="M36.3227222,14.2328333 L31.5661667,18.9893889 C31.2837778,19.2717778 30.8266111,19.2717778 30.5449444,18.9893889 L20.0106111,8.45505556 C19.7282222,8.17266667 19.7282222,7.7155 20.0106111,7.43383333 L24.7671667,2.67727778 C25.0495556,2.39488889 25.5067222,2.39488889 25.7883889,2.67727778 L36.3227222,13.2116111 C36.6043889,13.4932778 36.6043889,13.9511667 36.3227222,14.2328333 Z" id="Path"></path>
                    <path d="M36.3227222,14.2328333 L31.5661667,18.9893889 C31.2837778,19.2717778 30.9414444,19.3858889 30.7998889,19.2450556 L25.5327222,13.9778889 C25.3918889,13.8370556 25.506,13.494 25.7883889,13.2116111 L30.5449444,8.45505556 C30.8273333,8.17266667 31.1696667,8.05855556 31.3112222,8.19938889 L36.5783889,13.4665556 C36.7192222,13.6081111 36.6043889,13.9511667 36.3227222,14.2328333 Z" id="Path"></path>
                    <path d="M30.3333333,18.0555556 L13.7056111,34.6832778 C13.4232222,34.9656667 13.0808889,35.0797778 12.9393333,34.9389444 L10.8333333,33.2222222 L28.3161667,15.7393889 L30.3333333,18.0555556 Z" id="Path"></path>
                    <path d="M33.0727222,10.9828333 L28.3161667,15.7393889 C28.0337778,16.0217778 27.7051667,16.1503333 27.5823889,16.0268333 L22.9738889,11.4183333 C22.8503889,11.2948333 22.9789444,10.9662222 23.2613333,10.6845556 L28.0178889,5.928 C28.3002778,5.64561111 28.6288889,5.51705556 28.7516667,5.64055556 L33.3601667,10.2490556 C33.4829444,10.3718333 33.3543889,10.7011667 33.0727222,10.9828333 Z" id="Path"></path>
                    <path d="M1.44444444,39 C0.647833333,39 0,38.3521667 0,37.5555556 C0,37.4985 0.00722222222,37.4414444 0.0202222222,37.3865556 C2.821,25.7681667 2.91416667,25.675 3.1005,25.4893889 L20.1030556,8.48683333 L21.1242778,9.50805556 L4.23583333,26.3965 C3.93827778,27.3931667 2.43027778,33.5544444 1.47188889,37.5266667 L12.6302222,34.7374444 L29.4016667,17.966 L30.4228889,18.9872222 L13.5106111,35.8995 C13.4181667,35.9919444 13.3018889,36.0576667 13.1747778,36.0894444 L1.61922222,38.9783333 C1.56216667,38.9927778 1.50366667,39 1.44444444,39 Z M36.2606111,13.1495 L35.2393889,12.1282778 L35.8482222,11.5194444 C36.803,10.5646667 37.3295,9.295 37.3295,7.94444444 C37.3295,6.59388889 36.803,5.32494444 35.8482222,4.36944444 L34.6305556,3.15177778 C32.6596111,1.18083333 29.4522222,1.18083333 27.4805556,3.15177778 L26.9027778,3.73027778 L25.8801111,2.70977778 L26.4586111,2.13055556 C28.9936111,-0.403722222 33.1175,-0.403722222 35.6517778,2.13055556 L36.8694444,3.34894444 C38.0972222,4.57672222 38.7739444,6.20822222 38.7739444,7.94516667 C38.7739444,9.68138889 38.0972222,11.3136111 36.8694444,12.5413889 L36.2606111,13.1495 Z" id="Shape" fill="#007FEE"></path>
                    <path d="M18.3148333,16.3590556 C18.1299444,16.3590556 17.9450556,16.2882778 17.8042222,16.1474444 C17.5218333,15.8650556 17.5218333,15.4078889 17.8042222,15.1262222 L20.0691111,12.8620556 C20.3515,12.5796667 20.8079444,12.5796667 21.0903333,12.8620556 C21.3727222,13.1444444 21.3727222,13.6016111 21.0903333,13.8832778 L18.8254444,16.1474444 C18.6846111,16.2882778 18.4997222,16.3590556 18.3148333,16.3590556 Z M8.30916667,26.3647222 C8.12427778,26.3647222 7.93938889,26.2939444 7.79855556,26.1531111 C7.51616667,25.8707222 7.51616667,25.4142778 7.79855556,25.1318889 L15.7278333,17.2026111 C16.0102222,16.9202222 16.4666667,16.9202222 16.7490556,17.2026111 C17.0314444,17.485 17.0314444,17.9414444 16.7490556,18.2238333 L8.81977778,26.1531111 C8.67894444,26.2946667 8.49405556,26.3647222 8.30916667,26.3647222 Z M31.0555556,19.9225 C30.6857778,19.9225 30.316,19.7816667 30.0343333,19.5 L19.5,8.96566667 C18.9366667,8.40233333 18.9366667,7.48655556 19.5,6.92322222 L24.2565556,2.16666667 C24.8191667,1.60333333 25.7363889,1.60333333 26.299,2.16666667 L36.8333333,12.701 C37.3966667,13.2643333 37.3966667,14.1801111 36.8333333,14.7434444 L32.0767778,19.5 C31.7951111,19.7816667 31.4253333,19.9225 31.0555556,19.9225 Z M25.2777778,3.18788889 L20.5212222,7.94444444 L31.0555556,18.4787778 L35.8128333,13.7215 L25.2777778,3.18788889 Z" id="Shape" fill="#007FEE"></path>
                    <polygon id="Path" fill="#007FEE" transform="translate(8.666931, 30.694690) rotate(-47.119000) translate(-8.666931, -30.694690) " points="7.94470906 23.7956624 9.3891535 23.7956624 9.3891535 37.593718 7.94470906 37.593718"></polygon>
                    <path d="M24.9224444,9.69294444 C24.7375556,9.69294444 24.5526667,9.62216667 24.4118333,9.48133333 C24.1294444,9.19894444 24.1294444,8.7425 24.4118333,8.46011111 L25.4330556,7.43888889 C25.7154444,7.1565 26.1718889,7.1565 26.4542778,7.43888889 C26.7366667,7.72127778 26.7366667,8.17772222 26.4542778,8.46011111 L25.4330556,9.48133333 C25.2922222,9.62288889 25.1073333,9.69294444 24.9224444,9.69294444 Z M27.4755,12.2467222 C27.2906111,12.2467222 27.1057222,12.1759444 26.9648889,12.0351111 C26.6825,11.7527222 26.6825,11.2962778 26.9648889,11.0138889 L27.9861111,9.99266667 C28.2685,9.71027778 28.7249444,9.71027778 29.0073333,9.99266667 C29.2897222,10.2750556 29.2897222,10.7315 29.0073333,11.0138889 L27.9861111,12.0351111 C27.8452778,12.1759444 27.6603889,12.2467222 27.4755,12.2467222 Z M30.0285556,14.8005 C29.8436667,14.8005 29.6587778,14.7297222 29.5179444,14.5888889 C29.2355556,14.3065 29.2355556,13.8500556 29.5179444,13.5676667 L30.5391667,12.5464444 C30.8215556,12.2640556 31.278,12.2640556 31.5603889,12.5464444 C31.8427778,12.8288333 31.8427778,13.2852778 31.5603889,13.5676667 L30.5391667,14.5888889 C30.3983333,14.7297222 30.2134444,14.8005 30.0285556,14.8005 Z" id="Shape" fill="#007FEE"></path>
                </g>
            </g>
        </g>
    </g>
</svg>
