<?xml version="1.0" encoding="UTF-8"?>
<svg width="76px" height="70px" viewBox="0 0 76 70" version="1.1" xmlns="http://www.w3.org/2000/svg" xmlns:xlink="http://www.w3.org/1999/xlink">
    <!-- Generator: Sketch 60 (88103) - https://sketch.com -->
    <title>Group 4</title>
    <desc>Created with Sketch.</desc>
    <g id="Feature-Platform" stroke="none" stroke-width="1" fill="none" fill-rule="evenodd">
        <g id="NEW-DASHBOARD-V3-NEW-ICONS" transform="translate(-106.000000, -587.000000)" fill-rule="nonzero">
            <g id="Group-4" transform="translate(106.000000, 587.000000)">
                <path d="M32.3030303,0 C50.4152462,0 64.6060606,6.00343245 64.6060606,13.6666667 L64.6060606,13.6666667 L64.606,35.435 L62.3195152,36.8051717 L62.121,36.71 L62.1212121,31.4440107 C61.4850595,32.0935896 60.7350333,32.7163004 59.8810863,33.3079489 L59.4304646,31.5041616 L59.3853288,31.3505352 C59.3220677,31.1633126 59.2324314,30.9898813 59.1212681,30.8340099 C61.0679399,29.3271319 62.1212121,27.6923831 62.1212121,26.0909091 L62.1212121,26.0909091 L62.1212121,19.0197683 C57.2922582,23.9506395 45.9017525,27.3333333 32.3030303,27.3333333 C18.7043093,27.3333333 7.31380239,23.9506395 2.48484848,19.0197683 L2.48484848,19.0197683 L2.48484848,26.0909091 C2.48484848,31.4925423 14.4674476,37.2727273 32.3030303,37.2727273 C35.3267662,37.2727273 38.1822771,37.1065947 40.8396953,36.8043392 L40.6781414,36.964202 L40.5630765,37.0893276 C40.018597,37.7344943 39.9380912,38.6621619 40.3799596,39.3960404 L40.353,39.3466286 C37.7875703,39.6153197 35.0917325,39.7575758 32.3030303,39.7575758 C18.7043093,39.7575758 7.31380239,36.3748819 2.48484848,31.4440107 L2.48484848,31.4440107 L2.48484848,38.5151515 C2.48484848,43.6401515 12.642637,48.3380682 26.1151749,49.4446023 C26.7994798,49.5028409 27.3090675,50.1046402 27.2556818,50.7840909 C27.1974432,51.434423 26.6587355,51.9294508 26.0132576,51.9294508 C25.9841389,51.9294508 25.9453131,51.9245978 25.9113403,51.9245978 C15.0061553,51.0267525 6.47904861,47.9449577 2.48484848,43.8391332 L2.48484848,43.8391332 L2.48484848,50.9393939 C2.48484848,56.3410272 14.4674476,62.1212121 32.3030303,62.1212121 C35.0583865,62.1212121 37.6738994,61.9833369 40.1270414,61.730275 C40.1936944,62.1227471 40.3804031,62.4959793 40.6781414,62.7933737 L40.6781414,62.7933737 L41.9001646,64.01557 C38.8792289,64.4000249 35.6584202,64.6060606 32.3030303,64.6060606 C14.1908144,64.6060606 0,58.6026282 0,50.9393939 L0,50.9393939 L0,13.6666667 C0,6.00343245 14.1908144,0 32.3030303,0 Z M32.3030303,47.2121212 C32.9921881,47.2121212 33.5454545,47.7702418 33.5454545,48.4545455 L33.5454545,48.4545455 L33.5454545,50.9393939 C33.5454545,51.6236976 32.9921881,52.1818182 32.3030303,52.1818182 C31.6138737,52.1818182 31.0606061,51.6236976 31.0606061,50.9393939 L31.0606061,50.9393939 L31.0606061,48.4545455 C31.0606061,47.7702418 31.6138737,47.2121212 32.3030303,47.2121212 Z M51.5669877,34.5593867 L51.1873939,36.0696566 L50.74088,36.2311707 C50.297237,36.4002193 49.8623961,36.5917917 49.4380606,36.8051717 L49.4380606,36.8051717 L47.5479473,35.6709814 C48.9792841,35.3411128 50.3214462,34.9680875 51.5669877,34.5593867 Z M32.3030303,2.48484848 C14.4674476,2.48484848 2.48484848,8.26503345 2.48484848,13.6666667 C2.48484848,19.0682999 14.4674476,24.8484848 32.3030303,24.8484848 C50.138613,24.8484848 62.1212121,19.0682999 62.1212121,13.6666667 C62.1212121,8.26503345 50.138613,2.48484848 32.3030303,2.48484848 Z M32.3030303,4.96969697 C34.0065107,4.96969697 35.7099912,5.02793561 37.3600858,5.13955997 C38.0443895,5.18323864 38.5636843,5.77533206 38.5151515,6.46448864 C38.4714728,7.1487923 37.8745265,7.68264709 37.1950758,7.61470139 C35.5983668,7.50793118 33.953125,7.45454545 32.3030303,7.45454545 C27.0858188,7.45454545 21.9802317,8.01751894 17.92294,9.03184155 C17.8210227,9.06096148 17.7191054,9.0706673 17.622041,9.0706673 C17.0639205,9.0706673 16.5591856,8.6969697 16.4184425,8.13399621 C16.2485795,7.46910542 16.6513971,6.78965467 17.3162879,6.62464458 C21.6307999,5.54237752 26.8091856,4.96969697 32.3030303,4.96969697 Z M41.7765152,6.82362752 C41.8832866,6.14417676 42.5190575,5.68312058 43.1985082,5.79474494 C44.6399154,6.02284533 46.0133756,6.3043327 47.2897727,6.62464458 C47.9546635,6.78965467 48.3574811,7.46910542 48.1876181,8.13399621 C48.046875,8.6969697 47.5421402,9.0706673 46.9840196,9.0706673 C46.8869552,9.0706673 46.7850379,9.06096148 46.6831206,9.03184155 C45.4746692,8.73094255 44.1740063,8.46886806 42.8053977,8.25047348 C42.125947,8.13884912 41.6648908,7.50307827 41.7765152,6.82362752 Z" id="Combined-Shape" fill="#007FEE"></path>
                <g id="icons8-settings" transform="translate(36.000000, 30.000000)">
                    <path d="M37.6371717,16.4530101 L33.2240808,15.3464242 C33.0261027,14.7678537 32.7892256,14.2033335 32.5150707,13.6567273 L34.8607677,9.74723232 C35.3128464,8.99095814 35.1926752,8.02412638 34.5692121,7.40153535 L32.3626667,5.18836364 C31.7400756,4.56490059 30.7732439,4.44472941 30.0169697,4.89680808 L26.1074747,7.24250505 C25.558811,6.96975128 24.9920317,6.7350692 24.4111515,6.54012121 L23.3045657,2.12040404 C23.0917733,1.26489907 22.324157,0.663918292 21.4425859,0.662626263 L18.3149899,0.662626263 C17.4334188,0.663918292 16.6658024,1.26489907 16.4530101,2.12040404 L15.3464242,6.53349495 C14.7677959,6.73132113 14.2032655,6.96820248 13.6567273,7.24250505 L9.74060606,4.89680808 C8.98433188,4.44472941 8.01750012,4.56490059 7.39490909,5.18836364 L5.18836364,7.39490909 C4.56490059,8.01750012 4.44472941,8.98433188 4.89680808,9.74060606 L7.24250505,13.650101 C6.96990321,14.1988338 6.73522552,14.7656026 6.54012121,15.3464242 L2.12040404,16.4530101 C1.26489907,16.6658024 0.663918292,17.4334188 0.662626263,18.3149899 L0.662626263,21.4359596 C0.663918292,22.3175307 1.26489907,23.0851471 2.12040404,23.2979394 L6.53349495,24.4045253 C6.73147304,24.9830958 6.96835014,25.547616 7.24250505,26.0942222 L4.89680808,30.0169697 C4.44472941,30.7732439 4.56490059,31.7400756 5.18836364,32.3626667 L7.39490909,34.5692121 C8.01750012,35.1926752 8.98433188,35.3128464 9.74060606,34.8607677 L13.650101,32.5150707 C14.1987647,32.7878245 14.7655441,33.0225066 15.3464242,33.2174545 L16.4530101,37.6371717 C16.6658024,38.4926767 17.4334188,39.0936575 18.3149899,39.0949495 L21.4359596,39.0949495 C22.3175307,39.0936575 23.0851471,38.4926767 23.2979394,37.6371717 L24.4045253,33.2240808 C24.9831536,33.0262546 25.5476839,32.7893733 26.0942222,32.5150707 L30.0037172,34.8607677 C30.7594705,35.3153111 31.7279315,35.1949375 32.3494141,34.5692121 L34.5559596,32.3626667 C35.1794226,31.7400756 35.2995938,30.7732439 34.8475152,30.0169697 L32.5018182,26.1074747 C32.77442,25.5587419 33.0090977,24.9919732 33.204202,24.4111515 L37.6239192,23.3045657 C38.4846865,23.0969467 39.092155,22.3280338 39.0949495,21.4425859 L39.0949495,18.3149899 C39.0936575,17.4334188 38.4926767,16.6658024 37.6371717,16.4530101 Z" id="Path"></path>
                    <path d="M28.4929293,19.2161616 L27.1676768,19.2161616 C26.8017184,19.2161616 26.5050505,19.5128295 26.5050505,19.8787879 C26.5050505,20.2447463 26.8017184,20.5414141 27.1676768,20.5414141 L28.4929293,20.5414141 C28.8588877,20.5414141 29.1555556,20.2447463 29.1555556,19.8787879 C29.1555556,19.5128295 28.8588877,19.2161616 28.4929293,19.2161616 Z M19.8787879,26.5050505 C19.5128295,26.5050505 19.2161616,26.8017184 19.2161616,27.1676768 L19.2161616,28.4929293 C19.2161616,28.8588877 19.5128295,29.1555556 19.8787879,29.1555556 C20.2447463,29.1555556 20.5414141,28.8588877 20.5414141,28.4929293 L20.5414141,27.1676768 C20.5414141,26.8017184 20.2447463,26.5050505 19.8787879,26.5050505 Z M25.5044848,24.5635556 C25.2415811,24.3384105 24.8496814,24.3535479 24.6049278,24.5983015 C24.3601742,24.8430552 24.3450368,25.2349548 24.5701818,25.4978586 L25.5044848,26.4321616 C25.7673886,26.6573066 26.1592883,26.6421693 26.4040419,26.3974156 C26.6487955,26.152662 26.6639329,25.7607624 26.4387879,25.4978586 L25.5044848,24.5635556 Z M25.0340202,15.3861818 C25.2101482,15.3872001 25.3794348,15.3180549 25.5044848,15.1940202 L26.4387879,14.2597172 C26.6639329,13.9968134 26.6487955,13.6049138 26.4040419,13.3601601 C26.1592883,13.1154065 25.7673886,13.1002691 25.5044848,13.3254141 L24.5701818,14.2597172 C24.3790407,14.4492882 24.3215897,14.7356596 24.4248209,14.9842867 C24.528052,15.2329139 24.7714446,15.3943736 25.0406465,15.3928194 L25.0340202,15.3861818 Z M28.1152323,22.4895354 L26.8893737,21.9925657 C26.6671938,21.843815 26.3773835,21.8431708 26.1545445,21.9909322 C25.9317055,22.1386937 25.8195063,22.4059049 25.8700577,22.6684601 C25.920609,22.9310152 26.1240046,23.137463 26.3857778,23.1919192 L27.6116364,23.6888889 C27.8339155,23.7952858 28.0968776,23.7695413 28.294301,23.6220547 C28.4917245,23.4745682 28.590993,23.2297057 28.5520079,22.9863779 C28.5130227,22.74305 28.3422245,22.5414568 28.1086061,22.4630303 L28.1152323,22.4895354 Z M23.337697,26.3327677 C23.2516422,26.1056671 23.0482469,25.9438385 22.8076168,25.9110169 C22.5669867,25.8781952 22.3276814,25.9796399 22.1839491,26.1753978 C22.0402169,26.3711556 22.0150901,26.6298577 22.1184646,26.8496162 L22.6353131,28.0688485 C22.7213679,28.2959491 22.9247632,28.4577776 23.1653933,28.4905993 C23.4060234,28.523421 23.6453287,28.4219763 23.789061,28.2262184 C23.9327932,28.0304605 23.95792,27.7717585 23.8545455,27.552 L23.337697,26.3327677 Z M25.9815758,17.2879192 C26.1245076,17.6243893 26.5129321,17.7815381 26.8496162,17.6391111 L28.0688485,17.1222626 C28.3909632,16.9707396 28.5358039,16.5917859 28.3968701,16.2640444 C28.2579362,15.936303 27.8848764,15.776894 27.552,15.9030303 L26.3327677,16.4198788 C25.9962976,16.5628106 25.8391488,16.9512351 25.9815758,17.2879192 L25.9815758,17.2879192 Z" id="Shape" fill="#30B253"></path>
                    <path d="M38.2534141,16.3337374 L33.6879192,15.1873939 C33.4824962,14.5883562 33.2367629,14.0039094 32.952404,13.4380606 L35.3776162,9.38941414 C35.8489425,8.6066104 35.7259229,7.60331773 35.0794343,6.95757576 L32.7933737,4.67814141 C32.1486916,4.03499305 31.1494389,3.9121341 30.3681616,4.3799596 L26.3195152,6.80517172 C25.7537747,6.52245525 25.1692889,6.2789195 24.5701818,6.07628283 L23.4304646,1.50416162 C23.2080437,0.617554704 22.4096711,-0.00309797189 21.495596,-1.15454692e-05 L18.2619798,-1.15454692e-05 C17.3503735,-1.15454692e-05 16.5555616,0.619955725 16.3337374,1.50416162 L15.1873939,6.06965657 C14.5882982,6.27492742 14.0038412,6.52066501 13.4380606,6.80517172 L9.3960404,4.3799596 C8.61476314,3.9121341 7.6155104,4.03499305 6.97082828,4.67814141 L4.67814141,6.96420202 C4.03165283,7.60994399 3.90863329,8.61323666 4.3799596,9.3960404 L6.80517172,13.4446869 C6.52234661,14.0126531 6.27881211,14.5993499 6.07628283,15.2006465 L1.50416162,16.3403636 C0.622346601,16.5615828 0.0029796204,17.3528446 0,18.2619798 L0,21.495596 C0,22.4072023 0.619955725,23.2020142 1.50416162,23.4238384 L6.06965657,24.5701818 C6.27507955,25.1692196 6.52081286,25.7536664 6.80517172,26.3195152 L4.3799596,30.3615354 C3.90863329,31.1443391 4.03165283,32.1476318 4.67814141,32.7933737 L6.96420202,35.0794343 C7.60888413,35.7225827 8.60813688,35.8454417 9.38941414,35.3776162 L13.4380606,32.952404 C14.0038011,33.2351205 14.5882869,33.4786563 15.1873939,33.6812929 L16.3271111,38.2534141 C16.5495321,39.1400211 17.3479047,39.7606737 18.2619798,39.7575873 L21.495596,39.7575873 C22.4072023,39.7575873 23.2020142,39.13762 23.4238384,38.2534141 L24.5701818,33.6879192 C25.1692775,33.4826483 25.7537345,33.2369107 26.3195152,32.952404 L30.3681616,35.3776162 C31.1494389,35.8454417 32.1486916,35.7225827 32.7933737,35.0794343 L35.0794343,32.7933737 C35.7259229,32.1476318 35.8489425,31.1443391 35.3776162,30.3615354 L32.952404,26.3128889 C33.2352291,25.7449226 33.4787637,25.1582259 33.6812929,24.5569293 L38.2534141,23.4172121 C39.1352292,23.1959929 39.7545961,22.4047311 39.7575758,21.495596 L39.7575758,18.2619798 C39.7575758,17.3503735 39.13762,16.5555616 38.2534141,16.3337374 Z M38.4326074,21.495596 C38.4414102,21.8074923 38.2316689,22.0834677 37.9287273,22.1582222 L33.3566061,23.2979394 C32.9213602,23.409275 32.5721561,23.7335359 32.4289293,24.1593535 C32.2430811,24.7033793 32.02173,25.2346219 31.766303,25.7496566 C31.5689097,26.1474097 31.583836,26.6175883 31.8060606,27.0020202 L34.2312727,31.0506667 C34.3872146,31.3110924 34.3462616,31.6441767 34.1318788,31.8590707 L31.8458182,34.1451313 C31.6309241,34.3595141 31.2978399,34.4004671 31.0374141,34.2445253 L27.0020202,31.8060606 C26.6136194,31.5745804 26.1340037,31.5570944 25.7297778,31.7596768 C25.21461,32.0148114 24.6833868,32.2361544 24.1394747,32.422303 C23.7136571,32.5655299 23.3893962,32.9147339 23.2780606,33.3499798 L22.1383434,37.922101 C22.0635889,38.2250427 21.7876135,38.434784 21.4757172,38.4259811 L18.2619798,38.4259811 C17.9500835,38.434784 17.6741081,38.2250427 17.5993535,37.922101 L16.4596364,33.3499798 C16.3483008,32.9147339 16.0240398,32.5655299 15.5982222,32.422303 C15.0543102,32.2361544 14.523087,32.0148114 14.0079192,31.7596768 C13.8227211,31.6673705 13.618481,31.6197144 13.4115556,31.6205253 C13.1781969,31.6229488 12.949616,31.6869514 12.7489293,31.8060606 L8.70028283,34.2312727 C8.43985707,34.3872146 8.10677283,34.3462616 7.89187879,34.1318788 L5.60581818,31.8458182 C5.39143539,31.6309241 5.35048241,31.2978399 5.50642424,31.0374141 L7.95151515,27.0020202 C8.18299534,26.6136194 8.20048132,26.1340037 7.99789899,25.7297778 C7.7426102,25.2146802 7.52126294,24.6834468 7.33527273,24.1394747 C7.19204589,23.7136571 6.84284182,23.3893962 6.40759596,23.2780606 L1.83547475,22.1383434 C1.5325331,22.0635889 1.32279178,21.7876135 1.33159464,21.4757172 L1.33159464,18.2619798 C1.32279178,17.9500835 1.5325331,17.6741081 1.83547475,17.5993535 L6.40759596,16.4596364 C6.84284182,16.3483008 7.19204589,16.0240398 7.33527273,15.5982222 C7.52112094,15.0541964 7.74247202,14.5229538 7.99789899,14.0079192 C8.19326674,13.6090653 8.17585191,13.1388649 7.95151515,12.7555556 L5.52630303,8.70690909 C5.3703612,8.44648334 5.41131418,8.11339909 5.62569697,7.89850505 L7.91175758,5.61244444 C8.12665161,5.39806166 8.45973586,5.35710867 8.72016162,5.51305051 L12.7555556,7.95151515 C13.1439563,8.18299534 13.623572,8.20048132 14.027798,7.99789899 C14.5429658,7.74276433 15.074189,7.52142132 15.618101,7.33527273 C16.0439186,7.19204589 16.3681796,6.84284182 16.4795152,6.40759596 L17.6192323,1.83547475 C17.6939869,1.5325331 17.9699623,1.32279178 18.2818586,1.33159464 L21.5154747,1.33159464 C21.8273711,1.32279178 22.1033465,1.5325331 22.178101,1.83547475 L23.3178182,6.40759596 C23.4291538,6.84284182 23.7534147,7.19204589 24.1792323,7.33527273 C24.7231443,7.52142132 25.2543675,7.74276433 25.7695354,7.99789899 C26.1629646,8.18619826 26.6238568,8.16885286 27.0020202,7.95151515 L31.0506667,5.52630303 C31.3110924,5.3703612 31.6441767,5.41131418 31.8590707,5.62569697 L34.1451313,7.91175758 C34.3595141,8.12665161 34.4004671,8.45973586 34.2445253,8.72016162 L31.8060606,12.7555556 C31.5745804,13.1439563 31.5570944,13.623572 31.7596768,14.027798 C32.0149656,14.5428956 32.2363128,15.074129 32.422303,15.618101 C32.5655299,16.0439186 32.9147339,16.3681796 33.3499798,16.4795152 L37.922101,17.6192323 C38.2250427,17.6939869 38.434784,17.9699623 38.425697,18.2818586 L38.4326074,21.495596 Z" id="Shape" fill="#30B253"></path>
                    <path d="M19.8787879,14.5777778 C16.9511208,14.5777778 14.5777778,16.9511208 14.5777778,19.8787879 C14.5777778,22.8064549 16.9511208,25.179798 19.8787879,25.179798 C22.8064549,25.179798 25.179798,22.8064549 25.179798,19.8787879 C25.179798,16.9511208 22.8064549,14.5777778 19.8787879,14.5777778 Z M19.8787879,23.8545455 C17.6830376,23.8545455 15.9030303,22.0745382 15.9030303,19.8787879 C15.9030303,17.6830376 17.6830376,15.9030303 19.8787879,15.9030303 C22.0745382,15.9030303 23.8545455,17.6830376 23.8545455,19.8787879 C23.8545455,22.0745382 22.0745382,23.8545455 19.8787879,23.8545455 Z" id="Shape" fill="#30B253"></path>
                    <path d="M16.1614545,26.9092525 C13.2446569,25.3668579 11.5834479,22.1833708 11.9865434,18.9085878 C12.3896389,15.6338047 14.7732786,12.9482011 17.9770505,12.1591919 C18.2148821,12.1100365 18.4067676,11.9347138 18.4771345,11.7022733 C18.5475015,11.4698328 18.485074,11.2175217 18.3144386,11.0447106 C18.1438032,10.8718995 17.8923033,10.8062805 17.6589899,10.873697 C13.9084641,11.7853264 11.1142614,14.9239666 10.6427754,18.7547907 C10.1712893,22.5856148 12.1210425,26.3081265 15.5385859,28.1019798 C15.862459,28.2739802 16.264444,28.1508631 16.4364444,27.8269899 C16.6084449,27.5031167 16.4853277,27.1011318 16.1614545,26.9291313 L16.1614545,26.9092525 Z M20.9456162,12.0001616 C21.4225298,12.0634666 21.8927141,12.1699234 22.3503838,12.3182222 C22.693015,12.4160044 23.0516302,12.2253266 23.162164,11.8865941 C23.2726978,11.5478615 23.0955717,11.1823629 22.7612121,11.0592323 C22.2279815,10.886347 21.6801782,10.7621487 21.1245253,10.6881616 C20.8877917,10.6573862 20.6526224,10.7552445 20.5076034,10.9448741 C20.3625843,11.1345037 20.3297474,11.3870954 20.4214619,11.6075004 C20.5131765,11.8279053 20.7155089,11.9826388 20.9522424,12.0134141 L20.9456162,12.0001616 Z M19.8787879,18.5535354 C19.1468711,18.5535354 18.5535354,19.1468711 18.5535354,19.8787879 C18.5535354,20.6107046 19.1468711,21.2040404 19.8787879,21.2040404 C20.6107046,21.2040404 21.2040404,20.6107046 21.2040404,19.8787879 C21.2040404,19.1468711 20.6107046,18.5535354 19.8787879,18.5535354 Z" id="Shape" fill="#30B253"></path>
                </g>
            </g>
        </g>
    </g>
</svg>