<?xml version="1.0" encoding="UTF-8"?>
<svg width="76px" height="76px" viewBox="0 0 76 76" version="1.1" xmlns="http://www.w3.org/2000/svg" xmlns:xlink="http://www.w3.org/1999/xlink">
    <!-- Generator: Sketch 60 (88103) - https://sketch.com -->
    <title>icons8-registry-editor</title>
    <desc>Created with Sketch.</desc>
    <g id="Feature-Platform" stroke="none" stroke-width="1" fill="none" fill-rule="evenodd">
        <g id="NEW-DASHBOARD-V3" transform="translate(-115.000000, -235.000000)" fill-rule="nonzero">
            <g id="icons8-registry-editor" transform="translate(115.000000, 235.000000)">
                <path d="M17.7333333,74.7333333 L2.53333333,74.7333333 C1.83413333,74.7333333 1.26666667,74.1658667 1.26666667,73.4666667 L1.26666667,58.2666667 C1.26666667,57.5674667 1.83413333,57 2.53333333,57 L17.7333333,57 C18.4325333,57 19,57.5674667 19,58.2666667 L19,73.4666667 C19,74.1658667 18.4325333,74.7333333 17.7333333,74.7333333 Z M35.4666667,74.7333333 L20.2666667,74.7333333 C19.5674667,74.7333333 19,74.1658667 19,73.4666667 L19,58.2666667 C19,57.5674667 19.5674667,57 20.2666667,57 L35.4666667,57 C36.1658667,57 36.7333333,57.5674667 36.7333333,58.2666667 L36.7333333,73.4666667 C36.7333333,74.1658667 36.1658667,74.7333333 35.4666667,74.7333333 Z M53.2,74.7333333 L38,74.7333333 C37.3008,74.7333333 36.7333333,74.1658667 36.7333333,73.4666667 L36.7333333,58.2666667 C36.7333333,57.5674667 37.3008,57 38,57 L53.2,57 C53.8992,57 54.4666667,57.5674667 54.4666667,58.2666667 L54.4666667,73.4666667 C54.4666667,74.1658667 53.8992,74.7333333 53.2,74.7333333 Z M17.7333333,57 L2.53333333,57 C1.83413333,57 1.26666667,56.4325333 1.26666667,55.7333333 L1.26666667,40.5333333 C1.26666667,39.8341333 1.83413333,39.2666667 2.53333333,39.2666667 L17.7333333,39.2666667 C18.4325333,39.2666667 19,39.8341333 19,40.5333333 L19,55.7333333 C19,56.4325333 18.4325333,57 17.7333333,57 Z M35.4666667,57 L20.2666667,57 C19.5674667,57 19,56.4325333 19,55.7333333 L19,40.5333333 C19,39.8341333 19.5674667,39.2666667 20.2666667,39.2666667 L35.4666667,39.2666667 C36.1658667,39.2666667 36.7333333,39.8341333 36.7333333,40.5333333 L36.7333333,55.7333333 C36.7333333,56.4325333 36.1658667,57 35.4666667,57 Z M71.4349333,45.3568 L57.6586667,51.7813333 C57.0240667,52.0764667 56.2704,51.8028667 55.9752667,51.1682667 L49.552,37.392 C49.2568667,36.7574 49.5304667,36.0037333 50.1650667,35.7086 L63.9413333,29.2853333 C64.5759333,28.9902 65.3296,29.2638 65.6247333,29.8984 L72.048,43.6746667 C72.3431333,44.308 72.0695333,45.0616667 71.4349333,45.3568 Z M17.7333333,39.2666667 L2.53333333,39.2666667 C1.83413333,39.2666667 1.26666667,38.6992 1.26666667,38 L1.26666667,22.8 C1.26666667,22.1008 1.83413333,21.5333333 2.53333333,21.5333333 L17.7333333,21.5333333 C18.4325333,21.5333333 19,22.1008 19,22.8 L19,38 C19,38.6992 18.4325333,39.2666667 17.7333333,39.2666667 Z M37.1044667,30.6432 L26.3568,19.8955333 C25.8615333,19.4002667 25.8615333,18.5984667 26.3568,18.1044667 L37.1044667,7.3568 C37.5997333,6.86153333 38.4015333,6.86153333 38.8955333,7.3568 L49.6432,18.1044667 C50.1384667,18.5997333 50.1384667,19.4015333 49.6432,19.8955333 L38.8955333,30.6432 C38.4015333,31.1384667 37.5984667,31.1384667 37.1044667,30.6432 Z M73.4666667,19 L58.2666667,19 C57.5674667,19 57,18.4325333 57,17.7333333 L57,2.53333333 C57,1.83413333 57.5674667,1.26666667 58.2666667,1.26666667 L73.4666667,1.26666667 C74.1658667,1.26666667 74.7333333,1.83413333 74.7333333,2.53333333 L74.7333333,17.7333333 C74.7333333,18.4325333 74.1658667,19 73.4666667,19 Z" id="Shape"></path>
                <path d="M53.2,55.7333333 L38,55.7333333 L38,40.5333333 C38,39.1362 36.8638,38 35.4666667,38 L20.2666667,38 L20.2666667,22.8 C20.2666667,21.4028667 19.1304667,20.2666667 17.7333333,20.2666667 L2.53333333,20.2666667 C1.1362,20.2666667 0,21.4028667 0,22.8 L0,38 C0,38.4636 0.134266667,38.893 0.352133333,39.2666667 C0.134266667,39.6403333 0,40.0697333 0,40.5333333 L0,55.7333333 C0,56.1969333 0.134266667,56.6263333 0.352133333,57 C0.134266667,57.3736667 0,57.8030667 0,58.2666667 L0,73.4666667 C0,74.8638 1.1362,76 2.53333333,76 L17.7333333,76 C18.1969333,76 18.6263333,75.8657333 19,75.6478667 C19.3736667,75.8657333 19.8030667,76 20.2666667,76 L35.4666667,76 C35.9302667,76 36.3596667,75.8657333 36.7333333,75.6478667 C37.107,75.8657333 37.5364,76 38,76 L53.2,76 C54.5971333,76 55.7333333,74.8638 55.7333333,73.4666667 L55.7333333,58.2666667 C55.7333333,56.8695333 54.5971333,55.7333333 53.2,55.7333333 Z M35.4666667,40.5333333 L35.4679333,55.7333333 L35.4666667,55.7333333 L20.2666667,55.7333333 L20.2666667,40.5333333 L35.4666667,40.5333333 Z M2.53333333,40.5333333 L17.7333333,40.5333333 L17.7333333,55.7333333 L2.53333333,55.7333333 L2.53333333,40.5333333 Z M2.53333333,22.8 L17.7333333,22.8 L17.7346,38 L17.7333333,38 L2.53333333,38 L2.53333333,22.8 Z M2.53333333,73.4666667 L2.53333333,58.2666667 L17.7333333,58.2666667 L17.7333333,73.4666667 L2.53333333,73.4666667 Z M20.2666667,73.4666667 L20.2666667,58.2666667 L35.4666667,58.2666667 L35.4666667,73.4666667 L20.2666667,73.4666667 Z M38,73.4666667 L38,58.2666667 L53.2,58.2666667 L53.2012667,73.4666667 L38,73.4666667 Z M36.2089333,31.5387333 C36.7029333,32.0327333 37.3514667,32.2797333 38,32.2797333 C38.6485333,32.2797333 39.2970667,32.0327333 39.7910667,31.5387333 L50.5387333,20.7910667 C51.5267333,19.8030667 51.5267333,18.1969333 50.5387333,17.2089333 L39.7910667,6.46126667 C38.8043333,5.47326667 37.1956667,5.47326667 36.2089333,6.46126667 L25.4612667,17.2089333 C24.4732667,18.1969333 24.4732667,19.8030667 25.4612667,20.7910667 L36.2089333,31.5387333 Z M38,8.25233333 L48.7476667,19 L38.0012667,29.7489333 L27.2523333,19 L38,8.25233333 Z" id="Shape" fill="#007FEE"></path>
                <path d="M12.6666667,65.8666667 C11.9674667,65.8666667 11.4,66.4341333 11.4,67.1333333 L11.4,69.6666667 C11.4,70.3658667 11.9674667,70.9333333 12.6666667,70.9333333 C13.3658667,70.9333333 13.9333333,70.3658667 13.9333333,69.6666667 L13.9333333,67.1333333 C13.9333333,66.4341333 13.3658667,65.8666667 12.6666667,65.8666667 Z M6.33333333,65.8666667 C5.63413333,65.8666667 5.06666667,66.4341333 5.06666667,67.1333333 L5.06666667,69.6666667 C5.06666667,70.3658667 5.63413333,70.9333333 6.33333333,70.9333333 C7.03253333,70.9333333 7.6,70.3658667 7.6,69.6666667 L7.6,67.1333333 C7.6,66.4341333 7.03253333,65.8666667 6.33333333,65.8666667 Z M30.4,65.8666667 C29.7008,65.8666667 29.1333333,66.4341333 29.1333333,67.1333333 L29.1333333,69.6666667 C29.1333333,70.3658667 29.7008,70.9333333 30.4,70.9333333 C31.0992,70.9333333 31.6666667,70.3658667 31.6666667,69.6666667 L31.6666667,67.1333333 C31.6666667,66.4341333 31.0992,65.8666667 30.4,65.8666667 Z M24.0666667,65.8666667 C23.3674667,65.8666667 22.8,66.4341333 22.8,67.1333333 L22.8,69.6666667 C22.8,70.3658667 23.3674667,70.9333333 24.0666667,70.9333333 C24.7658667,70.9333333 25.3333333,70.3658667 25.3333333,69.6666667 L25.3333333,67.1333333 C25.3333333,66.4341333 24.7658667,65.8666667 24.0666667,65.8666667 Z M48.1333333,65.8666667 C47.4341333,65.8666667 46.8666667,66.4341333 46.8666667,67.1333333 L46.8666667,69.6666667 C46.8666667,70.3658667 47.4341333,70.9333333 48.1333333,70.9333333 C48.8325333,70.9333333 49.4,70.3658667 49.4,69.6666667 L49.4,67.1333333 C49.4,66.4341333 48.8325333,65.8666667 48.1333333,65.8666667 Z M41.8,65.8666667 C41.1008,65.8666667 40.5333333,66.4341333 40.5333333,67.1333333 L40.5333333,69.6666667 C40.5333333,70.3658667 41.1008,70.9333333 41.8,70.9333333 C42.4992,70.9333333 43.0666667,70.3658667 43.0666667,69.6666667 L43.0666667,67.1333333 C43.0666667,66.4341333 42.4992,65.8666667 41.8,65.8666667 Z" id="Shape" fill="#007FEE"></path>
                <path d="M63.4055333,28.1377333 C64.0198667,27.8514667 64.7076667,27.8223333 65.3435333,28.0528667 C65.9794,28.2846667 66.4860667,28.7495333 66.7723333,29.3626 L66.7723333,29.3626 L73.1956,43.1388667 C73.4818667,43.7532 73.5122667,44.441 73.2804667,45.0768667 C73.0486667,45.7127333 72.5838,46.2194 71.9707333,46.5056667 L71.9707333,46.5056667 L58.1957333,52.9289333 C57.855,53.0872667 57.4914667,53.1670667 57.1266667,53.1670667 C56.8340667,53.1670667 56.5414667,53.1151333 56.2577333,53.0125333 C55.6218667,52.7807333 55.1152,52.3158667 54.8289333,51.7028 L54.8289333,51.7028 L48.4056667,37.9278 C48.1194,37.3134667 48.089,36.6256667 48.3208,35.9898 C48.5526,35.3539333 49.0174667,34.8472667 49.6305333,34.561 L49.6305333,34.561 Z M64.4758667,30.4342 L50.7008667,36.8574667 L57.1241333,50.6324667 L70.9004,44.2092 L64.4758667,30.4342 Z" id="Combined-Shape" fill="#30B253"></path>
                <path d="M73.4666667,0 C74.8638,0 76,1.1362 76,2.53333333 L76,2.53333333 L76,17.7333333 C76,19.1304667 74.8638,20.2666667 73.4666667,20.2666667 L73.4666667,20.2666667 L58.2666667,20.2666667 C56.8695333,20.2666667 55.7333333,19.1304667 55.7333333,17.7333333 L55.7333333,17.7333333 L55.7333333,2.53333333 C55.7333333,1.1362 56.8695333,0 58.2666667,0 L58.2666667,0 Z M73.4666667,2.53333333 L58.2666667,2.53333333 L58.2666667,17.7333333 L73.4679333,17.7333333 L73.4666667,2.53333333 Z" id="Combined-Shape" fill="#30B253"></path>
            </g>
        </g>
    </g>
</svg>
