<?xml version="1.0" encoding="UTF-8"?>
<svg width="20px" height="20px" viewBox="0 0 20 20" version="1.1" xmlns="http://www.w3.org/2000/svg" xmlns:xlink="http://www.w3.org/1999/xlink">
    <!-- Generator: Sketch 61.2 (89653) - https://sketch.com -->
    <title>Usable custom features</title>
    <desc>Created with Sketch.</desc>
    <g id="Feature-Platform" stroke="none" stroke-width="1" fill="none" fill-rule="evenodd">
        <g id="INSTANTIATE-PACKAGE---GENERATE-FEATURES" transform="translate(-750.000000, -445.000000)" fill="#30CD9A" fill-rule="nonzero">
            <g id="Usable-custom-features" transform="translate(750.000000, 445.000000)">
                <path d="M0.0720108696,4.91847826 L10.7652853,4.91847826 L11.5180027,3.5533288 L0.0720108696,3.5533288 L0.0720108696,4.91847826 Z M0.0720108696,0.019361413 L0.0720108696,1.38451087 L12.9381793,1.38451087 L12.9381793,0.019361413 L0.0720108696,0.019361413 Z M0.0720108696,8.45278533 L8.81623641,8.45278533 L9.5689538,7.08763587 L0.0720108696,7.08763587 L0.0720108696,8.45278533 Z M0.0720108696,10.6219429 L0.0720108696,11.9870924 L3.77377717,11.9870924 L2.49456522,10.6219429 L0.0720108696,10.6219429 Z" id="Shape"></path>
                <path d="M19.9412364,10.4680707 L14.813519,9.48335598 L12.2917799,4.91100543 L9.77004076,9.48335598 L4.64232337,10.4680707 L8.21331522,14.2788723 L7.56453804,19.4602582 L12.2917799,17.2435462 L17.0193614,19.4602582 L16.3709239,14.2788723 L19.9412364,10.4680707 Z M12.2917799,15.3474864 L9.33661685,16.7330163 L9.7421875,13.4942255 L7.50985054,11.1120924 L10.7153533,10.4966033 L12.2917799,7.63858696 L13.8682065,10.4966033 L17.0733696,11.1120924 L14.8420516,13.4942255 L15.2472826,16.7330163 L12.2917799,15.3474864 Z" id="Shape"></path>
            </g>
        </g>
    </g>
</svg>