<?xml version="1.0" encoding="UTF-8"?>
<svg width="24px" height="24px" viewBox="0 0 24 24" version="1.1" xmlns="http://www.w3.org/2000/svg" xmlns:xlink="http://www.w3.org/1999/xlink">
    <!-- Generator: Sketch 62 (91390) - https://sketch.com -->
    <title>HELP TEXT</title>
    <desc>Created with Sketch.</desc>
    <g id="Feature-Platform" stroke="none" stroke-width="1" fill="none" fill-rule="evenodd">
        <g id="CREATE-FEATURE---VELOCITY-FEATURE---02" transform="translate(-1287.000000, -372.000000)" fill="currentColor" fill-rule="nonzero">
            <g id="Group-29" transform="translate(1287.000000, 372.000000)">
                <g id="HELP-TEXT">
                    <path d="M12,5.14285714 C9.47936928,5.14285714 7.42857143,7.33590188 7.42857143,10.0314076 C7.42857143,11.7262073 8.23604948,13.2761327 9.58851855,14.1779562 C9.74789916,14.2841207 9.84420735,14.4646387 9.84420735,14.658571 L9.84420735,16 L14.1561703,16 L14.1561703,14.658571 C14.1561703,14.4646387 14.2521008,14.2841207 14.4122368,14.1779562 C15.7639505,13.2757494 16.5714286,11.7262073 16.5714286,10.0314076 C16.5714286,7.33590188 14.5206307,5.14285714 12,5.14285714 Z" id="Path"></path>
                    <path d="M21.292875,0 L2.70675,0 C1.21425,0 0,1.214625 0,2.707125 L0,21.292875 C0,22.78575 1.21425,24 2.70675,24 L21.292875,24 C22.78575,24 24,22.78575 24,21.292875 L24,2.70675 C24,1.21425 22.78575,0 21.292875,0 Z M13.656375,19.9365 L10.343625,19.9365 C10.03275,19.9365 9.781125,19.6845 9.781125,19.374 C9.781125,19.0635 10.03275,18.8115 10.343625,18.8115 L13.656375,18.8115 C13.966875,18.8115 14.218875,19.0635 14.218875,19.374 C14.218875,19.6845 13.966875,19.9365 13.656375,19.9365 Z M14.742375,18.4365 L9.258,18.4365 C8.947125,18.4365 8.6955,18.1845 8.6955,17.874 C8.6955,17.5635 8.947125,17.3115 9.258,17.3115 L14.742375,17.3115 C15.052875,17.3115 15.304875,17.5635 15.304875,17.874 C15.304875,18.1845 15.052875,18.4365 14.742375,18.4365 Z M15.265875,14.792625 L15.265875,16.374 C15.265875,16.6845 15.013875,16.9365 14.703375,16.9365 L9.297,16.9365 C8.986125,16.9365 8.7345,16.6845 8.7345,16.374 L8.7345,14.792625 C7.227,13.683 6.336,11.903625 6.336,9.971625 C6.336,6.713625 8.876625,4.0635 12,4.0635 C15.123375,4.0635 17.664,6.713625 17.664,9.971625 C17.664,11.903625 16.773375,13.683 15.265875,14.792625 Z" id="Shape"></path>
                </g>
            </g>
        </g>
    </g>
</svg>
