<?xml version="1.0" encoding="UTF-8"?>
<svg width="12px" height="12px" viewBox="0 0 12 12" version="1.1" xmlns="http://www.w3.org/2000/svg" xmlns:xlink="http://www.w3.org/1999/xlink">
    <!-- Generator: Sketch 63.1 (92452) - https://sketch.com -->
    <title>Path_6220</title>
    <desc>Created with Sketch.</desc>
    <g id="Feature-Platform" stroke="none" stroke-width="1" fill="currentColor" fill-rule="evenodd">
        <g id="FEATURE-MGMT-LIST" transform="translate(-1487.000000, -105.000000)" fill="currentColor" fill-rule="nonzero">
            <path d="M1497.66667,111 L1497.66667,115.666667 L1488.33333,115.666667 L1488.33333,111 L1487,111 L1487,115.666667 C1487.0022,116.402135 1487.59787,116.997803 1488.33333,117 L1497.66667,117 C1498.40213,116.997803 1498.9978,116.402135 1499,115.666667 L1499,111 L1497.66667,111 Z M1493.66667,111.446667 L1495.39333,109.726667 L1496.33333,110.666667 L1493,114 L1489.66667,110.666667 L1490.60667,109.726667 L1492.33333,111.446667 L1492.33333,105 L1493.66667,105 L1493.66667,111.446667 Z" id="Path_6220" transform="translate(1493.000000, 111.000000) scale(-1, 1) rotate(180.000000) translate(-1493.000000, -111.000000) "></path>
        </g>
    </g>
</svg>
