<?xml version="1.0" encoding="UTF-8"?>
<svg width="38px" height="41px" viewBox="0 0 38 41" version="1.1" xmlns="http://www.w3.org/2000/svg" xmlns:xlink="http://www.w3.org/1999/xlink">
    <!-- Generator: Sketch 60 (88103) - https://sketch.com -->
    <title>Group 3</title>
    <desc>Created with Sketch.</desc>
    <g id="Feature-Platform" stroke="none" stroke-width="1" fill="none" fill-rule="evenodd">
        <g id="NEW-DASHBOARD-V3" transform="translate(-1113.000000, -665.000000)" fill="currentColor" fill-rule="nonzero">
            <g id="Group-3" transform="translate(1113.000000, 665.000000)">
                <g id="icons8-import" transform="translate(19.000000, 15.946429) scale(1, -1) rotate(90.000000) translate(-19.000000, -15.946429) translate(8.708333, 8.821429)">
                    <path d="M6.86503186,0.204747248 L0,7.125 L0,7.125 L6.86503186,14.0452528 C7.13368876,14.3160707 7.57101952,14.3178225 7.84183745,14.0491656 C7.84314702,14.0478665 7.84445138,14.0465621 7.8457505,14.0452526 C8.11720161,13.7716178 8.11720153,13.3302796 7.84575032,13.0566449 L2.65498463,7.82412575 L2.65498463,7.82412575 L19.6304708,7.82412575 C20.0165873,7.82412575 20.3295966,7.51111649 20.3295966,7.125 C20.3295966,6.73888351 20.0165873,6.42587425 19.6304708,6.42587425 L2.65498463,6.42587425 L2.65498463,6.42587425 L7.84575032,1.19335511 C8.11720153,0.919720404 8.11720161,0.478382223 7.8457505,0.204747422 C7.57709369,-0.0660706 7.13976293,-0.0678226079 6.8689449,0.200834203 C6.86763533,0.202133321 6.86633098,0.20343768 6.86503186,0.204747248 Z" id="Shape"></path>
                </g>
                <path d="M16.2857143,13.797619 L2.03571429,13.797619 C0.914480857,13.797619 0,14.7120999 0,15.8333333 L0,38.9047619 C0,40.0259953 0.914480857,40.9404762 2.03571429,40.9404762 L35.9642857,40.9404762 C37.0855191,40.9404762 38,40.0259953 38,38.9047619 L38,15.8333333 C38,14.7120999 37.0855191,13.797619 35.9642857,13.797619 L21.7142857,13.797619 L16.2857143,13.797619 Z M2.03571429,15.1547619 L16.2857143,15.1547619 L35.9642857,15.1547619 C36.33803,15.1547619 36.6428571,15.4595891 36.6428571,15.8333333 L36.6428571,38.9047619 C36.6428571,39.2785062 36.33803,39.5833333 35.9642857,39.5833333 L2.03571429,39.5833333 C1.66197004,39.5833333 1.35714286,39.2785062 1.35714286,38.9047619 L1.35714286,15.8333333 C1.35714286,15.4595891 1.66197004,15.1547619 2.03571429,15.1547619 Z M4.07142857,35.5119048 C3.69768432,35.5119048 3.39285714,35.8140814 3.39285714,36.1904762 L3.39285714,37.547619 C3.39285714,37.9240145 3.69768432,38.2261905 4.07142857,38.2261905 C4.44517282,38.2261905 4.75,37.9240145 4.75,37.547619 L4.75,36.1904762 C4.75,35.8140814 4.44517282,35.5119048 4.07142857,35.5119048 Z M7.46428571,35.5119048 C7.09054146,35.5119048 6.78571429,35.8140814 6.78571429,36.1904762 L6.78571429,37.547619 C6.78571429,37.9240145 7.09054146,38.2261905 7.46428571,38.2261905 C7.83802996,38.2261905 8.14285714,37.9240145 8.14285714,37.547619 L8.14285714,36.1904762 C8.14285714,35.8140814 7.83802996,35.5119048 7.46428571,35.5119048 Z M10.8571429,35.5119048 C10.4833986,35.5119048 10.1785714,35.8140814 10.1785714,36.1904762 L10.1785714,37.547619 C10.1785714,37.9240145 10.4833986,38.2261905 10.8571429,38.2261905 C11.2308871,38.2261905 11.5357143,37.9240145 11.5357143,37.547619 L11.5357143,36.1904762 C11.5357143,35.8140814 11.2308871,35.5119048 10.8571429,35.5119048 Z M14.25,35.5119048 C13.8762557,35.5119048 13.5714286,35.8140814 13.5714286,36.1904762 L13.5714286,37.547619 C13.5714286,37.9240145 13.8762557,38.2261905 14.25,38.2261905 C14.6237442,38.2261905 14.9285714,37.9240145 14.9285714,37.547619 L14.9285714,36.1904762 C14.9285714,35.8140814 14.6237442,35.5119048 14.25,35.5119048 Z M17.6428571,35.5119048 C17.2691129,35.5119048 16.9642857,35.8140814 16.9642857,36.1904762 L16.9642857,37.547619 C16.9642857,37.9240145 17.2691129,38.2261905 17.6428571,38.2261905 C18.0166014,38.2261905 18.3214286,37.9240145 18.3214286,37.547619 L18.3214286,36.1904762 C18.3214286,35.8140814 18.0166014,35.5119048 17.6428571,35.5119048 Z M21.0357143,35.5119048 C20.66197,35.5119048 20.3571429,35.8140814 20.3571429,36.1904762 L20.3571429,37.547619 C20.3571429,37.9240145 20.66197,38.2261905 21.0357143,38.2261905 C21.4094585,38.2261905 21.7142857,37.9240145 21.7142857,37.547619 L21.7142857,36.1904762 C21.7142857,35.8140814 21.4094585,35.5119048 21.0357143,35.5119048 Z M20.2440476,3.8452381 C20.2440476,3.47149385 19.9418709,3.16666667 19.5654762,3.16666667 L18.2083333,3.16666667 C17.8319379,3.16666667 17.5297619,3.47149385 17.5297619,3.8452381 C17.5297619,4.21898235 17.8319379,4.52380952 18.2083333,4.52380952 L19.5654762,4.52380952 C19.9418709,4.52380952 20.2440476,4.21898235 20.2440476,3.8452381 Z M20.2440476,0.678571429 C20.2440476,0.304827179 19.9418709,-1.81030951e-13 19.5654762,-1.81007904e-13 L18.2083333,-1.80924802e-13 C17.8319379,-1.80901755e-13 17.5297619,0.304827179 17.5297619,0.678571429 C17.5297619,1.05231568 17.8319379,1.35714286 18.2083333,1.35714286 L19.5654762,1.35714286 C19.9418709,1.35714286 20.2440476,1.05231568 20.2440476,0.678571429 Z M24.4285714,35.5119048 C24.0548272,35.5119048 23.75,35.8140814 23.75,36.1904762 L23.75,37.547619 C23.75,37.9240145 24.0548272,38.2261905 24.4285714,38.2261905 C24.8023157,38.2261905 25.1071429,37.9240145 25.1071429,37.547619 L25.1071429,36.1904762 C25.1071429,35.8140814 24.8023157,35.5119048 24.4285714,35.5119048 Z M27.8214286,35.5119048 C27.4476843,35.5119048 27.1428571,35.8140814 27.1428571,36.1904762 L27.1428571,37.547619 C27.1428571,37.9240145 27.4476843,38.2261905 27.8214286,38.2261905 C28.1951728,38.2261905 28.5,37.9240145 28.5,37.547619 L28.5,36.1904762 C28.5,35.8140814 28.1951728,35.5119048 27.8214286,35.5119048 Z M31.2142857,35.5119048 C30.8405415,35.5119048 30.5357143,35.8140814 30.5357143,36.1904762 L30.5357143,37.547619 C30.5357143,37.9240145 30.8405415,38.2261905 31.2142857,38.2261905 C31.58803,38.2261905 31.8928571,37.9240145 31.8928571,37.547619 L31.8928571,36.1904762 C31.8928571,35.8140814 31.58803,35.5119048 31.2142857,35.5119048 Z M34.6071429,35.5119048 C34.2333986,35.5119048 33.9285714,35.8140814 33.9285714,36.1904762 L33.9285714,37.547619 C33.9285714,37.9240145 34.2333986,38.2261905 34.6071429,38.2261905 C34.9808871,38.2261905 35.2857143,37.9240145 35.2857143,37.547619 L35.2857143,36.1904762 C35.2857143,35.8140814 34.9808871,35.5119048 34.6071429,35.5119048 Z" id="Shape"></path>
            </g>
        </g>
    </g>
</svg>
