<?xml version="1.0" encoding="UTF-8"?>
<svg width="16px" height="16px" viewBox="0 0 16 16" version="1.1" xmlns="http://www.w3.org/2000/svg" xmlns:xlink="http://www.w3.org/1999/xlink">
    <!-- Generator: Sketch 62 (91390) - https://sketch.com -->
    <title>noun_Magic Wand_2413592</title>
    <desc>Created with Sketch.</desc>
    <g id="Feature-Platform" stroke="none" stroke-width="1" fill="none" fill-rule="evenodd">
        <g id="INSTANTIATE-PACKAGE---GET-MORE-FEATURES-1" transform="translate(-168.000000, -640.000000)" fill="currentColor" fill-rule="nonzero">
            <g id="Group" transform="translate(168.000000, 640.000000)">
                <g id="noun_Magic-Wand_2413592">
                    <path d="M11.367135,5.67868051 L14.2309102,2.81490532 L13.1850947,1.7690898 L10.3213195,4.632865 L11.367135,5.67868051 Z M15.560171,2.37507636 C15.6774593,2.49236466 15.7361026,2.63897286 15.7361026,2.81490532 C15.7361026,2.99083778 15.6774593,3.13744596 15.560171,3.25473427 L2.9908369,15.8240684 C2.87354859,15.9413567 2.72694041,16 2.55100794,16 C2.37507548,16 2.22846729,15.9413567 2.11117898,15.8240684 L0.175931582,13.888821 C0.0586432743,13.7715327 0,13.6249245 0,13.4489921 C0,13.2730596 0.0586432743,13.1264514 0.175931582,13.0091631 L12.7452657,0.439828956 C12.862554,0.322540647 13.0091622,0.263897374 13.1850947,0.263897374 C13.3610271,0.263897374 13.5076353,0.322540647 13.6249236,0.439828956 L15.560171,2.37507636 Z M2.53145999,0.957849723 L3.48930971,1.25106903 L2.53145999,1.54428833 L2.23824068,2.50213806 L1.94502138,1.54428833 L0.987171655,1.25106903 L1.94502138,0.957849723 L2.23824068,0 L2.53145999,0.957849723 Z M5.95235186,2.54123396 L7.86805132,3.12767257 L5.95235186,3.71411118 L5.36591326,5.62981063 L4.77947465,3.71411118 L2.8637752,3.12767257 L4.77947465,2.54123396 L5.36591326,0.625534517 L5.95235186,2.54123396 Z M15.0421503,7.21319489 L16,7.50641415 L15.0421503,7.79963348 L14.748931,8.7574832 L14.4557117,7.79963348 L13.497862,7.50641415 L14.4557117,7.21319489 L14.748931,6.25534517 L15.0421503,7.21319489 Z M8.78680511,0.957849723 L9.74465483,1.25106903 L8.78680511,1.54428833 L8.49358585,2.50213806 L8.20036652,1.54428833 L7.2425168,1.25106903 L8.20036652,0.957849723 L8.49358585,0 L8.78680511,0.957849723 Z" id="Shape"></path>
                </g>
            </g>
        </g>
    </g>
</svg>
