<?xml version="1.0" encoding="UTF-8"?>
<svg width="36px" height="44px" viewBox="0 0 36 44" version="1.1" xmlns="http://www.w3.org/2000/svg" xmlns:xlink="http://www.w3.org/1999/xlink">
    <!-- Generator: Sketch 60 (88103) - https://sketch.com -->
    <title>Group 18</title>
    <desc>Created with Sketch.</desc>
    <g id="Feature-Platform" stroke="none" stroke-width="1" fill="none" fill-rule="evenodd">
        <g id="NEW-DASHBOARD-V3" transform="translate(-1326.000000, -982.000000)" fill-rule="nonzero">
            <g id="Group-18" transform="translate(1326.000000, 982.000000)">
                <g id="icons8-inspection">
                    <rect id="Rectangle" x="0" y="3.46153846" width="35" height="39" rx="2"></rect>
                    <polygon id="Path" points="5 38.4615385 25.5263158 38.4615385 31 32.8251748 31 7.46153846 5 7.46153846"></polygon>
                    <polygon id="Path" points="24.3181818 3.79487179 17.5 0.461538462 10.6818182 3.79487179 10 8.46153846 25 8.46153846"></polygon>
                    <path d="M33.9230769,3.17815974 L23.94,3.17815974 L22.0707692,1.78907771 C19.6436903,0.0190253783 16.3563097,0.0190253783 13.9292308,1.78907771 L12.06,3.17815974 L2.07692308,3.17815974 C0.929870135,3.17815974 0,4.11102955 0,5.26178277 L0,41.3779154 C0,42.5286687 0.929870135,43.4615385 2.07692308,43.4615385 L33.9230769,43.4615385 C35.0701299,43.4615385 36,42.5286687 36,41.3779154 L36,5.26178277 C36,4.11102955 35.0701299,3.17815974 33.9230769,3.17815974 Z M14.7392308,2.94201579 C16.6826451,1.52193082 19.3173549,1.52193082 21.2607692,2.94201579 L21.5861538,3.17815974 L23.4830769,4.56724176 L24.0646154,4.99091178 C24.5961041,5.37709414 24.9143979,5.99255884 24.9230769,6.6508648 L24.9230769,8.03994682 C24.9230769,8.42353123 24.6131202,8.73448784 24.2307692,8.73448784 L11.7692308,8.73448784 C11.3868798,8.73448784 11.076923,8.42353123 11.076923,8.03994682 L11.076923,6.6508648 C11.076923,5.9827454 11.3960623,5.35509351 11.9353846,4.96313014 L12.5169231,4.56724176 L14.4138462,3.17815974 L14.7392308,2.94201579 Z M30.4615385,32.3488823 L26.3076923,32.3488823 C25.5429903,32.3488823 24.9230769,32.9707955 24.9230769,33.7379643 L24.9230769,37.9052104 L5.53846154,37.9052104 L5.53846154,8.73448784 L9.81692308,8.73448784 C10.109595,9.56497046 10.8912081,10.1210943 11.7692308,10.1235699 L24.2307692,10.1235699 C25.1087919,10.1210943 25.890405,9.56497046 26.1830769,8.73448784 L30.4615385,8.73448784 L30.4615385,32.3488823 Z M29.4853846,33.7379643 L26.3076923,36.9259075 L26.3076923,33.7379643 L29.4853846,33.7379643 Z M34.6153846,41.3779154 C34.6153846,41.7614998 34.3054279,42.0724564 33.9230769,42.0724564 L2.07692308,42.0724564 C1.6945721,42.0724564 1.38461538,41.7614998 1.38461538,41.3779154 L1.38461538,5.26178277 C1.38461538,4.87819836 1.6945721,4.56724176 2.07692308,4.56724176 L10.3846154,4.56724176 C9.93523109,5.16835371 9.69230769,5.89947486 9.69230769,6.6508648 L9.69230769,7.34540581 L5.53846154,7.34540581 C4.77375958,7.34540581 4.15384615,7.96731902 4.15384615,8.73448784 L4.15384615,37.9052104 C4.15384615,38.6723792 4.77375958,39.2942924 5.53846154,39.2942924 L25.0407692,39.2942924 C25.5914179,39.2938061 26.1193365,39.0739631 26.5084615,38.6830963 L31.2369231,33.9393812 C31.626533,33.5490009 31.8456691,33.0193792 31.8461538,32.4669542 L31.8461538,8.73448784 C31.8461538,7.96731902 31.2262404,7.34540581 30.4615385,7.34540581 L26.3076923,7.34540581 L26.3076923,6.6508648 C26.3076923,5.89947486 26.0647689,5.16835371 25.6153846,4.56724176 L33.9230769,4.56724176 C34.3054279,4.56724176 34.6153846,4.87819836 34.6153846,5.26178277 L34.6153846,41.3779154 Z" id="Shape" fill="#007FEE"></path>
                    <path d="M7.6875,10.7115385 C7.30780423,10.7115385 7,11.0193427 7,11.3990385 L7,12.7740385 C7,13.1537342 7.30780423,13.4615385 7.6875,13.4615385 C8.06719577,13.4615385 8.375,13.1537342 8.375,12.7740385 L8.375,11.3990385 C8.375,11.0193427 8.06719577,10.7115385 7.6875,10.7115385 Z M11.125,13.4615385 C11.5046958,13.4615385 11.8125,13.1537342 11.8125,12.7740385 L11.8125,11.3990385 C11.8125,11.0193427 11.5046958,10.7115385 11.125,10.7115385 C10.7453042,10.7115385 10.4375,11.0193427 10.4375,11.3990385 L10.4375,12.7740385 C10.4375,13.1537342 10.7453042,13.4615385 11.125,13.4615385 Z M14.5625,13.4615385 C14.9421958,13.4615385 15.25,13.1537342 15.25,12.7740385 L15.25,11.3990385 C15.25,11.0193427 14.9421958,10.7115385 14.5625,10.7115385 C14.1828042,10.7115385 13.875,11.0193427 13.875,11.3990385 L13.875,12.7740385 C13.875,13.1537342 14.1828042,13.4615385 14.5625,13.4615385 Z M18,13.4615385 C18.3796958,13.4615385 18.6875,13.1537342 18.6875,12.7740385 L18.6875,11.3990385 C18.6875,11.0193427 18.3796958,10.7115385 18,10.7115385 C17.6203042,10.7115385 17.3125,11.0193427 17.3125,11.3990385 L17.3125,12.7740385 C17.3125,13.1537342 17.6203042,13.4615385 18,13.4615385 Z M21.4375,13.4615385 C21.8171958,13.4615385 22.125,13.1537342 22.125,12.7740385 L22.125,11.3990385 C22.125,11.0193427 21.8171958,10.7115385 21.4375,10.7115385 C21.0578042,10.7115385 20.75,11.0193427 20.75,11.3990385 L20.75,12.7740385 C20.75,13.1537342 21.0578042,13.4615385 21.4375,13.4615385 Z M24.875,13.4615385 C25.2546958,13.4615385 25.5625,13.1537342 25.5625,12.7740385 L25.5625,11.3990385 C25.5625,11.0193427 25.2546958,10.7115385 24.875,10.7115385 C24.4953042,10.7115385 24.1875,11.0193427 24.1875,11.3990385 L24.1875,12.7740385 C24.1875,13.1537342 24.4953042,13.4615385 24.875,13.4615385 Z M28.3125,13.4615385 C28.6921958,13.4615385 29,13.1537342 29,12.7740385 L29,11.3990385 C29,11.0193427 28.6921958,10.7115385 28.3125,10.7115385 C27.9328042,10.7115385 27.625,11.0193427 27.625,11.3990385 L27.625,12.7740385 C27.625,13.1537342 27.9328042,13.4615385 28.3125,13.4615385 Z M18,2.46153846 C17.2406085,2.46153846 16.625,3.07714693 16.625,3.83653846 C16.625,4.59592999 17.2406085,5.21153846 18,5.21153846 C18.7593915,5.21153846 19.375,4.59592999 19.375,3.83653846 C19.375,3.07714693 18.7593915,2.46153846 18,2.46153846 Z" id="Shape" fill="#007FEE"></path>
                </g>
                <path d="M18.5743403,29.7560309 C19.0144516,29.7560309 19.3712323,29.3992502 19.3712323,28.9591389 L19.3712323,27.7797387 L20.0724973,18.6632938 C20.1051211,18.2357773 19.957805,17.8140489 19.6660823,17.4998315 C19.4394056,17.260378 19.1393574,17.1033434 18.8134079,17.0535719 C18.7366428,17.0254662 18.6560102,17.0093397 18.5743403,17.0057584 C18.5108201,16.9980805 18.4466064,16.9980805 18.3830862,17.0057584 C18.0140481,17.0319323 17.6677457,17.1937293 17.4108779,17.4599869 C17.1191552,17.7742043 16.9718391,18.1959327 17.004463,18.6234492 L17.7376036,28.1861536 L17.7376036,28.1861536 L17.7376036,28.9591389 C17.7373304,29.1775759 17.8267356,29.386549 17.9849143,29.5371954 C18.143093,29.6878418 18.3561762,29.7669529 18.5743403,29.7560309 Z M18.6062159,31.3498149 C17.7259933,31.3498149 17.0124319,32.0633764 17.0124319,32.943599 C17.0124319,33.8238216 17.7259933,34.5373831 18.6062159,34.5373831 C19.4864386,34.5373831 20.2,33.8238216 20.2,32.943599 C20.2,32.0633764 19.4864386,31.3498149 18.6062159,31.3498149 Z" id="Shape" fill="#65D176"></path>
            </g>
        </g>
    </g>
</svg>
