<?xml version="1.0" encoding="UTF-8"?>
<svg width="20px" height="15px" viewBox="0 0 20 15" version="1.1" xmlns="http://www.w3.org/2000/svg" xmlns:xlink="http://www.w3.org/1999/xlink">
    <!-- Generator: Sketch 61.2 (89653) - https://sketch.com -->
    <title>mapped</title>
    <desc>Created with Sketch.</desc>
    <g id="Feature-Platform" stroke="none" stroke-width="1" fill="none" fill-rule="evenodd">
        <g id="INSTANTIATE-PACKAGE---GENERATE-FEATURES" transform="translate(-468.000000, -448.000000)" fill="currentColor" fill-rule="nonzero">
            <g id="mapped" transform="translate(468.000000, 448.000000)">
                <path d="M19.7228916,6.86915663 L13.2708434,0.417349398 C12.9392771,0.0857831325 12.4016867,0.0857831325 12.0698795,0.417349398 L5.61783133,6.86915663 C5.45855422,7.02843373 5.36915663,7.24457831 5.36915663,7.46963855 C5.36915663,7.6946988 5.45879518,7.91084337 5.61783133,8.07012048 L8.45421687,10.906747 L9.65518072,9.70578313 L7.41927711,7.46987952 L10.0344578,4.8546988 L12.6493976,7.46987952 L7.39831325,12.7207229 L2.14722892,7.46987952 L7.39831325,2.21879518 L8.4713253,3.29180723 L9.67228916,2.09108434 L7.99879518,0.417590361 C7.66722892,0.0860240964 7.12963855,0.0860240964 6.79807229,0.417590361 L0.346024096,6.86915663 C0.186746988,7.02843373 0.0971084337,7.24457831 0.0971084337,7.46987952 C0.0971084337,7.69493976 0.186746988,7.91108434 0.345783133,8.07036145 L6.79783133,14.5224096 C6.95686747,14.6814458 7.17301205,14.7708434 7.39807229,14.7708434 C7.62313253,14.7708434 7.83927711,14.6814458 7.99855422,14.5224096 L10.0339759,12.486988 L12.0693976,14.5224096 C12.2286747,14.6814458 12.4448193,14.7708434 12.6698795,14.7708434 C12.8949398,14.7708434 13.1110843,14.6814458 13.2703614,14.5224096 L19.7228916,8.07012048 C19.8821687,7.91084337 19.9715663,7.6946988 19.9715663,7.46963855 C19.9715663,7.24457831 19.8821687,7.02843373 19.7228916,6.86915663 Z M12.6703614,12.7207229 L11.2351807,11.2857831 L14.4508434,8.07012048 C14.6101205,7.91084337 14.6995181,7.6946988 14.6995181,7.46963855 C14.6995181,7.24433735 14.6101205,7.02843373 14.4508434,6.86915663 L11.2351807,3.6539759 L12.6703614,2.21879518 L17.9214458,7.46987952 L12.6703614,12.7207229 Z" id="Shape"></path>
            </g>
        </g>
    </g>
</svg>
