<svg width="70" height="69" viewBox="0 0 70 69" fill="none" xmlns="http://www.w3.org/2000/svg">
<path d="M37.0439 54.1345H37.0394C34.0776 54.1345 31.2024 53.5631 28.495 52.4348C27.1924 51.8933 25.9383 51.2216 24.7628 50.4415C23.5998 49.6663 22.5058 48.7778 21.5124 47.8C20.5189 46.8207 19.6148 45.744 18.8285 44.5967C18.0328 43.4384 17.35 42.1987 16.7991 40.9147C15.6503 38.2402 15.068 35.401 15.068 32.4755C15.0664 27.0764 17.0926 21.9065 20.7731 17.9168C21.0698 17.5951 21.4904 17.4099 21.9267 17.4099C22.3222 17.4099 22.7005 17.5574 22.9908 17.8258C23.6265 18.4128 23.6673 19.4078 23.0803 20.0435C19.9397 23.4556 18.2086 27.8706 18.207 32.4755C18.2086 37.4161 20.1642 42.0635 23.7144 45.5635C27.274 49.0652 32.0076 50.9955 37.041 50.9955C42.0742 50.9955 46.8078 49.0651 50.3676 45.5635C53.9178 42.0635 55.8734 37.4163 55.8749 32.4755C55.8734 27.5347 53.9178 22.8874 50.3676 19.389C46.8078 15.8859 42.0742 13.957 37.041 13.9554C36.6486 13.9554 36.2515 13.968 35.8576 13.9915C35.8262 13.9931 35.7932 13.9946 35.7618 13.9946C34.9347 13.9946 34.2457 13.3464 34.197 12.5209C34.1939 12.4879 34.1939 12.4534 34.1939 12.4189C34.1955 11.5949 34.8421 10.909 35.6677 10.8588C36.1244 10.8305 36.5858 10.8164 37.041 10.8164H37.0441C40.0042 10.8164 42.8779 11.3877 45.587 12.5162C46.8881 13.0592 48.1437 13.7294 49.3191 14.511C50.4821 15.2848 51.5761 16.1731 52.5696 17.1525C53.5631 18.1303 54.4673 19.2085 55.2536 20.3558C56.0491 21.5141 56.732 22.7524 57.2829 24.0363C58.4318 26.7123 59.0141 29.5515 59.0141 32.4755C59.0141 35.3994 58.4318 38.2387 57.2829 40.9147C56.732 42.1987 56.0493 43.4384 55.2536 44.5967C54.4673 45.7442 53.5631 46.8207 52.5696 47.8C51.5761 48.7778 50.4821 49.6663 49.3191 50.4399C48.1437 51.2214 46.8881 51.8933 45.587 52.4348C42.8793 53.5631 40.004 54.1345 37.0439 54.1345ZM28.2108 15.9298C27.6066 15.9298 27.0494 15.5783 26.7904 15.0321C26.6115 14.6538 26.5895 14.2269 26.7308 13.833C26.872 13.439 27.1577 13.122 27.5359 12.9431L27.5375 12.9415C27.7494 12.8411 27.9754 12.7908 28.2077 12.7908C28.8119 12.7908 29.3691 13.1424 29.6281 13.6886C29.9985 14.4702 29.6626 15.4088 28.881 15.7792H28.8794C28.6675 15.8796 28.4431 15.9298 28.2108 15.9298Z" fill="#007FEE"/>
<path d="M14.1262 55.1694C13.693 55.1694 13.2881 54.9968 12.9899 54.6829C11.6087 53.2311 10.3563 51.6473 9.26861 49.9726C8.16996 48.2823 7.22669 46.4822 6.46549 44.6238C4.88343 40.7599 4.08142 36.6729 4.08142 32.476C4.08142 30.2725 4.30743 28.0689 4.7516 25.9281C5.18635 23.8407 5.83298 21.7893 6.6758 19.8275C7.50293 17.9017 8.52624 16.045 9.71749 14.3075C10.8977 12.5874 12.2522 10.9708 13.7432 9.50331C15.2343 8.03583 16.8744 6.70175 18.6197 5.5419C20.3822 4.36948 22.2656 3.36343 24.2181 2.55043C26.2066 1.72174 28.2878 1.08609 30.4035 0.659189C32.5725 0.221299 34.8043 0 37.0377 0H37.0409C37.9057 0 38.6104 0.704704 38.6104 1.5695C38.6104 2.43429 37.9057 3.139 37.0409 3.139C29.0725 3.139 21.5813 6.19324 15.9468 11.7398C10.3202 17.2833 7.22199 24.6474 7.22042 32.476C7.22199 39.9469 10.0785 47.0645 15.2641 52.5185C15.5529 52.8229 15.7067 53.2201 15.6957 53.6391C15.6847 54.0582 15.5121 54.449 15.2076 54.7378C14.9157 55.0154 14.5311 55.1694 14.1262 55.1694Z" fill="#007FEE"/>
<path d="M37.0437 64.953V64.9451L37.0406 64.953H37.006L36.3735 64.9389C35.5087 64.92 34.8197 64.2012 34.8385 63.3364C34.848 62.9236 35.0159 62.5358 35.311 62.2486C35.614 61.9519 36.019 61.7887 36.4426 61.8013L37.0578 61.8138C45.0199 61.8091 52.505 58.7549 58.1346 53.213C63.7612 47.6712 66.8594 40.3072 66.861 32.4769C66.861 23.1259 62.4821 14.5486 54.8511 8.94389C54.1528 8.43223 54.002 7.44816 54.5138 6.7513C54.8088 6.34951 55.2812 6.10938 55.7802 6.10938C56.1162 6.10938 56.4364 6.21453 56.7078 6.41386C58.7184 7.88762 60.5609 9.59209 62.1839 11.4786C63.816 13.3746 65.2272 15.4526 66.376 17.6593C67.5469 19.9037 68.4476 22.2846 69.0567 24.733C69.6828 27.2536 70 29.859 70 32.4769C70 34.6805 69.774 36.8841 69.3297 39.0263C68.8949 41.1122 68.2483 43.1651 67.4055 45.1269C66.5783 47.0529 65.555 48.9096 64.3638 50.6453C63.1834 52.3655 61.829 53.982 60.338 55.4495C58.847 56.9184 57.207 58.2511 55.4617 59.4125C53.6992 60.5833 51.8158 61.591 49.8633 62.404C47.8748 63.2312 45.7935 63.8683 43.6795 64.2936C41.5089 64.7317 39.2771 64.953 37.0437 64.953ZM28.5637 64.7693C28.5511 64.7693 28.5402 64.7694 28.5292 64.7678C28.1101 64.7598 27.7193 64.5873 27.4289 64.2844C27.1386 63.9813 26.9848 63.5844 26.9942 63.1653C27.002 62.7524 27.17 62.3663 27.4666 62.0775C27.7695 61.7809 28.1713 61.6162 28.5967 61.6302C29.4614 61.649 30.1505 62.3679 30.1316 63.2327C30.1222 63.647 29.9558 64.0331 29.6592 64.3217C29.3641 64.6108 28.9749 64.7693 28.5637 64.7693ZM20.7178 64.5983C20.7068 64.5983 20.6942 64.5983 20.6832 64.5983L1.53537 64.1808C1.11632 64.1712 0.725512 64.0003 0.436724 63.6974C0.146367 63.3945 -0.0090127 62.9958 0.000404284 62.5768C0.00982127 62.1638 0.177757 61.7777 0.472823 61.4889C0.775736 61.1923 1.18067 61.0322 1.60443 61.0432L20.7507 61.4591C21.1635 61.4685 21.5496 61.6349 21.8384 61.93C22.1256 62.2235 22.2857 62.6111 22.2873 63.0223C22.2873 63.0349 22.2873 63.049 22.2857 63.0631C22.2779 63.4759 22.1099 63.862 21.8149 64.1508C21.5198 64.4396 21.1306 64.5983 20.7178 64.5983Z" fill="#007FEE"/>
<path d="M67.4894 65.7467H53.3639C52.4974 65.7467 51.7944 65.042 51.7944 64.1772C51.7944 63.3124 52.4974 62.6077 53.3639 62.6077H64.9498L64.5166 61.7398C64.3283 61.3647 64.2985 60.9394 64.4303 60.5423C64.5637 60.1436 64.8431 59.8219 65.2183 59.6351C65.4379 59.5237 65.6733 59.4688 65.9183 59.4688C66.5177 59.4688 67.0562 59.8015 67.3229 60.3367L68.8924 63.4757C69.1388 63.9652 69.1121 64.5367 68.8249 65.0026C68.5363 65.4688 68.0372 65.7467 67.4894 65.7467Z" fill="#007FEE"/>
<path d="M65.9173 68.8913C65.6739 68.8913 65.4369 68.8362 65.2173 68.7265C64.4434 68.3387 64.1281 67.394 64.5156 66.6202L66.0836 63.4812C66.3519 62.946 66.8903 62.6133 67.4898 62.6133C67.7347 62.6133 67.9701 62.6682 68.1898 62.7796C68.9636 63.1657 69.279 64.1106 68.8914 64.8843L67.3219 68.0233C67.0552 68.5585 66.5169 68.8913 65.9173 68.8913Z" fill="#007FEE"/>
<path d="M53.3629 12.3866C53.195 12.3866 53.0286 12.3599 52.8669 12.3065C52.4683 12.1731 52.1465 11.8937 51.9598 11.5186C51.7714 11.1435 51.7416 10.7182 51.8735 10.3211L53.443 5.6126C53.658 4.97067 54.256 4.53906 54.9324 4.53906H59.6409C60.5057 4.53906 61.2104 5.24377 61.2104 6.10856C61.2104 6.97492 60.5057 7.67806 59.6409 7.67806H56.0624L54.8524 11.313C54.6373 11.9565 54.0394 12.3866 53.3629 12.3866Z" fill="#007FEE"/>
<path d="M31.6553 38.5724H25.9078C25.3474 38.5724 24.8279 38.2711 24.547 37.7877L21.6748 32.8093C21.3939 32.3243 21.3939 31.7232 21.6748 31.2398L24.547 26.2629C24.8264 25.7779 25.3474 25.4766 25.9078 25.4766H31.6553C32.214 25.4766 32.7351 25.7779 33.0144 26.2629L35.8883 31.2398C36.1676 31.7232 36.1676 32.3259 35.8883 32.8093L33.0144 37.7877C32.7351 38.2711 32.214 38.5724 31.6553 38.5724ZM26.8133 35.4335H30.7481L32.7162 32.0245L30.7481 28.6156H26.8133L24.8452 32.0245L26.8133 35.4335Z" fill="#30B253"/>
<path d="M44.2118 45.8834H38.4643C37.9041 45.8834 37.3844 45.5836 37.1052 45.1002L34.2299 40.1218C33.9505 39.6368 33.9505 39.0357 34.2299 38.5523L37.1052 33.5738C37.383 33.0904 37.9041 32.7891 38.4643 32.7891H44.2118C44.7707 32.7891 45.2916 33.0904 45.5709 33.5738L48.4449 38.5523C48.7241 39.0357 48.7241 39.6368 48.4449 40.1218L45.5709 45.1002C45.2916 45.5834 44.7707 45.8834 44.2118 45.8834ZM39.37 42.7444H43.3047L45.2729 39.337L43.3047 35.9281H39.37L37.4019 39.337L39.37 42.7444Z" fill="#30B253"/>
<path d="M44.2118 31.7584H38.4643C37.9041 31.7584 37.3829 31.4586 37.1052 30.9736L34.2299 25.9968C33.9505 25.5118 33.9505 24.9107 34.2299 24.4273L37.1052 19.4488C37.383 18.9654 37.9041 18.6641 38.4643 18.6641H44.2118C44.7707 18.6641 45.2916 18.9654 45.5709 19.4488L48.4449 24.4273C48.7241 24.9107 48.7241 25.5118 48.4449 25.9968L45.5709 30.9736C45.2916 31.4586 44.7707 31.7584 44.2118 31.7584ZM39.37 28.6194H43.3047L45.2729 25.212L43.3047 21.8031H39.37L37.4019 25.212L39.37 28.6194Z" fill="#30B253"/>
<path d="M31.3908 43.7757C30.978 43.7757 30.5731 43.6078 30.2812 43.3159C29.9892 43.0239 29.8213 42.619 29.8213 42.2062C29.8213 41.7934 29.9892 41.3885 30.2812 41.0966C30.5731 40.8048 30.978 40.6367 31.3908 40.6367C31.8036 40.6367 32.2085 40.8047 32.5004 41.0966C32.7923 41.3885 32.9603 41.7934 32.9603 42.2062C32.9603 42.619 32.7923 43.0239 32.5004 43.3159C32.2085 43.6078 31.8036 43.7757 31.3908 43.7757Z" fill="#30B253"/>
<path d="M31.3908 23.3734C30.978 23.3734 30.5731 23.2054 30.2812 22.9135C29.9892 22.6216 29.8213 22.2167 29.8213 21.8039C29.8213 21.3911 29.9892 20.9862 30.2812 20.6942C30.5731 20.4023 30.978 20.2344 31.3908 20.2344C31.8036 20.2344 32.2085 20.4023 32.5004 20.6942C32.7923 20.9862 32.9603 21.3911 32.9603 21.8039C32.9603 22.2167 32.7923 22.6216 32.5004 22.9135C32.2085 23.2054 31.8036 23.3734 31.3908 23.3734Z" fill="#30B253"/>
<path d="M48.6549 34.3617C48.2422 34.3617 47.8372 34.1937 47.5453 33.9018C47.2534 33.6099 47.0854 33.2049 47.0854 32.7922C47.0854 32.3794 47.2532 31.9744 47.5453 31.6825C47.8372 31.3906 48.2422 31.2227 48.6549 31.2227C49.0677 31.2227 49.4727 31.3906 49.7644 31.6825C50.0564 31.9744 50.2244 32.3794 50.2244 32.7922C50.2244 33.2049 50.0565 33.6099 49.7644 33.9018C49.4727 34.1937 49.0677 34.3617 48.6549 34.3617Z" fill="#30B253"/>
</svg>
