<?xml version="1.0" encoding="UTF-8"?>
<svg width="81px" height="85px" viewBox="0 0 81 85" version="1.1" xmlns="http://www.w3.org/2000/svg" xmlns:xlink="http://www.w3.org/1999/xlink">
    <!-- Generator: Sketch 60 (88103) - https://sketch.com -->
    <title>Group 6</title>
    <desc>Created with Sketch.</desc>
    <g id="Feature-Platform" stroke="none" stroke-width="1" fill="none" fill-rule="evenodd">
        <g id="NEW-DASHBOARD-V3" transform="translate(-108.000000, -838.000000)">
            <g id="Group-6" transform="translate(109.000000, 836.000000)">
                <g id="Group-5">
                    <g id="icons8-cardboard-box" transform="translate(9.000000, 40.000000)" fill="#007FEE" fill-rule="nonzero">
                        <path d="M3,0.058594 C1.347656,0.058594 0,1.402344 0,3.058594 L0,43.058594 C0,44.710938 1.347656,46.058594 3,46.058594 L57,46.058594 C58.652344,46.058594 60,44.710938 60,43.058594 L60,3.058594 C60,1.402344 58.652344,0.058594 57,0.058594 L51.46875,0.058594 L3,0.058594 Z M3,2.058594 L57,2.058594 C57.550781,2.058594 58,2.503906 58,3.058594 L58,43.058594 C58,43.609375 57.550781,44.058594 57,44.058594 L3,44.058594 C2.449219,44.058594 2,43.609375 2,43.058594 L2,3.058594 C2,2.503906 2.449219,2.058594 3,2.058594 Z M23,6 C20.792969,6 19,7.792969 19,10 C19,12.207031 20.792969,14 23,14 L37,14 C39.207031,14 41,12.207031 41,10 C41,7.792969 39.207031,6 37,6 L23,6 Z M23,8 L37,8 C38.101563,8 39,8.898438 39,10 C39,11.101563 38.101563,12 37,12 L23,12 C21.898438,12 21,11.101563 21,10 C21,8.898438 21.898438,8 23,8 Z M5,38.058594 C4.445313,38.058594 4,38.503906 4,39.058594 L4,41.058594 C4,41.609375 4.445313,42.058594 5,42.058594 C5.554688,42.058594 6,41.609375 6,41.058594 L6,39.058594 C6,38.503906 5.554688,38.058594 5,38.058594 Z M10,38.058594 C9.445313,38.058594 9,38.503906 9,39.058594 L9,41.058594 C9,41.609375 9.445313,42.058594 10,42.058594 C10.554688,42.058594 11,41.609375 11,41.058594 L11,39.058594 C11,38.503906 10.554688,38.058594 10,38.058594 Z M15,38.058594 C14.445313,38.058594 14,38.503906 14,39.058594 L14,41.058594 C14,41.609375 14.445313,42.058594 15,42.058594 C15.554688,42.058594 16,41.609375 16,41.058594 L16,39.058594 C16,38.503906 15.554688,38.058594 15,38.058594 Z M20,38.058594 C19.445313,38.058594 19,38.503906 19,39.058594 L19,41.058594 C19,41.609375 19.445313,42.058594 20,42.058594 C20.554688,42.058594 21,41.609375 21,41.058594 L21,39.058594 C21,38.503906 20.554688,38.058594 20,38.058594 Z M25,38.058594 C24.445313,38.058594 24,38.503906 24,39.058594 L24,41.058594 C24,41.609375 24.445313,42.058594 25,42.058594 C25.554688,42.058594 26,41.609375 26,41.058594 L26,39.058594 C26,38.503906 25.554688,38.058594 25,38.058594 Z M30,38.058594 C29.445313,38.058594 29,38.503906 29,39.058594 L29,41.058594 C29,41.609375 29.445313,42.058594 30,42.058594 C30.554688,42.058594 31,41.609375 31,41.058594 L31,39.058594 C31,38.503906 30.554688,38.058594 30,38.058594 Z M35,38.058594 C34.445313,38.058594 34,38.503906 34,39.058594 L34,41.058594 C34,41.609375 34.445313,42.058594 35,42.058594 C35.554688,42.058594 36,41.609375 36,41.058594 L36,39.058594 C36,38.503906 35.554688,38.058594 35,38.058594 Z M40,38.058594 C39.445313,38.058594 39,38.503906 39,39.058594 L39,41.058594 C39,41.609375 39.445313,42.058594 40,42.058594 C40.554688,42.058594 41,41.609375 41,41.058594 L41,39.058594 C41,38.503906 40.554688,38.058594 40,38.058594 Z M45,38.058594 C44.445313,38.058594 44,38.503906 44,39.058594 L44,41.058594 C44,41.609375 44.445313,42.058594 45,42.058594 C45.554688,42.058594 46,41.609375 46,41.058594 L46,39.058594 C46,38.503906 45.554688,38.058594 45,38.058594 Z M50,38.058594 C49.445313,38.058594 49,38.503906 49,39.058594 L49,41.058594 C49,41.609375 49.445313,42.058594 50,42.058594 C50.554688,42.058594 51,41.609375 51,41.058594 L51,39.058594 C51,38.503906 50.554688,38.058594 50,38.058594 Z M55,38.058594 C54.445313,38.058594 54,38.503906 54,39.058594 L54,41.058594 C54,41.609375 54.445313,42.058594 55,42.058594 C55.554688,42.058594 56,41.609375 56,41.058594 L56,39.058594 C56,38.503906 55.554688,38.058594 55,38.058594 Z" id="Shape"></path>
                    </g>
                    <line x1="10.2814713" y1="41.058594" x2="0" y2="30" id="Path-2" stroke="#007FEE" stroke-width="2" stroke-linecap="round"></line>
                    <line x1="78.2814713" y1="41.058594" x2="68" y2="30" id="Path-2" stroke="#007FEE" stroke-width="2" stroke-linecap="round" transform="translate(73.140736, 35.529297) scale(-1, 1) translate(-73.140736, -35.529297) "></line>
                    <path d="M25.4783577,2.00030876 C25.7538782,1.99233002 26.0106077,2.13950673 26.1429411,2.38129816 L26.1429411,2.38129816 L27.3976289,4.67582996 C27.6111976,5.06616423 27.9325538,5.38752116 28.3228888,5.60108983 L28.3228888,5.60108983 L30.6188528,6.8572099 C30.8536962,6.98596138 30.9996844,7.23248724 30.9996844,7.50030876 C30.9996844,7.76813029 30.8536962,8.01465615 30.6188528,8.14340763 L30.6188528,8.14340763 L28.324321,9.3980955 C27.9339867,9.61166416 27.6126298,9.93302036 27.3990611,10.3233554 L27.3990611,10.3233554 L26.1429411,12.6193194 C26.0141896,12.8541628 25.7676637,13.0001509 25.4998422,13.0001509 C25.2320207,13.0001509 24.9854948,12.8541628 24.8567433,12.6193194 L24.8567433,12.6193194 L23.6020555,10.3247876 C23.3884868,9.9344533 23.0671306,9.61309636 22.6767956,9.3995277 L22.6767956,9.3995277 L20.3808316,8.14340763 C20.1459882,8.01465615 20,7.76813029 20,7.50030876 C20,7.23248724 20.1459882,6.98596138 20.3808316,6.8572099 L20.3808316,6.8572099 L22.6753634,5.60252203 C23.0656977,5.38895336 23.3870546,5.06759716 23.6006233,4.67726216 L23.6006233,4.67726216 L24.8567433,2.38129816 C24.981679,2.15301065 25.2182336,2.00802557 25.4783577,2.00030876 Z M25.4884117,4.25 L24.8768235,5.36862007 C24.5286588,6.00495173 24.0049517,6.5286588 23.3686201,6.87682347 L23.3686201,6.87682347 L22.25,7.48841173 L23.3686201,8.1 C24.0049517,8.44816467 24.5286588,8.97187173 24.8768235,9.6082034 L24.8768235,9.6082034 L25.4884117,10.7268235 L26.1,9.6082034 C26.4481647,8.97187173 26.9718717,8.44816467 27.6082034,8.1 L27.6082034,8.1 L28.7268235,7.48841173 L27.6082034,6.87682347 C26.9718717,6.5286588 26.4481647,6.00495173 26.1,5.36862007 L26.1,5.36862007 L25.4884117,4.25 Z" id="Combined-Shape" fill="#30B253" fill-rule="nonzero"></path>
                    <path d="M54.4783577,2.00030876 C54.7538782,1.99233002 55.0106077,2.13950673 55.1429411,2.38129816 L55.1429411,2.38129816 L56.3976289,4.67582996 C56.6111976,5.06616423 56.9325538,5.38752116 57.3228888,5.60108983 L57.3228888,5.60108983 L59.6188528,6.8572099 C59.8536962,6.98596138 59.9996844,7.23248724 59.9996844,7.50030876 C59.9996844,7.76813029 59.8536962,8.01465615 59.6188528,8.14340763 L59.6188528,8.14340763 L57.324321,9.3980955 C56.9339867,9.61166416 56.6126298,9.93302036 56.3990611,10.3233554 L56.3990611,10.3233554 L55.1429411,12.6193194 C55.0141896,12.8541628 54.7676637,13.0001509 54.4998422,13.0001509 C54.2320207,13.0001509 53.9854948,12.8541628 53.8567433,12.6193194 L53.8567433,12.6193194 L52.6020555,10.3247876 C52.3884868,9.9344533 52.0671306,9.61309636 51.6767956,9.3995277 L51.6767956,9.3995277 L49.3808316,8.14340763 C49.1459882,8.01465615 49,7.76813029 49,7.50030876 C49,7.23248724 49.1459882,6.98596138 49.3808316,6.8572099 L49.3808316,6.8572099 L51.6753634,5.60252203 C52.0656977,5.38895336 52.3870546,5.06759716 52.6006233,4.67726216 L52.6006233,4.67726216 L53.8567433,2.38129816 C53.981679,2.15301065 54.2182336,2.00802557 54.4783577,2.00030876 Z M54.4884117,4.25 L53.8768235,5.36862007 C53.5286588,6.00495173 53.0049517,6.5286588 52.3686201,6.87682347 L52.3686201,6.87682347 L51.25,7.48841173 L52.3686201,8.1 C53.0049517,8.44816467 53.5286588,8.97187173 53.8768235,9.6082034 L53.8768235,9.6082034 L54.4884117,10.7268235 L55.1,9.6082034 C55.4481647,8.97187173 55.9718717,8.44816467 56.6082034,8.1 L56.6082034,8.1 L57.7268235,7.48841173 L56.6082034,6.87682347 C55.9718717,6.5286588 55.4481647,6.00495173 55.1,5.36862007 L55.1,5.36862007 L54.4884117,4.25 Z" id="Combined-Shape" fill="#30B253" fill-rule="nonzero"></path>
                    <path d="M38.9842171,2.00022455 C39.1845935,1.99442189 39.3713038,2.10145834 39.4675452,2.27730476 L39.4675452,2.27730476 L40.3800356,3.94603712 C40.5353566,4.22991352 40.7690677,4.46362513 41.0529446,4.61894612 L41.0529446,4.61894612 L42.7227186,5.53247811 C42.8935119,5.62611454 42.999684,5.80540414 42.999684,6.00018132 C42.999684,6.19495851 42.8935119,6.37424811 42.7227186,6.46788454 L42.7227186,6.46788454 L41.0539862,7.38037494 C40.7701098,7.53569593 40.5363982,7.769407 40.3810772,8.05328393 L40.3810772,8.05328393 L39.4675452,9.72305789 C39.3739088,9.89385125 39.1946192,10.0000233 38.999842,10.0000233 C38.8050648,10.0000233 38.6257752,9.89385125 38.5321388,9.72305789 L38.5321388,9.72305789 L37.6196484,8.05432552 C37.4643274,7.77044912 37.2306163,7.53673752 36.9467394,7.38141653 L36.9467394,7.38141653 L35.2769654,6.46788454 C35.1061721,6.37424811 35,6.19495851 35,6.00018132 C35,5.80540414 35.1061721,5.62611454 35.2769654,5.53247811 L35.2769654,5.53247811 L36.9456978,4.61998771 C37.2295742,4.46466672 37.4632858,4.23095564 37.6186068,3.94707871 L37.6186068,3.94707871 L38.5321388,2.27730476 C38.6230001,2.11127927 38.795038,2.00583671 38.9842171,2.00022455 Z M38.991529,3.63634595 L38.5467424,4.44987903 C38.2935344,4.91266069 37.9126607,5.29353444 37.449879,5.54674237 L37.449879,5.54674237 L36.636346,5.99152903 L37.449879,6.43631569 C37.9126607,6.68952362 38.2935344,7.07039737 38.5467424,7.53317904 L38.5467424,7.53317904 L38.991529,8.34671211 L39.4363157,7.53317904 C39.6895236,7.07039737 40.0703974,6.68952362 40.533179,6.43631569 L40.533179,6.43631569 L41.3467121,5.99152903 L40.533179,5.54674237 C40.0703974,5.29353444 39.6895236,4.91266069 39.4363157,4.44987903 L39.4363157,4.44987903 L38.991529,3.63634595 Z" id="Combined-Shape" fill="#007FEE" fill-rule="nonzero" transform="translate(38.999842, 6.000012) rotate(-26.000000) translate(-38.999842, -6.000012) "></path>
                    <path d="M13.9842171,7.00022455 C14.1845935,6.99442189 14.3713038,7.10145834 14.4675452,7.27730476 L14.4675452,7.27730476 L15.3800356,8.94603712 C15.5353566,9.22991352 15.7690677,9.46362513 16.0529446,9.61894612 L16.0529446,9.61894612 L17.7227186,10.5324781 C17.8935119,10.6261145 17.999684,10.8054041 17.999684,11.0001813 C17.999684,11.1949585 17.8935119,11.3742481 17.7227186,11.4678845 L17.7227186,11.4678845 L16.0539862,12.3803749 C15.7701098,12.5356959 15.5363982,12.769407 15.3810772,13.0532839 L15.3810772,13.0532839 L14.4675452,14.7230579 C14.3739088,14.8938512 14.1946192,15.0000233 13.999842,15.0000233 C13.8050648,15.0000233 13.6257752,14.8938512 13.5321388,14.7230579 L13.5321388,14.7230579 L12.6196484,13.0543255 C12.4643274,12.7704491 12.2306163,12.5367375 11.9467394,12.3814165 L11.9467394,12.3814165 L10.2769654,11.4678845 C10.1061721,11.3742481 10,11.1949585 10,11.0001813 C10,10.8054041 10.1061721,10.6261145 10.2769654,10.5324781 L10.2769654,10.5324781 L11.9456978,9.61998771 C12.2295742,9.46466672 12.4632858,9.23095564 12.6186068,8.94707871 L12.6186068,8.94707871 L13.5321388,7.27730476 C13.6230001,7.11127927 13.795038,7.00583671 13.9842171,7.00022455 Z M13.991529,8.63634595 L13.5467424,9.44987903 C13.2935344,9.91266069 12.9126607,10.2935344 12.449879,10.5467424 L12.449879,10.5467424 L11.636346,10.991529 L12.449879,11.4363157 C12.9126607,11.6895236 13.2935344,12.0703974 13.5467424,12.533179 L13.5467424,12.533179 L13.991529,13.3467121 L14.4363157,12.533179 C14.6895236,12.0703974 15.0703974,11.6895236 15.533179,11.4363157 L15.533179,11.4363157 L16.3467121,10.991529 L15.533179,10.5467424 C15.0703974,10.2935344 14.6895236,9.91266069 14.4363157,9.44987903 L14.4363157,9.44987903 L13.991529,8.63634595 Z" id="Combined-Shape" fill="#007FEE" fill-rule="nonzero" transform="translate(13.999842, 11.000012) rotate(-83.000000) translate(-13.999842, -11.000012) "></path>
                    <path d="M67.9842171,7.00022455 C68.1845935,6.99442189 68.3713038,7.10145834 68.4675452,7.27730476 L68.4675452,7.27730476 L69.3800356,8.94603712 C69.5353566,9.22991352 69.7690677,9.46362513 70.0529446,9.61894612 L70.0529446,9.61894612 L71.7227186,10.5324781 C71.8935119,10.6261145 71.999684,10.8054041 71.999684,11.0001813 C71.999684,11.1949585 71.8935119,11.3742481 71.7227186,11.4678845 L71.7227186,11.4678845 L70.0539862,12.3803749 C69.7701098,12.5356959 69.5363982,12.769407 69.3810772,13.0532839 L69.3810772,13.0532839 L68.4675452,14.7230579 C68.3739088,14.8938512 68.1946192,15.0000233 67.999842,15.0000233 C67.8050648,15.0000233 67.6257752,14.8938512 67.5321388,14.7230579 L67.5321388,14.7230579 L66.6196484,13.0543255 C66.4643274,12.7704491 66.2306163,12.5367375 65.9467394,12.3814165 L65.9467394,12.3814165 L64.2769654,11.4678845 C64.1061721,11.3742481 64,11.1949585 64,11.0001813 C64,10.8054041 64.1061721,10.6261145 64.2769654,10.5324781 L64.2769654,10.5324781 L65.9456978,9.61998771 C66.2295742,9.46466672 66.4632858,9.23095564 66.6186068,8.94707871 L66.6186068,8.94707871 L67.5321388,7.27730476 C67.6230001,7.11127927 67.795038,7.00583671 67.9842171,7.00022455 Z M67.991529,8.63634595 L67.5467424,9.44987903 C67.2935344,9.91266069 66.9126607,10.2935344 66.449879,10.5467424 L66.449879,10.5467424 L65.636346,10.991529 L66.449879,11.4363157 C66.9126607,11.6895236 67.2935344,12.0703974 67.5467424,12.533179 L67.5467424,12.533179 L67.991529,13.3467121 L68.4363157,12.533179 C68.6895236,12.0703974 69.0703974,11.6895236 69.533179,11.4363157 L69.533179,11.4363157 L70.3467121,10.991529 L69.533179,10.5467424 C69.0703974,10.2935344 68.6895236,9.91266069 68.4363157,9.44987903 L68.4363157,9.44987903 L67.991529,8.63634595 Z" id="Combined-Shape" fill="#007FEE" fill-rule="nonzero" transform="translate(67.999842, 11.000012) scale(-1, 1) rotate(-26.000000) translate(-67.999842, -11.000012) "></path>
                    <g id="icons8-registry-editor" transform="translate(9.000000, 16.000000)" fill="#007FEE" fill-rule="nonzero">
                        <path d="M11.3016346,0.185371023 C11.7572406,-0.0370416757 12.2673315,-0.0596765963 12.7389073,0.119434515 C13.2104831,0.299529753 13.5862406,0.660704356 13.7985437,1.13702182 L13.7985437,1.13702182 L18.5622103,11.8403869 C18.7745134,12.3176885 18.7970588,12.8520694 18.6251497,13.3461012 C18.4532406,13.8401329 18.1084831,14.2337837 17.6538164,14.4561964 L17.6538164,14.4561964 L7.4379073,19.4467044 C7.18521033,19.5697202 6.91560427,19.6317202 6.64505882,19.6317202 C6.42805882,19.6317202 6.21105882,19.591371 6.00063458,19.5116567 C5.52905882,19.3315615 5.15330124,18.9703869 4.94099821,18.4940694 L4.94099821,18.4940694 L0.177331546,7.79168848 C-0.0349714839,7.3143869 -0.0575169384,6.78000594 0.114392152,6.2859742 C0.286301243,5.79194245 0.631058819,5.39829166 1.08572549,5.17587896 L1.08572549,5.17587896 Z M12.0954225,1.96959324 L1.87951336,6.96010118 L6.64318003,17.6624821 L16.8600285,12.6719742 L12.0954225,1.96959324 Z" id="Combined-Shape"></path>
                        <path d="M54.3016346,0.185371023 C54.7572406,-0.0370416757 55.2673315,-0.0596765963 55.7389073,0.119434515 C56.2104831,0.299529753 56.5862406,0.660704356 56.7985437,1.13702182 L56.7985437,1.13702182 L61.5622103,11.8403869 C61.7745134,12.3176885 61.7970588,12.8520694 61.6251497,13.3461012 C61.4532406,13.8401329 61.1084831,14.2337837 60.6538164,14.4561964 L60.6538164,14.4561964 L50.4379073,19.4467044 C50.1852103,19.5697202 49.9156043,19.6317202 49.6450588,19.6317202 C49.4280588,19.6317202 49.2110588,19.591371 49.0006346,19.5116567 C48.5290588,19.3315615 48.1533012,18.9703869 47.9409982,18.4940694 L47.9409982,18.4940694 L43.1773315,7.79168848 C42.9650285,7.3143869 42.9424831,6.78000594 43.1143922,6.2859742 C43.2863012,5.79194245 43.6310588,5.39829166 44.0857255,5.17587896 L44.0857255,5.17587896 Z M55.0954225,1.96959324 L44.8795134,6.96010118 L49.64318,17.6624821 L59.8600285,12.6719742 L55.0954225,1.96959324 Z" id="Combined-Shape" transform="translate(52.369771, 9.815860) scale(-1, 1) translate(-52.369771, -9.815860) "></path>
                    </g>
                </g>
                <path d="M40,14 C44.418278,14 48,17.581722 48,22 C48,26.418278 44.418278,30 40,30 C35.581722,30 32,26.418278 32,22 C32,17.581722 35.581722,14 40,14 Z M40,16 C36.6862915,16 34,18.6862915 34,22 C34,25.3137085 36.6862915,28 40,28 C43.3137085,28 46,25.3137085 46,22 C46,18.6862915 43.3137085,16 40,16 Z" id="Combined-Shape" fill="#30B253"></path>
            </g>
        </g>
    </g>
</svg>
