<?xml version="1.0" encoding="UTF-8"?>
<svg width="20px" height="20px" viewBox="0 0 20 20" version="1.1" xmlns="http://www.w3.org/2000/svg" xmlns:xlink="http://www.w3.org/1999/xlink">
    <!-- Generator: Sketch 61.2 (89653) - https://sketch.com -->
    <title>Group 7</title>
    <desc>Created with Sketch.</desc>
    <g id="dCube---FE,-Modeling,-Post-Filters" stroke="none" stroke-width="1" fill="none" fill-rule="evenodd">
        <g id="DEPLOY-MODEL---HOME" transform="translate(-173.000000, -1278.000000)" fill="currentColor">
            <g id="Group-7" transform="translate(173.000000, 1278.000000)">
                <path d="M-3.69482223e-13,15.9689922 L4.96124031,10.5426357 C4.18604651,6.04651163 6.35658915,2.79069767 9.6124031,0 C12.8682171,2.79069767 15.0387597,6.04651163 14.2635659,10.5426357 L19.2248062,15.9689922 L19.2248062,17.5193798 L13.6434109,17.6744186 L13.6434109,18.7596899 L11.9379845,18.7596899 L9.6124031,20 L7.28682171,18.7596899 L5.58139535,18.7596899 L5.58139535,17.6744186 L-3.69482223e-13,17.5193798 L-3.69482223e-13,15.9689922 Z M9.6124031,4.49612403 C10.6976744,4.49612403 11.627907,5.42635659 11.627907,6.51162791 C11.627907,7.59689922 10.6976744,8.52713178 9.6124031,8.52713178 C8.52713178,8.52713178 7.59689922,7.59689922 7.59689922,6.51162791 C7.59689922,5.42635659 8.52713178,4.49612403 9.6124031,4.49612403 Z" id="Shape"></path>
                <path d="M9.50387597,5.11627907 C10.3393626,5.11627907 11.0077519,5.75710594 11.0077519,6.55813953 C11.0077519,7.35917313 10.3393626,8 9.50387597,8 C8.66838932,8 8,7.35917313 8,6.55813953 C8,5.75710594 8.66838932,5.11627907 9.50387597,5.11627907 Z" id="Shape"></path>
            </g>
        </g>
    </g>
</svg>
