<?xml version="1.0" encoding="UTF-8"?>
<svg width="44px" height="40px" viewBox="0 0 44 40" version="1.1" xmlns="http://www.w3.org/2000/svg" xmlns:xlink="http://www.w3.org/1999/xlink">
    <!-- Generator: Sketch 60 (88103) - https://sketch.com -->
    <title>icons8-spam</title>
    <desc>Created with Sketch.</desc>
    <g id="Feature-Platform" stroke="none" stroke-width="1" fill="none" fill-rule="evenodd">
        <g id="NEW-DASHBOARD-V3" transform="translate(-688.000000, -986.000000)" fill-rule="nonzero">
            <g id="icons8-spam" transform="translate(688.000000, 986.000000)">
                <path d="M10.1713333,37.3266667 L1.46666667,21.1933333 C0.997277777,20.3237427 0.997277777,19.2762573 1.46666667,18.4066667 L10.1566667,2.27333333 C10.6712352,1.32001024 11.6693494,0.727908622 12.7526667,0.733296375 L31.2473333,0.733296375 C32.3253941,0.733296375 33.3165878,1.32465514 33.8286667,2.27333333 L42.5333333,18.4066667 C43.0000878,19.2743219 43.0000878,20.3183448 42.5333333,21.186 L33.8433333,37.3193333 C33.3307253,38.275493 32.3322262,38.8706436 31.2473333,38.8666865 L12.7526667,38.8666865 C11.6746059,38.8666865 10.6834122,38.2753449 10.1713333,37.3266667 Z" id="Path"></path>
                <path d="M2.816,19.0666667 C2.30821765,19.0579102 1.83204266,19.3124663 1.55726374,19.7395683 C1.28248481,20.1666703 1.2482123,20.7055272 1.46666667,21.164 L1.46666667,21.164 L10.1566667,37.2973333 C10.6633525,38.2620096 11.6630196,38.8663281 12.7526667,38.8666667 L31.2473333,38.8666667 C32.3253941,38.8666667 33.3165878,38.2753449 33.8286667,37.3266667 L42.5333333,21.1933333 L42.5333333,21.1933333 C42.7658728,20.7323309 42.7388766,20.1830134 42.462255,19.7470336 C42.1856333,19.3110539 41.7001407,19.0526445 41.184,19.0666667 L2.816,19.0666667 Z" id="Path"></path>
                <path d="M15.4,34.4666667 L14.7986667,34.4666667 C14.2699807,34.4713994 13.7796657,34.1912194 13.5153333,33.7333333 L6.25533333,20.5333333 C6.01264101,20.0927671 6.01264101,19.5585663 6.25533333,19.118 L13.5153333,5.918 C13.7796657,5.46011394 14.2699807,5.17993396 14.7986667,5.1844939 L29.2013333,5.1844939 C29.7300193,5.17993396 30.2203343,5.46011394 30.4846667,5.918 C35.4864616,15.3678447 37.9064616,20.2396225 37.7446667,20.5333333 L30.4846667,33.7333333 C30.2203343,34.1912194 29.7300193,34.4713994 29.2013333,34.4666667 L28.6,34.4666667" id="Path"></path>
                <path d="M22,33 C21.5949912,33 21.2666667,33.3283245 21.2666667,33.7333333 L21.2666667,35.2 C21.2666667,35.6050088 21.5949912,35.9333333 22,35.9333333 C22.4050088,35.9333333 22.7333333,35.6050088 22.7333333,35.2 L22.7333333,33.7333333 C22.7333333,33.3283245 22.4050088,33 22,33 Z M25.6666667,33 C25.2616579,33 24.9333333,33.3283245 24.9333333,33.7333333 L24.9333333,35.2 C24.9333333,35.6050088 25.2616579,35.9333333 25.6666667,35.9333333 C26.0716755,35.9333333 26.4,35.6050088 26.4,35.2 L26.4,33.7333333 C26.4,33.3283245 26.0716755,33 25.6666667,33 Z M18.3333333,33 C17.9283245,33 17.6,33.3283245 17.6,33.7333333 L17.6,35.2 C17.6,35.6050088 17.9283245,35.9333333 18.3333333,35.9333333 C18.7383421,35.9333333 19.0666667,35.6050088 19.0666667,35.2 L19.0666667,33.7333333 C19.0666667,33.3283245 18.7383421,33 18.3333333,33 Z" id="Shape" fill="#007FEE"></path>
                <path d="M22,23.4666667 C22.4050088,23.4666667 22.7333333,23.1383421 22.7333333,22.7333333 L22.7333333,21.648 L23.3786667,13.2586667 C23.4086885,12.8652481 23.2731221,12.477156 23.0046667,12.188 C22.7960693,11.9676449 22.5199524,11.8231351 22.22,11.7773333 C22.1493576,11.7514692 22.0751561,11.7366289 22,11.7333333 C21.9415461,11.7262678 21.8824539,11.7262678 21.824,11.7333333 C21.4843957,11.7574196 21.1657138,11.906312 20.9293333,12.1513333 C20.6608779,12.4404893 20.5253115,12.8285814 20.5553333,13.222 L21.23,22.022 L21.23,22.022 L21.23,22.7333333 C21.2297486,22.9343483 21.312023,23.126654 21.4575856,23.2652851 C21.6031483,23.4039162 21.7992364,23.4767176 22,23.4666667 Z M22.0293333,24.9333333 C21.2193157,24.9333333 20.5626667,25.5899824 20.5626667,26.4 C20.5626667,27.2100176 21.2193157,27.8666667 22.0293333,27.8666667 C22.839351,27.8666667 23.496,27.2100176 23.496,26.4 C23.496,25.5899824 22.839351,24.9333333 22.0293333,24.9333333 Z" id="Shape" fill="#30B253"></path>
                <path d="M43.164,18.062 L34.4666667,1.92866667 C33.8287932,0.743712479 32.5930626,0.00340007893 31.2473333,0 L12.7526667,0 C11.4069374,0.00340007893 10.1712068,0.743712479 9.53333333,1.92866667 L0.850666667,18.062 C0.266565901,19.1470532 0.266565901,20.4529468 0.850666667,21.538 L9.53333333,37.6713333 C10.1712068,38.8562875 11.4069374,39.5965999 12.7526667,39.6 L31.2473333,39.6 C32.5930626,39.5965999 33.8287932,38.8562875 34.4666667,37.6713333 L43.1493333,21.538 C43.7380183,20.4554128 43.7435284,19.1495163 43.164,18.062 Z M41.8733333,20.8413333 L33.1906667,36.9746667 C32.8063396,37.6899133 32.0592945,38.1353213 31.2473333,38.13334 L12.7526667,38.13334 C11.9433357,38.1326182 11.1997498,37.6875933 10.8166667,36.9746667 L2.12666667,20.8413333 C1.77725796,20.1910763 1.77725796,19.4089237 2.12666667,18.7586667 L10.8093333,2.62533333 C11.1936604,1.91008674 11.9407055,1.46467871 12.7526667,1.46666004 L31.2473333,1.46666004 C32.0566643,1.4673818 32.8002502,1.91240669 33.1833333,2.62533333 L41.8733333,18.7586667 C42.222742,19.4089237 42.222742,20.1910763 41.8733333,20.8413333 Z" id="Shape" fill="#007FEE"></path>
                <path d="M31.13,5.53666667 C30.7423587,4.83455084 30.0033504,4.39901364 29.2013333,4.39999666 L14.7986667,4.39999666 C13.9966496,4.39901364 13.2576413,4.83455084 12.87,5.53666667 L5.61,18.7366667 C5.24730655,19.3965588 5.24730655,20.1961079 5.61,20.856 L12.87,34.056 C13.2557142,34.7609481 13.9950953,35.1995163 14.7986667,35.2 L15.4,35.2 C15.8050088,35.2 16.1333333,34.8716755 16.1333333,34.4666667 C16.1333333,34.0616579 15.8050088,33.7333333 15.4,33.7333333 L14.7986667,33.7333333 C14.5299338,33.7340668 14.2823246,33.5877523 14.1533333,33.352 L6.89333333,20.152 C6.76233595,19.9251059 6.76233595,19.6455608 6.89333333,19.4186667 L14.1533333,6.21866667 C14.2823246,5.98291434 14.5299338,5.83659983 14.7986667,5.83733333 L29.2013333,5.83733333 C29.4700662,5.83659983 29.7176754,5.98291434 29.8466667,6.21866667 C34.5993351,14.8674039 37.0193351,19.2674039 37.1066667,19.4186667 C37.237664,19.6455608 37.237664,19.9251059 37.1066667,20.152 L29.8466667,33.352 C29.7176754,33.5877523 29.4700662,33.7340668 29.2013333,33.7333333 L28.6,33.7333333 C28.1949912,33.7333333 27.8666667,34.0616579 27.8666667,34.4666667 C27.8666667,34.8716755 28.1949912,35.2 28.6,35.2 L29.2013333,35.2 C30.0033504,35.2009864 30.7423587,34.7654492 31.13,34.0633333 L38.39,20.8633333 C38.7526934,20.2034412 38.7526934,19.4038921 38.39,18.744 L31.13,5.53666667 Z" id="Path" fill="#007FEE"></path>
            </g>
        </g>
    </g>
</svg>
