<?xml version="1.0" encoding="UTF-8"?>
<svg width="16px" height="16px" viewBox="0 0 16 16" version="1.1" xmlns="http://www.w3.org/2000/svg" xmlns:xlink="http://www.w3.org/1999/xlink">
    <!-- Generator: Sketch 61.2 (89653) - https://sketch.com -->
    <title>Total Features 2</title>
    <desc>Created with Sketch.</desc>
    <g id="Feature-Platform" stroke="none" stroke-width="1" fill="none" fill-rule="evenodd">
        <g id="INSTANTIATE-PACKAGE---GENERATE-FEATURES" transform="translate(-197.000000, -447.000000)" fill="#30CD9A" fill-rule="nonzero">
            <g id="Total-Features-2" transform="translate(197.000000, 447.000000)">
                <g id="Total-Features">
                    <polygon id="Path" points="7.52941244 7.52940978 7.52941244 7.33634667 7.34117707 7.52940978"></polygon>
                    <polygon id="Path" points="6.96470649 7.52940978 7.52941244 6.950224 7.52941244 6.75716267 6.77647129 7.52940978"></polygon>
                    <polygon id="Path" points="6.40000053 7.52940978 7.52941244 6.37103822 7.52941244 6.17797689 6.21176533 7.52940978"></polygon>
                    <polygon id="Path" points="5.83529476 7.52940978 7.52941244 5.79185422 7.52941244 5.59879111 5.64705902 7.52940978"></polygon>
                    <polygon id="Path" points="5.27058844 7.52940978 7.52941244 5.21266844 7.52941244 5.01960533 5.08235307 7.52940978"></polygon>
                    <polygon id="Path" points="4.70588249 7.52940978 7.52941244 4.63348267 7.52941244 4.44041956 4.51764729 7.52940978"></polygon>
                    <polygon id="Path" points="4.14117653 7.52940978 7.52941244 4.05429689 7.52941244 3.86123556 3.95294133 7.52940978"></polygon>
                    <polygon id="Path" points="3.57647076 7.52940978 7.52941244 3.47511111 7.52941244 3.28204978 3.38823538 7.52940978"></polygon>
                    <polygon id="Path" points="3.0117648 7.52940978 7.52941244 2.89592711 7.52941244 2.702864 2.8235296 7.52940978"></polygon>
                    <polygon id="Path" points="2.44705884 7.52940978 7.52941244 2.31674133 7.52941244 2.12368 2.25882364 7.52940978"></polygon>
                    <polygon id="Path" points="1.88235307 7.52940978 7.52941244 1.73755556 7.52941244 1.54449422 1.69411769 7.52940978"></polygon>
                    <polygon id="Path" points="1.31764711 7.52940978 7.52941244 1.15836978 7.52941244 0.965308444 1.12941173 7.52940978"></polygon>
                    <polygon id="Path" points="0.752941156 7.52940978 7.52941244 0.579184 7.52941244 0.386122667 0.564705956 7.52940978"></polygon>
                    <polygon id="Path" points="0.188235378 7.52940978 7.52941244 0 7.34117707 0 0 7.52940978"></polygon>
                    <polygon id="Path" points="0 7.14328533 6.96470649 0 6.77647129 0 0 6.950224"></polygon>
                    <polygon id="Path" points="0 6.56410133 6.40000053 0 6.21176533 0 0 6.37103822"></polygon>
                    <polygon id="Path" points="0 5.98491556 5.83529476 0 5.64705902 0 0 5.79185422"></polygon>
                    <polygon id="Path" points="0 5.40572978 5.27058844 0 5.08235307 0 0 5.21266844"></polygon>
                    <polygon id="Path" points="0 4.826544 4.70588249 0 4.51764729 0 0 4.63348267"></polygon>
                    <polygon id="Path" points="0 4.24735822 4.14117653 0 3.95294133 0 0 4.05429689"></polygon>
                    <polygon id="Path" points="0 3.66817244 3.57647076 0 3.38823538 0 0 3.47511111"></polygon>
                    <polygon id="Path" points="0 3.08898844 3.0117648 0 2.8235296 0 0 2.89592711"></polygon>
                    <polygon id="Path" points="0 2.50980267 2.44705884 0 2.25882364 0 0 2.31674133"></polygon>
                    <polygon id="Path" points="0 1.93061867 1.88235307 0 1.69411769 0 0 1.73755556"></polygon>
                    <polygon id="Path" points="0 1.35143289 1.31764711 0 1.12941173 0 0 1.15836978"></polygon>
                    <polygon id="Path" points="0 0.772247111 0.752941156 0 0.564705956 0 0 0.579184"></polygon>
                    <polygon id="Path" points="0 0.193061333 0.188235378 0 0 0"></polygon>
                    <polygon id="Path" points="16.0000007 15.9999947 16.0000007 15.6029369 15.6117643 15.9999947"></polygon>
                    <polygon id="Path" points="15.4205874 15.9999947 16.0000007 15.4058773 16.0000007 15.01176 15.0352949 15.9999947"></polygon>
                    <polygon id="Path" points="14.8382354 15.9999947 16.0000007 14.81176 16.0000007 14.4176427 14.4529412 15.9999947 14.8382354 15.9999947"></polygon>
                    <polygon id="Path" points="14.2588238 15.9999947 16.0000007 14.2176427 16.0000007 13.8205849 13.8735296 15.9999947"></polygon>
                    <polygon id="Path" points="13.6794123 15.9999947 16.0000007 13.6235253 16.0000007 13.2264676 13.294118 15.9999947"></polygon>
                    <polygon id="Path" points="13.1029412 15.9999947 16.0000007 13.029408 16.0000007 12.6323484 12.7147065 15.9999947 13.1029412 15.9999947"></polygon>
                    <polygon id="Path" points="12.5235296 15.9999947 16.0000007 12.4323484 16.0000007 12.0382311 12.1352932 15.9999947"></polygon>
                    <polygon id="Path" points="11.944118 15.9999947 16.0000007 11.8382311 16.0000007 11.4441138 11.5558816 15.9999947"></polygon>
                    <polygon id="Path" points="11.3647065 15.9999947 16.0000007 11.2441138 16.0000007 10.8499964 10.97647 15.9999947 11.3647065 15.9999947"></polygon>
                    <polygon id="Path" points="10.7852939 15.9999947 16.0000007 10.6499964 16.0000007 10.2558791 10.3999998 15.9999947 10.7852939 15.9999947"></polygon>
                    <polygon id="Path" points="10.2058821 15.9999947 16.0000007 10.0588213 16.0000007 9.66176178 9.82058809 15.9999947"></polygon>
                    <polygon id="Path" points="9.6264704 15.9999947 16.0000007 9.46470222 16.0000007 9.064704 9.24117618 15.9999947"></polygon>
                    <polygon id="Path" points="9.04705867 15.9999947 16.0000007 8.87058489 16.0000007 8.47058489 8.66176444 15.9999947 9.04705867 15.9999947"></polygon>
                    <polygon id="Path" points="8.47058791 15.9970596 15.8088238 8.47059022 15.4205874 8.47059022 8.47058791 15.6029404"></polygon>
                    <polygon id="Path" points="8.47058791 15.4029422 15.2294123 8.47059022 14.8411758 8.47059022 8.47058791 15.0088231"></polygon>
                    <polygon id="Path" points="8.47058791 14.8117653 14.6500007 8.47059022 14.2617643 8.47059022 8.47058791 14.4147058 8.47058791 14.8117653"></polygon>
                    <polygon id="Path" points="8.47058791 14.217648 14.0705874 8.47059022 13.6823527 8.47059022 8.47058791 13.817648 8.47058791 14.217648"></polygon>
                    <polygon id="Path" points="8.47058791 13.6235307 13.4911758 8.47059022 13.1058816 8.47059022 8.47058791 13.2235307 8.47058791 13.6235307"></polygon>
                    <polygon id="Path" points="8.47058791 13.0294133 12.9117643 8.47059022 12.52647 8.47059022 8.47058791 12.6294133 8.47058791 13.0294133"></polygon>
                    <polygon id="Path" points="8.47058791 12.4323538 12.3323527 8.47059022 11.9470585 8.47059022 8.47058791 12.0382364 8.47058791 12.4323538"></polygon>
                    <polygon id="Path" points="8.47058791 11.8382364 11.7529412 8.47059022 11.3676469 8.47059022 8.47058791 11.4441191 8.47058791 11.8382364"></polygon>
                    <polygon id="Path" points="8.47058791 11.2441191 11.1735296 8.47059022 10.788235 8.47059022 8.47058791 10.8500018 8.47058791 11.2441191"></polygon>
                    <polygon id="Path" points="8.47058791 10.6500018 10.5941175 8.47059022 10.2088233 8.47059022 8.47058791 10.2558844"></polygon>
                    <polygon id="Path" points="8.47058791 10.0558844 10.0147056 8.47059022 9.62941156 8.47059022 8.47058791 9.66176711"></polygon>
                    <polygon id="Path" points="8.47058791 9.46176711 9.43529387 8.47059022 9.04999982 8.47059022 8.47058791 9.06470756"></polygon>
                    <polygon id="Path" points="8.47058791 8.86764978 8.85588213 8.47059022 8.47058791 8.47059022"></polygon>
                    <polygon id="Path" points="16.0000007 7.52940978 8.47058898 7.52940978 8.47058898 0 16.0000007 0"></polygon>
                    <polygon id="Path" points="7.52941138 16 0 16 0 8.47059022 7.52941138 8.47059022"></polygon>
                </g>
            </g>
        </g>
    </g>
</svg>