<?xml version="1.0" encoding="UTF-8"?>
<svg width="41px" height="41px" viewBox="0 0 41 41" version="1.1" xmlns="http://www.w3.org/2000/svg" xmlns:xlink="http://www.w3.org/1999/xlink">
    <!-- Generator: Sketch 60 (88103) - https://sketch.com -->
    <title>icons8-transaction-2</title>
    <desc>Created with Sketch.</desc>
    <g id="Feature-Platform" stroke="none" stroke-width="1" fill="none" fill-rule="evenodd">
        <g id="NEW-DASHBOARD-V3" transform="translate(-1634.000000, -989.000000)" fill-rule="nonzero">
            <g id="icons8-transaction-2" transform="translate(1634.000000, 989.000000)">
                <path d="M20.5,1.10810811 C9.79015384,1.10810811 1.10810811,9.79015384 1.10810811,20.5 C1.10810811,31.2098462 9.79015384,39.8918919 20.5,39.8918919 C31.2098462,39.8918919 39.8918919,31.2098462 39.8918919,20.5 C39.8918919,9.79015384 31.2098462,1.10810811 20.5,1.10810811 Z" id="Path"></path>
                <path d="M5.54054054,19.9459459 C5.54054054,27.9018317 11.9900602,34.3513514 19.9459459,34.3513514 C27.9018317,34.3513514 34.3513514,27.9018317 34.3513514,19.9459459 C34.3513514,11.9900602 27.9018317,5.54054054 19.9459459,5.54054054 C11.9900602,5.54054054 5.54054054,11.9900602 5.54054054,19.9459459 Z" id="Path"></path>
                <path d="M2.0519916,21.3591869 C2.42975283,21.3591869 2.73598881,21.0434424 2.73598881,20.6539518 C2.73598881,20.2644613 2.42975283,19.9487168 2.0519916,19.9487168 L0.683997202,19.9487168 C0.306235978,19.9487168 0,20.2644613 0,20.6539518 C0,21.0434424 0.306235978,21.3591869 0.683997202,21.3591869 L2.0519916,21.3591869 Z M3.11218727,24.3211739 C3.07446578,24.1376601 2.96738671,23.9772034 2.81463473,23.875295 C2.66188276,23.7733865 2.47604642,23.7384248 2.2982306,23.778143 L0.930236194,24.0743417 C0.55247499,24.1152382 0.278393814,24.4641358 0.318058741,24.8536264 C0.357723667,25.2431169 0.696114397,25.5257082 1.07387561,25.4848117 L1.21751502,25.4848117 L2.58550942,25.188613 C2.76947064,25.1502421 2.9300572,25.0356169 3.02964777,24.8715911 C3.12923834,24.7075654 3.15908205,24.5085517 3.11218727,24.3211739 L3.11218727,24.3211739 Z M4.21342276,27.826192 C4.14004248,27.6549703 4.00364992,27.5208529 3.83429531,27.4533888 C3.6649407,27.3859247 3.47652003,27.3906494 3.31054646,27.4665221 L2.0519916,28.0448148 C1.82839426,28.1468571 1.67458129,28.3641396 1.64849256,28.6148142 C1.62240382,28.8654888 1.72800282,29.1114719 1.92551143,29.2601042 C2.12302005,29.4087365 2.38243201,29.4374372 2.60602934,29.3353949 L3.85774422,28.7641545 C4.0267716,28.689882 4.15971004,28.5486178 4.2266153,28.3721814 C4.29352055,28.1957451 4.28876606,27.9989745 4.21342276,27.826192 Z M5.04789935,30.8587025 L3.93982388,31.6908799 C3.63383732,31.9206793 3.56646542,32.3627215 3.78934454,32.6782089 C4.01222365,32.9936962 4.44095399,33.06316 4.74694058,32.8333606 L5.85501605,32.0011833 C6.05295466,31.8525291 6.1589397,31.6062892 6.13304762,31.3552197 C6.10715554,31.1041503 5.95331997,30.8863947 5.72948927,30.7839794 C5.50565858,30.6815641 5.24583797,30.7100484 5.04789935,30.8587025 L5.04789935,30.8587025 Z M7.42820961,33.8065849 L6.51165336,34.8573851 C6.33030671,35.0408099 6.26249372,35.3127512 6.33554348,35.5636145 C6.40859325,35.8144779 6.61047106,36.0029344 6.85981873,36.0530348 C7.1091664,36.1031352 7.36490467,36.0066256 7.52396922,35.8024 L8.44736544,34.7586522 C8.61109246,34.5709448 8.66525746,34.3074366 8.58945701,34.0673886 C8.51365656,33.8273406 8.31940655,33.6472218 8.07987908,33.5948811 C7.84035161,33.5425405 7.59193661,33.6259299 7.42820961,33.8136373 L7.42820961,33.8065849 Z M11.2859538,35.92229 C11.1282762,35.8281093 10.9406677,35.8026936 10.7647455,35.8516807 C10.5888232,35.9006677 10.4391319,36.0200075 10.3488777,36.1832269 L9.66488046,37.4032835 C9.49497437,37.7381646 9.61130726,38.1516128 9.92865697,38.3407476 C10.2460067,38.5298825 10.6515492,38.4274629 10.8481956,38.1085185 L11.5321928,36.8884619 C11.6241042,36.7267454 11.6497961,36.5339566 11.6035943,36.3526738 C11.5573925,36.1713911 11.4430982,36.0165291 11.2859538,35.92229 Z M14.5554604,37.4244405 C14.1966094,37.3039924 13.8109471,37.5059667 13.693624,37.875791 L13.2695457,39.2157375 C13.1829886,39.4580804 13.2318272,39.7298212 13.3968555,39.9240964 C13.5618839,40.1183716 13.8167044,40.2041054 14.0611076,40.1475825 C14.3055108,40.0910596 14.5004024,39.9013213 14.5691404,39.6529832 L14.9932187,38.3130367 C15.1100395,37.9430435 14.9141476,37.5454065 14.5554604,37.4244405 Z M18.0506861,38.1860944 C17.8701668,38.1663543 17.6894408,38.2214119 17.5483163,38.3391398 C17.4071917,38.4568677 17.3172453,38.6276085 17.2982892,38.8137535 L17.1546498,40.2242236 C17.1355042,40.4103479 17.1889038,40.5966854 17.3030864,40.7421918 C17.4172689,40.8876982 17.582868,40.9804374 17.7634073,40.9999911 L17.838647,40.9999911 C18.1912326,41.0018039 18.4873896,40.7269865 18.5226442,40.3652706 L18.6662836,38.9548005 C18.7019854,38.5673161 18.4264676,38.2232727 18.0506861,38.1860944 L18.0506861,38.1860944 Z M0.957596082,17.2406144 L2.32559049,17.5368131 L2.4692299,17.5368131 C2.84699112,17.5777096 3.18538187,17.2951183 3.2250468,16.9056277 C3.26471172,16.5161372 2.99063053,16.1672396 2.61286931,16.126343 L1.24487491,15.8301443 C1.00050624,15.7772335 0.747322754,15.8627589 0.580696226,16.054504 C0.414069698,16.2462491 0.359314661,16.5150832 0.43705681,16.7597391 C0.514798958,17.0043949 0.713227409,17.1877036 0.957596082,17.2406144 L0.957596082,17.2406144 Z M2.0519916,13.2630889 L3.30370648,13.8343292 C3.649358,13.9920729 4.05358948,13.8310432 4.20658277,13.4746594 C4.35957606,13.1182755 4.20339572,12.7014928 3.85774422,12.5437492 L2.61970928,11.9795611 C2.3973338,11.8749993 2.13774719,11.9006997 1.93873322,12.0469812 C1.73971924,12.1932627 1.63151287,12.4379017 1.65487438,12.6887451 C1.67823589,12.9395884 1.82961612,13.158527 2.0519916,13.2630889 Z M28.7278825,9.03167877 C28.9071945,9.23585296 29.1853855,9.31370738 29.440213,9.2310313 C29.6950405,9.14835521 29.8798642,8.92028059 29.9134689,8.64702786 C29.9470735,8.37377513 29.8233087,8.10535697 29.5965589,7.95972154 C29.1474394,7.59296547 28.6793536,7.2516003 28.1943646,6.93713077 C27.8775498,6.76336239 27.4843525,6.87158011 27.2936757,7.18502289 C27.1029989,7.49846566 27.17968,7.91055085 27.4693276,8.12897795 C27.9039979,8.40677474 28.3241038,8.70809644 28.7278825,9.03167877 L28.7278825,9.03167877 Z M24.924858,6.80313612 C25.1533427,6.89258058 25.4107523,6.84955074 25.6001232,6.69025552 C25.789494,6.5309603 25.8820561,6.27960044 25.8429422,6.03086077 C25.8038283,5.78212109 25.6389807,5.57379108 25.410496,5.48434664 C22.7235846,4.43488232 19.8092272,4.16415342 16.9836505,4.70153577 C16.6058893,4.77164406 16.3547758,5.14422254 16.4227728,5.53371309 C16.4907698,5.92320363 16.8521283,6.1821141 17.2298895,6.1120058 C19.8079699,5.61365758 22.4691842,5.85267686 24.924858,6.80313612 L24.924858,6.80313612 Z" id="Shape" fill="#007FEE"></path>
                <path d="M20.5855104,0 C15.0115529,0 9.68115649,2.23996774 5.8370479,6.19758071 L5.8370479,0.688668975 C5.8370479,0.308357983 5.52261402,0 5.13474017,0 C4.74686632,0 4.43243243,0.308357983 4.43243243,0.688668975 L4.43243243,7.62989776 C4.43243243,8.01020875 4.74686632,8.31851173 5.13474017,8.31851173 L12.1578175,8.31851173 C12.5456914,8.31851173 12.8601253,8.01020875 12.8601253,7.62989776 C12.8601253,7.24958677 12.5456914,6.94128379 12.1578175,6.94128379 L7.05906337,6.94128379 C12.969736,1.04078222 22.1449476,-0.322149243 29.5728661,3.5969718 C37.0007847,7.51609284 40.8954303,15.7749471 39.1294069,23.8622499 C37.3633834,31.9495528 30.3613162,37.9207811 21.9479874,38.5142342 C21.5601135,38.5275451 21.2566849,38.8466386 21.2702604,39.2269496 C21.283836,39.6072606 21.6092751,39.904773 21.9971489,39.8914621 L22.0463105,39.8914621 C33.0021154,39.1441517 41.3807221,30.0144585 40.9866527,19.253244 C40.5925833,8.4920294 31.567765,-0.0249707546 20.5855104,0 Z" id="Path" fill="#007FEE"></path>
                <path d="M25.4864865,24.7108108 L25.4864865,23.3072072 C25.4864865,21.3692351 23.891825,19.7981982 21.9247104,19.7981982 L21.2123552,19.7981982 L21.2123552,15.5873874 C21.2123552,15.199793 20.8934229,14.8855856 20.5,14.8855856 C20.1065771,14.8855856 19.7876448,15.199793 19.7876448,15.5873874 L19.7876448,19.7981982 L19.0752896,19.7981982 C17.8950208,19.7981982 16.9382239,18.8555761 16.9382239,17.6927928 L16.9382239,16.2891892 C16.9382239,15.1264059 17.8950208,14.1837838 19.0752896,14.1837838 L21.9247104,14.1837838 C23.1049792,14.1837838 24.0617761,15.1264059 24.0617761,16.2891892 C24.0617761,16.6767836 24.3807084,16.990991 24.7741313,16.990991 C25.1675542,16.990991 25.4864865,16.6767836 25.4864865,16.2891892 C25.4864865,14.351217 23.891825,12.7801802 21.9247104,12.7801802 L21.2123552,12.7801802 L21.2123552,10.6747748 C21.2123552,10.2871803 20.8934229,9.97297297 20.5,9.97297297 C20.1065771,9.97297297 19.7876448,10.2871803 19.7876448,10.6747748 L19.7876448,12.7801802 L19.0752896,12.7801802 C17.108175,12.7801802 15.5135135,14.351217 15.5135135,16.2891892 L15.5135135,17.6927928 C15.5135135,19.630765 17.108175,21.2018018 19.0752896,21.2018018 L21.9247104,21.2018018 C23.1049792,21.2018018 24.0617761,22.1444239 24.0617761,23.3072072 L24.0617761,24.7108108 C24.0617761,25.8735941 23.1049792,26.8162162 21.9247104,26.8162162 L21.2123552,26.8162162 L21.2123552,22.6054054 C21.2123552,22.217811 20.8934229,21.9036036 20.5,21.9036036 C20.1065771,21.9036036 19.7876448,22.217811 19.7876448,22.6054054 L19.7876448,26.8162162 L19.0752896,26.8162162 C17.8950208,26.8162162 16.9382239,25.8735941 16.9382239,24.7108108 C16.9382239,24.3232164 16.6192916,24.009009 16.2258687,24.009009 C15.8324458,24.009009 15.5135135,24.3232164 15.5135135,24.7108108 C15.5135135,26.648783 17.108175,28.2198199 19.0752896,28.2198199 L19.7876448,28.2198199 L19.7876448,30.3252253 C19.7876448,30.7128197 20.1065771,31.027027 20.5,31.027027 C20.8934229,31.027027 21.2123552,30.7128197 21.2123552,30.3252253 L21.2123552,28.2198199 L21.9247104,28.2198199 C23.891825,28.2198199 25.4864865,26.648783 25.4864865,24.7108108 Z" id="Path" fill="#65D176"></path>
            </g>
        </g>
    </g>
</svg>
