<?xml version="1.0" encoding="UTF-8"?>
<svg width="54px" height="42px" viewBox="0 0 54 42" version="1.1" xmlns="http://www.w3.org/2000/svg" xmlns:xlink="http://www.w3.org/1999/xlink">
    <!-- Generator: Sketch 60 (88103) - https://sketch.com -->
    <title>Group 15</title>
    <desc>Created with Sketch.</desc>
    <g id="Feature-Platform" stroke="none" stroke-width="1" fill="none" fill-rule="evenodd">
        <g id="NEW-DASHBOARD-V3" transform="translate(-1491.000000, -665.000000)" fill-rule="nonzero">
            <g id="Group-15" transform="translate(1491.000000, 665.000000)">
                <g id="icons8-transaction-2" transform="translate(23.000000, 0.000000)">
                    <path d="M15.1125,0.858783784 C6.81236922,0.858783784 0.0837837838,7.58736922 0.0837837838,15.8875 C0.0837837838,24.1876308 6.81236922,30.9162162 15.1125,30.9162162 C23.4126308,30.9162162 30.1412162,24.1876308 30.1412162,15.8875 C30.1412162,7.58736922 23.4126308,0.858783784 15.1125,0.858783784 Z" id="Path"></path>
                    <path d="M21.4891089,6.99955105 C21.6280757,7.15778604 21.8436738,7.21812322 22.0411651,7.15404925 C22.2386564,7.08997529 22.3818948,6.91321746 22.4079384,6.70144659 C22.433982,6.48967572 22.3380642,6.28165165 22.1623332,6.1687842 C21.8142656,5.88454824 21.451499,5.61999024 21.0756326,5.37627635 C20.8301011,5.24160585 20.5253732,5.32547459 20.3775987,5.56839274 C20.2298242,5.81131089 20.289252,6.13067691 20.5137289,6.29995791 C20.8505984,6.51525042 21.1761804,6.74877474 21.4891089,6.99955105 L21.4891089,6.99955105 Z M18.541765,5.27243049 C18.7188406,5.34174995 18.9183331,5.30840182 19.0650955,5.18494803 C19.2118578,5.06149423 19.2835934,4.86669034 19.2532802,4.67391709 C19.2229669,4.48114385 19.0952101,4.31968809 18.9181344,4.25036864 C16.8357781,3.4370338 14.5771511,3.2272189 12.3873291,3.64369022 C12.0945642,3.69802415 11.8999512,3.98677247 11.9526489,4.28862764 C12.0053466,4.59048281 12.2853994,4.79113843 12.5781644,4.7368045 C14.5761767,4.35058462 16.6386177,4.53582457 18.541765,5.27243049 L18.541765,5.27243049 Z" id="Shape" fill="currentColor"></path>
                    <path d="M15.1787705,0 C10.8589535,0 6.72789628,1.735975 3.74871213,4.80312505 L3.74871213,0.533718456 C3.74871213,0.238977437 3.50502587,0 3.20442363,0 C2.9038214,0 2.66013514,0.238977437 2.66013514,0.533718456 L2.66013514,5.91317076 C2.66013514,6.20791178 2.9038214,6.44684659 3.20442363,6.44684659 L8.64730859,6.44684659 C8.94791082,6.44684659 9.19159708,6.20791178 9.19159708,5.91317076 C9.19159708,5.61842975 8.94791082,5.37949494 8.64730859,5.37949494 L4.69577411,5.37949494 C9.27654539,0.806606224 16.3873344,-0.249665664 22.1439713,2.78765314 C27.9006081,5.82497195 30.9189585,12.225584 29.5502903,18.4932437 C28.1816222,24.7609034 22.7550201,29.3886053 16.2346902,29.8485315 C15.934088,29.8588474 15.6989308,30.106145 15.7094518,30.400886 C15.7199729,30.695627 15.9721882,30.926199 16.2727904,30.9158831 L16.3108906,30.9158831 C24.8016395,30.3367175 31.2950597,23.2612054 30.9896559,14.9212641 C30.6842521,6.58132278 23.6900179,-0.0193523348 15.1787705,0 Z" id="Path" fill="currentColor"></path>
                </g>
                <g id="icons8-transfer-2" transform="translate(0.000000, 4.000000)" fill="currentColor">
                    <path d="M2.16,0 C0.972,0 0,0.972 0,2.16 L0,20.88 C0,22.068 0.972,23.04 2.16,23.04 L12.96,23.04 L12.96,35.28 C12.96,36.468 13.932,37.44 15.12,37.44 L33.84,37.44 C35.028,37.44 36,36.468 36,35.28 L36,16.56 C36,15.372 35.028,14.4 33.84,14.4 L23.04,14.4 L23.04,2.16 C23.04,0.972 22.068,0 20.88,0 L2.16,0 Z M2.16,1.44 L20.88,1.44 C21.276,1.44 21.6,1.764 21.6,2.16 L21.6,20.88 C21.6,21.276 21.276,21.6 20.88,21.6 L2.16,21.6 C1.764,21.6 1.44,21.276 1.44,20.88 L1.44,2.16 C1.44,1.764 1.764,1.44 2.16,1.44 Z M3.6,3.6 C3.20256,3.6 2.88,3.92256 2.88,4.32 C2.88,4.71744 3.20256,5.04 3.6,5.04 L5.04,5.04 C5.43744,5.04 5.76,4.71744 5.76,4.32 C5.76,3.92256 5.43744,3.6 5.04,3.6 L3.6,3.6 Z M3.6,7.2 C3.20256,7.2 2.88,7.52256 2.88,7.92 C2.88,8.31744 3.20256,8.64 3.6,8.64 L5.04,8.64 C5.43744,8.64 5.76,8.31744 5.76,7.92 C5.76,7.52256 5.43744,7.2 5.04,7.2 L3.6,7.2 Z M3.6,10.8 C3.20256,10.8 2.88,11.12256 2.88,11.52 C2.88,11.91744 3.20256,12.24 3.6,12.24 L5.04,12.24 C5.43744,12.24 5.76,11.91744 5.76,11.52 C5.76,11.12256 5.43744,10.8 5.04,10.8 L3.6,10.8 Z M3.6,14.4 C3.20256,14.4 2.88,14.72256 2.88,15.12 C2.88,15.51744 3.20256,15.84 3.6,15.84 L5.04,15.84 C5.43744,15.84 5.76,15.51744 5.76,15.12 C5.76,14.72256 5.43744,14.4 5.04,14.4 L3.6,14.4 Z M23.04,15.84 L33.84,15.84 C34.236,15.84 34.56,16.164 34.56,16.56 L34.56,35.28 C34.56,35.676 34.236,36 33.84,36 L15.12,36 C14.724,36 14.4,35.676 14.4,35.28 L14.4,23.04 L20.88,23.04 C22.068,23.04 23.04,22.068 23.04,20.88 L23.04,15.84 Z M3.6,18 C3.20256,18 2.88,18.32256 2.88,18.72 C2.88,19.11744 3.20256,19.44 3.6,19.44 L5.04,19.44 C5.43744,19.44 5.76,19.11744 5.76,18.72 C5.76,18.32256 5.43744,18 5.04,18 L3.6,18 Z" id="Shape"></path>
                </g>
            </g>
        </g>
    </g>
</svg>
